999
"DXF R12 Output" (www.mydxf.blogspot.com)
 0 
SECTION
 2 
HEADER
 9 
$ACADVER
 1 
AC1009
 9 
$EXTMIN
 10 
 0 
 20 
 0 
 9 
$EXTMAX
 10 
 8.5 
 20 
 11 
 0 
ENDSEC
 0 
SECTION
 2 
ENTITIES
0
LINE
8
Layer 1
10
0.793749
20
297.794000
11
-0.793749
21
296.206000
0
LINE
8
Layer 1
10
0.000000
20
298.323000
11
0.000000
21
295.677000
0
LINE
8
Layer 1
10
2.116660
20
295.942000
11
1.058330
21
294.883670
0
LINE
8
Layer 1
10
1.587500
20
296.471000
11
0.529170
21
295.412670
0
LINE
8
Layer 1
10
1.058330
20
297.000000
11
0.000000
21
295.941670
0
LINE
8
0
10
0.000000
20
0.000374
11
286.000000
21
0.000374
0
LINE
8
0
10
286.000000
20
0.000374
11
288.744022
21
0.271866
0
LINE
8
0
10
288.744022
20
0.271866
11
291.357574
21
1.066063
0
LINE
8
0
10
291.357574
20
1.066063
11
293.767215
21
2.352544
0
LINE
8
0
10
293.767215
20
2.352544
11
295.899504
21
4.100888
0
LINE
8
0
10
295.899504
20
4.100888
11
297.647845
21
6.233181
0
LINE
8
0
10
297.647845
20
6.233181
11
298.934321
21
8.642824
0
LINE
8
0
10
298.934321
20
8.642824
11
299.728513
21
11.256378
0
LINE
8
0
10
299.728513
20
11.256378
11
300.000000
21
14.000400
0
LINE
8
0
10
300.000000
20
14.000400
11
300.000000
21
386.000000
0
LINE
8
0
10
300.000000
20
386.000000
11
299.728508
21
388.744019
0
LINE
8
0
10
299.728508
20
388.744019
11
298.934313
21
391.357568
0
LINE
8
0
10
298.934313
20
391.357568
11
297.647836
21
393.767207
0
LINE
8
0
10
297.647836
20
393.767207
11
295.899495
21
395.899495
0
LINE
8
0
10
295.899495
20
395.899495
11
293.767207
21
397.647836
0
LINE
8
0
10
293.767207
20
397.647836
11
291.357568
21
398.934313
0
LINE
8
0
10
291.357568
20
398.934313
11
288.744019
21
399.728508
0
LINE
8
0
10
288.744019
20
399.728508
11
286.000000
21
400.000000
0
LINE
8
0
10
286.000000
20
400.000000
11
0.000000
21
400.000000
0
LINE
8
0
10
0.000000
20
400.000000
11
0.000000
21
0.000374
0
LINE
8
0
10
0.000000
20
0.000374
11
0.000000
21
0.000374
0
LINE
8
0
10
147.000000
20
250.000000
11
153.000000
21
250.000000
0
LINE
8
0
10
153.000000
20
250.000000
11
153.000000
21
150.000000
0
LINE
8
0
10
153.000000
20
150.000000
11
147.000000
21
150.000000
0
LINE
8
0
10
147.000000
20
150.000000
11
147.000000
21
250.000000
0
LINE
8
0
10
147.000000
20
250.000000
11
147.000000
21
250.000000
0
LINE
8
0
10
358.354000
20
366.608000
11
442.354000
21
366.608000
0
LINE
8
0
10
442.354000
20
366.608000
11
443.922011
21
366.452864
0
LINE
8
0
10
443.922011
20
366.452864
11
445.415469
21
365.999039
0
LINE
8
0
10
445.415469
20
365.999039
11
446.792406
21
365.263909
0
LINE
8
0
10
446.792406
20
365.263909
11
448.010857
21
364.264857
0
LINE
8
0
10
448.010857
20
364.264857
11
449.009909
21
363.046406
0
LINE
8
0
10
449.009909
20
363.046406
11
449.745039
21
361.669469
0
LINE
8
0
10
449.745039
20
361.669469
11
450.198864
21
360.176011
0
LINE
8
0
10
450.198864
20
360.176011
11
450.354000
21
358.608000
0
LINE
8
0
10
450.354000
20
358.608000
11
450.354000
21
323.608000
0
LINE
8
0
10
450.354000
20
323.608000
11
450.198864
21
322.039989
0
LINE
8
0
10
450.198864
20
322.039989
11
449.745039
21
320.546531
0
LINE
8
0
10
449.745039
20
320.546531
11
449.009909
21
319.169594
0
LINE
8
0
10
449.009909
20
319.169594
11
448.010857
21
317.951143
0
LINE
8
0
10
448.010857
20
317.951143
11
446.792406
21
316.952091
0
LINE
8
0
10
446.792406
20
316.952091
11
445.415469
21
316.216961
0
LINE
8
0
10
445.415469
20
316.216961
11
443.922011
21
315.763136
0
LINE
8
0
10
443.922011
20
315.763136
11
442.354000
21
315.608000
0
LINE
8
0
10
442.354000
20
315.608000
11
358.354000
21
315.608000
0
LINE
8
0
10
358.354000
20
315.608000
11
356.785989
21
315.763136
0
LINE
8
0
10
356.785989
20
315.763136
11
355.292531
21
316.216961
0
LINE
8
0
10
355.292531
20
316.216961
11
353.915594
21
316.952091
0
LINE
8
0
10
353.915594
20
316.952091
11
352.697143
21
317.951143
0
LINE
8
0
10
352.697143
20
317.951143
11
351.698091
21
319.169594
0
LINE
8
0
10
351.698091
20
319.169594
11
350.962961
21
320.546531
0
LINE
8
0
10
350.962961
20
320.546531
11
350.509136
21
322.039989
0
LINE
8
0
10
350.509136
20
322.039989
11
350.354000
21
323.608000
0
LINE
8
0
10
350.354000
20
323.608000
11
350.354000
21
358.608000
0
LINE
8
0
10
350.354000
20
358.608000
11
350.509136
21
360.176011
0
LINE
8
0
10
350.509136
20
360.176011
11
350.962961
21
361.669469
0
LINE
8
0
10
350.962961
20
361.669469
11
351.698091
21
363.046406
0
LINE
8
0
10
351.698091
20
363.046406
11
352.697143
21
364.264857
0
LINE
8
0
10
352.697143
20
364.264857
11
353.915594
21
365.263909
0
LINE
8
0
10
353.915594
20
365.263909
11
355.292531
21
365.999039
0
LINE
8
0
10
355.292531
20
365.999039
11
356.785989
21
366.452864
0
LINE
8
0
10
356.785989
20
366.452864
11
358.354000
21
366.608000
0
LINE
8
0
10
358.354000
20
366.608000
11
358.354000
21
366.608000
0
LINE
8
0
10
360.354000
20
333.608000
11
380.354000
21
333.608000
0
LINE
8
0
10
380.354000
20
333.608000
11
380.354000
21
339.608000
0
LINE
8
0
10
380.354000
20
339.608000
11
360.354000
21
339.608000
0
LINE
8
0
10
360.354000
20
339.608000
11
360.354000
21
333.608000
0
LINE
8
0
10
360.354000
20
333.608000
11
360.354000
21
333.608000
0
LINE
8
0
10
360.354000
20
327.608000
11
380.354000
21
327.608000
0
LINE
8
0
10
380.354000
20
327.608000
11
380.354000
21
321.608000
0
LINE
8
0
10
380.354000
20
321.608000
11
360.354000
21
321.608000
0
LINE
8
0
10
360.354000
20
321.608000
11
360.354000
21
327.608000
0
LINE
8
0
10
360.354000
20
327.608000
11
360.354000
21
327.608000
0
LINE
8
0
10
440.354000
20
333.608000
11
420.354000
21
333.608000
0
LINE
8
0
10
420.354000
20
333.608000
11
420.354000
21
339.608000
0
LINE
8
0
10
420.354000
20
339.608000
11
440.354000
21
339.608000
0
LINE
8
0
10
440.354000
20
339.608000
11
440.354000
21
333.608000
0
LINE
8
0
10
440.354000
20
333.608000
11
440.354000
21
333.608000
0
LINE
8
0
10
440.354000
20
327.608000
11
420.354000
21
327.608000
0
LINE
8
0
10
420.354000
20
327.608000
11
420.354000
21
321.608000
0
LINE
8
0
10
420.354000
20
321.608000
11
440.354000
21
321.608000
0
LINE
8
0
10
440.354000
20
321.608000
11
440.354000
21
327.608000
0
LINE
8
0
10
440.354000
20
327.608000
11
440.354000
21
327.608000
0
LINE
8
0
10
364.354000
20
360.608000
11
436.354000
21
360.608000
0
LINE
8
0
10
436.354000
20
360.608000
11
437.138006
21
360.530433
0
LINE
8
0
10
437.138006
20
360.530433
11
437.884735
21
360.303521
0
LINE
8
0
10
437.884735
20
360.303521
11
438.573204
21
359.935956
0
LINE
8
0
10
438.573204
20
359.935956
11
439.182430
21
359.436430
0
LINE
8
0
10
439.182430
20
359.436430
11
439.681956
21
358.827204
0
LINE
8
0
10
439.681956
20
358.827204
11
440.049521
21
358.138735
0
LINE
8
0
10
440.049521
20
358.138735
11
440.276433
21
357.392006
0
LINE
8
0
10
440.276433
20
357.392006
11
440.354000
21
356.608000
0
LINE
8
0
10
440.354000
20
356.608000
11
440.354000
21
349.608000
0
LINE
8
0
10
440.354000
20
349.608000
11
440.276433
21
348.823994
0
LINE
8
0
10
440.276433
20
348.823994
11
440.049521
21
348.077265
0
LINE
8
0
10
440.049521
20
348.077265
11
439.681956
21
347.388796
0
LINE
8
0
10
439.681956
20
347.388796
11
439.182430
21
346.779570
0
LINE
8
0
10
439.182430
20
346.779570
11
438.573204
21
346.280044
0
LINE
8
0
10
438.573204
20
346.280044
11
437.884735
21
345.912479
0
LINE
8
0
10
437.884735
20
345.912479
11
437.138006
21
345.685567
0
LINE
8
0
10
437.138006
20
345.685567
11
436.354000
21
345.608000
0
LINE
8
0
10
436.354000
20
345.608000
11
364.354000
21
345.608000
0
LINE
8
0
10
364.354000
20
345.608000
11
363.569994
21
345.685567
0
LINE
8
0
10
363.569994
20
345.685567
11
362.823265
21
345.912479
0
LINE
8
0
10
362.823265
20
345.912479
11
362.134796
21
346.280044
0
LINE
8
0
10
362.134796
20
346.280044
11
361.525570
21
346.779570
0
LINE
8
0
10
361.525570
20
346.779570
11
361.026044
21
347.388796
0
LINE
8
0
10
361.026044
20
347.388796
11
360.658479
21
348.077265
0
LINE
8
0
10
360.658479
20
348.077265
11
360.431567
21
348.823994
0
LINE
8
0
10
360.431567
20
348.823994
11
360.354000
21
349.608000
0
LINE
8
0
10
360.354000
20
349.608000
11
360.354000
21
356.608000
0
LINE
8
0
10
360.354000
20
356.608000
11
360.431567
21
357.392006
0
LINE
8
0
10
360.431567
20
357.392006
11
360.658479
21
358.138735
0
LINE
8
0
10
360.658479
20
358.138735
11
361.026044
21
358.827204
0
LINE
8
0
10
361.026044
20
358.827204
11
361.525570
21
359.436430
0
LINE
8
0
10
361.525570
20
359.436430
11
362.134796
21
359.935956
0
LINE
8
0
10
362.134796
20
359.935956
11
362.823265
21
360.303521
0
LINE
8
0
10
362.823265
20
360.303521
11
363.569994
21
360.530433
0
LINE
8
0
10
363.569994
20
360.530433
11
364.354000
21
360.608000
0
LINE
8
0
10
364.354000
20
360.608000
11
364.354000
21
360.608000
0
LINE
8
0
10
352.954000
20
281.752000
11
362.954000
21
281.752000
0
LINE
8
0
10
362.954000
20
281.752000
11
363.934007
21
281.655040
0
LINE
8
0
10
363.934007
20
281.655040
11
364.867419
21
281.371400
0
LINE
8
0
10
364.867419
20
281.371400
11
365.728005
21
280.911944
0
LINE
8
0
10
365.728005
20
280.911944
11
366.489537
21
280.287537
0
LINE
8
0
10
366.489537
20
280.287537
11
367.113944
21
279.526005
0
LINE
8
0
10
367.113944
20
279.526005
11
367.573400
21
278.665419
0
LINE
8
0
10
367.573400
20
278.665419
11
367.857040
21
277.732007
0
LINE
8
0
10
367.857040
20
277.732007
11
367.954000
21
276.752000
0
LINE
8
0
10
367.954000
20
276.752000
11
367.954000
21
246.752000
0
LINE
8
0
10
367.954000
20
246.752000
11
367.857040
21
245.771993
0
LINE
8
0
10
367.857040
20
245.771993
11
367.573400
21
244.838581
0
LINE
8
0
10
367.573400
20
244.838581
11
367.113944
21
243.977995
0
LINE
8
0
10
367.113944
20
243.977995
11
366.489537
21
243.216463
0
LINE
8
0
10
366.489537
20
243.216463
11
365.728005
21
242.592056
0
LINE
8
0
10
365.728005
20
242.592056
11
364.867419
21
242.132600
0
LINE
8
0
10
364.867419
20
242.132600
11
363.934007
21
241.848960
0
LINE
8
0
10
363.934007
20
241.848960
11
362.954000
21
241.752000
0
LINE
8
0
10
362.954000
20
241.752000
11
352.954000
21
241.752000
0
LINE
8
0
10
352.954000
20
241.752000
11
351.973993
21
241.848960
0
LINE
8
0
10
351.973993
20
241.848960
11
351.040581
21
242.132600
0
LINE
8
0
10
351.040581
20
242.132600
11
350.179995
21
242.592056
0
LINE
8
0
10
350.179995
20
242.592056
11
349.418463
21
243.216463
0
LINE
8
0
10
349.418463
20
243.216463
11
348.794056
21
243.977995
0
LINE
8
0
10
348.794056
20
243.977995
11
348.334600
21
244.838581
0
LINE
8
0
10
348.334600
20
244.838581
11
348.050960
21
245.771993
0
LINE
8
0
10
348.050960
20
245.771993
11
347.954000
21
246.752000
0
LINE
8
0
10
347.954000
20
246.752000
11
347.954000
21
276.752000
0
LINE
8
0
10
347.954000
20
276.752000
11
348.050960
21
277.732007
0
LINE
8
0
10
348.050960
20
277.732007
11
348.334600
21
278.665419
0
LINE
8
0
10
348.334600
20
278.665419
11
348.794056
21
279.526005
0
LINE
8
0
10
348.794056
20
279.526005
11
349.418463
21
280.287537
0
LINE
8
0
10
349.418463
20
280.287537
11
350.179995
21
280.911944
0
LINE
8
0
10
350.179995
20
280.911944
11
351.040581
21
281.371400
0
LINE
8
0
10
351.040581
20
281.371400
11
351.973993
21
281.655040
0
LINE
8
0
10
351.973993
20
281.655040
11
352.954000
21
281.752000
0
LINE
8
0
10
352.954000
20
281.752000
11
352.954000
21
281.752000
0
LINE
8
0
10
387.954000
20
241.752000
11
388.934007
21
241.848960
0
LINE
8
0
10
388.934007
20
241.848960
11
389.867419
21
242.132600
0
LINE
8
0
10
389.867419
20
242.132600
11
390.728005
21
242.592056
0
LINE
8
0
10
390.728005
20
242.592056
11
391.489537
21
243.216463
0
LINE
8
0
10
391.489537
20
243.216463
11
392.113944
21
243.977995
0
LINE
8
0
10
392.113944
20
243.977995
11
392.573400
21
244.838581
0
LINE
8
0
10
392.573400
20
244.838581
11
392.857040
21
245.771993
0
LINE
8
0
10
392.857040
20
245.771993
11
392.954000
21
246.752000
0
LINE
8
0
10
392.954000
20
246.752000
11
392.954000
21
276.752000
0
LINE
8
0
10
392.954000
20
276.752000
11
392.857040
21
277.732007
0
LINE
8
0
10
392.857040
20
277.732007
11
392.573400
21
278.665419
0
LINE
8
0
10
392.573400
20
278.665419
11
392.113944
21
279.526005
0
LINE
8
0
10
392.113944
20
279.526005
11
391.489537
21
280.287537
0
LINE
8
0
10
391.489537
20
280.287537
11
390.728005
21
280.911944
0
LINE
8
0
10
390.728005
20
280.911944
11
389.867419
21
281.371400
0
LINE
8
0
10
389.867419
20
281.371400
11
388.934007
21
281.655040
0
LINE
8
0
10
388.934007
20
281.655040
11
387.954000
21
281.752000
0
LINE
8
0
10
387.954000
20
281.752000
11
377.954000
21
281.752000
0
LINE
8
0
10
377.954000
20
281.752000
11
376.973993
21
281.655040
0
LINE
8
0
10
376.973993
20
281.655040
11
376.040581
21
281.371400
0
LINE
8
0
10
376.040581
20
281.371400
11
375.179995
21
280.911944
0
LINE
8
0
10
375.179995
20
280.911944
11
374.418463
21
280.287537
0
LINE
8
0
10
374.418463
20
280.287537
11
373.794056
21
279.526005
0
LINE
8
0
10
373.794056
20
279.526005
11
373.334600
21
278.665419
0
LINE
8
0
10
373.334600
20
278.665419
11
373.050960
21
277.732007
0
LINE
8
0
10
373.050960
20
277.732007
11
372.954000
21
276.752000
0
LINE
8
0
10
372.954000
20
276.752000
11
372.954000
21
246.752000
0
LINE
8
0
10
372.954000
20
246.752000
11
373.050960
21
245.771993
0
LINE
8
0
10
373.050960
20
245.771993
11
373.334600
21
244.838581
0
LINE
8
0
10
373.334600
20
244.838581
11
373.794056
21
243.977995
0
LINE
8
0
10
373.794056
20
243.977995
11
374.418463
21
243.216463
0
LINE
8
0
10
374.418463
20
243.216463
11
375.179995
21
242.592056
0
LINE
8
0
10
375.179995
20
242.592056
11
376.040581
21
242.132600
0
LINE
8
0
10
376.040581
20
242.132600
11
376.973993
21
241.848960
0
LINE
8
0
10
376.973993
20
241.848960
11
377.954000
21
241.752000
0
LINE
8
0
10
377.954000
20
241.752000
11
387.954000
21
241.752000
0
LINE
8
0
10
387.954000
20
241.752000
11
387.954000
21
241.752000
0
LINE
8
0
10
412.954000
20
241.752000
11
413.934007
21
241.848960
0
LINE
8
0
10
413.934007
20
241.848960
11
414.867419
21
242.132600
0
LINE
8
0
10
414.867419
20
242.132600
11
415.728005
21
242.592056
0
LINE
8
0
10
415.728005
20
242.592056
11
416.489537
21
243.216463
0
LINE
8
0
10
416.489537
20
243.216463
11
417.113944
21
243.977995
0
LINE
8
0
10
417.113944
20
243.977995
11
417.573400
21
244.838581
0
LINE
8
0
10
417.573400
20
244.838581
11
417.857040
21
245.771993
0
LINE
8
0
10
417.857040
20
245.771993
11
417.954000
21
246.752000
0
LINE
8
0
10
417.954000
20
246.752000
11
417.954000
21
276.752000
0
LINE
8
0
10
417.954000
20
276.752000
11
417.857040
21
277.732007
0
LINE
8
0
10
417.857040
20
277.732007
11
417.573400
21
278.665419
0
LINE
8
0
10
417.573400
20
278.665419
11
417.113944
21
279.526005
0
LINE
8
0
10
417.113944
20
279.526005
11
416.489537
21
280.287537
0
LINE
8
0
10
416.489537
20
280.287537
11
415.728005
21
280.911944
0
LINE
8
0
10
415.728005
20
280.911944
11
414.867419
21
281.371400
0
LINE
8
0
10
414.867419
20
281.371400
11
413.934007
21
281.655040
0
LINE
8
0
10
413.934007
20
281.655040
11
412.954000
21
281.752000
0
LINE
8
0
10
412.954000
20
281.752000
11
402.954000
21
281.752000
0
LINE
8
0
10
402.954000
20
281.752000
11
401.973993
21
281.655040
0
LINE
8
0
10
401.973993
20
281.655040
11
401.040581
21
281.371400
0
LINE
8
0
10
401.040581
20
281.371400
11
400.179995
21
280.911944
0
LINE
8
0
10
400.179995
20
280.911944
11
399.418463
21
280.287537
0
LINE
8
0
10
399.418463
20
280.287537
11
398.794056
21
279.526005
0
LINE
8
0
10
398.794056
20
279.526005
11
398.334600
21
278.665419
0
LINE
8
0
10
398.334600
20
278.665419
11
398.050960
21
277.732007
0
LINE
8
0
10
398.050960
20
277.732007
11
397.954000
21
276.752000
0
LINE
8
0
10
397.954000
20
276.752000
11
397.954000
21
246.752000
0
LINE
8
0
10
397.954000
20
246.752000
11
398.050960
21
245.771993
0
LINE
8
0
10
398.050960
20
245.771993
11
398.334600
21
244.838581
0
LINE
8
0
10
398.334600
20
244.838581
11
398.794056
21
243.977995
0
LINE
8
0
10
398.794056
20
243.977995
11
399.418463
21
243.216463
0
LINE
8
0
10
399.418463
20
243.216463
11
400.179995
21
242.592056
0
LINE
8
0
10
400.179995
20
242.592056
11
401.040581
21
242.132600
0
LINE
8
0
10
401.040581
20
242.132600
11
401.973993
21
241.848960
0
LINE
8
0
10
401.973993
20
241.848960
11
402.954000
21
241.752000
0
LINE
8
0
10
402.954000
20
241.752000
11
412.954000
21
241.752000
0
LINE
8
0
10
412.954000
20
241.752000
11
412.954000
21
241.752000
0
LINE
8
0
10
437.954000
20
241.752000
11
438.934007
21
241.848960
0
LINE
8
0
10
438.934007
20
241.848960
11
439.867419
21
242.132600
0
LINE
8
0
10
439.867419
20
242.132600
11
440.728005
21
242.592056
0
LINE
8
0
10
440.728005
20
242.592056
11
441.489537
21
243.216463
0
LINE
8
0
10
441.489537
20
243.216463
11
442.113944
21
243.977995
0
LINE
8
0
10
442.113944
20
243.977995
11
442.573400
21
244.838581
0
LINE
8
0
10
442.573400
20
244.838581
11
442.857040
21
245.771993
0
LINE
8
0
10
442.857040
20
245.771993
11
442.954000
21
246.752000
0
LINE
8
0
10
442.954000
20
246.752000
11
442.954000
21
276.752000
0
LINE
8
0
10
442.954000
20
276.752000
11
442.857040
21
277.732007
0
LINE
8
0
10
442.857040
20
277.732007
11
442.573400
21
278.665419
0
LINE
8
0
10
442.573400
20
278.665419
11
442.113944
21
279.526005
0
LINE
8
0
10
442.113944
20
279.526005
11
441.489537
21
280.287537
0
LINE
8
0
10
441.489537
20
280.287537
11
440.728005
21
280.911944
0
LINE
8
0
10
440.728005
20
280.911944
11
439.867419
21
281.371400
0
LINE
8
0
10
439.867419
20
281.371400
11
438.934007
21
281.655040
0
LINE
8
0
10
438.934007
20
281.655040
11
437.954000
21
281.752000
0
LINE
8
0
10
437.954000
20
281.752000
11
427.954000
21
281.752000
0
LINE
8
0
10
427.954000
20
281.752000
11
426.973993
21
281.655040
0
LINE
8
0
10
426.973993
20
281.655040
11
426.040581
21
281.371400
0
LINE
8
0
10
426.040581
20
281.371400
11
425.179995
21
280.911944
0
LINE
8
0
10
425.179995
20
280.911944
11
424.418463
21
280.287537
0
LINE
8
0
10
424.418463
20
280.287537
11
423.794056
21
279.526005
0
LINE
8
0
10
423.794056
20
279.526005
11
423.334600
21
278.665419
0
LINE
8
0
10
423.334600
20
278.665419
11
423.050960
21
277.732007
0
LINE
8
0
10
423.050960
20
277.732007
11
422.954000
21
276.752000
0
LINE
8
0
10
422.954000
20
276.752000
11
422.954000
21
246.752000
0
LINE
8
0
10
422.954000
20
246.752000
11
423.050960
21
245.771993
0
LINE
8
0
10
423.050960
20
245.771993
11
423.334600
21
244.838581
0
LINE
8
0
10
423.334600
20
244.838581
11
423.794056
21
243.977995
0
LINE
8
0
10
423.794056
20
243.977995
11
424.418463
21
243.216463
0
LINE
8
0
10
424.418463
20
243.216463
11
425.179995
21
242.592056
0
LINE
8
0
10
425.179995
20
242.592056
11
426.040581
21
242.132600
0
LINE
8
0
10
426.040581
20
242.132600
11
426.973993
21
241.848960
0
LINE
8
0
10
426.973993
20
241.848960
11
427.954000
21
241.752000
0
LINE
8
0
10
427.954000
20
241.752000
11
437.954000
21
241.752000
0
LINE
8
0
10
437.954000
20
241.752000
11
437.954000
21
241.752000
0
LINE
8
0
10
221.029000
20
200.000000
11
221.029000
21
350.000000
0
LINE
8
0
10
221.029000
20
200.000000
11
221.029000
21
50.000400
0
LINE
8
0
10
231.029000
20
200.000000
11
231.029000
21
320.000000
0
LINE
8
0
10
231.029000
20
200.000000
11
231.029000
21
80.000400
0
LINE
8
0
10
211.029000
20
200.000000
11
211.029000
21
320.000000
0
LINE
8
0
10
211.029000
20
200.000000
11
211.029000
21
80.000400
0
LINE
8
0
10
241.029000
20
200.000000
11
241.029000
21
350.000000
0
LINE
8
0
10
241.029000
20
200.000000
11
241.029000
21
50.000400
0
LINE
8
0
10
251.029000
20
200.000000
11
251.029000
21
80.000400
0
LINE
8
0
10
251.029000
20
200.000000
11
251.029000
21
320.000000
 0 
ENDSEC
 0 
EOF