999
"DXF R12 Output" (www.mydxf.blogspot.com)
 0 
SECTION
 2 
HEADER
 9 
$ACADVER
 1 
AC1009
 9 
$EXTMIN
 10 
 0 
 20 
 0 
 9 
$EXTMAX
 10 
 8.5 
 20 
 11 
 0 
ENDSEC
 0 
SECTION
 2 
ENTITIES
0
LINE
8
Layer 1
10
0.793749
20
297.794000
11
-0.793749
21
296.206000
0
LINE
8
Layer 1
10
0.000000
20
298.323000
11
0.000000
21
295.677000
0
LINE
8
Layer 1
10
2.116660
20
295.942000
11
1.058330
21
294.883670
0
LINE
8
Layer 1
10
1.587500
20
296.471000
11
0.529170
21
295.412670
0
LINE
8
Layer 1
10
1.058330
20
297.000000
11
0.000000
21
295.941670
0
LINE
8
Layer 1
10
0.000000
20
71.000300
11
0.000000
21
59.500200
0
LINE
8
Layer 1
10
0.000000
20
59.500200
11
3.999990
21
59.500200
0
LINE
8
Layer 1
10
3.999990
20
59.500200
11
3.999990
21
44.500200
0
LINE
8
Layer 1
10
3.999990
20
44.500200
11
0.000000
21
44.500200
0
LINE
8
Layer 1
10
0.000000
20
44.500200
11
0.000000
21
29.501300
0
LINE
8
Layer 1
10
0.000000
20
29.501300
11
3.999990
21
29.501300
0
LINE
8
Layer 1
10
3.999990
20
29.501300
11
3.999990
21
14.499400
0
LINE
8
Layer 1
10
3.999990
20
14.499400
11
0.000000
21
14.499400
0
LINE
8
Layer 1
10
0.000000
20
14.499400
11
0.000000
21
3.000660
0
LINE
8
Layer 1
10
0.000000
20
3.000660
11
11.500000
21
3.000660
0
LINE
8
Layer 1
10
11.500000
20
3.000660
11
11.500000
21
7.001160
0
LINE
8
Layer 1
10
11.500000
20
7.001160
11
26.499800
21
7.001160
0
LINE
8
Layer 1
10
26.499800
20
7.001160
11
26.499800
21
3.000660
0
LINE
8
Layer 1
10
26.499800
20
3.000660
11
41.499800
21
3.000660
0
LINE
8
Layer 1
10
41.499800
20
3.000660
11
41.499800
21
7.001160
0
LINE
8
Layer 1
10
41.499800
20
7.001160
11
56.499800
21
7.001160
0
LINE
8
Layer 1
10
56.499800
20
7.001160
11
56.499800
21
3.000660
0
LINE
8
Layer 1
10
56.499800
20
3.000660
11
67.999900
21
3.000660
0
LINE
8
Layer 1
10
67.999900
20
3.000660
11
67.999900
21
14.499400
0
LINE
8
Layer 1
10
67.999900
20
14.499400
11
64.000000
21
14.499400
0
LINE
8
Layer 1
10
64.000000
20
14.499400
11
64.000000
21
29.501300
0
LINE
8
Layer 1
10
64.000000
20
29.501300
11
67.999900
21
29.501300
0
LINE
8
Layer 1
10
67.999900
20
29.501300
11
67.999900
21
44.500200
0
LINE
8
Layer 1
10
67.999900
20
44.500200
11
64.000000
21
44.500200
0
LINE
8
Layer 1
10
64.000000
20
44.500200
11
64.000000
21
59.500200
0
LINE
8
Layer 1
10
64.000000
20
59.500200
11
67.999900
21
59.500200
0
LINE
8
Layer 1
10
67.999900
20
59.500200
11
67.999900
21
71.000300
0
LINE
8
Layer 1
10
67.999900
20
71.000300
11
56.499800
21
71.000300
0
LINE
8
Layer 1
10
56.499800
20
71.000300
11
56.499800
21
67.000400
0
LINE
8
Layer 1
10
56.499800
20
67.000400
11
41.499800
21
67.000400
0
LINE
8
Layer 1
10
41.499800
20
67.000400
11
41.499800
21
71.000300
0
LINE
8
Layer 1
10
41.499800
20
71.000300
11
26.499800
21
71.000300
0
LINE
8
Layer 1
10
26.499800
20
71.000300
11
26.499800
21
67.000400
0
LINE
8
Layer 1
10
26.499800
20
67.000400
11
11.500000
21
67.000400
0
LINE
8
Layer 1
10
11.500000
20
67.000400
11
11.500000
21
71.000300
0
LINE
8
Layer 1
10
11.500000
20
71.000300
11
0.000000
21
71.000300
0
LINE
8
left_outsideCutPath
10
75.000000
20
71.000300
11
75.000000
21
59.500200
0
LINE
8
left_outsideCutPath
10
75.000000
20
59.500200
11
70.999800
21
59.500200
0
LINE
8
left_outsideCutPath
10
70.999800
20
59.500200
11
70.999800
21
44.500200
0
LINE
8
left_outsideCutPath
10
70.999800
20
44.500200
11
75.000000
21
44.500200
0
LINE
8
left_outsideCutPath
10
75.000000
20
44.500200
11
75.000000
21
29.501300
0
LINE
8
left_outsideCutPath
10
75.000000
20
29.501300
11
70.999800
21
29.501300
0
LINE
8
left_outsideCutPath
10
70.999800
20
29.501300
11
70.999800
21
14.499400
0
LINE
8
left_outsideCutPath
10
70.999800
20
14.499400
11
75.000000
21
14.499400
0
LINE
8
left_outsideCutPath
10
75.000000
20
14.499400
11
75.000000
21
3.000660
0
LINE
8
left_outsideCutPath
10
75.000000
20
3.000660
11
82.499900
21
3.000660
0
LINE
8
left_outsideCutPath
10
82.499900
20
3.000660
11
82.499900
21
7.001160
0
LINE
8
left_outsideCutPath
10
82.499900
20
7.001160
11
97.499900
21
7.001160
0
LINE
8
left_outsideCutPath
10
97.499900
20
7.001160
11
97.499900
21
3.000660
0
LINE
8
left_outsideCutPath
10
97.499900
20
3.000660
11
112.500000
21
3.000660
0
LINE
8
left_outsideCutPath
10
112.500000
20
3.000660
11
112.500000
21
7.001160
0
LINE
8
left_outsideCutPath
10
112.500000
20
7.001160
11
127.500000
21
7.001160
0
LINE
8
left_outsideCutPath
10
127.500000
20
7.001160
11
127.500000
21
3.000660
0
LINE
8
left_outsideCutPath
10
127.500000
20
3.000660
11
135.000000
21
3.000660
0
LINE
8
left_outsideCutPath
10
135.000000
20
3.000660
11
135.000000
21
14.499400
0
LINE
8
left_outsideCutPath
10
135.000000
20
14.499400
11
139.000000
21
14.499400
0
LINE
8
left_outsideCutPath
10
139.000000
20
14.499400
11
139.000000
21
29.501300
0
LINE
8
left_outsideCutPath
10
139.000000
20
29.501300
11
135.000000
21
29.501300
0
LINE
8
left_outsideCutPath
10
135.000000
20
29.501300
11
135.000000
21
44.500200
0
LINE
8
left_outsideCutPath
10
135.000000
20
44.500200
11
139.000000
21
44.500200
0
LINE
8
left_outsideCutPath
10
139.000000
20
44.500200
11
139.000000
21
59.500200
0
LINE
8
left_outsideCutPath
10
139.000000
20
59.500200
11
135.000000
21
59.500200
0
LINE
8
left_outsideCutPath
10
135.000000
20
59.500200
11
135.000000
21
71.000300
0
LINE
8
left_outsideCutPath
10
135.000000
20
71.000300
11
127.500000
21
71.000300
0
LINE
8
left_outsideCutPath
10
127.500000
20
71.000300
11
127.500000
21
67.000400
0
LINE
8
left_outsideCutPath
10
127.500000
20
67.000400
11
112.500000
21
67.000400
0
LINE
8
left_outsideCutPath
10
112.500000
20
67.000400
11
112.500000
21
71.000300
0
LINE
8
left_outsideCutPath
10
112.500000
20
71.000300
11
97.499900
21
71.000300
0
LINE
8
left_outsideCutPath
10
97.499900
20
71.000300
11
97.499900
21
67.000400
0
LINE
8
left_outsideCutPath
10
97.499900
20
67.000400
11
82.499900
21
67.000400
0
LINE
8
left_outsideCutPath
10
82.499900
20
67.000400
11
82.499900
21
71.000300
0
LINE
8
left_outsideCutPath
10
82.499900
20
71.000300
11
75.000000
21
71.000300
0
LINE
8
top_outsideCutPath
10
146.000000
20
67.000400
11
146.000000
21
59.500200
0
LINE
8
top_outsideCutPath
10
146.000000
20
59.500200
11
142.000000
21
59.500200
0
LINE
8
top_outsideCutPath
10
142.000000
20
59.500200
11
142.000000
21
44.500200
0
LINE
8
top_outsideCutPath
10
142.000000
20
44.500200
11
146.000000
21
44.500200
0
LINE
8
top_outsideCutPath
10
146.000000
20
44.500200
11
146.000000
21
29.501300
0
LINE
8
top_outsideCutPath
10
146.000000
20
29.501300
11
142.000000
21
29.501300
0
LINE
8
top_outsideCutPath
10
142.000000
20
29.501300
11
142.000000
21
14.499400
0
LINE
8
top_outsideCutPath
10
142.000000
20
14.499400
11
146.000000
21
14.499400
0
LINE
8
top_outsideCutPath
10
146.000000
20
14.499400
11
146.000000
21
7.001160
0
LINE
8
top_outsideCutPath
10
146.000000
20
7.001160
11
153.500000
21
7.001160
0
LINE
8
top_outsideCutPath
10
153.500000
20
7.001160
11
153.500000
21
3.000660
0
LINE
8
top_outsideCutPath
10
153.500000
20
3.000660
11
168.500000
21
3.000660
0
LINE
8
top_outsideCutPath
10
168.500000
20
3.000660
11
168.500000
21
7.001160
0
LINE
8
top_outsideCutPath
10
168.500000
20
7.001160
11
183.500000
21
7.001160
0
LINE
8
top_outsideCutPath
10
183.500000
20
7.001160
11
183.500000
21
3.000660
0
LINE
8
top_outsideCutPath
10
183.500000
20
3.000660
11
198.500000
21
3.000660
0
LINE
8
top_outsideCutPath
10
198.500000
20
3.000660
11
198.500000
21
7.001160
0
LINE
8
top_outsideCutPath
10
198.500000
20
7.001160
11
206.000000
21
7.001160
0
LINE
8
top_outsideCutPath
10
206.000000
20
7.001160
11
206.000000
21
14.499400
0
LINE
8
top_outsideCutPath
10
206.000000
20
14.499400
11
210.000000
21
14.499400
0
LINE
8
top_outsideCutPath
10
210.000000
20
14.499400
11
210.000000
21
29.501300
0
LINE
8
top_outsideCutPath
10
210.000000
20
29.501300
11
206.000000
21
29.501300
0
LINE
8
top_outsideCutPath
10
206.000000
20
29.501300
11
206.000000
21
44.500200
0
LINE
8
top_outsideCutPath
10
206.000000
20
44.500200
11
210.000000
21
44.500200
0
LINE
8
top_outsideCutPath
10
210.000000
20
44.500200
11
210.000000
21
59.500200
0
LINE
8
top_outsideCutPath
10
210.000000
20
59.500200
11
206.000000
21
59.500200
0
LINE
8
top_outsideCutPath
10
206.000000
20
59.500200
11
206.000000
21
67.000400
0
LINE
8
top_outsideCutPath
10
206.000000
20
67.000400
11
198.500000
21
67.000400
0
LINE
8
top_outsideCutPath
10
198.500000
20
67.000400
11
198.500000
21
71.000300
0
LINE
8
top_outsideCutPath
10
198.500000
20
71.000300
11
183.500000
21
71.000300
0
LINE
8
top_outsideCutPath
10
183.500000
20
71.000300
11
183.500000
21
67.000400
0
LINE
8
top_outsideCutPath
10
183.500000
20
67.000400
11
168.500000
21
67.000400
0
LINE
8
top_outsideCutPath
10
168.500000
20
67.000400
11
168.500000
21
71.000300
0
LINE
8
top_outsideCutPath
10
168.500000
20
71.000300
11
153.500000
21
71.000300
0
LINE
8
top_outsideCutPath
10
153.500000
20
71.000300
11
153.500000
21
67.000400
0
LINE
8
top_outsideCutPath
10
153.500000
20
67.000400
11
146.000000
21
67.000400
0
LINE
8
back_outsideCutPath
10
0.000000
20
142.000000
11
0.000000
21
130.500000
0
LINE
8
back_outsideCutPath
10
0.000000
20
130.500000
11
3.999990
21
130.500000
0
LINE
8
back_outsideCutPath
10
3.999990
20
130.500000
11
3.999990
21
115.500000
0
LINE
8
back_outsideCutPath
10
3.999990
20
115.500000
11
0.000000
21
115.500000
0
LINE
8
back_outsideCutPath
10
0.000000
20
115.500000
11
0.000000
21
100.500000
0
LINE
8
back_outsideCutPath
10
0.000000
20
100.500000
11
3.999990
21
100.500000
0
LINE
8
back_outsideCutPath
10
3.999990
20
100.500000
11
3.999990
21
85.500300
0
LINE
8
back_outsideCutPath
10
3.999990
20
85.500300
11
0.000000
21
85.500300
0
LINE
8
back_outsideCutPath
10
0.000000
20
85.500300
11
0.000000
21
74.000200
0
LINE
8
back_outsideCutPath
10
0.000000
20
74.000200
11
11.500000
21
74.000200
0
LINE
8
back_outsideCutPath
10
11.500000
20
74.000200
11
11.500000
21
78.000200
0
LINE
8
back_outsideCutPath
10
11.500000
20
78.000200
11
26.499800
21
78.000200
0
LINE
8
back_outsideCutPath
10
26.499800
20
78.000200
11
26.499800
21
74.000200
0
LINE
8
back_outsideCutPath
10
26.499800
20
74.000200
11
41.499800
21
74.000200
0
LINE
8
back_outsideCutPath
10
41.499800
20
74.000200
11
41.499800
21
78.000200
0
LINE
8
back_outsideCutPath
10
41.499800
20
78.000200
11
56.499800
21
78.000200
0
LINE
8
back_outsideCutPath
10
56.499800
20
78.000200
11
56.499800
21
74.000200
0
LINE
8
back_outsideCutPath
10
56.499800
20
74.000200
11
67.999900
21
74.000200
0
LINE
8
back_outsideCutPath
10
67.999900
20
74.000200
11
67.999900
21
85.500300
0
LINE
8
back_outsideCutPath
10
67.999900
20
85.500300
11
64.000000
21
85.500300
0
LINE
8
back_outsideCutPath
10
64.000000
20
85.500300
11
64.000000
21
100.500000
0
LINE
8
back_outsideCutPath
10
64.000000
20
100.500000
11
67.999900
21
100.500000
0
LINE
8
back_outsideCutPath
10
67.999900
20
100.500000
11
67.999900
21
115.500000
0
LINE
8
back_outsideCutPath
10
67.999900
20
115.500000
11
64.000000
21
115.500000
0
LINE
8
back_outsideCutPath
10
64.000000
20
115.500000
11
64.000000
21
130.500000
0
LINE
8
back_outsideCutPath
10
64.000000
20
130.500000
11
67.999900
21
130.500000
0
LINE
8
back_outsideCutPath
10
67.999900
20
130.500000
11
67.999900
21
142.000000
0
LINE
8
back_outsideCutPath
10
67.999900
20
142.000000
11
56.499800
21
142.000000
0
LINE
8
back_outsideCutPath
10
56.499800
20
142.000000
11
56.499800
21
138.000000
0
LINE
8
back_outsideCutPath
10
56.499800
20
138.000000
11
41.499800
21
138.000000
0
LINE
8
back_outsideCutPath
10
41.499800
20
138.000000
11
41.499800
21
142.000000
0
LINE
8
back_outsideCutPath
10
41.499800
20
142.000000
11
26.499800
21
142.000000
0
LINE
8
back_outsideCutPath
10
26.499800
20
142.000000
11
26.499800
21
138.000000
0
LINE
8
back_outsideCutPath
10
26.499800
20
138.000000
11
11.500000
21
138.000000
0
LINE
8
back_outsideCutPath
10
11.500000
20
138.000000
11
11.500000
21
142.000000
0
LINE
8
back_outsideCutPath
10
11.500000
20
142.000000
11
0.000000
21
142.000000
0
LINE
8
back_outsideCutPath
10
19.050300
20
43.950200
11
48.949700
21
43.950200
0
LINE
8
back_outsideCutPath
10
48.949700
20
43.950200
11
48.949700
21
30.050800
0
LINE
8
back_outsideCutPath
10
48.949700
20
30.050800
11
19.050300
21
30.050800
0
LINE
8
back_outsideCutPath
10
19.050300
20
30.050800
11
19.050300
21
43.950200
0
LINE
8
Layer 1
10
11.507800
20
94.090800
11
11.507500
21
94.091100
0
LINE
8
Layer 1
10
11.507500
20
94.091100
11
11.657600
21
94.354200
0
LINE
8
Layer 1
10
11.657600
20
94.354200
11
11.826000
21
94.280200
0
LINE
8
Layer 1
10
11.826000
20
94.280200
11
11.816200
21
94.240500
0
LINE
8
Layer 1
10
11.816200
20
94.240500
11
11.910700
21
94.209900
0
LINE
8
Layer 1
10
11.910700
20
94.209900
11
12.504506
21
93.771597
0
LINE
8
Layer 1
10
12.504506
20
93.771597
11
12.937400
21
93.178775
0
LINE
8
Layer 1
10
12.937400
20
93.178775
11
13.162769
21
92.491716
0
LINE
8
Layer 1
10
13.162769
20
92.491716
11
13.134000
21
91.770700
0
LINE
8
Layer 1
10
13.134000
20
91.770700
11
13.123764
21
90.935334
0
LINE
8
Layer 1
10
13.123764
20
90.935334
11
13.308008
21
90.450010
0
LINE
8
Layer 1
10
13.308008
20
90.450010
11
13.925706
21
89.192860
0
LINE
8
Layer 1
10
13.925706
20
89.192860
11
13.918118
21
88.300573
0
LINE
8
Layer 1
10
13.918118
20
88.300573
11
13.666685
21
87.430890
0
LINE
8
Layer 1
10
13.666685
20
87.430890
11
13.513793
21
86.691268
0
LINE
8
Layer 1
10
13.513793
20
86.691268
11
13.568202
21
86.088124
0
LINE
8
Layer 1
10
13.568202
20
86.088124
11
13.780678
21
85.675140
0
LINE
8
Layer 1
10
13.780678
20
85.675140
11
14.101988
21
85.506000
0
LINE
8
Layer 1
10
14.101988
20
85.506000
11
14.353148
21
85.715455
0
LINE
8
Layer 1
10
14.353148
20
85.715455
11
14.445827
21
86.245710
0
LINE
8
Layer 1
10
14.445827
20
86.245710
11
14.470759
21
87.330660
0
LINE
8
Layer 1
10
14.470759
20
87.330660
11
14.646597
21
88.084303
0
LINE
8
Layer 1
10
14.646597
20
88.084303
11
14.759208
21
88.898290
0
LINE
8
Layer 1
10
14.759208
20
88.898290
11
14.552645
21
89.929680
0
LINE
8
Layer 1
10
14.552645
20
89.929680
11
14.395893
21
90.550150
0
LINE
8
Layer 1
10
14.395893
20
90.550150
11
14.453131
21
91.322450
0
LINE
8
Layer 1
10
14.453131
20
91.322450
11
14.544400
21
91.543229
0
LINE
8
Layer 1
10
14.544400
20
91.543229
11
14.543547
21
91.543798
0
LINE
8
Layer 1
10
14.543547
20
91.543798
11
14.570842
21
91.591564
0
LINE
8
Layer 1
10
14.570842
20
91.591564
11
14.575675
21
91.600094
0
LINE
8
Layer 1
10
14.575675
20
91.600094
11
14.718549
21
91.850727
0
LINE
8
Layer 1
10
14.718549
20
91.850727
11
14.780675
21
91.787323
0
LINE
8
Layer 1
10
14.780675
20
91.787323
11
14.854173
21
91.798838
0
LINE
8
Layer 1
10
14.854173
20
91.798838
11
15.094482
21
91.616496
0
LINE
8
Layer 1
10
15.094482
20
91.616496
11
15.141484
21
91.322308
0
LINE
8
Layer 1
10
15.141484
20
91.322308
11
15.222670
21
90.629716
0
LINE
8
Layer 1
10
15.222670
20
90.629716
11
15.545742
21
90.026848
0
LINE
8
Layer 1
10
15.545742
20
90.026848
11
15.941450
21
89.441251
0
LINE
8
Layer 1
10
15.941450
20
89.441251
11
16.240544
21
88.800478
0
LINE
8
Layer 1
10
16.240544
20
88.800478
11
16.304499
21
88.001361
0
LINE
8
Layer 1
10
16.304499
20
88.001361
11
16.294566
21
87.197018
0
LINE
8
Layer 1
10
16.294566
20
87.197018
11
16.409718
21
86.440887
0
LINE
8
Layer 1
10
16.409718
20
86.440887
11
16.552578
21
86.098674
0
LINE
8
Layer 1
10
16.552578
20
86.098674
11
16.795264
21
85.852158
0
LINE
8
Layer 1
10
16.795264
20
85.852158
11
16.962398
21
85.807198
0
LINE
8
Layer 1
10
16.962398
20
85.807198
11
17.059394
21
85.900253
0
LINE
8
Layer 1
10
17.059394
20
85.900253
11
17.084637
21
86.397283
0
LINE
8
Layer 1
10
17.084637
20
86.397283
11
16.751762
21
87.913098
0
LINE
8
Layer 1
10
16.751762
20
87.913098
11
16.674834
21
88.953644
0
LINE
8
Layer 1
10
16.674834
20
88.953644
11
16.787160
21
89.564178
0
LINE
8
Layer 1
10
16.787160
20
89.564178
11
16.707389
21
90.251643
0
LINE
8
Layer 1
10
16.707389
20
90.251643
11
16.441135
21
90.892838
0
LINE
8
Layer 1
10
16.441135
20
90.892838
11
16.076771
21
91.545935
0
LINE
8
Layer 1
10
16.076771
20
91.545935
11
16.009102
21
92.467436
0
LINE
8
Layer 1
10
16.009102
20
92.467436
11
16.007360
21
93.201975
0
LINE
8
Layer 1
10
16.007360
20
93.201975
11
15.709422
21
93.848976
0
LINE
8
Layer 1
10
15.709422
20
93.848976
11
15.655116
21
94.184907
0
LINE
8
Layer 1
10
15.655116
20
94.184907
11
15.654831
21
94.185191
0
LINE
8
Layer 1
10
15.654831
20
94.185191
11
15.814054
21
94.464115
0
LINE
8
Layer 1
10
15.814054
20
94.464115
11
15.814100
21
94.327600
0
LINE
8
Layer 1
10
15.814100
20
94.327600
11
16.132545
21
94.272014
0
LINE
8
Layer 1
10
16.132545
20
94.272014
11
16.519655
21
93.638039
0
LINE
8
Layer 1
10
16.519655
20
93.638039
11
16.621017
21
92.893604
0
LINE
8
Layer 1
10
16.621017
20
92.893604
11
16.608791
21
91.972103
0
LINE
8
Layer 1
10
16.608791
20
91.972103
11
16.874351
21
91.187648
0
LINE
8
Layer 1
10
16.874351
20
91.187648
11
17.221851
21
90.391944
0
LINE
8
Layer 1
10
17.221851
20
90.391944
11
17.385853
21
89.541118
0
LINE
8
Layer 1
10
17.385853
20
89.541118
11
17.274930
21
88.624933
0
LINE
8
Layer 1
10
17.274930
20
88.624933
11
17.271696
21
87.716318
0
LINE
8
Layer 1
10
17.271696
20
87.716318
11
17.589004
21
86.821260
0
LINE
8
Layer 1
10
17.589004
20
86.821260
11
17.728324
21
85.907863
0
LINE
8
Layer 1
10
17.728324
20
85.907863
11
17.723348
21
85.708977
0
LINE
8
Layer 1
10
17.723348
20
85.708977
11
17.810900
21
85.709000
0
LINE
8
Layer 1
10
17.810900
20
85.709000
11
17.655516
21
85.437184
0
LINE
8
Layer 1
10
17.655516
20
85.437184
11
17.377108
21
85.152681
0
LINE
8
Layer 1
10
17.377108
20
85.152681
11
16.982801
21
85.078649
0
LINE
8
Layer 1
10
16.982801
20
85.078649
11
16.601515
21
85.217649
0
LINE
8
Layer 1
10
16.601515
20
85.217649
11
16.306141
21
85.502721
0
LINE
8
Layer 1
10
16.306141
20
85.502721
11
15.918001
21
86.237699
0
LINE
8
Layer 1
10
15.918001
20
86.237699
11
15.715810
21
87.081276
0
LINE
8
Layer 1
10
15.715810
20
87.081276
11
15.709590
21
87.949909
0
LINE
8
Layer 1
10
15.709590
20
87.949909
11
15.715881
21
88.522435
0
LINE
8
Layer 1
10
15.715881
20
88.522435
11
15.606380
21
89.077689
0
LINE
8
Layer 1
10
15.606380
20
89.077689
11
15.109662
21
89.832290
0
LINE
8
Layer 1
10
15.109662
20
89.832290
11
15.290280
21
89.134039
0
LINE
8
Layer 1
10
15.290280
20
89.134039
11
15.261492
21
88.126480
0
LINE
8
Layer 1
10
15.261492
20
88.126480
11
15.009863
21
86.804220
0
LINE
8
Layer 1
10
15.009863
20
86.804220
11
15.046115
21
85.616160
0
LINE
8
Layer 1
10
15.046115
20
85.616160
11
15.113200
21
85.616200
0
LINE
8
Layer 1
10
15.113200
20
85.616200
11
14.941894
21
85.313393
0
LINE
8
Layer 1
10
14.941894
20
85.313393
11
14.929526
21
85.291642
0
LINE
8
Layer 1
10
14.929526
20
85.291642
11
14.903652
21
85.245724
0
LINE
8
Layer 1
10
14.903652
20
85.245724
11
14.902941
21
85.248993
0
LINE
8
Layer 1
10
14.902941
20
85.248993
11
14.610992
21
84.965485
0
LINE
8
Layer 1
10
14.610992
20
84.965485
11
14.202504
21
84.887757
0
LINE
8
Layer 1
10
14.202504
20
84.887757
11
13.750091
21
85.067036
0
LINE
8
Layer 1
10
13.750091
20
85.067036
11
13.333835
21
85.552600
0
LINE
8
Layer 1
10
13.333835
20
85.552600
11
13.098544
21
86.408383
0
LINE
8
Layer 1
10
13.098544
20
86.408383
11
13.189024
21
87.698317
0
LINE
8
Layer 1
10
13.189024
20
87.698317
11
13.373054
21
88.286766
0
LINE
8
Layer 1
10
13.373054
20
88.286766
11
13.483301
21
88.885237
0
LINE
8
Layer 1
10
13.483301
20
88.885237
11
13.333959
21
89.398219
0
LINE
8
Layer 1
10
13.333959
20
89.398219
11
13.042276
21
89.894488
0
LINE
8
Layer 1
10
13.042276
20
89.894488
11
12.531093
21
90.740177
0
LINE
8
Layer 1
10
12.531093
20
90.740177
11
12.499675
21
91.633103
0
LINE
8
Layer 1
10
12.499675
20
91.633103
11
12.535358
21
92.463477
0
LINE
8
Layer 1
10
12.535358
20
92.463477
11
12.210605
21
93.183639
0
LINE
8
Layer 1
10
12.210605
20
93.183639
11
11.608740
21
93.693327
0
LINE
8
Layer 1
10
11.608740
20
93.693327
11
11.463005
21
93.877128
0
LINE
8
Layer 1
10
11.463005
20
93.877128
11
11.507800
21
94.090800
0
LINE
8
Layer 1
10
12.066000
20
94.481600
11
12.659795
21
94.043334
0
LINE
8
Layer 1
10
12.659795
20
94.043334
11
13.092684
21
93.450492
0
LINE
8
Layer 1
10
13.092684
20
93.450492
11
13.318058
21
92.763397
0
LINE
8
Layer 1
10
13.318058
20
92.763397
11
13.289310
21
92.042370
0
LINE
8
Layer 1
10
13.289310
20
92.042370
11
13.279074
21
91.207127
0
LINE
8
Layer 1
10
13.279074
20
91.207127
11
13.463318
21
90.721820
0
LINE
8
Layer 1
10
13.463318
20
90.721820
11
14.081016
21
89.464670
0
LINE
8
Layer 1
10
14.081016
20
89.464670
11
14.073481
21
88.572366
0
LINE
8
Layer 1
10
14.073481
20
88.572366
11
13.821995
21
87.702560
0
LINE
8
Layer 1
10
13.821995
20
87.702560
11
13.689161
21
86.937756
0
LINE
8
Layer 1
10
13.689161
20
86.937756
11
13.787592
21
86.279545
0
LINE
8
Layer 1
10
13.787592
20
86.279545
11
14.044142
21
85.812667
0
LINE
8
Layer 1
10
14.044142
20
85.812667
11
14.385671
21
85.621860
0
LINE
8
Layer 1
10
14.385671
20
85.621860
11
14.566556
21
85.821137
0
LINE
8
Layer 1
10
14.566556
20
85.821137
11
14.634741
21
86.118720
0
LINE
8
Layer 1
10
14.634741
20
86.118720
11
14.683076
21
87.407850
0
LINE
8
Layer 1
10
14.683076
20
87.407850
11
14.849105
21
88.119075
0
LINE
8
Layer 1
10
14.849105
20
88.119075
11
14.951906
21
88.890750
0
LINE
8
Layer 1
10
14.951906
20
88.890750
11
14.707954
21
90.201490
0
LINE
8
Layer 1
10
14.707954
20
90.201490
11
14.551202
21
90.821836
0
LINE
8
Layer 1
10
14.551202
20
90.821836
11
14.608440
21
91.594120
0
LINE
8
Layer 1
10
14.608440
20
91.594120
11
14.730221
21
91.870662
0
LINE
8
Layer 1
10
14.730221
20
91.870662
11
15.009482
21
92.070650
0
LINE
8
Layer 1
10
15.009482
20
92.070650
11
15.249791
21
91.888290
0
LINE
8
Layer 1
10
15.249791
20
91.888290
11
15.296793
21
91.593977
0
LINE
8
Layer 1
10
15.296793
20
91.593977
11
15.377979
21
90.901467
0
LINE
8
Layer 1
10
15.377979
20
90.901467
11
15.701051
21
90.298639
0
LINE
8
Layer 1
10
15.701051
20
90.298639
11
16.096759
21
89.713059
0
LINE
8
Layer 1
10
16.096759
20
89.713059
11
16.395853
21
89.072287
0
LINE
8
Layer 1
10
16.395853
20
89.072287
11
16.459809
21
88.273047
0
LINE
8
Layer 1
10
16.459809
20
88.273047
11
16.449875
21
87.468687
0
LINE
8
Layer 1
10
16.449875
20
87.468687
11
16.608476
21
86.761782
0
LINE
8
Layer 1
10
16.608476
20
86.761782
11
16.950573
21
86.123967
0
LINE
8
Layer 1
10
16.950573
20
86.123967
11
17.106153
21
85.969791
0
LINE
8
Layer 1
10
17.106153
20
85.969791
11
17.282950
21
85.984079
0
LINE
8
Layer 1
10
17.282950
20
85.984079
11
17.294323
21
86.124252
0
LINE
8
Layer 1
10
17.294323
20
86.124252
11
17.137375
21
87.104466
0
LINE
8
Layer 1
10
17.137375
20
87.104466
11
16.868260
21
88.058664
0
LINE
8
Layer 1
10
16.868260
20
88.058664
11
16.810542
21
88.849943
0
LINE
8
Layer 1
10
16.810542
20
88.849943
11
16.943749
21
89.615206
0
LINE
8
Layer 1
10
16.943749
20
89.615206
11
16.851538
21
90.352410
0
LINE
8
Layer 1
10
16.851538
20
90.352410
11
16.572846
21
91.043236
0
LINE
8
Layer 1
10
16.572846
20
91.043236
11
16.232081
21
91.817740
0
LINE
8
Layer 1
10
16.232081
20
91.817740
11
16.164411
21
92.739098
0
LINE
8
Layer 1
10
16.164411
20
92.739098
11
16.162688
21
93.473709
0
LINE
8
Layer 1
10
16.162688
20
93.473709
11
15.864874
21
94.120778
0
LINE
8
Layer 1
10
15.864874
20
94.120778
11
15.771704
21
94.334142
0
LINE
8
Layer 1
10
15.771704
20
94.334142
11
15.864164
21
94.528502
0
LINE
8
Layer 1
10
15.864164
20
94.528502
11
16.062712
21
94.624768
0
LINE
8
Layer 1
10
16.062712
20
94.624768
11
16.287809
21
94.543855
0
LINE
8
Layer 1
10
16.287809
20
94.543855
11
16.674919
21
93.909809
0
LINE
8
Layer 1
10
16.674919
20
93.909809
11
16.776281
21
93.165305
0
LINE
8
Layer 1
10
16.776281
20
93.165305
11
16.764055
21
92.243804
0
LINE
8
Layer 1
10
16.764055
20
92.243804
11
17.029615
21
91.459491
0
LINE
8
Layer 1
10
17.029615
20
91.459491
11
17.377115
21
90.663681
0
LINE
8
Layer 1
10
17.377115
20
90.663681
11
17.541117
21
89.812961
0
LINE
8
Layer 1
10
17.541117
20
89.812961
11
17.430212
21
88.896703
0
LINE
8
Layer 1
10
17.430212
20
88.896703
11
17.427102
21
87.988011
0
LINE
8
Layer 1
10
17.427102
20
87.988011
11
17.744268
21
87.092953
0
LINE
8
Layer 1
10
17.744268
20
87.092953
11
17.883588
21
86.179556
0
LINE
8
Layer 1
10
17.883588
20
86.179556
11
17.810943
21
85.708854
0
LINE
8
Layer 1
10
17.810943
20
85.708854
11
17.532410
21
85.424404
0
LINE
8
Layer 1
10
17.532410
20
85.424404
11
17.138086
21
85.350319
0
LINE
8
Layer 1
10
17.138086
20
85.350319
11
16.756800
21
85.489401
0
LINE
8
Layer 1
10
16.756800
20
85.489401
11
16.461426
21
85.774516
0
LINE
8
Layer 1
10
16.461426
20
85.774516
11
16.073286
21
86.509519
0
LINE
8
Layer 1
10
16.073286
20
86.509519
11
15.871095
21
87.352973
0
LINE
8
Layer 1
10
15.871095
20
87.352973
11
15.864875
21
88.221589
0
LINE
8
Layer 1
10
15.864875
20
88.221589
11
15.732806
21
89.161855
0
LINE
8
Layer 1
10
15.732806
20
89.161855
11
15.065493
21
90.487955
0
LINE
8
Layer 1
10
15.065493
20
90.487955
11
15.328157
21
89.932098
0
LINE
8
Layer 1
10
15.328157
20
89.932098
11
15.459829
21
89.274902
0
LINE
8
Layer 1
10
15.459829
20
89.274902
11
15.416920
21
88.398305
0
LINE
8
Layer 1
10
15.416920
20
88.398305
11
15.165149
21
87.076045
0
LINE
8
Layer 1
10
15.165149
20
87.076045
11
15.222210
21
86.383675
0
LINE
8
Layer 1
10
15.222210
20
86.383675
11
15.149085
21
85.700045
0
LINE
8
Layer 1
10
15.149085
20
85.700045
11
14.846900
21
85.286813
0
LINE
8
Layer 1
10
14.846900
20
85.286813
11
14.357806
21
85.159541
0
LINE
8
Layer 1
10
14.357806
20
85.159541
11
13.905412
21
85.338797
0
LINE
8
Layer 1
10
13.905412
20
85.338797
11
13.489189
21
85.824313
0
LINE
8
Layer 1
10
13.489189
20
85.824313
11
13.253904
21
86.680047
0
LINE
8
Layer 1
10
13.253904
20
86.680047
11
13.344326
21
87.969961
0
LINE
8
Layer 1
10
13.344326
20
87.969961
11
13.528356
21
88.558533
0
LINE
8
Layer 1
10
13.528356
20
88.558533
11
13.638603
21
89.157021
0
LINE
8
Layer 1
10
13.638603
20
89.157021
11
13.489263
21
89.670001
0
LINE
8
Layer 1
10
13.489263
20
89.670001
11
13.197595
21
90.166255
0
LINE
8
Layer 1
10
13.197595
20
90.166255
11
12.686537
21
91.011821
0
LINE
8
Layer 1
10
12.686537
20
91.011821
11
12.654977
21
91.904889
0
LINE
8
Layer 1
10
12.654977
20
91.904889
11
12.690659
21
92.735121
0
LINE
8
Layer 1
10
12.690659
20
92.735121
11
12.365906
21
93.455336
0
LINE
8
Layer 1
10
12.365906
20
93.455336
11
11.764041
21
93.964971
0
LINE
8
Layer 1
10
11.764041
20
93.964971
11
11.618858
21
94.145255
0
LINE
8
Layer 1
10
11.618858
20
94.145255
11
11.658580
21
94.356009
0
LINE
8
Layer 1
10
11.658580
20
94.356009
11
11.826523
21
94.500401
0
LINE
8
Layer 1
10
11.826523
20
94.500401
11
12.066000
21
94.481600
0
LINE
8
Layer 1
10
12.066000
20
94.481600
11
12.659795
21
94.043334
0
LINE
8
Layer 1
10
12.659795
20
94.043334
11
13.092684
21
93.450492
0
LINE
8
Layer 1
10
13.092684
20
93.450492
11
13.318058
21
92.763397
0
LINE
8
Layer 1
10
13.318058
20
92.763397
11
13.289310
21
92.042370
0
LINE
8
Layer 1
10
13.289310
20
92.042370
11
13.279074
21
91.207127
0
LINE
8
Layer 1
10
13.279074
20
91.207127
11
13.463318
21
90.721820
0
LINE
8
Layer 1
10
13.463318
20
90.721820
11
14.081016
21
89.464670
0
LINE
8
Layer 1
10
14.081016
20
89.464670
11
14.073481
21
88.572366
0
LINE
8
Layer 1
10
14.073481
20
88.572366
11
13.821995
21
87.702560
0
LINE
8
Layer 1
10
13.821995
20
87.702560
11
13.689161
21
86.937756
0
LINE
8
Layer 1
10
13.689161
20
86.937756
11
13.787592
21
86.279545
0
LINE
8
Layer 1
10
13.787592
20
86.279545
11
14.044142
21
85.812667
0
LINE
8
Layer 1
10
14.044142
20
85.812667
11
14.385671
21
85.621860
0
LINE
8
Layer 1
10
14.385671
20
85.621860
11
14.566556
21
85.821137
0
LINE
8
Layer 1
10
14.566556
20
85.821137
11
14.634741
21
86.118720
0
LINE
8
Layer 1
10
14.634741
20
86.118720
11
14.683076
21
87.407850
0
LINE
8
Layer 1
10
14.683076
20
87.407850
11
14.849105
21
88.119075
0
LINE
8
Layer 1
10
14.849105
20
88.119075
11
14.951906
21
88.890750
0
LINE
8
Layer 1
10
14.951906
20
88.890750
11
14.707954
21
90.201490
0
LINE
8
Layer 1
10
14.707954
20
90.201490
11
14.551202
21
90.821836
0
LINE
8
Layer 1
10
14.551202
20
90.821836
11
14.608440
21
91.594120
0
LINE
8
Layer 1
10
14.608440
20
91.594120
11
14.730221
21
91.870662
0
LINE
8
Layer 1
10
14.730221
20
91.870662
11
15.009482
21
92.070650
0
LINE
8
Layer 1
10
15.009482
20
92.070650
11
15.249791
21
91.888290
0
LINE
8
Layer 1
10
15.249791
20
91.888290
11
15.296793
21
91.593977
0
LINE
8
Layer 1
10
15.296793
20
91.593977
11
15.377979
21
90.901467
0
LINE
8
Layer 1
10
15.377979
20
90.901467
11
15.701051
21
90.298639
0
LINE
8
Layer 1
10
15.701051
20
90.298639
11
16.096759
21
89.713059
0
LINE
8
Layer 1
10
16.096759
20
89.713059
11
16.395853
21
89.072287
0
LINE
8
Layer 1
10
16.395853
20
89.072287
11
16.459809
21
88.273047
0
LINE
8
Layer 1
10
16.459809
20
88.273047
11
16.449875
21
87.468687
0
LINE
8
Layer 1
10
16.449875
20
87.468687
11
16.608476
21
86.761782
0
LINE
8
Layer 1
10
16.608476
20
86.761782
11
16.950573
21
86.123967
0
LINE
8
Layer 1
10
16.950573
20
86.123967
11
17.106153
21
85.969791
0
LINE
8
Layer 1
10
17.106153
20
85.969791
11
17.282950
21
85.984079
0
LINE
8
Layer 1
10
17.282950
20
85.984079
11
17.294323
21
86.124252
0
LINE
8
Layer 1
10
17.294323
20
86.124252
11
17.137375
21
87.104466
0
LINE
8
Layer 1
10
17.137375
20
87.104466
11
16.868260
21
88.058664
0
LINE
8
Layer 1
10
16.868260
20
88.058664
11
16.810542
21
88.849943
0
LINE
8
Layer 1
10
16.810542
20
88.849943
11
16.943749
21
89.615206
0
LINE
8
Layer 1
10
16.943749
20
89.615206
11
16.851538
21
90.352410
0
LINE
8
Layer 1
10
16.851538
20
90.352410
11
16.572846
21
91.043236
0
LINE
8
Layer 1
10
16.572846
20
91.043236
11
16.232081
21
91.817740
0
LINE
8
Layer 1
10
16.232081
20
91.817740
11
16.164411
21
92.739098
0
LINE
8
Layer 1
10
16.164411
20
92.739098
11
16.162688
21
93.473709
0
LINE
8
Layer 1
10
16.162688
20
93.473709
11
15.864874
21
94.120778
0
LINE
8
Layer 1
10
15.864874
20
94.120778
11
15.771704
21
94.334142
0
LINE
8
Layer 1
10
15.771704
20
94.334142
11
15.864164
21
94.528502
0
LINE
8
Layer 1
10
15.864164
20
94.528502
11
16.062712
21
94.624768
0
LINE
8
Layer 1
10
16.062712
20
94.624768
11
16.287809
21
94.543855
0
LINE
8
Layer 1
10
16.287809
20
94.543855
11
16.674919
21
93.909809
0
LINE
8
Layer 1
10
16.674919
20
93.909809
11
16.776281
21
93.165305
0
LINE
8
Layer 1
10
16.776281
20
93.165305
11
16.764055
21
92.243804
0
LINE
8
Layer 1
10
16.764055
20
92.243804
11
17.029615
21
91.459491
0
LINE
8
Layer 1
10
17.029615
20
91.459491
11
17.377115
21
90.663681
0
LINE
8
Layer 1
10
17.377115
20
90.663681
11
17.541117
21
89.812961
0
LINE
8
Layer 1
10
17.541117
20
89.812961
11
17.430212
21
88.896703
0
LINE
8
Layer 1
10
17.430212
20
88.896703
11
17.427102
21
87.988011
0
LINE
8
Layer 1
10
17.427102
20
87.988011
11
17.744268
21
87.092953
0
LINE
8
Layer 1
10
17.744268
20
87.092953
11
17.883588
21
86.179556
0
LINE
8
Layer 1
10
17.883588
20
86.179556
11
17.810943
21
85.708854
0
LINE
8
Layer 1
10
17.810943
20
85.708854
11
17.532410
21
85.424404
0
LINE
8
Layer 1
10
17.532410
20
85.424404
11
17.138086
21
85.350319
0
LINE
8
Layer 1
10
17.138086
20
85.350319
11
16.756800
21
85.489401
0
LINE
8
Layer 1
10
16.756800
20
85.489401
11
16.461426
21
85.774516
0
LINE
8
Layer 1
10
16.461426
20
85.774516
11
16.073286
21
86.509519
0
LINE
8
Layer 1
10
16.073286
20
86.509519
11
15.871095
21
87.352973
0
LINE
8
Layer 1
10
15.871095
20
87.352973
11
15.864875
21
88.221589
0
LINE
8
Layer 1
10
15.864875
20
88.221589
11
15.732806
21
89.161855
0
LINE
8
Layer 1
10
15.732806
20
89.161855
11
15.065493
21
90.487955
0
LINE
8
Layer 1
10
15.065493
20
90.487955
11
15.328157
21
89.932098
0
LINE
8
Layer 1
10
15.328157
20
89.932098
11
15.459829
21
89.274902
0
LINE
8
Layer 1
10
15.459829
20
89.274902
11
15.416920
21
88.398305
0
LINE
8
Layer 1
10
15.416920
20
88.398305
11
15.165149
21
87.076045
0
LINE
8
Layer 1
10
15.165149
20
87.076045
11
15.222210
21
86.383675
0
LINE
8
Layer 1
10
15.222210
20
86.383675
11
15.149085
21
85.700045
0
LINE
8
Layer 1
10
15.149085
20
85.700045
11
14.846900
21
85.286813
0
LINE
8
Layer 1
10
14.846900
20
85.286813
11
14.357806
21
85.159541
0
LINE
8
Layer 1
10
14.357806
20
85.159541
11
13.905412
21
85.338797
0
LINE
8
Layer 1
10
13.905412
20
85.338797
11
13.489189
21
85.824313
0
LINE
8
Layer 1
10
13.489189
20
85.824313
11
13.253904
21
86.680047
0
LINE
8
Layer 1
10
13.253904
20
86.680047
11
13.344326
21
87.969961
0
LINE
8
Layer 1
10
13.344326
20
87.969961
11
13.528356
21
88.558533
0
LINE
8
Layer 1
10
13.528356
20
88.558533
11
13.638603
21
89.157021
0
LINE
8
Layer 1
10
13.638603
20
89.157021
11
13.489263
21
89.670001
0
LINE
8
Layer 1
10
13.489263
20
89.670001
11
13.197595
21
90.166255
0
LINE
8
Layer 1
10
13.197595
20
90.166255
11
12.686537
21
91.011821
0
LINE
8
Layer 1
10
12.686537
20
91.011821
11
12.654977
21
91.904889
0
LINE
8
Layer 1
10
12.654977
20
91.904889
11
12.690659
21
92.735121
0
LINE
8
Layer 1
10
12.690659
20
92.735121
11
12.365906
21
93.455336
0
LINE
8
Layer 1
10
12.365906
20
93.455336
11
11.764041
21
93.964971
0
LINE
8
Layer 1
10
11.764041
20
93.964971
11
11.618858
21
94.145255
0
LINE
8
Layer 1
10
11.618858
20
94.145255
11
11.658580
21
94.356009
0
LINE
8
Layer 1
10
11.658580
20
94.356009
11
11.826523
21
94.500401
0
LINE
8
Layer 1
10
11.826523
20
94.500401
11
12.066000
21
94.481600
0
LINE
8
Layer 1
10
12.066000
20
94.481600
11
12.066000
21
94.481600
0
LINE
8
right_outsideCutPath
10
75.000000
20
142.000000
11
75.000000
21
130.500000
0
LINE
8
right_outsideCutPath
10
75.000000
20
130.500000
11
70.999800
21
130.500000
0
LINE
8
right_outsideCutPath
10
70.999800
20
130.500000
11
70.999800
21
115.500000
0
LINE
8
right_outsideCutPath
10
70.999800
20
115.500000
11
75.000000
21
115.500000
0
LINE
8
right_outsideCutPath
10
75.000000
20
115.500000
11
75.000000
21
100.500000
0
LINE
8
right_outsideCutPath
10
75.000000
20
100.500000
11
70.999800
21
100.500000
0
LINE
8
right_outsideCutPath
10
70.999800
20
100.500000
11
70.999800
21
85.500300
0
LINE
8
right_outsideCutPath
10
70.999800
20
85.500300
11
75.000000
21
85.500300
0
LINE
8
right_outsideCutPath
10
75.000000
20
85.500300
11
75.000000
21
74.000200
0
LINE
8
right_outsideCutPath
10
75.000000
20
74.000200
11
82.499900
21
74.000200
0
LINE
8
right_outsideCutPath
10
82.499900
20
74.000200
11
82.499900
21
78.000200
0
LINE
8
right_outsideCutPath
10
82.499900
20
78.000200
11
97.499900
21
78.000200
0
LINE
8
right_outsideCutPath
10
97.499900
20
78.000200
11
97.499900
21
74.000200
0
LINE
8
right_outsideCutPath
10
97.499900
20
74.000200
11
112.500000
21
74.000200
0
LINE
8
right_outsideCutPath
10
112.500000
20
74.000200
11
112.500000
21
78.000200
0
LINE
8
right_outsideCutPath
10
112.500000
20
78.000200
11
127.500000
21
78.000200
0
LINE
8
right_outsideCutPath
10
127.500000
20
78.000200
11
127.500000
21
74.000200
0
LINE
8
right_outsideCutPath
10
127.500000
20
74.000200
11
135.000000
21
74.000200
0
LINE
8
right_outsideCutPath
10
135.000000
20
74.000200
11
135.000000
21
85.500300
0
LINE
8
right_outsideCutPath
10
135.000000
20
85.500300
11
139.000000
21
85.500300
0
LINE
8
right_outsideCutPath
10
139.000000
20
85.500300
11
139.000000
21
100.500000
0
LINE
8
right_outsideCutPath
10
139.000000
20
100.500000
11
135.000000
21
100.500000
0
LINE
8
right_outsideCutPath
10
135.000000
20
100.500000
11
135.000000
21
115.500000
0
LINE
8
right_outsideCutPath
10
135.000000
20
115.500000
11
139.000000
21
115.500000
0
LINE
8
right_outsideCutPath
10
139.000000
20
115.500000
11
139.000000
21
130.500000
0
LINE
8
right_outsideCutPath
10
139.000000
20
130.500000
11
135.000000
21
130.500000
0
LINE
8
right_outsideCutPath
10
135.000000
20
130.500000
11
135.000000
21
142.000000
0
LINE
8
right_outsideCutPath
10
135.000000
20
142.000000
11
127.500000
21
142.000000
0
LINE
8
right_outsideCutPath
10
127.500000
20
142.000000
11
127.500000
21
138.000000
0
LINE
8
right_outsideCutPath
10
127.500000
20
138.000000
11
112.500000
21
138.000000
0
LINE
8
right_outsideCutPath
10
112.500000
20
138.000000
11
112.500000
21
142.000000
0
LINE
8
right_outsideCutPath
10
112.500000
20
142.000000
11
97.499900
21
142.000000
0
LINE
8
right_outsideCutPath
10
97.499900
20
142.000000
11
97.499900
21
138.000000
0
LINE
8
right_outsideCutPath
10
97.499900
20
138.000000
11
82.499900
21
138.000000
0
LINE
8
right_outsideCutPath
10
82.499900
20
138.000000
11
82.499900
21
142.000000
0
LINE
8
right_outsideCutPath
10
82.499900
20
142.000000
11
75.000000
21
142.000000
0
LINE
8
bottom_outsideCutPath
10
146.000000
20
138.000000
11
146.000000
21
130.500000
0
LINE
8
bottom_outsideCutPath
10
146.000000
20
130.500000
11
142.000000
21
130.500000
0
LINE
8
bottom_outsideCutPath
10
142.000000
20
130.500000
11
142.000000
21
115.500000
0
LINE
8
bottom_outsideCutPath
10
142.000000
20
115.500000
11
146.000000
21
115.500000
0
LINE
8
bottom_outsideCutPath
10
146.000000
20
115.500000
11
146.000000
21
100.500000
0
LINE
8
bottom_outsideCutPath
10
146.000000
20
100.500000
11
142.000000
21
100.500000
0
LINE
8
bottom_outsideCutPath
10
142.000000
20
100.500000
11
142.000000
21
85.500300
0
LINE
8
bottom_outsideCutPath
10
142.000000
20
85.500300
11
146.000000
21
85.500300
0
LINE
8
bottom_outsideCutPath
10
146.000000
20
85.500300
11
146.000000
21
78.000200
0
LINE
8
bottom_outsideCutPath
10
146.000000
20
78.000200
11
153.500000
21
78.000200
0
LINE
8
bottom_outsideCutPath
10
153.500000
20
78.000200
11
153.500000
21
74.000200
0
LINE
8
bottom_outsideCutPath
10
153.500000
20
74.000200
11
168.500000
21
74.000200
0
LINE
8
bottom_outsideCutPath
10
168.500000
20
74.000200
11
168.500000
21
78.000200
0
LINE
8
bottom_outsideCutPath
10
168.500000
20
78.000200
11
183.500000
21
78.000200
0
LINE
8
bottom_outsideCutPath
10
183.500000
20
78.000200
11
183.500000
21
74.000200
0
LINE
8
bottom_outsideCutPath
10
183.500000
20
74.000200
11
198.500000
21
74.000200
0
LINE
8
bottom_outsideCutPath
10
198.500000
20
74.000200
11
198.500000
21
78.000200
0
LINE
8
bottom_outsideCutPath
10
198.500000
20
78.000200
11
206.000000
21
78.000200
0
LINE
8
bottom_outsideCutPath
10
206.000000
20
78.000200
11
206.000000
21
85.500300
0
LINE
8
bottom_outsideCutPath
10
206.000000
20
85.500300
11
210.000000
21
85.500300
0
LINE
8
bottom_outsideCutPath
10
210.000000
20
85.500300
11
210.000000
21
100.500000
0
LINE
8
bottom_outsideCutPath
10
210.000000
20
100.500000
11
206.000000
21
100.500000
0
LINE
8
bottom_outsideCutPath
10
206.000000
20
100.500000
11
206.000000
21
115.500000
0
LINE
8
bottom_outsideCutPath
10
206.000000
20
115.500000
11
210.000000
21
115.500000
0
LINE
8
bottom_outsideCutPath
10
210.000000
20
115.500000
11
210.000000
21
130.500000
0
LINE
8
bottom_outsideCutPath
10
210.000000
20
130.500000
11
206.000000
21
130.500000
0
LINE
8
bottom_outsideCutPath
10
206.000000
20
130.500000
11
206.000000
21
138.000000
0
LINE
8
bottom_outsideCutPath
10
206.000000
20
138.000000
11
198.500000
21
138.000000
0
LINE
8
bottom_outsideCutPath
10
198.500000
20
138.000000
11
198.500000
21
142.000000
0
LINE
8
bottom_outsideCutPath
10
198.500000
20
142.000000
11
183.500000
21
142.000000
0
LINE
8
bottom_outsideCutPath
10
183.500000
20
142.000000
11
183.500000
21
138.000000
0
LINE
8
bottom_outsideCutPath
10
183.500000
20
138.000000
11
168.500000
21
138.000000
0
LINE
8
bottom_outsideCutPath
10
168.500000
20
138.000000
11
168.500000
21
142.000000
0
LINE
8
bottom_outsideCutPath
10
168.500000
20
142.000000
11
153.500000
21
142.000000
0
LINE
8
bottom_outsideCutPath
10
153.500000
20
142.000000
11
153.500000
21
138.000000
0
LINE
8
bottom_outsideCutPath
10
153.500000
20
138.000000
11
146.000000
21
138.000000
 0 
ENDSEC
 0 
EOF