<?xml version="1.0" encoding="UTF-8" standalone="no"?>
<svg
   viewBox="0 0 793.7007874015749 1122.5196850393702"
   width="793.7007874015749"
   height="1122.5196850393702"
   version="1.1"
   id="svg30207"
   xmlns="http://www.w3.org/2000/svg"
   xmlns:svg="http://www.w3.org/2000/svg">
  <desc
     id="desc27687">DigitLedDisplayBox4mm.dxf - scale = 1.000000, origin = (0.000000, 0.000000), method = manual</desc>
  <defs
     id="defs27699">
    <marker
       id="DistanceX"
       orient="auto"
       refX="0.0"
       refY="0.0"
       style="overflow:visible">
      <path
         d="M 3,-3 L -3,3 M 0,-5 L  0,5"
         style="stroke:#000000; stroke-width:0.5"
         id="path27689" />
    </marker>
    <pattern
       id="Hatch"
       patternUnits="userSpaceOnUse"
       width="8"
       height="8"
       x="0"
       y="0">
      <path
         d="M8 4 l-4,4"
         stroke="#000000"
         stroke-width="0.25"
         linecap="square"
         id="path27692" />
      <path
         d="M6 2 l-4,4"
         stroke="#000000"
         stroke-width="0.25"
         linecap="square"
         id="path27694" />
      <path
         d="M4 0 l-4,4"
         stroke="#000000"
         stroke-width="0.25"
         linecap="square"
         id="path27696" />
    </pattern>
    <clipPath
       clipPathUnits="userSpaceOnUse"
       id="clipPath12800">
      <path
         d="M 0,128 H 128 V 0 H 0 Z"
         id="path12798" />
    </clipPath>
  </defs>
  <g
     id="g27701" />
  <g
     id="g27775">
    <g
       id="g34412"
       style="stroke:#ff0000">
      <path
         style="fill:none;stroke:#ff0000"
         d="M 0 854.173 L 0 897.638"
         id="path27703" />
      <path
         style="fill:none;stroke:#ff0000"
         d="M 0 897.638 L 15.1181 897.638"
         id="path27705" />
      <path
         style="fill:none;stroke:#ff0000"
         d="M 15.1181 897.638 L 15.1181 954.331"
         id="path27707" />
      <path
         style="fill:none;stroke:#ff0000"
         d="M 15.1181 954.331 L 0 954.331"
         id="path27709" />
      <path
         style="fill:none;stroke:#ff0000"
         d="M 0 954.331 L 0 1011.02"
         id="path27711" />
      <path
         style="fill:none;stroke:#ff0000"
         d="M 0 1011.02 L 15.1181 1011.02"
         id="path27713" />
      <path
         style="fill:none;stroke:#ff0000"
         d="M 15.1181 1011.02 L 15.1181 1067.72"
         id="path27715" />
      <path
         style="fill:none;stroke:#ff0000"
         d="M 15.1181 1067.72 L 0 1067.72"
         id="path27717" />
      <path
         style="fill:none;stroke:#ff0000"
         d="M 0 1067.72 L 0 1111.18"
         id="path27719" />
      <path
         style="fill:none;stroke:#ff0000"
         d="M 0 1111.18 L 43.4646 1111.18"
         id="path27721" />
      <path
         style="fill:none;stroke:#ff0000"
         d="M 43.4646 1111.18 L 43.4646 1096.06"
         id="path27723" />
      <path
         style="fill:none;stroke:#ff0000"
         d="M 43.4646 1096.06 L 100.157 1096.06"
         id="path27725" />
      <path
         style="fill:none;stroke:#ff0000"
         d="M 100.157 1096.06 L 100.157 1111.18"
         id="path27727" />
      <path
         style="fill:none;stroke:#ff0000"
         d="M 100.157 1111.18 L 156.85 1111.18"
         id="path27729" />
      <path
         style="fill:none;stroke:#ff0000"
         d="M 156.85 1111.18 L 156.85 1096.06"
         id="path27731" />
      <path
         style="fill:none;stroke:#ff0000"
         d="M 156.85 1096.06 L 213.543 1096.06"
         id="path27733" />
      <path
         style="fill:none;stroke:#ff0000"
         d="M 213.543 1096.06 L 213.543 1111.18"
         id="path27735" />
      <path
         style="fill:none;stroke:#ff0000"
         d="M 213.543 1111.18 L 257.008 1111.18"
         id="path27737" />
      <path
         style="fill:none;stroke:#ff0000"
         d="M 257.008 1111.18 L 257.008 1067.72"
         id="path27739" />
      <path
         style="fill:none;stroke:#ff0000"
         d="M 257.008 1067.72 L 241.89 1067.72"
         id="path27741" />
      <path
         style="fill:none;stroke:#ff0000"
         d="M 241.89 1067.72 L 241.89 1011.02"
         id="path27743" />
      <path
         style="fill:none;stroke:#ff0000"
         d="M 241.89 1011.02 L 257.008 1011.02"
         id="path27745" />
      <path
         style="fill:none;stroke:#ff0000"
         d="M 257.008 1011.02 L 257.008 954.331"
         id="path27747" />
      <path
         style="fill:none;stroke:#ff0000"
         d="M 257.008 954.331 L 241.89 954.331"
         id="path27749" />
      <path
         style="fill:none;stroke:#ff0000"
         d="M 241.89 954.331 L 241.89 897.638"
         id="path27751" />
      <path
         style="fill:none;stroke:#ff0000"
         d="M 241.89 897.638 L 257.008 897.638"
         id="path27753" />
      <path
         style="fill:none;stroke:#ff0000"
         d="M 257.008 897.638 L 257.008 854.173"
         id="path27755" />
      <path
         style="fill:none;stroke:#ff0000"
         d="M 257.008 854.173 L 213.543 854.173"
         id="path27757" />
      <path
         style="fill:none;stroke:#ff0000"
         d="M 213.543 854.173 L 213.543 869.291"
         id="path27759" />
      <path
         style="fill:none;stroke:#ff0000"
         d="M 213.543 869.291 L 156.85 869.291"
         id="path27761" />
      <path
         style="fill:none;stroke:#ff0000"
         d="M 156.85 869.291 L 156.85 854.173"
         id="path27763" />
      <path
         style="fill:none;stroke:#ff0000"
         d="M 156.85 854.173 L 100.157 854.173"
         id="path27765" />
      <path
         style="fill:none;stroke:#ff0000"
         d="M 100.157 854.173 L 100.157 869.291"
         id="path27767" />
      <path
         style="fill:none;stroke:#ff0000"
         d="M 100.157 869.291 L 43.4646 869.291"
         id="path27769" />
      <path
         style="fill:none;stroke:#ff0000"
         d="M 43.4646 869.291 L 43.4646 854.173"
         id="path27771" />
      <path
         style="fill:none;stroke:#ff0000"
         d="M 43.4646 854.173 L 0 854.173"
         id="path27773" />
    </g>
  </g>
  <g
     id="g28083" />
  <g
     id="g28157">
    <path
       style="fill:none;stroke:#ff0000"
       d="M 283.465 854.173 L 283.465 897.638"
       id="path28085" />
    <path
       style="fill:none;stroke:#ff0000"
       d="M 283.465 897.638 L 268.346 897.638"
       id="path28087" />
    <path
       style="fill:none;stroke:#ff0000"
       d="M 268.346 897.638 L 268.346 954.331"
       id="path28089" />
    <path
       style="fill:none;stroke:#ff0000"
       d="M 268.346 954.331 L 283.465 954.331"
       id="path28091" />
    <path
       style="fill:none;stroke:#ff0000"
       d="M 283.465 954.331 L 283.465 1011.02"
       id="path28093" />
    <path
       style="fill:none;stroke:#ff0000"
       d="M 283.465 1011.02 L 268.346 1011.02"
       id="path28095" />
    <path
       style="fill:none;stroke:#ff0000"
       d="M 268.346 1011.02 L 268.346 1067.72"
       id="path28097" />
    <path
       style="fill:none;stroke:#ff0000"
       d="M 268.346 1067.72 L 283.465 1067.72"
       id="path28099" />
    <path
       style="fill:none;stroke:#ff0000"
       d="M 283.465 1067.72 L 283.465 1111.18"
       id="path28101" />
    <path
       style="fill:none;stroke:#ff0000"
       d="M 283.465 1111.18 L 311.811 1111.18"
       id="path28103" />
    <path
       style="fill:none;stroke:#ff0000"
       d="M 311.811 1111.18 L 311.811 1096.06"
       id="path28105" />
    <path
       style="fill:none;stroke:#ff0000"
       d="M 311.811 1096.06 L 368.504 1096.06"
       id="path28107" />
    <path
       style="fill:none;stroke:#ff0000"
       d="M 368.504 1096.06 L 368.504 1111.18"
       id="path28109" />
    <path
       style="fill:none;stroke:#ff0000"
       d="M 368.504 1111.18 L 425.197 1111.18"
       id="path28111" />
    <path
       style="fill:none;stroke:#ff0000"
       d="M 425.197 1111.18 L 425.197 1096.06"
       id="path28113" />
    <path
       style="fill:none;stroke:#ff0000"
       d="M 425.197 1096.06 L 481.89 1096.06"
       id="path28115" />
    <path
       style="fill:none;stroke:#ff0000"
       d="M 481.89 1096.06 L 481.89 1111.18"
       id="path28117" />
    <path
       style="fill:none;stroke:#ff0000"
       d="M 481.89 1111.18 L 510.236 1111.18"
       id="path28119" />
    <path
       style="fill:none;stroke:#ff0000"
       d="M 510.236 1111.18 L 510.236 1067.72"
       id="path28121" />
    <path
       style="fill:none;stroke:#ff0000"
       d="M 510.236 1067.72 L 525.354 1067.72"
       id="path28123" />
    <path
       style="fill:none;stroke:#ff0000"
       d="M 525.354 1067.72 L 525.354 1011.02"
       id="path28125" />
    <path
       style="fill:none;stroke:#ff0000"
       d="M 525.354 1011.02 L 510.236 1011.02"
       id="path28127" />
    <path
       style="fill:none;stroke:#ff0000"
       d="M 510.236 1011.02 L 510.236 954.331"
       id="path28129" />
    <path
       style="fill:none;stroke:#ff0000"
       d="M 510.236 954.331 L 525.354 954.331"
       id="path28131" />
    <path
       style="fill:none;stroke:#ff0000"
       d="M 525.354 954.331 L 525.354 897.638"
       id="path28133" />
    <path
       style="fill:none;stroke:#ff0000"
       d="M 525.354 897.638 L 510.236 897.638"
       id="path28135" />
    <path
       style="fill:none;stroke:#ff0000"
       d="M 510.236 897.638 L 510.236 854.173"
       id="path28137" />
    <path
       style="fill:none;stroke:#ff0000"
       d="M 510.236 854.173 L 481.89 854.173"
       id="path28139" />
    <path
       style="fill:none;stroke:#ff0000"
       d="M 481.89 854.173 L 481.89 869.291"
       id="path28141" />
    <path
       style="fill:none;stroke:#ff0000"
       d="M 481.89 869.291 L 425.197 869.291"
       id="path28143" />
    <path
       style="fill:none;stroke:#ff0000"
       d="M 425.197 869.291 L 425.197 854.173"
       id="path28145" />
    <path
       style="fill:none;stroke:#ff0000"
       d="M 425.197 854.173 L 368.504 854.173"
       id="path28147" />
    <path
       style="fill:none;stroke:#ff0000"
       d="M 368.504 854.173 L 368.504 869.291"
       id="path28149" />
    <path
       style="fill:none;stroke:#ff0000"
       d="M 368.504 869.291 L 311.811 869.291"
       id="path28151" />
    <path
       style="fill:none;stroke:#ff0000"
       d="M 311.811 869.291 L 311.811 854.173"
       id="path28153" />
    <path
       style="fill:none;stroke:#ff0000"
       d="M 311.811 854.173 L 283.465 854.173"
       id="path28155" />
  </g>
  <g
     id="g28369" />
  <g
     id="g28443">
    <path
       style="fill:none;stroke:#ff0000"
       d="M 551.811 869.291 L 551.811 897.638"
       id="path28371" />
    <path
       style="fill:none;stroke:#ff0000"
       d="M 551.811 897.638 L 536.693 897.638"
       id="path28373" />
    <path
       style="fill:none;stroke:#ff0000"
       d="M 536.693 897.638 L 536.693 954.331"
       id="path28375" />
    <path
       style="fill:none;stroke:#ff0000"
       d="M 536.693 954.331 L 551.811 954.331"
       id="path28377" />
    <path
       style="fill:none;stroke:#ff0000"
       d="M 551.811 954.331 L 551.811 1011.02"
       id="path28379" />
    <path
       style="fill:none;stroke:#ff0000"
       d="M 551.811 1011.02 L 536.693 1011.02"
       id="path28381" />
    <path
       style="fill:none;stroke:#ff0000"
       d="M 536.693 1011.02 L 536.693 1067.72"
       id="path28383" />
    <path
       style="fill:none;stroke:#ff0000"
       d="M 536.693 1067.72 L 551.811 1067.72"
       id="path28385" />
    <path
       style="fill:none;stroke:#ff0000"
       d="M 551.811 1067.72 L 551.811 1096.06"
       id="path28387" />
    <path
       style="fill:none;stroke:#ff0000"
       d="M 551.811 1096.06 L 580.157 1096.06"
       id="path28389" />
    <path
       style="fill:none;stroke:#ff0000"
       d="M 580.157 1096.06 L 580.157 1111.18"
       id="path28391" />
    <path
       style="fill:none;stroke:#ff0000"
       d="M 580.157 1111.18 L 636.85 1111.18"
       id="path28393" />
    <path
       style="fill:none;stroke:#ff0000"
       d="M 636.85 1111.18 L 636.85 1096.06"
       id="path28395" />
    <path
       style="fill:none;stroke:#ff0000"
       d="M 636.85 1096.06 L 693.543 1096.06"
       id="path28397" />
    <path
       style="fill:none;stroke:#ff0000"
       d="M 693.543 1096.06 L 693.543 1111.18"
       id="path28399" />
    <path
       style="fill:none;stroke:#ff0000"
       d="M 693.543 1111.18 L 750.236 1111.18"
       id="path28401" />
    <path
       style="fill:none;stroke:#ff0000"
       d="M 750.236 1111.18 L 750.236 1096.06"
       id="path28403" />
    <path
       style="fill:none;stroke:#ff0000"
       d="M 750.236 1096.06 L 778.583 1096.06"
       id="path28405" />
    <path
       style="fill:none;stroke:#ff0000"
       d="M 778.583 1096.06 L 778.583 1067.72"
       id="path28407" />
    <path
       style="fill:none;stroke:#ff0000"
       d="M 778.583 1067.72 L 793.701 1067.72"
       id="path28409" />
    <path
       style="fill:none;stroke:#ff0000"
       d="M 793.701 1067.72 L 793.701 1011.02"
       id="path28411" />
    <path
       style="fill:none;stroke:#ff0000"
       d="M 793.701 1011.02 L 778.583 1011.02"
       id="path28413" />
    <path
       style="fill:none;stroke:#ff0000"
       d="M 778.583 1011.02 L 778.583 954.331"
       id="path28415" />
    <path
       style="fill:none;stroke:#ff0000"
       d="M 778.583 954.331 L 793.701 954.331"
       id="path28417" />
    <path
       style="fill:none;stroke:#ff0000"
       d="M 793.701 954.331 L 793.701 897.638"
       id="path28419" />
    <path
       style="fill:none;stroke:#ff0000"
       d="M 793.701 897.638 L 778.583 897.638"
       id="path28421" />
    <path
       style="fill:none;stroke:#ff0000"
       d="M 778.583 897.638 L 778.583 869.291"
       id="path28423" />
    <path
       style="fill:none;stroke:#ff0000"
       d="M 778.583 869.291 L 750.236 869.291"
       id="path28425" />
    <path
       style="fill:none;stroke:#ff0000"
       d="M 750.236 869.291 L 750.236 854.173"
       id="path28427" />
    <path
       style="fill:none;stroke:#ff0000"
       d="M 750.236 854.173 L 693.543 854.173"
       id="path28429" />
    <path
       style="fill:none;stroke:#ff0000"
       d="M 693.543 854.173 L 693.543 869.291"
       id="path28431" />
    <path
       style="fill:none;stroke:#ff0000"
       d="M 693.543 869.291 L 636.85 869.291"
       id="path28433" />
    <path
       style="fill:none;stroke:#ff0000"
       d="M 636.85 869.291 L 636.85 854.173"
       id="path28435" />
    <path
       style="fill:none;stroke:#ff0000"
       d="M 636.85 854.173 L 580.157 854.173"
       id="path28437" />
    <path
       style="fill:none;stroke:#ff0000"
       d="M 580.157 854.173 L 580.157 869.291"
       id="path28439" />
    <path
       style="fill:none;stroke:#ff0000"
       d="M 580.157 869.291 L 551.811 869.291"
       id="path28441" />
  </g>
  <g
     id="g28697" />
  <g
     id="g28771">
    <path
       style="fill:none;stroke:#ff0000"
       d="M 0 585.827 L 0 629.291"
       id="path28699" />
    <path
       style="fill:none;stroke:#ff0000"
       d="M 0 629.291 L 15.1181 629.291"
       id="path28701" />
    <path
       style="fill:none;stroke:#ff0000"
       d="M 15.1181 629.291 L 15.1181 685.984"
       id="path28703" />
    <path
       style="fill:none;stroke:#ff0000"
       d="M 15.1181 685.984 L 0 685.984"
       id="path28705" />
    <path
       style="fill:none;stroke:#ff0000"
       d="M 0 685.984 L 0 742.677"
       id="path28707" />
    <path
       style="fill:none;stroke:#ff0000"
       d="M 0 742.677 L 15.1181 742.677"
       id="path28709" />
    <path
       style="fill:none;stroke:#ff0000"
       d="M 15.1181 742.677 L 15.1181 799.37"
       id="path28711" />
    <path
       style="fill:none;stroke:#ff0000"
       d="M 15.1181 799.37 L 0 799.37"
       id="path28713" />
    <path
       style="fill:none;stroke:#ff0000"
       d="M 0 799.37 L 0 842.835"
       id="path28715" />
    <path
       style="fill:none;stroke:#ff0000"
       d="M 0 842.835 L 43.4646 842.835"
       id="path28717" />
    <path
       style="fill:none;stroke:#ff0000"
       d="M 43.4646 842.835 L 43.4646 827.717"
       id="path28719" />
    <path
       style="fill:none;stroke:#ff0000"
       d="M 43.4646 827.717 L 100.157 827.717"
       id="path28721" />
    <path
       style="fill:none;stroke:#ff0000"
       d="M 100.157 827.717 L 100.157 842.835"
       id="path28723" />
    <path
       style="fill:none;stroke:#ff0000"
       d="M 100.157 842.835 L 156.85 842.835"
       id="path28725" />
    <path
       style="fill:none;stroke:#ff0000"
       d="M 156.85 842.835 L 156.85 827.717"
       id="path28727" />
    <path
       style="fill:none;stroke:#ff0000"
       d="M 156.85 827.717 L 213.543 827.717"
       id="path28729" />
    <path
       style="fill:none;stroke:#ff0000"
       d="M 213.543 827.717 L 213.543 842.835"
       id="path28731" />
    <path
       style="fill:none;stroke:#ff0000"
       d="M 213.543 842.835 L 257.008 842.835"
       id="path28733" />
    <path
       style="fill:none;stroke:#ff0000"
       d="M 257.008 842.835 L 257.008 799.37"
       id="path28735" />
    <path
       style="fill:none;stroke:#ff0000"
       d="M 257.008 799.37 L 241.89 799.37"
       id="path28737" />
    <path
       style="fill:none;stroke:#ff0000"
       d="M 241.89 799.37 L 241.89 742.677"
       id="path28739" />
    <path
       style="fill:none;stroke:#ff0000"
       d="M 241.89 742.677 L 257.008 742.677"
       id="path28741" />
    <path
       style="fill:none;stroke:#ff0000"
       d="M 257.008 742.677 L 257.008 685.984"
       id="path28743" />
    <path
       style="fill:none;stroke:#ff0000"
       d="M 257.008 685.984 L 241.89 685.984"
       id="path28745" />
    <path
       style="fill:none;stroke:#ff0000"
       d="M 241.89 685.984 L 241.89 629.291"
       id="path28747" />
    <path
       style="fill:none;stroke:#ff0000"
       d="M 241.89 629.291 L 257.008 629.291"
       id="path28749" />
    <path
       style="fill:none;stroke:#ff0000"
       d="M 257.008 629.291 L 257.008 585.827"
       id="path28751" />
    <path
       style="fill:none;stroke:#ff0000"
       d="M 257.008 585.827 L 213.543 585.827"
       id="path28753" />
    <path
       style="fill:none;stroke:#ff0000"
       d="M 213.543 585.827 L 213.543 600.945"
       id="path28755" />
    <path
       style="fill:none;stroke:#ff0000"
       d="M 213.543 600.945 L 156.85 600.945"
       id="path28757" />
    <path
       style="fill:none;stroke:#ff0000"
       d="M 156.85 600.945 L 156.85 585.827"
       id="path28759" />
    <path
       style="fill:none;stroke:#ff0000"
       d="M 156.85 585.827 L 100.157 585.827"
       id="path28761" />
    <path
       style="fill:none;stroke:#ff0000"
       d="M 100.157 585.827 L 100.157 600.945"
       id="path28763" />
    <path
       style="fill:none;stroke:#ff0000"
       d="M 100.157 600.945 L 43.4646 600.945"
       id="path28765" />
    <path
       style="fill:none;stroke:#ff0000"
       d="M 43.4646 600.945 L 43.4646 585.827"
       id="path28767" />
    <path
       style="fill:none;stroke:#ff0000"
       d="M 43.4646 585.827 L 0 585.827"
       id="path28769" />
    <path
       d="M 72.001072,956.40979 H 185.00693 v 52.53341 H 72.001072 Z"
       style="fill:none;stroke:#ff0000;stroke-width:0.377953;stroke-dasharray:none"
       id="path1384" />
    <circle
       style="fill:none;fill-opacity:0.0666667;stroke:#ff0000;stroke-width:0.377953;stroke-dasharray:none;stroke-opacity:1"
       id="path1590"
       cx="204.69849"
       cy="794.63184"
       r="7.4560113" />
    <g
       id="g12794"
       transform="matrix(-0.53730849,0,0,-0.53730849,91.436727,822.75572)">
      <g
         id="g12796"
         clip-path="url(#clipPath12800)">
        <g
           id="g12802"
           transform="translate(89.2276,103.9526)"
           style="fill:#000000">
          <path
             d="M 0,0 0.002,0.002 -1.054,1.853 -2.238,1.332 -2.169,1.053 C -2.387,1.016 -2.608,0.954 -2.834,0.838 -9.012,-2.36 -13.046,-9.587 -11.439,-16.32 c 1.1,-4.611 -0.5,-7.962 -1.224,-9.29 -1.567,-2.875 -3.505,-5.633 -4.345,-8.843 -1.018,-3.887 0.553,-8.719 1.822,-12.394 2.56,-7.409 0.308,-13.265 -3.062,-13.54 -3.345,-0.273 -2.24,9.87 -2.594,12.835 -0.267,2.234 -2.355,8.227 -2.029,11.027 0.423,3.63 0.924,5.05 1.453,7.255 0.694,2.891 2.013,5.482 0.7,9.797 -0.08,0.263 -0.301,0.902 -0.642,1.553 0,0 0.006,0.004 0.006,0.004 l -0.192,0.336 c -0.012,0.02 -0.022,0.04 -0.034,0.06 l -1.005,1.763 -0.437,-0.446 c -0.165,0.053 -0.335,0.091 -0.517,0.081 -1.669,-0.086 -2.165,-2.217 -2.021,-3.352 0.902,-7.143 -5.908,-11.244 -7.731,-17.739 -1.051,-3.745 -0.022,-7.485 -0.38,-11.279 -0.309,-3.265 -0.677,-7.765 -3.522,-9.46 -3.858,-2.299 -1.672,7.692 0.306,14.497 1.707,5.871 -0.181,9.776 -0.249,11.614 -0.132,3.555 0.817,6.225 2.434,9.346 0.91,1.756 2.053,2.67 2.563,4.594 0.558,2.11 0.558,4.318 0.476,6.482 -0.125,3.273 -0.545,7.266 2.108,9.718 0.794,0.735 0.791,1.646 0.382,2.363 l 0.002,0.002 -1.12,1.962 v -0.96 c -0.693,0.302 -1.529,0.267 -2.24,-0.391 -2.677,-2.475 -3.439,-6.185 -3.436,-9.696 10e-4,-2.16 0.257,-4.324 0.086,-6.482 -0.159,-2.007 -0.952,-3.758 -1.868,-5.518 -1.906,-3.659 -3.413,-7.406 -3.598,-11.582 -0.179,-4.029 1.992,-8.878 0.803,-12.836 -0.64,-2.128 -1.682,-4.109 -2.232,-6.296 -0.525,-2.088 -0.873,-4.273 -0.98,-6.425 -0.023,-0.465 -0.009,-0.935 0.035,-1.399 h -0.616 l 1.093,-1.912 c 0.815,-1.782 2.83,-2.714 4.732,-2.522 4.022,0.405 6.174,4.832 7.49,8.153 1.547,3.903 1.757,7.906 1.466,12.044 -0.164,2.332 -0.196,5.763 0.726,7.933 0.503,1.186 2.302,2.998 3.494,5.308 -1.005,-2.49 -2.027,-6.608 -1.068,-11.999 0.419,-2.359 1.797,-6.11 1.77,-9.301 -0.024,-2.797 -0.801,-5.608 -0.255,-8.357 h -0.472 l 1.205,-2.13 c 0.028,-0.053 0.058,-0.102 0.087,-0.153 l 0.182,-0.323 0.005,0.023 c 1.057,-1.689 2.777,-2.782 4.927,-2.541 3.96,0.445 9.958,5.436 7.129,19.77 -0.504,2.552 -2.258,5.703 -2.07,8.349 0.343,4.814 5.697,9.768 6.698,13.048 0.635,2.082 0.624,4.156 0.221,6.281 -0.374,1.978 -0.678,3.838 -0.251,5.841 0.795,3.731 3.124,6.894 6.518,8.651 C 0.515,-2.163 0.562,-0.913 0,0"
             style="fill:#000000;fill-opacity:1;fill-rule:nonzero;stroke:none"
             id="path12804" />
        </g>
        <g
           id="g12806"
           transform="translate(85.3013,106.7017)">
          <path
             d="m 0,0 c -6.178,-3.197 -10.212,-10.425 -8.605,-17.158 1.1,-4.61 -0.5,-7.961 -1.224,-9.289 -1.567,-2.876 -3.505,-5.634 -4.345,-8.843 -1.018,-3.887 0.552,-8.719 1.822,-12.395 2.559,-7.408 -0.592,-14.406 -3.965,-14.636 -1.097,-0.075 -1.712,2.648 -1.752,3.495 -0.144,2.958 0.014,6.102 -0.34,9.068 -0.267,2.233 -2.217,7.631 -1.891,10.431 0.423,3.631 1.186,7.015 1.716,9.22 0.694,2.89 2.013,5.481 0.7,9.796 -0.193,0.632 -1.151,3.438 -2.821,3.352 -1.669,-0.086 -2.165,-2.217 -2.021,-3.353 0.902,-7.142 -5.908,-11.243 -7.731,-17.738 -1.051,-3.746 -0.022,-7.486 -0.38,-11.28 -0.309,-3.264 -1.492,-6.843 -3.522,-9.459 -0.373,-0.481 -1.766,-2.083 -2.338,-0.984 -0.154,0.297 -0.119,0.653 -0.08,0.986 0.273,2.302 0.513,4.647 1.104,6.895 0.548,2.081 1.421,4.528 1.893,6.712 0.473,2.184 0.707,3.778 0.406,5.566 -0.304,1.803 -0.869,3.545 -0.937,5.383 -0.132,3.555 0.992,6.925 2.609,10.045 0.91,1.757 1.887,3.523 2.397,5.448 0.558,2.109 0.558,4.317 0.476,6.481 -0.125,3.274 -0.545,7.266 2.107,9.719 1.993,1.843 -0.988,4.813 -2.975,2.976 -2.677,-2.475 -3.439,-6.186 -3.436,-9.697 0.001,-2.159 0.257,-4.323 0.086,-6.482 -0.159,-2.006 -0.952,-3.758 -1.868,-5.517 -1.906,-3.66 -3.413,-7.407 -3.598,-11.582 -0.179,-4.03 1.992,-8.878 0.802,-12.837 -0.639,-2.128 -1.682,-4.109 -2.231,-6.296 -0.525,-2.088 -0.874,-4.272 -0.98,-6.425 -0.055,-1.126 0.042,-2.285 0.511,-3.311 0.816,-1.781 2.831,-2.714 4.733,-2.522 4.022,0.406 6.174,4.833 7.49,8.154 1.547,3.902 1.757,7.905 1.466,12.043 -0.164,2.333 0.007,4.443 0.929,6.614 0.836,1.97 4.694,9.328 4.694,9.328 0,0 -4.103,-5.527 -2.472,-14.699 0.42,-2.36 1.798,-6.11 1.771,-9.301 -0.028,-3.247 -1.08,-6.514 0.113,-9.679 0.898,-2.384 2.915,-4.1 5.566,-3.802 3.96,0.445 9.957,5.435 7.129,19.769 -0.504,2.553 -2.258,5.704 -2.07,8.35 0.343,4.814 5.697,9.768 6.697,13.047 0.636,2.083 0.625,4.157 0.222,6.282 -0.375,1.977 -0.678,3.838 -0.251,5.84 0.795,3.731 3.124,6.895 6.518,8.651 C 4.53,-2.389 2.404,1.244 0,0"
             style="fill:#ffffff;fill-opacity:1;fill-rule:nonzero;stroke:none"
             id="path12808" />
        </g>
        <g
           id="g12810"
           transform="translate(85.3013,106.7017)"
           style="stroke:#000000">
          <path
             d="m 0,0 c -6.178,-3.197 -10.212,-10.425 -8.605,-17.158 1.1,-4.61 -0.5,-7.961 -1.224,-9.289 -1.567,-2.876 -3.505,-5.634 -4.345,-8.843 -1.018,-3.887 0.552,-8.719 1.822,-12.395 2.559,-7.408 -0.592,-14.406 -3.965,-14.636 -1.097,-0.075 -1.712,2.648 -1.752,3.495 -0.144,2.958 0.014,6.102 -0.34,9.068 -0.267,2.233 -2.217,7.631 -1.891,10.431 0.423,3.631 1.186,7.015 1.716,9.22 0.694,2.89 2.013,5.481 0.7,9.796 -0.193,0.632 -1.151,3.438 -2.821,3.352 -1.669,-0.086 -2.165,-2.217 -2.021,-3.353 0.902,-7.142 -5.908,-11.243 -7.731,-17.738 -1.051,-3.746 -0.022,-7.486 -0.38,-11.28 -0.309,-3.264 -1.492,-6.843 -3.522,-9.459 -0.373,-0.481 -1.766,-2.083 -2.338,-0.984 -0.154,0.297 -0.119,0.653 -0.08,0.986 0.273,2.302 0.513,4.647 1.104,6.895 0.548,2.081 1.421,4.528 1.893,6.712 0.473,2.184 0.707,3.778 0.406,5.566 -0.304,1.803 -0.869,3.545 -0.937,5.383 -0.132,3.555 0.992,6.925 2.609,10.045 0.91,1.757 1.887,3.523 2.397,5.448 0.558,2.109 0.558,4.317 0.476,6.481 -0.125,3.274 -0.545,7.266 2.107,9.719 1.993,1.843 -0.988,4.813 -2.975,2.976 -2.677,-2.475 -3.439,-6.186 -3.436,-9.697 0.001,-2.159 0.257,-4.323 0.086,-6.482 -0.159,-2.006 -0.952,-3.758 -1.868,-5.517 -1.906,-3.66 -3.413,-7.407 -3.598,-11.582 -0.179,-4.03 1.992,-8.878 0.802,-12.837 -0.639,-2.128 -1.682,-4.109 -2.231,-6.296 -0.525,-2.088 -0.874,-4.272 -0.98,-6.425 -0.055,-1.126 0.042,-2.285 0.511,-3.311 0.816,-1.781 2.831,-2.714 4.733,-2.522 4.022,0.406 6.174,4.833 7.49,8.154 1.547,3.902 1.757,7.905 1.466,12.043 -0.164,2.333 0.007,4.443 0.929,6.614 0.836,1.97 4.694,9.328 4.694,9.328 0,0 -4.103,-5.527 -2.472,-14.699 0.42,-2.36 1.798,-6.11 1.771,-9.301 -0.028,-3.247 -1.08,-6.514 0.113,-9.679 0.898,-2.384 2.915,-4.1 5.566,-3.802 3.96,0.445 9.957,5.435 7.129,19.769 -0.504,2.553 -2.258,5.704 -2.07,8.35 0.343,4.814 5.697,9.768 6.697,13.047 0.636,2.083 0.625,4.157 0.222,6.282 -0.375,1.977 -0.678,3.838 -0.251,5.84 0.795,3.731 3.124,6.895 6.518,8.651 C 4.53,-2.389 2.404,1.244 0,0 Z"
             style="fill:none;stroke:#000000;stroke-width:0.25;stroke-linecap:round;stroke-linejoin:round;stroke-miterlimit:10;stroke-dasharray:none;stroke-opacity:1"
             id="path12812" />
        </g>
      </g>
    </g>
  </g>
  <g
     id="g29109" />
  <g
     id="g29183">
    <path
       style="fill:none;stroke:#ff0000"
       d="M 283.465 585.827 L 283.465 629.291"
       id="path29111" />
    <path
       style="fill:none;stroke:#ff0000"
       d="M 283.465 629.291 L 268.346 629.291"
       id="path29113" />
    <path
       style="fill:none;stroke:#ff0000"
       d="M 268.346 629.291 L 268.346 685.984"
       id="path29115" />
    <path
       style="fill:none;stroke:#ff0000"
       d="M 268.346 685.984 L 283.465 685.984"
       id="path29117" />
    <path
       style="fill:none;stroke:#ff0000"
       d="M 283.465 685.984 L 283.465 742.677"
       id="path29119" />
    <path
       style="fill:none;stroke:#ff0000"
       d="M 283.465 742.677 L 268.346 742.677"
       id="path29121" />
    <path
       style="fill:none;stroke:#ff0000"
       d="M 268.346 742.677 L 268.346 799.37"
       id="path29123" />
    <path
       style="fill:none;stroke:#ff0000"
       d="M 268.346 799.37 L 283.465 799.37"
       id="path29125" />
    <path
       style="fill:none;stroke:#ff0000"
       d="M 283.465 799.37 L 283.465 842.835"
       id="path29127" />
    <path
       style="fill:none;stroke:#ff0000"
       d="M 283.465 842.835 L 311.811 842.835"
       id="path29129" />
    <path
       style="fill:none;stroke:#ff0000"
       d="M 311.811 842.835 L 311.811 827.717"
       id="path29131" />
    <path
       style="fill:none;stroke:#ff0000"
       d="M 311.811 827.717 L 368.504 827.717"
       id="path29133" />
    <path
       style="fill:none;stroke:#ff0000"
       d="M 368.504 827.717 L 368.504 842.835"
       id="path29135" />
    <path
       style="fill:none;stroke:#ff0000"
       d="M 368.504 842.835 L 425.197 842.835"
       id="path29137" />
    <path
       style="fill:none;stroke:#ff0000"
       d="M 425.197 842.835 L 425.197 827.717"
       id="path29139" />
    <path
       style="fill:none;stroke:#ff0000"
       d="M 425.197 827.717 L 481.89 827.717"
       id="path29141" />
    <path
       style="fill:none;stroke:#ff0000"
       d="M 481.89 827.717 L 481.89 842.835"
       id="path29143" />
    <path
       style="fill:none;stroke:#ff0000"
       d="M 481.89 842.835 L 510.236 842.835"
       id="path29145" />
    <path
       style="fill:none;stroke:#ff0000"
       d="M 510.236 842.835 L 510.236 799.37"
       id="path29147" />
    <path
       style="fill:none;stroke:#ff0000"
       d="M 510.236 799.37 L 525.354 799.37"
       id="path29149" />
    <path
       style="fill:none;stroke:#ff0000"
       d="M 525.354 799.37 L 525.354 742.677"
       id="path29151" />
    <path
       style="fill:none;stroke:#ff0000"
       d="M 525.354 742.677 L 510.236 742.677"
       id="path29153" />
    <path
       style="fill:none;stroke:#ff0000"
       d="M 510.236 742.677 L 510.236 685.984"
       id="path29155" />
    <path
       style="fill:none;stroke:#ff0000"
       d="M 510.236 685.984 L 525.354 685.984"
       id="path29157" />
    <path
       style="fill:none;stroke:#ff0000"
       d="M 525.354 685.984 L 525.354 629.291"
       id="path29159" />
    <path
       style="fill:none;stroke:#ff0000"
       d="M 525.354 629.291 L 510.236 629.291"
       id="path29161" />
    <path
       style="fill:none;stroke:#ff0000"
       d="M 510.236 629.291 L 510.236 585.827"
       id="path29163" />
    <path
       style="fill:none;stroke:#ff0000"
       d="M 510.236 585.827 L 481.89 585.827"
       id="path29165" />
    <path
       style="fill:none;stroke:#ff0000"
       d="M 481.89 585.827 L 481.89 600.945"
       id="path29167" />
    <path
       style="fill:none;stroke:#ff0000"
       d="M 481.89 600.945 L 425.197 600.945"
       id="path29169" />
    <path
       style="fill:none;stroke:#ff0000"
       d="M 425.197 600.945 L 425.197 585.827"
       id="path29171" />
    <path
       style="fill:none;stroke:#ff0000"
       d="M 425.197 585.827 L 368.504 585.827"
       id="path29173" />
    <path
       style="fill:none;stroke:#ff0000"
       d="M 368.504 585.827 L 368.504 600.945"
       id="path29175" />
    <path
       style="fill:none;stroke:#ff0000"
       d="M 368.504 600.945 L 311.811 600.945"
       id="path29177" />
    <path
       style="fill:none;stroke:#ff0000"
       d="M 311.811 600.945 L 311.811 585.827"
       id="path29179" />
    <path
       style="fill:none;stroke:#ff0000"
       d="M 311.811 585.827 L 283.465 585.827"
       id="path29181" />
  </g>
  <g
     id="g29623" />
  <g
     id="g29697">
    <path
       style="fill:none;stroke:#ff0000"
       d="M 551.811 600.945 L 551.811 629.291"
       id="path29625" />
    <path
       style="fill:none;stroke:#ff0000"
       d="M 551.811 629.291 L 536.693 629.291"
       id="path29627" />
    <path
       style="fill:none;stroke:#ff0000"
       d="M 536.693 629.291 L 536.693 685.984"
       id="path29629" />
    <path
       style="fill:none;stroke:#ff0000"
       d="M 536.693 685.984 L 551.811 685.984"
       id="path29631" />
    <path
       style="fill:none;stroke:#ff0000"
       d="M 551.811 685.984 L 551.811 742.677"
       id="path29633" />
    <path
       style="fill:none;stroke:#ff0000"
       d="M 551.811 742.677 L 536.693 742.677"
       id="path29635" />
    <path
       style="fill:none;stroke:#ff0000"
       d="M 536.693 742.677 L 536.693 799.37"
       id="path29637" />
    <path
       style="fill:none;stroke:#ff0000"
       d="M 536.693 799.37 L 551.811 799.37"
       id="path29639" />
    <path
       style="fill:none;stroke:#ff0000"
       d="M 551.811 799.37 L 551.811 827.717"
       id="path29641" />
    <path
       style="fill:none;stroke:#ff0000"
       d="M 551.811 827.717 L 580.157 827.717"
       id="path29643" />
    <path
       style="fill:none;stroke:#ff0000"
       d="M 580.157 827.717 L 580.157 842.835"
       id="path29645" />
    <path
       style="fill:none;stroke:#ff0000"
       d="M 580.157 842.835 L 636.85 842.835"
       id="path29647" />
    <path
       style="fill:none;stroke:#ff0000"
       d="M 636.85 842.835 L 636.85 827.717"
       id="path29649" />
    <path
       style="fill:none;stroke:#ff0000"
       d="M 636.85 827.717 L 693.543 827.717"
       id="path29651" />
    <path
       style="fill:none;stroke:#ff0000"
       d="M 693.543 827.717 L 693.543 842.835"
       id="path29653" />
    <path
       style="fill:none;stroke:#ff0000"
       d="M 693.543 842.835 L 750.236 842.835"
       id="path29655" />
    <path
       style="fill:none;stroke:#ff0000"
       d="M 750.236 842.835 L 750.236 827.717"
       id="path29657" />
    <path
       style="fill:none;stroke:#ff0000"
       d="M 750.236 827.717 L 778.583 827.717"
       id="path29659" />
    <path
       style="fill:none;stroke:#ff0000"
       d="M 778.583 827.717 L 778.583 799.37"
       id="path29661" />
    <path
       style="fill:none;stroke:#ff0000"
       d="M 778.583 799.37 L 793.701 799.37"
       id="path29663" />
    <path
       style="fill:none;stroke:#ff0000"
       d="M 793.701 799.37 L 793.701 742.677"
       id="path29665" />
    <path
       style="fill:none;stroke:#ff0000"
       d="M 793.701 742.677 L 778.583 742.677"
       id="path29667" />
    <path
       style="fill:none;stroke:#ff0000"
       d="M 778.583 742.677 L 778.583 685.984"
       id="path29669" />
    <path
       style="fill:none;stroke:#ff0000"
       d="M 778.583 685.984 L 793.701 685.984"
       id="path29671" />
    <path
       style="fill:none;stroke:#ff0000"
       d="M 793.701 685.984 L 793.701 629.291"
       id="path29673" />
    <path
       style="fill:none;stroke:#ff0000"
       d="M 793.701 629.291 L 778.583 629.291"
       id="path29675" />
    <path
       style="fill:none;stroke:#ff0000"
       d="M 778.583 629.291 L 778.583 600.945"
       id="path29677" />
    <path
       style="fill:none;stroke:#ff0000"
       d="M 778.583 600.945 L 750.236 600.945"
       id="path29679" />
    <path
       style="fill:none;stroke:#ff0000"
       d="M 750.236 600.945 L 750.236 585.827"
       id="path29681" />
    <path
       style="fill:none;stroke:#ff0000"
       d="M 750.236 585.827 L 693.543 585.827"
       id="path29683" />
    <path
       style="fill:none;stroke:#ff0000"
       d="M 693.543 585.827 L 693.543 600.945"
       id="path29685" />
    <path
       style="fill:none;stroke:#ff0000"
       d="M 693.543 600.945 L 636.85 600.945"
       id="path29687" />
    <path
       style="fill:none;stroke:#ff0000"
       d="M 636.85 600.945 L 636.85 585.827"
       id="path29689" />
    <path
       style="fill:none;stroke:#ff0000"
       d="M 636.85 585.827 L 580.157 585.827"
       id="path29691" />
    <path
       style="fill:none;stroke:#ff0000"
       d="M 580.157 585.827 L 580.157 600.945"
       id="path29693" />
    <path
       style="fill:none;stroke:#ff0000"
       d="M 580.157 600.945 L 551.811 600.945"
       id="path29695" />
  </g>
  <g
     id="g30205" />
</svg>
