999
"DXF R12 Output" (www.mydxf.blogspot.com)
 0 
SECTION
 2 
HEADER
 9 
$ACADVER
 1 
AC1009
 9 
$EXTMIN
 10 
 0 
 20 
 0 
 9 
$EXTMAX
 10 
 8.5 
 20 
 11 
 0 
ENDSEC
 0 
SECTION
 2 
ENTITIES
0
LINE
8
Layer 1
10
0.793749
20
297.794000
11
-0.793749
21
296.206000
0
LINE
8
Layer 1
10
0.000000
20
298.323000
11
0.000000
21
295.677000
0
LINE
8
Layer 1
10
2.116660
20
295.942000
11
1.058330
21
294.883670
0
LINE
8
Layer 1
10
1.587500
20
296.471000
11
0.529170
21
295.412670
0
LINE
8
Layer 1
10
1.058330
20
297.000000
11
0.000000
21
295.941670
0
LINE
8
0
10
0.000000
20
66.000300
11
0.000000
21
55.500300
0
LINE
8
0
10
0.000000
20
55.500300
11
3.000000
21
55.500300
0
LINE
8
0
10
3.000000
20
55.500300
11
3.000000
21
40.500300
0
LINE
8
0
10
3.000000
20
40.500300
11
0.000000
21
40.500300
0
LINE
8
0
10
0.000000
20
40.500300
11
0.000000
21
25.500300
0
LINE
8
0
10
0.000000
20
25.500300
11
3.000000
21
25.500300
0
LINE
8
0
10
3.000000
20
25.500300
11
3.000000
21
10.500400
0
LINE
8
0
10
3.000000
20
10.500400
11
0.000000
21
10.500400
0
LINE
8
0
10
0.000000
20
10.500400
11
0.000000
21
0.000374
0
LINE
8
0
10
0.000000
20
0.000374
11
10.500000
21
0.000374
0
LINE
8
0
10
10.500000
20
0.000374
11
10.500000
21
3.000370
0
LINE
8
0
10
10.500000
20
3.000370
11
25.500000
21
3.000370
0
LINE
8
0
10
25.500000
20
3.000370
11
25.500000
21
0.000374
0
LINE
8
0
10
25.500000
20
0.000374
11
40.499900
21
0.000374
0
LINE
8
0
10
40.499900
20
0.000374
11
40.499900
21
3.000370
0
LINE
8
0
10
40.499900
20
3.000370
11
55.499900
21
3.000370
0
LINE
8
0
10
55.499900
20
3.000370
11
55.499900
21
0.000374
0
LINE
8
0
10
55.499900
20
0.000374
11
65.999900
21
0.000374
0
LINE
8
0
10
65.999900
20
0.000374
11
65.999900
21
10.500400
0
LINE
8
0
10
65.999900
20
10.500400
11
62.999900
21
10.500400
0
LINE
8
0
10
62.999900
20
10.500400
11
62.999900
21
25.500300
0
LINE
8
0
10
62.999900
20
25.500300
11
65.999900
21
25.500300
0
LINE
8
0
10
65.999900
20
25.500300
11
65.999900
21
40.500300
0
LINE
8
0
10
65.999900
20
40.500300
11
62.999900
21
40.500300
0
LINE
8
0
10
62.999900
20
40.500300
11
62.999900
21
55.500300
0
LINE
8
0
10
62.999900
20
55.500300
11
65.999900
21
55.500300
0
LINE
8
0
10
65.999900
20
55.500300
11
65.999900
21
66.000300
0
LINE
8
0
10
65.999900
20
66.000300
11
55.499900
21
66.000300
0
LINE
8
0
10
55.499900
20
66.000300
11
55.499900
21
63.000300
0
LINE
8
0
10
55.499900
20
63.000300
11
40.499900
21
63.000300
0
LINE
8
0
10
40.499900
20
63.000300
11
40.499900
21
66.000300
0
LINE
8
0
10
40.499900
20
66.000300
11
25.500000
21
66.000300
0
LINE
8
0
10
25.500000
20
66.000300
11
25.500000
21
63.000300
0
LINE
8
0
10
25.500000
20
63.000300
11
10.500000
21
63.000300
0
LINE
8
0
10
10.500000
20
63.000300
11
10.500000
21
66.000300
0
LINE
8
0
10
10.500000
20
66.000300
11
0.000000
21
66.000300
0
LINE
8
0
10
0.000000
20
66.000300
11
0.000000
21
66.000300
0
LINE
8
0
10
0.000000
20
66.000300
11
0.000000
21
66.000300
0
LINE
8
0
10
71.999900
20
66.000300
11
71.999900
21
55.500300
0
LINE
8
0
10
71.999900
20
55.500300
11
68.999900
21
55.500300
0
LINE
8
0
10
68.999900
20
55.500300
11
68.999900
21
40.500300
0
LINE
8
0
10
68.999900
20
40.500300
11
71.999900
21
40.500300
0
LINE
8
0
10
71.999900
20
40.500300
11
71.999900
21
25.500300
0
LINE
8
0
10
71.999900
20
25.500300
11
68.999900
21
25.500300
0
LINE
8
0
10
68.999900
20
25.500300
11
68.999900
21
10.500400
0
LINE
8
0
10
68.999900
20
10.500400
11
71.999900
21
10.500400
0
LINE
8
0
10
71.999900
20
10.500400
11
71.999900
21
0.000374
0
LINE
8
0
10
71.999900
20
0.000374
11
79.499900
21
0.000374
0
LINE
8
0
10
79.499900
20
0.000374
11
79.499900
21
3.000370
0
LINE
8
0
10
79.499900
20
3.000370
11
94.499900
21
3.000370
0
LINE
8
0
10
94.499900
20
3.000370
11
94.499900
21
0.000374
0
LINE
8
0
10
94.499900
20
0.000374
11
109.500000
21
0.000374
0
LINE
8
0
10
109.500000
20
0.000374
11
109.500000
21
3.000370
0
LINE
8
0
10
109.500000
20
3.000370
11
124.500000
21
3.000370
0
LINE
8
0
10
124.500000
20
3.000370
11
124.500000
21
0.000374
0
LINE
8
0
10
124.500000
20
0.000374
11
132.000000
21
0.000374
0
LINE
8
0
10
132.000000
20
0.000374
11
132.000000
21
10.500400
0
LINE
8
0
10
132.000000
20
10.500400
11
135.000000
21
10.500400
0
LINE
8
0
10
135.000000
20
10.500400
11
135.000000
21
25.500300
0
LINE
8
0
10
135.000000
20
25.500300
11
132.000000
21
25.500300
0
LINE
8
0
10
132.000000
20
25.500300
11
132.000000
21
40.500300
0
LINE
8
0
10
132.000000
20
40.500300
11
135.000000
21
40.500300
0
LINE
8
0
10
135.000000
20
40.500300
11
135.000000
21
55.500300
0
LINE
8
0
10
135.000000
20
55.500300
11
132.000000
21
55.500300
0
LINE
8
0
10
132.000000
20
55.500300
11
132.000000
21
66.000300
0
LINE
8
0
10
132.000000
20
66.000300
11
124.500000
21
66.000300
0
LINE
8
0
10
124.500000
20
66.000300
11
124.500000
21
63.000300
0
LINE
8
0
10
124.500000
20
63.000300
11
109.500000
21
63.000300
0
LINE
8
0
10
109.500000
20
63.000300
11
109.500000
21
66.000300
0
LINE
8
0
10
109.500000
20
66.000300
11
94.499900
21
66.000300
0
LINE
8
0
10
94.499900
20
66.000300
11
94.499900
21
63.000300
0
LINE
8
0
10
94.499900
20
63.000300
11
79.499900
21
63.000300
0
LINE
8
0
10
79.499900
20
63.000300
11
79.499900
21
66.000300
0
LINE
8
0
10
79.499900
20
66.000300
11
71.999900
21
66.000300
0
LINE
8
0
10
71.999900
20
66.000300
11
71.999900
21
66.000300
0
LINE
8
0
10
71.999900
20
66.000300
11
71.999900
21
66.000300
0
LINE
8
0
10
141.000000
20
63.000300
11
141.000000
21
55.500300
0
LINE
8
0
10
141.000000
20
55.500300
11
138.000000
21
55.500300
0
LINE
8
0
10
138.000000
20
55.500300
11
138.000000
21
40.500300
0
LINE
8
0
10
138.000000
20
40.500300
11
141.000000
21
40.500300
0
LINE
8
0
10
141.000000
20
40.500300
11
141.000000
21
25.500300
0
LINE
8
0
10
141.000000
20
25.500300
11
138.000000
21
25.500300
0
LINE
8
0
10
138.000000
20
25.500300
11
138.000000
21
10.500400
0
LINE
8
0
10
138.000000
20
10.500400
11
141.000000
21
10.500400
0
LINE
8
0
10
141.000000
20
10.500400
11
141.000000
21
3.000370
0
LINE
8
0
10
141.000000
20
3.000370
11
148.500000
21
3.000370
0
LINE
8
0
10
148.500000
20
3.000370
11
148.500000
21
0.000374
0
LINE
8
0
10
148.500000
20
0.000374
11
163.500000
21
0.000374
0
LINE
8
0
10
163.500000
20
0.000374
11
163.500000
21
3.000370
0
LINE
8
0
10
163.500000
20
3.000370
11
178.500000
21
3.000370
0
LINE
8
0
10
178.500000
20
3.000370
11
178.500000
21
0.000374
0
LINE
8
0
10
178.500000
20
0.000374
11
193.500000
21
0.000374
0
LINE
8
0
10
193.500000
20
0.000374
11
193.500000
21
3.000370
0
LINE
8
0
10
193.500000
20
3.000370
11
201.000000
21
3.000370
0
LINE
8
0
10
201.000000
20
3.000370
11
201.000000
21
10.500400
0
LINE
8
0
10
201.000000
20
10.500400
11
204.000000
21
10.500400
0
LINE
8
0
10
204.000000
20
10.500400
11
204.000000
21
25.500300
0
LINE
8
0
10
204.000000
20
25.500300
11
201.000000
21
25.500300
0
LINE
8
0
10
201.000000
20
25.500300
11
201.000000
21
40.500300
0
LINE
8
0
10
201.000000
20
40.500300
11
204.000000
21
40.500300
0
LINE
8
0
10
204.000000
20
40.500300
11
204.000000
21
55.500300
0
LINE
8
0
10
204.000000
20
55.500300
11
201.000000
21
55.500300
0
LINE
8
0
10
201.000000
20
55.500300
11
201.000000
21
63.000300
0
LINE
8
0
10
201.000000
20
63.000300
11
193.500000
21
63.000300
0
LINE
8
0
10
193.500000
20
63.000300
11
193.500000
21
66.000300
0
LINE
8
0
10
193.500000
20
66.000300
11
178.500000
21
66.000300
0
LINE
8
0
10
178.500000
20
66.000300
11
178.500000
21
63.000300
0
LINE
8
0
10
178.500000
20
63.000300
11
163.500000
21
63.000300
0
LINE
8
0
10
163.500000
20
63.000300
11
163.500000
21
66.000300
0
LINE
8
0
10
163.500000
20
66.000300
11
148.500000
21
66.000300
0
LINE
8
0
10
148.500000
20
66.000300
11
148.500000
21
63.000300
0
LINE
8
0
10
148.500000
20
63.000300
11
141.000000
21
63.000300
0
LINE
8
0
10
141.000000
20
63.000300
11
141.000000
21
63.000300
0
LINE
8
0
10
141.000000
20
63.000300
11
141.000000
21
63.000300
0
LINE
8
0
10
0.000000
20
135.000000
11
0.000000
21
124.500000
0
LINE
8
0
10
0.000000
20
124.500000
11
3.000000
21
124.500000
0
LINE
8
0
10
3.000000
20
124.500000
11
3.000000
21
109.500000
0
LINE
8
0
10
3.000000
20
109.500000
11
0.000000
21
109.500000
0
LINE
8
0
10
0.000000
20
109.500000
11
0.000000
21
94.500300
0
LINE
8
0
10
0.000000
20
94.500300
11
3.000000
21
94.500300
0
LINE
8
0
10
3.000000
20
94.500300
11
3.000000
21
79.500300
0
LINE
8
0
10
3.000000
20
79.500300
11
0.000000
21
79.500300
0
LINE
8
0
10
0.000000
20
79.500300
11
0.000000
21
69.000300
0
LINE
8
0
10
0.000000
20
69.000300
11
10.500000
21
69.000300
0
LINE
8
0
10
10.500000
20
69.000300
11
10.500000
21
72.000300
0
LINE
8
0
10
10.500000
20
72.000300
11
25.500000
21
72.000300
0
LINE
8
0
10
25.500000
20
72.000300
11
25.500000
21
69.000300
0
LINE
8
0
10
25.500000
20
69.000300
11
40.499900
21
69.000300
0
LINE
8
0
10
40.499900
20
69.000300
11
40.499900
21
72.000300
0
LINE
8
0
10
40.499900
20
72.000300
11
55.499900
21
72.000300
0
LINE
8
0
10
55.499900
20
72.000300
11
55.499900
21
69.000300
0
LINE
8
0
10
55.499900
20
69.000300
11
65.999900
21
69.000300
0
LINE
8
0
10
65.999900
20
69.000300
11
65.999900
21
79.500300
0
LINE
8
0
10
65.999900
20
79.500300
11
62.999900
21
79.500300
0
LINE
8
0
10
62.999900
20
79.500300
11
62.999900
21
94.500300
0
LINE
8
0
10
62.999900
20
94.500300
11
65.999900
21
94.500300
0
LINE
8
0
10
65.999900
20
94.500300
11
65.999900
21
109.500000
0
LINE
8
0
10
65.999900
20
109.500000
11
62.999900
21
109.500000
0
LINE
8
0
10
62.999900
20
109.500000
11
62.999900
21
124.500000
0
LINE
8
0
10
62.999900
20
124.500000
11
65.999900
21
124.500000
0
LINE
8
0
10
65.999900
20
124.500000
11
65.999900
21
135.000000
0
LINE
8
0
10
65.999900
20
135.000000
11
55.499900
21
135.000000
0
LINE
8
0
10
55.499900
20
135.000000
11
55.499900
21
132.000000
0
LINE
8
0
10
55.499900
20
132.000000
11
40.499900
21
132.000000
0
LINE
8
0
10
40.499900
20
132.000000
11
40.499900
21
135.000000
0
LINE
8
0
10
40.499900
20
135.000000
11
25.500000
21
135.000000
0
LINE
8
0
10
25.500000
20
135.000000
11
25.500000
21
132.000000
0
LINE
8
0
10
25.500000
20
132.000000
11
10.500000
21
132.000000
0
LINE
8
0
10
10.500000
20
132.000000
11
10.500000
21
135.000000
0
LINE
8
0
10
10.500000
20
135.000000
11
0.000000
21
135.000000
0
LINE
8
0
10
0.000000
20
135.000000
11
0.000000
21
135.000000
0
LINE
8
0
10
0.000000
20
135.000000
11
0.000000
21
135.000000
0
LINE
8
0
10
71.999900
20
135.000000
11
71.999900
21
124.500000
0
LINE
8
0
10
71.999900
20
124.500000
11
68.999900
21
124.500000
0
LINE
8
0
10
68.999900
20
124.500000
11
68.999900
21
109.500000
0
LINE
8
0
10
68.999900
20
109.500000
11
71.999900
21
109.500000
0
LINE
8
0
10
71.999900
20
109.500000
11
71.999900
21
94.500300
0
LINE
8
0
10
71.999900
20
94.500300
11
68.999900
21
94.500300
0
LINE
8
0
10
68.999900
20
94.500300
11
68.999900
21
79.500300
0
LINE
8
0
10
68.999900
20
79.500300
11
71.999900
21
79.500300
0
LINE
8
0
10
71.999900
20
79.500300
11
71.999900
21
69.000300
0
LINE
8
0
10
71.999900
20
69.000300
11
79.499900
21
69.000300
0
LINE
8
0
10
79.499900
20
69.000300
11
79.499900
21
72.000300
0
LINE
8
0
10
79.499900
20
72.000300
11
94.499900
21
72.000300
0
LINE
8
0
10
94.499900
20
72.000300
11
94.499900
21
69.000300
0
LINE
8
0
10
94.499900
20
69.000300
11
109.500000
21
69.000300
0
LINE
8
0
10
109.500000
20
69.000300
11
109.500000
21
72.000300
0
LINE
8
0
10
109.500000
20
72.000300
11
124.500000
21
72.000300
0
LINE
8
0
10
124.500000
20
72.000300
11
124.500000
21
69.000300
0
LINE
8
0
10
124.500000
20
69.000300
11
132.000000
21
69.000300
0
LINE
8
0
10
132.000000
20
69.000300
11
132.000000
21
79.500300
0
LINE
8
0
10
132.000000
20
79.500300
11
135.000000
21
79.500300
0
LINE
8
0
10
135.000000
20
79.500300
11
135.000000
21
94.500300
0
LINE
8
0
10
135.000000
20
94.500300
11
132.000000
21
94.500300
0
LINE
8
0
10
132.000000
20
94.500300
11
132.000000
21
109.500000
0
LINE
8
0
10
132.000000
20
109.500000
11
135.000000
21
109.500000
0
LINE
8
0
10
135.000000
20
109.500000
11
135.000000
21
124.500000
0
LINE
8
0
10
135.000000
20
124.500000
11
132.000000
21
124.500000
0
LINE
8
0
10
132.000000
20
124.500000
11
132.000000
21
135.000000
0
LINE
8
0
10
132.000000
20
135.000000
11
124.500000
21
135.000000
0
LINE
8
0
10
124.500000
20
135.000000
11
124.500000
21
132.000000
0
LINE
8
0
10
124.500000
20
132.000000
11
109.500000
21
132.000000
0
LINE
8
0
10
109.500000
20
132.000000
11
109.500000
21
135.000000
0
LINE
8
0
10
109.500000
20
135.000000
11
94.499900
21
135.000000
0
LINE
8
0
10
94.499900
20
135.000000
11
94.499900
21
132.000000
0
LINE
8
0
10
94.499900
20
132.000000
11
79.499900
21
132.000000
0
LINE
8
0
10
79.499900
20
132.000000
11
79.499900
21
135.000000
0
LINE
8
0
10
79.499900
20
135.000000
11
71.999900
21
135.000000
0
LINE
8
0
10
71.999900
20
135.000000
11
71.999900
21
135.000000
0
LINE
8
0
10
71.999900
20
135.000000
11
71.999900
21
135.000000
0
LINE
8
0
10
141.000000
20
132.000000
11
141.000000
21
124.500000
0
LINE
8
0
10
141.000000
20
124.500000
11
138.000000
21
124.500000
0
LINE
8
0
10
138.000000
20
124.500000
11
138.000000
21
109.500000
0
LINE
8
0
10
138.000000
20
109.500000
11
141.000000
21
109.500000
0
LINE
8
0
10
141.000000
20
109.500000
11
141.000000
21
94.500300
0
LINE
8
0
10
141.000000
20
94.500300
11
138.000000
21
94.500300
0
LINE
8
0
10
138.000000
20
94.500300
11
138.000000
21
79.500300
0
LINE
8
0
10
138.000000
20
79.500300
11
141.000000
21
79.500300
0
LINE
8
0
10
141.000000
20
79.500300
11
141.000000
21
72.000300
0
LINE
8
0
10
141.000000
20
72.000300
11
148.500000
21
72.000300
0
LINE
8
0
10
148.500000
20
72.000300
11
148.500000
21
69.000300
0
LINE
8
0
10
148.500000
20
69.000300
11
163.500000
21
69.000300
0
LINE
8
0
10
163.500000
20
69.000300
11
163.500000
21
72.000300
0
LINE
8
0
10
163.500000
20
72.000300
11
178.500000
21
72.000300
0
LINE
8
0
10
178.500000
20
72.000300
11
178.500000
21
69.000300
0
LINE
8
0
10
178.500000
20
69.000300
11
193.500000
21
69.000300
0
LINE
8
0
10
193.500000
20
69.000300
11
193.500000
21
72.000300
0
LINE
8
0
10
193.500000
20
72.000300
11
201.000000
21
72.000300
0
LINE
8
0
10
201.000000
20
72.000300
11
201.000000
21
79.500300
0
LINE
8
0
10
201.000000
20
79.500300
11
204.000000
21
79.500300
0
LINE
8
0
10
204.000000
20
79.500300
11
204.000000
21
94.500300
0
LINE
8
0
10
204.000000
20
94.500300
11
201.000000
21
94.500300
0
LINE
8
0
10
201.000000
20
94.500300
11
201.000000
21
109.500000
0
LINE
8
0
10
201.000000
20
109.500000
11
204.000000
21
109.500000
0
LINE
8
0
10
204.000000
20
109.500000
11
204.000000
21
124.500000
0
LINE
8
0
10
204.000000
20
124.500000
11
201.000000
21
124.500000
0
LINE
8
0
10
201.000000
20
124.500000
11
201.000000
21
132.000000
0
LINE
8
0
10
201.000000
20
132.000000
11
193.500000
21
132.000000
0
LINE
8
0
10
193.500000
20
132.000000
11
193.500000
21
135.000000
0
LINE
8
0
10
193.500000
20
135.000000
11
178.500000
21
135.000000
0
LINE
8
0
10
178.500000
20
135.000000
11
178.500000
21
132.000000
0
LINE
8
0
10
178.500000
20
132.000000
11
163.500000
21
132.000000
0
LINE
8
0
10
163.500000
20
132.000000
11
163.500000
21
135.000000
0
LINE
8
0
10
163.500000
20
135.000000
11
148.500000
21
135.000000
0
LINE
8
0
10
148.500000
20
135.000000
11
148.500000
21
132.000000
0
LINE
8
0
10
148.500000
20
132.000000
11
141.000000
21
132.000000
0
LINE
8
0
10
141.000000
20
132.000000
11
141.000000
21
132.000000
0
LINE
8
0
10
141.000000
20
132.000000
11
141.000000
21
132.000000
0
LINE
8
0
10
18.050200
20
39.950100
11
47.949700
21
39.950100
0
LINE
8
0
10
47.949700
20
39.950100
11
47.949700
21
26.050600
0
LINE
8
0
10
47.949700
20
26.050600
11
18.050200
21
26.050600
0
LINE
8
0
10
18.050200
20
26.050600
11
18.050200
21
39.950100
0
LINE
8
0
10
18.050200
20
39.950100
11
18.050200
21
39.950100
0
LINE
8
Layer 1
10
10.591100
20
86.750200
11
10.590800
21
86.750500
0
LINE
8
Layer 1
10
10.590800
20
86.750500
11
10.740900
21
87.013600
0
LINE
8
Layer 1
10
10.740900
20
87.013600
11
10.909300
21
86.939600
0
LINE
8
Layer 1
10
10.909300
20
86.939600
11
10.899500
21
86.899900
0
LINE
8
Layer 1
10
10.899500
20
86.899900
11
10.994000
21
86.869300
0
LINE
8
Layer 1
10
10.994000
20
86.869300
11
11.587806
21
86.430997
0
LINE
8
Layer 1
10
11.587806
20
86.430997
11
12.020700
21
85.838175
0
LINE
8
Layer 1
10
12.020700
20
85.838175
11
12.246069
21
85.151116
0
LINE
8
Layer 1
10
12.246069
20
85.151116
11
12.217300
21
84.430100
0
LINE
8
Layer 1
10
12.217300
20
84.430100
11
12.207064
21
83.594733
0
LINE
8
Layer 1
10
12.207064
20
83.594733
11
12.391308
21
83.109410
0
LINE
8
Layer 1
10
12.391308
20
83.109410
11
13.009006
21
81.852260
0
LINE
8
Layer 1
10
13.009006
20
81.852260
11
13.001418
21
80.959973
0
LINE
8
Layer 1
10
13.001418
20
80.959973
11
12.749985
21
80.090290
0
LINE
8
Layer 1
10
12.749985
20
80.090290
11
12.597093
21
79.350668
0
LINE
8
Layer 1
10
12.597093
20
79.350668
11
12.651502
21
78.747524
0
LINE
8
Layer 1
10
12.651502
20
78.747524
11
12.863978
21
78.334540
0
LINE
8
Layer 1
10
12.863978
20
78.334540
11
13.185288
21
78.165400
0
LINE
8
Layer 1
10
13.185288
20
78.165400
11
13.436448
21
78.374855
0
LINE
8
Layer 1
10
13.436448
20
78.374855
11
13.529127
21
78.905110
0
LINE
8
Layer 1
10
13.529127
20
78.905110
11
13.554059
21
79.990060
0
LINE
8
Layer 1
10
13.554059
20
79.990060
11
13.729897
21
80.743703
0
LINE
8
Layer 1
10
13.729897
20
80.743703
11
13.842508
21
81.557690
0
LINE
8
Layer 1
10
13.842508
20
81.557690
11
13.635945
21
82.589080
0
LINE
8
Layer 1
10
13.635945
20
82.589080
11
13.479193
21
83.209550
0
LINE
8
Layer 1
10
13.479193
20
83.209550
11
13.536431
21
83.981850
0
LINE
8
Layer 1
10
13.536431
20
83.981850
11
13.627700
21
84.202629
0
LINE
8
Layer 1
10
13.627700
20
84.202629
11
13.626847
21
84.203198
0
LINE
8
Layer 1
10
13.626847
20
84.203198
11
13.654142
21
84.250964
0
LINE
8
Layer 1
10
13.654142
20
84.250964
11
13.658975
21
84.259494
0
LINE
8
Layer 1
10
13.658975
20
84.259494
11
13.801849
21
84.510127
0
LINE
8
Layer 1
10
13.801849
20
84.510127
11
13.863975
21
84.446723
0
LINE
8
Layer 1
10
13.863975
20
84.446723
11
13.937473
21
84.458238
0
LINE
8
Layer 1
10
13.937473
20
84.458238
11
14.177782
21
84.275896
0
LINE
8
Layer 1
10
14.177782
20
84.275896
11
14.224784
21
83.981708
0
LINE
8
Layer 1
10
14.224784
20
83.981708
11
14.305970
21
83.289116
0
LINE
8
Layer 1
10
14.305970
20
83.289116
11
14.629042
21
82.686248
0
LINE
8
Layer 1
10
14.629042
20
82.686248
11
15.024750
21
82.100651
0
LINE
8
Layer 1
10
15.024750
20
82.100651
11
15.323844
21
81.459878
0
LINE
8
Layer 1
10
15.323844
20
81.459878
11
15.387799
21
80.660761
0
LINE
8
Layer 1
10
15.387799
20
80.660761
11
15.377866
21
79.856418
0
LINE
8
Layer 1
10
15.377866
20
79.856418
11
15.493018
21
79.100287
0
LINE
8
Layer 1
10
15.493018
20
79.100287
11
15.635878
21
78.758074
0
LINE
8
Layer 1
10
15.635878
20
78.758074
11
15.878564
21
78.511558
0
LINE
8
Layer 1
10
15.878564
20
78.511558
11
16.045698
21
78.466598
0
LINE
8
Layer 1
10
16.045698
20
78.466598
11
16.142694
21
78.559653
0
LINE
8
Layer 1
10
16.142694
20
78.559653
11
16.167937
21
79.056683
0
LINE
8
Layer 1
10
16.167937
20
79.056683
11
15.835062
21
80.572498
0
LINE
8
Layer 1
10
15.835062
20
80.572498
11
15.758134
21
81.613044
0
LINE
8
Layer 1
10
15.758134
20
81.613044
11
15.870460
21
82.223578
0
LINE
8
Layer 1
10
15.870460
20
82.223578
11
15.790689
21
82.911043
0
LINE
8
Layer 1
10
15.790689
20
82.911043
11
15.524435
21
83.552238
0
LINE
8
Layer 1
10
15.524435
20
83.552238
11
15.160071
21
84.205335
0
LINE
8
Layer 1
10
15.160071
20
84.205335
11
15.092402
21
85.126836
0
LINE
8
Layer 1
10
15.092402
20
85.126836
11
15.090660
21
85.861375
0
LINE
8
Layer 1
10
15.090660
20
85.861375
11
14.792722
21
86.508376
0
LINE
8
Layer 1
10
14.792722
20
86.508376
11
14.738416
21
86.844307
0
LINE
8
Layer 1
10
14.738416
20
86.844307
11
14.738131
21
86.844591
0
LINE
8
Layer 1
10
14.738131
20
86.844591
11
14.897354
21
87.123515
0
LINE
8
Layer 1
10
14.897354
20
87.123515
11
14.897400
21
86.987000
0
LINE
8
Layer 1
10
14.897400
20
86.987000
11
15.215845
21
86.931414
0
LINE
8
Layer 1
10
15.215845
20
86.931414
11
15.602955
21
86.297439
0
LINE
8
Layer 1
10
15.602955
20
86.297439
11
15.704317
21
85.553004
0
LINE
8
Layer 1
10
15.704317
20
85.553004
11
15.692091
21
84.631503
0
LINE
8
Layer 1
10
15.692091
20
84.631503
11
15.957651
21
83.847048
0
LINE
8
Layer 1
10
15.957651
20
83.847048
11
16.305151
21
83.051344
0
LINE
8
Layer 1
10
16.305151
20
83.051344
11
16.469153
21
82.200518
0
LINE
8
Layer 1
10
16.469153
20
82.200518
11
16.358230
21
81.284333
0
LINE
8
Layer 1
10
16.358230
20
81.284333
11
16.354996
21
80.375718
0
LINE
8
Layer 1
10
16.354996
20
80.375718
11
16.672304
21
79.480660
0
LINE
8
Layer 1
10
16.672304
20
79.480660
11
16.811624
21
78.567263
0
LINE
8
Layer 1
10
16.811624
20
78.567263
11
16.806648
21
78.368377
0
LINE
8
Layer 1
10
16.806648
20
78.368377
11
16.894200
21
78.368400
0
LINE
8
Layer 1
10
16.894200
20
78.368400
11
16.738816
21
78.096584
0
LINE
8
Layer 1
10
16.738816
20
78.096584
11
16.460408
21
77.812081
0
LINE
8
Layer 1
10
16.460408
20
77.812081
11
16.066101
21
77.738049
0
LINE
8
Layer 1
10
16.066101
20
77.738049
11
15.684815
21
77.877049
0
LINE
8
Layer 1
10
15.684815
20
77.877049
11
15.389441
21
78.162121
0
LINE
8
Layer 1
10
15.389441
20
78.162121
11
15.001301
21
78.897099
0
LINE
8
Layer 1
10
15.001301
20
78.897099
11
14.799110
21
79.740676
0
LINE
8
Layer 1
10
14.799110
20
79.740676
11
14.792890
21
80.609309
0
LINE
8
Layer 1
10
14.792890
20
80.609309
11
14.799181
21
81.181835
0
LINE
8
Layer 1
10
14.799181
20
81.181835
11
14.689680
21
81.737089
0
LINE
8
Layer 1
10
14.689680
20
81.737089
11
14.192962
21
82.491690
0
LINE
8
Layer 1
10
14.192962
20
82.491690
11
14.373580
21
81.793439
0
LINE
8
Layer 1
10
14.373580
20
81.793439
11
14.344792
21
80.785880
0
LINE
8
Layer 1
10
14.344792
20
80.785880
11
14.093163
21
79.463620
0
LINE
8
Layer 1
10
14.093163
20
79.463620
11
14.129415
21
78.275560
0
LINE
8
Layer 1
10
14.129415
20
78.275560
11
14.196500
21
78.275600
0
LINE
8
Layer 1
10
14.196500
20
78.275600
11
14.025194
21
77.972793
0
LINE
8
Layer 1
10
14.025194
20
77.972793
11
14.012826
21
77.951042
0
LINE
8
Layer 1
10
14.012826
20
77.951042
11
13.986952
21
77.905124
0
LINE
8
Layer 1
10
13.986952
20
77.905124
11
13.986241
21
77.908393
0
LINE
8
Layer 1
10
13.986241
20
77.908393
11
13.694292
21
77.624885
0
LINE
8
Layer 1
10
13.694292
20
77.624885
11
13.285804
21
77.547157
0
LINE
8
Layer 1
10
13.285804
20
77.547157
11
12.833391
21
77.726436
0
LINE
8
Layer 1
10
12.833391
20
77.726436
11
12.417135
21
78.212000
0
LINE
8
Layer 1
10
12.417135
20
78.212000
11
12.181844
21
79.067783
0
LINE
8
Layer 1
10
12.181844
20
79.067783
11
12.272324
21
80.357717
0
LINE
8
Layer 1
10
12.272324
20
80.357717
11
12.456354
21
80.946166
0
LINE
8
Layer 1
10
12.456354
20
80.946166
11
12.566601
21
81.544637
0
LINE
8
Layer 1
10
12.566601
20
81.544637
11
12.417259
21
82.057619
0
LINE
8
Layer 1
10
12.417259
20
82.057619
11
12.125576
21
82.553888
0
LINE
8
Layer 1
10
12.125576
20
82.553888
11
11.614393
21
83.399577
0
LINE
8
Layer 1
10
11.614393
20
83.399577
11
11.582975
21
84.292503
0
LINE
8
Layer 1
10
11.582975
20
84.292503
11
11.618658
21
85.122877
0
LINE
8
Layer 1
10
11.618658
20
85.122877
11
11.293905
21
85.843039
0
LINE
8
Layer 1
10
11.293905
20
85.843039
11
10.692040
21
86.352727
0
LINE
8
Layer 1
10
10.692040
20
86.352727
11
10.546305
21
86.536528
0
LINE
8
Layer 1
10
10.546305
20
86.536528
11
10.591100
21
86.750200
0
LINE
8
Layer 1
10
11.149300
20
87.141000
11
11.743095
21
86.702734
0
LINE
8
Layer 1
10
11.743095
20
86.702734
11
12.175984
21
86.109892
0
LINE
8
Layer 1
10
12.175984
20
86.109892
11
12.401358
21
85.422797
0
LINE
8
Layer 1
10
12.401358
20
85.422797
11
12.372610
21
84.701770
0
LINE
8
Layer 1
10
12.372610
20
84.701770
11
12.362374
21
83.866527
0
LINE
8
Layer 1
10
12.362374
20
83.866527
11
12.546618
21
83.381220
0
LINE
8
Layer 1
10
12.546618
20
83.381220
11
13.164316
21
82.124070
0
LINE
8
Layer 1
10
13.164316
20
82.124070
11
13.156781
21
81.231766
0
LINE
8
Layer 1
10
13.156781
20
81.231766
11
12.905295
21
80.361960
0
LINE
8
Layer 1
10
12.905295
20
80.361960
11
12.772461
21
79.597156
0
LINE
8
Layer 1
10
12.772461
20
79.597156
11
12.870892
21
78.938945
0
LINE
8
Layer 1
10
12.870892
20
78.938945
11
13.127442
21
78.472067
0
LINE
8
Layer 1
10
13.127442
20
78.472067
11
13.468971
21
78.281260
0
LINE
8
Layer 1
10
13.468971
20
78.281260
11
13.649856
21
78.480537
0
LINE
8
Layer 1
10
13.649856
20
78.480537
11
13.718041
21
78.778120
0
LINE
8
Layer 1
10
13.718041
20
78.778120
11
13.766376
21
80.067250
0
LINE
8
Layer 1
10
13.766376
20
80.067250
11
13.932405
21
80.778475
0
LINE
8
Layer 1
10
13.932405
20
80.778475
11
14.035206
21
81.550150
0
LINE
8
Layer 1
10
14.035206
20
81.550150
11
13.791254
21
82.860890
0
LINE
8
Layer 1
10
13.791254
20
82.860890
11
13.634502
21
83.481236
0
LINE
8
Layer 1
10
13.634502
20
83.481236
11
13.691740
21
84.253520
0
LINE
8
Layer 1
10
13.691740
20
84.253520
11
13.813521
21
84.530062
0
LINE
8
Layer 1
10
13.813521
20
84.530062
11
14.092782
21
84.730050
0
LINE
8
Layer 1
10
14.092782
20
84.730050
11
14.333091
21
84.547690
0
LINE
8
Layer 1
10
14.333091
20
84.547690
11
14.380093
21
84.253377
0
LINE
8
Layer 1
10
14.380093
20
84.253377
11
14.461279
21
83.560867
0
LINE
8
Layer 1
10
14.461279
20
83.560867
11
14.784351
21
82.958039
0
LINE
8
Layer 1
10
14.784351
20
82.958039
11
15.180059
21
82.372459
0
LINE
8
Layer 1
10
15.180059
20
82.372459
11
15.479153
21
81.731687
0
LINE
8
Layer 1
10
15.479153
20
81.731687
11
15.543109
21
80.932447
0
LINE
8
Layer 1
10
15.543109
20
80.932447
11
15.533175
21
80.128087
0
LINE
8
Layer 1
10
15.533175
20
80.128087
11
15.691776
21
79.421182
0
LINE
8
Layer 1
10
15.691776
20
79.421182
11
16.033873
21
78.783367
0
LINE
8
Layer 1
10
16.033873
20
78.783367
11
16.189453
21
78.629191
0
LINE
8
Layer 1
10
16.189453
20
78.629191
11
16.366250
21
78.643479
0
LINE
8
Layer 1
10
16.366250
20
78.643479
11
16.377623
21
78.783652
0
LINE
8
Layer 1
10
16.377623
20
78.783652
11
16.220675
21
79.763866
0
LINE
8
Layer 1
10
16.220675
20
79.763866
11
15.951560
21
80.718064
0
LINE
8
Layer 1
10
15.951560
20
80.718064
11
15.893842
21
81.509343
0
LINE
8
Layer 1
10
15.893842
20
81.509343
11
16.027049
21
82.274606
0
LINE
8
Layer 1
10
16.027049
20
82.274606
11
15.934838
21
83.011810
0
LINE
8
Layer 1
10
15.934838
20
83.011810
11
15.656146
21
83.702636
0
LINE
8
Layer 1
10
15.656146
20
83.702636
11
15.315381
21
84.477140
0
LINE
8
Layer 1
10
15.315381
20
84.477140
11
15.247711
21
85.398498
0
LINE
8
Layer 1
10
15.247711
20
85.398498
11
15.245988
21
86.133109
0
LINE
8
Layer 1
10
15.245988
20
86.133109
11
14.948174
21
86.780178
0
LINE
8
Layer 1
10
14.948174
20
86.780178
11
14.855004
21
86.993542
0
LINE
8
Layer 1
10
14.855004
20
86.993542
11
14.947464
21
87.187902
0
LINE
8
Layer 1
10
14.947464
20
87.187902
11
15.146012
21
87.284168
0
LINE
8
Layer 1
10
15.146012
20
87.284168
11
15.371109
21
87.203255
0
LINE
8
Layer 1
10
15.371109
20
87.203255
11
15.758219
21
86.569209
0
LINE
8
Layer 1
10
15.758219
20
86.569209
11
15.859581
21
85.824705
0
LINE
8
Layer 1
10
15.859581
20
85.824705
11
15.847355
21
84.903204
0
LINE
8
Layer 1
10
15.847355
20
84.903204
11
16.112915
21
84.118891
0
LINE
8
Layer 1
10
16.112915
20
84.118891
11
16.460415
21
83.323081
0
LINE
8
Layer 1
10
16.460415
20
83.323081
11
16.624417
21
82.472361
0
LINE
8
Layer 1
10
16.624417
20
82.472361
11
16.513512
21
81.556103
0
LINE
8
Layer 1
10
16.513512
20
81.556103
11
16.510402
21
80.647411
0
LINE
8
Layer 1
10
16.510402
20
80.647411
11
16.827568
21
79.752353
0
LINE
8
Layer 1
10
16.827568
20
79.752353
11
16.966888
21
78.838956
0
LINE
8
Layer 1
10
16.966888
20
78.838956
11
16.894243
21
78.368254
0
LINE
8
Layer 1
10
16.894243
20
78.368254
11
16.615710
21
78.083804
0
LINE
8
Layer 1
10
16.615710
20
78.083804
11
16.221386
21
78.009719
0
LINE
8
Layer 1
10
16.221386
20
78.009719
11
15.840100
21
78.148801
0
LINE
8
Layer 1
10
15.840100
20
78.148801
11
15.544726
21
78.433916
0
LINE
8
Layer 1
10
15.544726
20
78.433916
11
15.156586
21
79.168919
0
LINE
8
Layer 1
10
15.156586
20
79.168919
11
14.954395
21
80.012373
0
LINE
8
Layer 1
10
14.954395
20
80.012373
11
14.948175
21
80.880989
0
LINE
8
Layer 1
10
14.948175
20
80.880989
11
14.816106
21
81.821255
0
LINE
8
Layer 1
10
14.816106
20
81.821255
11
14.148793
21
83.147355
0
LINE
8
Layer 1
10
14.148793
20
83.147355
11
14.411457
21
82.591498
0
LINE
8
Layer 1
10
14.411457
20
82.591498
11
14.543129
21
81.934302
0
LINE
8
Layer 1
10
14.543129
20
81.934302
11
14.500220
21
81.057705
0
LINE
8
Layer 1
10
14.500220
20
81.057705
11
14.248449
21
79.735445
0
LINE
8
Layer 1
10
14.248449
20
79.735445
11
14.305510
21
79.043075
0
LINE
8
Layer 1
10
14.305510
20
79.043075
11
14.232385
21
78.359445
0
LINE
8
Layer 1
10
14.232385
20
78.359445
11
13.930200
21
77.946213
0
LINE
8
Layer 1
10
13.930200
20
77.946213
11
13.441106
21
77.818941
0
LINE
8
Layer 1
10
13.441106
20
77.818941
11
12.988712
21
77.998197
0
LINE
8
Layer 1
10
12.988712
20
77.998197
11
12.572489
21
78.483713
0
LINE
8
Layer 1
10
12.572489
20
78.483713
11
12.337204
21
79.339447
0
LINE
8
Layer 1
10
12.337204
20
79.339447
11
12.427626
21
80.629361
0
LINE
8
Layer 1
10
12.427626
20
80.629361
11
12.611656
21
81.217933
0
LINE
8
Layer 1
10
12.611656
20
81.217933
11
12.721903
21
81.816421
0
LINE
8
Layer 1
10
12.721903
20
81.816421
11
12.572563
21
82.329401
0
LINE
8
Layer 1
10
12.572563
20
82.329401
11
12.280895
21
82.825655
0
LINE
8
Layer 1
10
12.280895
20
82.825655
11
11.769837
21
83.671221
0
LINE
8
Layer 1
10
11.769837
20
83.671221
11
11.738277
21
84.564289
0
LINE
8
Layer 1
10
11.738277
20
84.564289
11
11.773959
21
85.394521
0
LINE
8
Layer 1
10
11.773959
20
85.394521
11
11.449206
21
86.114736
0
LINE
8
Layer 1
10
11.449206
20
86.114736
11
10.847341
21
86.624371
0
LINE
8
Layer 1
10
10.847341
20
86.624371
11
10.702158
21
86.804655
0
LINE
8
Layer 1
10
10.702158
20
86.804655
11
10.741880
21
87.015409
0
LINE
8
Layer 1
10
10.741880
20
87.015409
11
10.909823
21
87.159801
0
LINE
8
Layer 1
10
10.909823
20
87.159801
11
11.149300
21
87.141000
0
LINE
8
Layer 1
10
11.149300
20
87.141000
11
11.743095
21
86.702734
0
LINE
8
Layer 1
10
11.743095
20
86.702734
11
12.175984
21
86.109892
0
LINE
8
Layer 1
10
12.175984
20
86.109892
11
12.401358
21
85.422797
0
LINE
8
Layer 1
10
12.401358
20
85.422797
11
12.372610
21
84.701770
0
LINE
8
Layer 1
10
12.372610
20
84.701770
11
12.362374
21
83.866527
0
LINE
8
Layer 1
10
12.362374
20
83.866527
11
12.546618
21
83.381220
0
LINE
8
Layer 1
10
12.546618
20
83.381220
11
13.164316
21
82.124070
0
LINE
8
Layer 1
10
13.164316
20
82.124070
11
13.156781
21
81.231766
0
LINE
8
Layer 1
10
13.156781
20
81.231766
11
12.905295
21
80.361960
0
LINE
8
Layer 1
10
12.905295
20
80.361960
11
12.772461
21
79.597156
0
LINE
8
Layer 1
10
12.772461
20
79.597156
11
12.870892
21
78.938945
0
LINE
8
Layer 1
10
12.870892
20
78.938945
11
13.127442
21
78.472067
0
LINE
8
Layer 1
10
13.127442
20
78.472067
11
13.468971
21
78.281260
0
LINE
8
Layer 1
10
13.468971
20
78.281260
11
13.649856
21
78.480537
0
LINE
8
Layer 1
10
13.649856
20
78.480537
11
13.718041
21
78.778120
0
LINE
8
Layer 1
10
13.718041
20
78.778120
11
13.766376
21
80.067250
0
LINE
8
Layer 1
10
13.766376
20
80.067250
11
13.932405
21
80.778475
0
LINE
8
Layer 1
10
13.932405
20
80.778475
11
14.035206
21
81.550150
0
LINE
8
Layer 1
10
14.035206
20
81.550150
11
13.791254
21
82.860890
0
LINE
8
Layer 1
10
13.791254
20
82.860890
11
13.634502
21
83.481236
0
LINE
8
Layer 1
10
13.634502
20
83.481236
11
13.691740
21
84.253520
0
LINE
8
Layer 1
10
13.691740
20
84.253520
11
13.813521
21
84.530062
0
LINE
8
Layer 1
10
13.813521
20
84.530062
11
14.092782
21
84.730050
0
LINE
8
Layer 1
10
14.092782
20
84.730050
11
14.333091
21
84.547690
0
LINE
8
Layer 1
10
14.333091
20
84.547690
11
14.380093
21
84.253377
0
LINE
8
Layer 1
10
14.380093
20
84.253377
11
14.461279
21
83.560867
0
LINE
8
Layer 1
10
14.461279
20
83.560867
11
14.784351
21
82.958039
0
LINE
8
Layer 1
10
14.784351
20
82.958039
11
15.180059
21
82.372459
0
LINE
8
Layer 1
10
15.180059
20
82.372459
11
15.479153
21
81.731687
0
LINE
8
Layer 1
10
15.479153
20
81.731687
11
15.543109
21
80.932447
0
LINE
8
Layer 1
10
15.543109
20
80.932447
11
15.533175
21
80.128087
0
LINE
8
Layer 1
10
15.533175
20
80.128087
11
15.691776
21
79.421182
0
LINE
8
Layer 1
10
15.691776
20
79.421182
11
16.033873
21
78.783367
0
LINE
8
Layer 1
10
16.033873
20
78.783367
11
16.189453
21
78.629191
0
LINE
8
Layer 1
10
16.189453
20
78.629191
11
16.366250
21
78.643479
0
LINE
8
Layer 1
10
16.366250
20
78.643479
11
16.377623
21
78.783652
0
LINE
8
Layer 1
10
16.377623
20
78.783652
11
16.220675
21
79.763866
0
LINE
8
Layer 1
10
16.220675
20
79.763866
11
15.951560
21
80.718064
0
LINE
8
Layer 1
10
15.951560
20
80.718064
11
15.893842
21
81.509343
0
LINE
8
Layer 1
10
15.893842
20
81.509343
11
16.027049
21
82.274606
0
LINE
8
Layer 1
10
16.027049
20
82.274606
11
15.934838
21
83.011810
0
LINE
8
Layer 1
10
15.934838
20
83.011810
11
15.656146
21
83.702636
0
LINE
8
Layer 1
10
15.656146
20
83.702636
11
15.315381
21
84.477140
0
LINE
8
Layer 1
10
15.315381
20
84.477140
11
15.247711
21
85.398498
0
LINE
8
Layer 1
10
15.247711
20
85.398498
11
15.245988
21
86.133109
0
LINE
8
Layer 1
10
15.245988
20
86.133109
11
14.948174
21
86.780178
0
LINE
8
Layer 1
10
14.948174
20
86.780178
11
14.855004
21
86.993542
0
LINE
8
Layer 1
10
14.855004
20
86.993542
11
14.947464
21
87.187902
0
LINE
8
Layer 1
10
14.947464
20
87.187902
11
15.146012
21
87.284168
0
LINE
8
Layer 1
10
15.146012
20
87.284168
11
15.371109
21
87.203255
0
LINE
8
Layer 1
10
15.371109
20
87.203255
11
15.758219
21
86.569209
0
LINE
8
Layer 1
10
15.758219
20
86.569209
11
15.859581
21
85.824705
0
LINE
8
Layer 1
10
15.859581
20
85.824705
11
15.847355
21
84.903204
0
LINE
8
Layer 1
10
15.847355
20
84.903204
11
16.112915
21
84.118891
0
LINE
8
Layer 1
10
16.112915
20
84.118891
11
16.460415
21
83.323081
0
LINE
8
Layer 1
10
16.460415
20
83.323081
11
16.624417
21
82.472361
0
LINE
8
Layer 1
10
16.624417
20
82.472361
11
16.513512
21
81.556103
0
LINE
8
Layer 1
10
16.513512
20
81.556103
11
16.510402
21
80.647411
0
LINE
8
Layer 1
10
16.510402
20
80.647411
11
16.827568
21
79.752353
0
LINE
8
Layer 1
10
16.827568
20
79.752353
11
16.966888
21
78.838956
0
LINE
8
Layer 1
10
16.966888
20
78.838956
11
16.894243
21
78.368254
0
LINE
8
Layer 1
10
16.894243
20
78.368254
11
16.615710
21
78.083804
0
LINE
8
Layer 1
10
16.615710
20
78.083804
11
16.221386
21
78.009719
0
LINE
8
Layer 1
10
16.221386
20
78.009719
11
15.840100
21
78.148801
0
LINE
8
Layer 1
10
15.840100
20
78.148801
11
15.544726
21
78.433916
0
LINE
8
Layer 1
10
15.544726
20
78.433916
11
15.156586
21
79.168919
0
LINE
8
Layer 1
10
15.156586
20
79.168919
11
14.954395
21
80.012373
0
LINE
8
Layer 1
10
14.954395
20
80.012373
11
14.948175
21
80.880989
0
LINE
8
Layer 1
10
14.948175
20
80.880989
11
14.816106
21
81.821255
0
LINE
8
Layer 1
10
14.816106
20
81.821255
11
14.148793
21
83.147355
0
LINE
8
Layer 1
10
14.148793
20
83.147355
11
14.411457
21
82.591498
0
LINE
8
Layer 1
10
14.411457
20
82.591498
11
14.543129
21
81.934302
0
LINE
8
Layer 1
10
14.543129
20
81.934302
11
14.500220
21
81.057705
0
LINE
8
Layer 1
10
14.500220
20
81.057705
11
14.248449
21
79.735445
0
LINE
8
Layer 1
10
14.248449
20
79.735445
11
14.305510
21
79.043075
0
LINE
8
Layer 1
10
14.305510
20
79.043075
11
14.232385
21
78.359445
0
LINE
8
Layer 1
10
14.232385
20
78.359445
11
13.930200
21
77.946213
0
LINE
8
Layer 1
10
13.930200
20
77.946213
11
13.441106
21
77.818941
0
LINE
8
Layer 1
10
13.441106
20
77.818941
11
12.988712
21
77.998197
0
LINE
8
Layer 1
10
12.988712
20
77.998197
11
12.572489
21
78.483713
0
LINE
8
Layer 1
10
12.572489
20
78.483713
11
12.337204
21
79.339447
0
LINE
8
Layer 1
10
12.337204
20
79.339447
11
12.427626
21
80.629361
0
LINE
8
Layer 1
10
12.427626
20
80.629361
11
12.611656
21
81.217933
0
LINE
8
Layer 1
10
12.611656
20
81.217933
11
12.721903
21
81.816421
0
LINE
8
Layer 1
10
12.721903
20
81.816421
11
12.572563
21
82.329401
0
LINE
8
Layer 1
10
12.572563
20
82.329401
11
12.280895
21
82.825655
0
LINE
8
Layer 1
10
12.280895
20
82.825655
11
11.769837
21
83.671221
0
LINE
8
Layer 1
10
11.769837
20
83.671221
11
11.738277
21
84.564289
0
LINE
8
Layer 1
10
11.738277
20
84.564289
11
11.773959
21
85.394521
0
LINE
8
Layer 1
10
11.773959
20
85.394521
11
11.449206
21
86.114736
0
LINE
8
Layer 1
10
11.449206
20
86.114736
11
10.847341
21
86.624371
0
LINE
8
Layer 1
10
10.847341
20
86.624371
11
10.702158
21
86.804655
0
LINE
8
Layer 1
10
10.702158
20
86.804655
11
10.741880
21
87.015409
0
LINE
8
Layer 1
10
10.741880
20
87.015409
11
10.909823
21
87.159801
0
LINE
8
Layer 1
10
10.909823
20
87.159801
11
11.149300
21
87.141000
0
LINE
8
Layer 1
10
11.149300
20
87.141000
11
11.149300
21
87.141000
0
LINE
8
Layer 1
10
15.955200
20
86.627400
11
16.003678
21
86.137648
0
LINE
8
Layer 1
10
16.003678
20
86.137648
11
16.002682
21
86.159825
0
LINE
8
Layer 1
10
16.110900
20
86.513600
11
16.127533
21
86.185203
0
LINE
8
Layer 1
10
16.127533
20
86.185203
11
16.121562
21
86.214489
0
LINE
8
Layer 1
10
16.019600
20
85.277000
11
16.030700
21
84.834900
0
LINE
8
Layer 1
10
16.156900
20
85.144400
11
16.163439
21
84.882536
0
LINE
8
Layer 1
10
16.163439
20
84.882536
11
16.170832
21
84.872300
0
LINE
8
Layer 1
10
16.170832
20
84.872300
11
16.175523
21
84.879835
0
LINE
8
Layer 1
10
16.345700
20
83.951700
11
16.520000
21
83.550900
0
LINE
8
Layer 1
10
16.541000
20
83.845300
11
16.633975
21
83.616418
0
LINE
8
Layer 1
10
16.633975
20
83.616418
11
16.632979
21
83.638453
0
LINE
8
Layer 1
10
16.708800
20
82.810500
11
16.725000
21
82.290500
0
LINE
8
Layer 1
10
16.834300
20
82.723700
11
16.853634
21
82.430133
0
LINE
8
Layer 1
10
16.853634
20
82.430133
11
16.847521
21
82.414922
0
LINE
8
Layer 1
10
16.847521
20
82.414922
11
16.840413
21
82.423309
0
LINE
8
Layer 1
10
16.724200
20
81.691300
11
16.698200
21
81.171600
0
LINE
8
Layer 1
10
16.820100
20
81.542600
11
16.812100
21
81.259000
0
LINE
8
Layer 1
10
16.792300
20
80.389300
11
16.970857
21
79.883484
0
LINE
8
Layer 1
10
16.970857
20
79.883484
11
16.956214
21
79.903529
0
LINE
8
Layer 1
10
16.971600
20
80.258100
11
17.065900
21
79.998200
0
LINE
8
Layer 1
10
17.118900
20
79.060300
11
17.102551
21
78.573392
0
LINE
8
Layer 1
10
17.102551
20
78.573392
11
17.098002
21
78.595712
0
LINE
8
Layer 1
10
17.253600
20
78.839900
11
17.222000
21
78.554400
0
LINE
8
Layer 1
10
16.786600
20
77.819200
11
16.475263
21
77.648178
0
LINE
8
Layer 1
10
16.475263
20
77.648178
11
16.460762
21
77.648462
0
LINE
8
Layer 1
10
16.460762
20
77.648462
11
16.465454
21
77.651590
0
LINE
8
Layer 1
10
16.788900
20
77.622100
11
16.547100
21
77.514500
0
LINE
8
Layer 1
10
15.708600
20
77.715500
11
15.366300
21
78.053000
0
LINE
8
Layer 1
10
15.522100
20
77.681600
11
15.344700
21
77.873000
0
LINE
8
Layer 1
10
14.149500
20
77.871300
11
13.790100
21
77.457900
0
LINE
8
Layer 1
10
14.198700
20
77.626600
11
13.997000
21
77.414900
0
LINE
8
Layer 1
10
13.221400
20
77.404000
11
12.772900
21
77.603500
0
LINE
8
Layer 1
10
13.079800
20
77.306400
11
12.802400
21
77.412200
0
LINE
8
Layer 1
10
12.127000
20
78.643100
11
12.242900
21
78.248300
0
LINE
8
Layer 1
10
12.047200
20
78.509200
11
12.116860
21
78.242218
0
LINE
8
Layer 1
10
12.116860
20
78.242218
11
12.110463
21
78.264964
0
LINE
8
Layer 1
10
12.055900
20
79.990300
11
12.002589
21
79.476949
0
LINE
8
Layer 1
10
12.002589
20
79.476949
11
12.000172
21
79.494009
0
LINE
8
Layer 1
10
11.899900
20
79.910700
11
11.853600
21
79.582000
0
LINE
8
Layer 1
10
11.853600
20
79.582000
11
11.858200
21
79.604200
0
LINE
8
Layer 1
10
12.314800
20
81.763000
11
12.329000
21
81.248800
0
LINE
8
Layer 1
10
12.198200
20
81.613800
11
12.200200
21
81.312700
0
LINE
8
Layer 1
10
11.508600
20
83.275100
11
11.732222
21
82.803830
0
LINE
8
Layer 1
10
11.732222
20
82.803830
11
11.716584
21
82.826718
0
LINE
8
Layer 1
10
11.454300
20
83.070400
11
11.592056
21
82.829718
0
LINE
8
Layer 1
10
11.592056
20
82.829718
11
11.574712
21
82.842655
0
LINE
8
Layer 1
10
11.500900
20
84.558600
11
11.432804
21
84.112493
0
LINE
8
Layer 1
10
11.432804
20
84.112493
11
11.432946
21
84.142774
0
LINE
8
Layer 1
10
11.371300
20
84.512600
11
11.329400
21
84.205700
0
LINE
8
Layer 1
10
11.195300
20
85.804300
11
11.390300
21
85.349000
0
LINE
8
Layer 1
10
11.177300
20
85.637100
11
11.285344
21
85.373388
0
LINE
8
Layer 1
10
11.285344
20
85.373388
11
11.275250
21
85.395423
0
LINE
8
Layer 1
10
10.418100
20
86.577100
11
10.590300
21
86.215400
0
LINE
8
Layer 1
10
10.346000
20
86.427700
11
10.427300
21
86.233900
0
LINE
8
Layer 1
10
11.271500
20
87.261100
11
10.931300
21
87.358100
0
LINE
8
Layer 1
10
10.931300
20
87.358100
11
10.710100
21
87.266900
0
LINE
8
Layer 1
10
11.203900
20
87.420100
11
10.770200
21
87.485400
0
LINE
8
Layer 1
10
15.558600
20
87.274600
11
15.329000
21
87.441500
0
LINE
8
Layer 1
10
15.329000
20
87.441500
11
15.049700
21
87.442400
0
LINE
8
Layer 1
10
15.523600
20
87.501100
11
15.167600
21
87.608900
 0 
ENDSEC
 0 
EOF