<?xml version="1.0" encoding="UTF-8" standalone="no"?>
<svg
   width="204mm"
   height="135mm"
   viewBox="0 0 204 135"
   version="1.1"
   preserveAspectRatio="xMidYMid meet"
   id="svg31"
   sodipodi:docname="box.svg"
   inkscape:version="1.2.2 (b0a84865, 2022-12-01)"
   xmlns:inkscape="http://www.inkscape.org/namespaces/inkscape"
   xmlns:sodipodi="http://sodipodi.sourceforge.net/DTD/sodipodi-0.dtd"
   xmlns="http://www.w3.org/2000/svg"
   xmlns:svg="http://www.w3.org/2000/svg">
  <defs
     id="defs35" />
  <sodipodi:namedview
     id="namedview33"
     pagecolor="#ffffff"
     bordercolor="#000000"
     borderopacity="0.25"
     inkscape:showpageshadow="2"
     inkscape:pageopacity="0.0"
     inkscape:pagecheckerboard="0"
     inkscape:deskcolor="#d1d1d1"
     inkscape:document-units="mm"
     showgrid="false"
     inkscape:lockguides="true"
     showguides="false"
     inkscape:zoom="3.0116834"
     inkscape:cx="145.10157"
     inkscape:cy="398.28223"
     inkscape:window-width="1749"
     inkscape:window-height="1205"
     inkscape:window-x="1923"
     inkscape:window-y="104"
     inkscape:window-maximized="0"
     inkscape:current-layer="svgGroup" />
  <g
     id="svgGroup"
     stroke-linecap="round"
     fill-rule="evenodd"
     font-size="9pt"
     stroke="#000"
     stroke-width="0.25mm"
     fill="none"
     style="stroke:#000;stroke-width:0.25mm;fill:none">
    <path
       d="M 0 69 L 0 79.5 L 3 79.5 L 3 94.5 L 0 94.5 L 0 109.5 L 3 109.5 L 3 124.5 L 0 124.5 L 0 135 L 10.5 135 L 10.5 132 L 25.5 132 L 25.5 135 L 40.5 135 L 40.5 132 L 55.5 132 L 55.5 135 L 66 135 L 66 124.5 L 63 124.5 L 63 109.5 L 66 109.5 L 66 94.5 L 63 94.5 L 63 79.5 L 66 79.5 L 66 69 L 55.5 69 L 55.5 72 L 40.5 72 L 40.5 69 L 25.5 69 L 25.5 72 L 10.5 72 L 10.5 69 L 0 69 Z"
       id="front_outsideCutPath"
       stroke="#FF0000"
       stroke-width="0.1"
       style="stroke:#FF0000;stroke-width:0.1"
       vector-effect="non-scaling-stroke" />
    <path
       d="M 42.62 106.985 L 41.55 106.985 L 41.55 102.416 Q 41.55 101.552 41.157 101.127 Q 40.838 100.782 40.228 100.717 A 2.836 2.836 0 0 0 39.925 100.701 A 3.238 3.238 0 0 0 39.32 100.754 Q 38.982 100.818 38.722 100.961 A 1.508 1.508 0 0 0 38.301 101.301 A 1.749 1.749 0 0 0 37.997 101.832 Q 37.814 102.32 37.789 103.047 A 6.854 6.854 0 0 0 37.786 103.279 L 37.786 106.985 L 36.716 106.985 L 36.716 99.921 L 37.586 99.921 L 37.76 100.888 L 37.811 100.888 A 2.166 2.166 0 0 1 38.66 100.116 A 2.606 2.606 0 0 1 38.733 100.079 A 2.897 2.897 0 0 1 39.764 99.804 A 3.503 3.503 0 0 1 40.054 99.792 A 4.224 4.224 0 0 1 40.773 99.849 Q 41.527 99.98 41.975 100.408 A 1.854 1.854 0 0 1 42.427 101.117 Q 42.535 101.409 42.583 101.771 A 4.669 4.669 0 0 1 42.62 102.377 L 42.62 106.985 Z M 22.066 99.921 L 22.066 100.753 L 20.267 100.753 L 20.267 106.985 L 19.197 106.985 L 19.197 100.753 L 17.934 100.753 L 17.934 100.269 L 19.197 99.883 L 19.197 99.489 A 4.336 4.336 0 0 1 19.299 98.507 Q 19.612 97.166 20.893 96.934 A 3.252 3.252 0 0 1 21.473 96.886 A 3.445 3.445 0 0 1 21.96 96.923 Q 22.197 96.957 22.461 97.022 A 6.926 6.926 0 0 1 22.787 97.111 L 22.51 97.968 Q 22.071 97.826 21.722 97.785 A 2.301 2.301 0 0 0 21.453 97.769 A 1.443 1.443 0 0 0 21.105 97.808 A 0.927 0.927 0 0 0 20.557 98.171 A 1.238 1.238 0 0 0 20.394 98.501 Q 20.285 98.824 20.27 99.303 A 5.052 5.052 0 0 0 20.267 99.464 L 20.267 99.921 L 22.066 99.921 Z M 48.066 106.102 L 48.066 106.921 A 1.052 1.052 0 0 1 47.941 106.97 Q 47.808 107.015 47.617 107.049 A 4 4 0 0 1 47.554 107.059 A 4.637 4.637 0 0 1 47.251 107.099 Q 47.088 107.114 46.944 107.114 A 2.794 2.794 0 0 1 46.121 107.003 Q 44.895 106.625 44.895 104.955 L 44.895 100.753 L 43.883 100.753 L 43.883 100.237 L 44.895 99.792 L 45.346 98.284 L 45.965 98.284 L 45.965 99.921 L 48.014 99.921 L 48.014 100.753 L 45.965 100.753 L 45.965 104.91 Q 45.965 105.358 46.114 105.66 A 1.038 1.038 0 0 0 46.268 105.89 A 0.994 0.994 0 0 0 46.879 106.215 A 1.43 1.43 0 0 0 47.099 106.231 A 3.514 3.514 0 0 0 47.614 106.194 A 3.239 3.239 0 0 0 47.647 106.189 Q 47.899 106.149 48.052 106.106 A 1.605 1.605 0 0 0 48.066 106.102 Z M 27.422 99.87 L 27.273 100.862 A 4.715 4.715 0 0 0 26.934 100.8 Q 26.765 100.775 26.615 100.768 A 2.51 2.51 0 0 0 26.5 100.766 Q 25.643 100.766 25.034 101.462 A 2.443 2.443 0 0 0 24.444 102.834 A 3.248 3.248 0 0 0 24.425 103.195 L 24.425 106.985 L 23.355 106.985 L 23.355 99.921 L 24.238 99.921 L 24.36 101.23 L 24.412 101.23 A 3.613 3.613 0 0 1 24.816 100.652 A 2.76 2.76 0 0 1 25.359 100.166 A 2.133 2.133 0 0 1 26.577 99.792 A 4.912 4.912 0 0 1 27.017 99.811 A 3.585 3.585 0 0 1 27.422 99.87 Z M 34.84 103.447 Q 34.84 105.174 33.97 106.144 A 2.852 2.852 0 0 1 32.291 107.054 A 4.155 4.155 0 0 1 31.566 107.114 A 3.436 3.436 0 0 1 30.568 106.974 A 2.979 2.979 0 0 1 29.884 106.669 Q 29.149 106.225 28.749 105.393 A 3.958 3.958 0 0 1 28.417 104.314 A 5.352 5.352 0 0 1 28.35 103.447 Q 28.35 102.132 28.85 101.259 A 2.956 2.956 0 0 1 29.213 100.756 A 2.83 2.83 0 0 1 30.865 99.856 A 4.155 4.155 0 0 1 31.611 99.792 A 3.595 3.595 0 0 1 32.667 99.94 A 2.801 2.801 0 0 1 33.967 100.778 Q 34.84 101.765 34.84 103.447 Z M 29.686 104.932 A 2.245 2.245 0 0 0 30 105.509 A 1.754 1.754 0 0 0 31.142 106.182 A 2.657 2.657 0 0 0 31.592 106.218 A 2.485 2.485 0 0 0 32.247 106.137 A 1.729 1.729 0 0 0 33.187 105.513 A 2.297 2.297 0 0 0 33.545 104.816 Q 33.732 104.244 33.732 103.447 A 5.338 5.338 0 0 0 33.681 102.686 Q 33.566 101.887 33.187 101.4 A 1.76 1.76 0 0 0 32.093 100.748 A 2.698 2.698 0 0 0 31.579 100.701 A 2.546 2.546 0 0 0 30.945 100.775 A 1.704 1.704 0 0 0 29.993 101.391 Q 29.608 101.887 29.5 102.734 A 5.654 5.654 0 0 0 29.458 103.447 Q 29.458 104.325 29.686 104.932 Z"
       id="front_labelLayer"
       stroke="#777777"
       fill="#777777"
       style="stroke:#777777;fill:#777777"
       vector-effect="non-scaling-stroke" />
    <path
       d="M 72 69 L 72 79.5 L 69 79.5 L 69 94.5 L 72 94.5 L 72 109.5 L 69 109.5 L 69 124.5 L 72 124.5 L 72 135 L 79.5 135 L 79.5 132 L 94.5 132 L 94.5 135 L 109.5 135 L 109.5 132 L 124.5 132 L 124.5 135 L 132 135 L 132 124.5 L 135 124.5 L 135 109.5 L 132 109.5 L 132 94.5 L 135 94.5 L 135 79.5 L 132 79.5 L 132 69 L 124.5 69 L 124.5 72 L 109.5 72 L 109.5 69 L 94.5 69 L 94.5 72 L 79.5 72 L 79.5 69 L 72 69 Z"
       id="left_outsideCutPath"
       stroke="#FF0000"
       stroke-width="0.1"
       style="stroke:#FF0000;stroke-width:0.1"
       vector-effect="non-scaling-stroke" />
    <path
       d="M 106.695 99.921 L 106.695 100.753 L 104.897 100.753 L 104.897 106.985 L 103.827 106.985 L 103.827 100.753 L 102.564 100.753 L 102.564 100.269 L 103.827 99.883 L 103.827 99.489 A 4.336 4.336 0 0 1 103.928 98.507 Q 104.242 97.166 105.523 96.934 A 3.252 3.252 0 0 1 106.102 96.886 A 3.445 3.445 0 0 1 106.59 96.923 Q 106.827 96.957 107.091 97.022 A 6.926 6.926 0 0 1 107.417 97.111 L 107.14 97.968 Q 106.701 97.826 106.352 97.785 A 2.301 2.301 0 0 0 106.083 97.769 A 1.443 1.443 0 0 0 105.735 97.808 A 0.927 0.927 0 0 0 105.187 98.171 A 1.238 1.238 0 0 0 105.024 98.501 Q 104.915 98.824 104.9 99.303 A 5.052 5.052 0 0 0 104.897 99.464 L 104.897 99.921 L 106.695 99.921 Z M 101.687 102.97 L 101.687 103.647 L 96.821 103.647 A 4.294 4.294 0 0 0 96.896 104.366 Q 96.974 104.757 97.128 105.066 A 2.009 2.009 0 0 0 97.45 105.535 A 1.944 1.944 0 0 0 98.47 106.11 A 2.946 2.946 0 0 0 99.129 106.18 A 5.651 5.651 0 0 0 101.245 105.76 A 6.475 6.475 0 0 0 101.384 105.703 L 101.384 106.657 Q 100.817 106.902 100.311 107.008 A 4.491 4.491 0 0 1 99.866 107.077 Q 99.646 107.1 99.398 107.109 A 8.717 8.717 0 0 1 99.09 107.114 A 4.158 4.158 0 0 1 98.05 106.991 A 2.944 2.944 0 0 1 96.618 106.16 A 3.149 3.149 0 0 1 95.865 104.777 Q 95.713 104.207 95.713 103.511 Q 95.713 102.119 96.271 101.194 A 3.168 3.168 0 0 1 96.554 100.798 A 2.742 2.742 0 0 1 98.552 99.801 A 3.782 3.782 0 0 1 98.813 99.792 A 3.26 3.26 0 0 1 99.731 99.915 A 2.48 2.48 0 0 1 100.914 100.666 A 2.992 2.992 0 0 1 101.592 102.033 A 4.355 4.355 0 0 1 101.687 102.97 Z M 111.233 106.102 L 111.233 106.921 A 1.052 1.052 0 0 1 111.108 106.97 Q 110.975 107.015 110.784 107.049 A 4 4 0 0 1 110.721 107.059 A 4.637 4.637 0 0 1 110.418 107.099 Q 110.255 107.114 110.111 107.114 A 2.794 2.794 0 0 1 109.288 107.003 Q 108.062 106.625 108.062 104.955 L 108.062 100.753 L 107.05 100.753 L 107.05 100.237 L 108.062 99.792 L 108.513 98.284 L 109.132 98.284 L 109.132 99.921 L 111.181 99.921 L 111.181 100.753 L 109.132 100.753 L 109.132 104.91 Q 109.132 105.358 109.281 105.66 A 1.038 1.038 0 0 0 109.435 105.89 A 0.994 0.994 0 0 0 110.046 106.215 A 1.43 1.43 0 0 0 110.266 106.231 A 3.514 3.514 0 0 0 110.781 106.194 A 3.239 3.239 0 0 0 110.814 106.189 Q 111.066 106.149 111.219 106.106 A 1.605 1.605 0 0 0 111.233 106.102 Z M 93.837 96.956 L 93.837 106.985 L 92.767 106.985 L 92.767 96.956 L 93.837 96.956 Z M 96.847 102.777 L 100.54 102.777 A 3.646 3.646 0 0 0 100.496 102.19 Q 100.399 101.596 100.089 101.226 A 1.466 1.466 0 0 0 99.206 100.724 A 2.199 2.199 0 0 0 98.8 100.688 A 2.109 2.109 0 0 0 98.191 100.772 A 1.629 1.629 0 0 0 97.443 101.243 A 2.114 2.114 0 0 0 97.023 101.952 Q 96.889 102.317 96.847 102.777 Z"
       id="left_labelLayer"
       stroke="#777777"
       fill="#777777"
       style="stroke:#777777;fill:#777777"
       vector-effect="non-scaling-stroke" />
    <path
       d="M 141 72 L 141 79.5 L 138 79.5 L 138 94.5 L 141 94.5 L 141 109.5 L 138 109.5 L 138 124.5 L 141 124.5 L 141 132 L 148.5 132 L 148.5 135 L 163.5 135 L 163.5 132 L 178.5 132 L 178.5 135 L 193.5 135 L 193.5 132 L 201 132 L 201 124.5 L 204 124.5 L 204 109.5 L 201 109.5 L 201 94.5 L 204 94.5 L 204 79.5 L 201 79.5 L 201 72 L 193.5 72 L 193.5 69 L 178.5 69 L 178.5 72 L 163.5 72 L 163.5 69 L 148.5 69 L 148.5 72 L 141 72 Z"
       id="top_outsideCutPath"
       stroke="#FF0000"
       stroke-width="0.1"
       style="stroke:#FF0000;stroke-width:0.1"
       vector-effect="non-scaling-stroke" />
    <path
       d="M 175.744 103.856 L 175.666 103.856 A 10.125 10.125 0 0 1 175.733 104.605 A 8.485 8.485 0 0 1 175.744 105.029 L 175.744 107.936 L 174.674 107.936 L 174.674 97.701 L 175.544 97.701 L 175.692 98.668 L 175.744 98.668 A 2.88 2.88 0 0 1 176.16 98.195 A 2.227 2.227 0 0 1 176.704 97.83 A 2.679 2.679 0 0 1 177.472 97.605 A 3.468 3.468 0 0 1 177.961 97.572 A 3.28 3.28 0 0 1 178.887 97.696 A 2.424 2.424 0 0 1 180.13 98.532 Q 180.894 99.493 180.894 101.227 A 6.273 6.273 0 0 1 180.81 102.282 Q 180.639 103.282 180.117 103.93 A 2.533 2.533 0 0 1 178.317 104.877 A 3.629 3.629 0 0 1 177.961 104.894 A 3.245 3.245 0 0 1 177.145 104.794 A 2.824 2.824 0 0 1 176.701 104.639 A 2.37 2.37 0 0 1 175.744 103.856 Z M 165.289 103.882 L 165.289 104.701 A 1.052 1.052 0 0 1 165.165 104.75 Q 165.031 104.794 164.841 104.828 A 4 4 0 0 1 164.777 104.839 A 4.637 4.637 0 0 1 164.475 104.878 Q 164.312 104.894 164.168 104.894 A 2.794 2.794 0 0 1 163.344 104.783 Q 162.118 104.405 162.118 102.735 L 162.118 98.532 L 161.106 98.532 L 161.106 98.017 L 162.118 97.572 L 162.569 96.064 L 163.188 96.064 L 163.188 97.701 L 165.238 97.701 L 165.238 98.532 L 163.188 98.532 L 163.188 102.69 Q 163.188 103.138 163.338 103.44 A 1.038 1.038 0 0 0 163.491 103.669 A 0.994 0.994 0 0 0 164.102 103.995 A 1.43 1.43 0 0 0 164.323 104.011 A 3.514 3.514 0 0 0 164.837 103.974 A 3.239 3.239 0 0 0 164.87 103.969 Q 165.123 103.929 165.275 103.886 A 1.605 1.605 0 0 0 165.289 103.882 Z M 172.798 101.227 Q 172.798 102.954 171.928 103.924 A 2.852 2.852 0 0 1 170.249 104.833 A 4.155 4.155 0 0 1 169.524 104.894 A 3.436 3.436 0 0 1 168.526 104.753 A 2.979 2.979 0 0 1 167.842 104.449 Q 167.107 104.004 166.707 103.173 A 3.958 3.958 0 0 1 166.375 102.094 A 5.352 5.352 0 0 1 166.308 101.227 Q 166.308 99.911 166.808 99.039 A 2.956 2.956 0 0 1 167.171 98.536 A 2.83 2.83 0 0 1 168.823 97.636 A 4.155 4.155 0 0 1 169.569 97.572 A 3.595 3.595 0 0 1 170.625 97.72 A 2.801 2.801 0 0 1 171.925 98.558 Q 172.798 99.544 172.798 101.227 Z M 167.644 102.712 A 2.245 2.245 0 0 0 167.958 103.289 A 1.754 1.754 0 0 0 169.1 103.962 A 2.657 2.657 0 0 0 169.55 103.998 A 2.485 2.485 0 0 0 170.205 103.917 A 1.729 1.729 0 0 0 171.145 103.292 A 2.297 2.297 0 0 0 171.503 102.596 Q 171.69 102.023 171.69 101.227 A 5.338 5.338 0 0 0 171.639 100.466 Q 171.524 99.666 171.145 99.18 A 1.76 1.76 0 0 0 170.051 98.527 A 2.698 2.698 0 0 0 169.537 98.481 A 2.546 2.546 0 0 0 168.903 98.555 A 1.704 1.704 0 0 0 167.951 99.171 Q 167.566 99.667 167.458 100.514 A 5.654 5.654 0 0 0 167.416 101.227 Q 167.416 102.105 167.644 102.712 Z M 175.744 100.988 L 175.744 101.227 A 7.074 7.074 0 0 0 175.779 101.958 Q 175.876 102.886 176.24 103.357 Q 176.685 103.932 177.612 103.991 A 3.44 3.44 0 0 0 177.832 103.998 A 1.803 1.803 0 0 0 178.533 103.866 Q 178.937 103.698 179.226 103.313 A 2.132 2.132 0 0 0 179.266 103.257 Q 179.675 102.672 179.762 101.738 A 5.7 5.7 0 0 0 179.785 101.214 A 5.399 5.399 0 0 0 179.734 100.448 Q 179.679 100.06 179.561 99.745 A 2.268 2.268 0 0 0 179.266 99.187 Q 178.747 98.481 177.806 98.481 A 3.083 3.083 0 0 0 177.23 98.531 Q 176.909 98.592 176.663 98.728 A 1.414 1.414 0 0 0 176.24 99.08 Q 175.787 99.641 175.747 100.824 A 6.809 6.809 0 0 0 175.744 100.988 Z"
       id="top_labelLayer"
       stroke="#777777"
       fill="#777777"
       style="stroke:#777777;fill:#777777"
       vector-effect="non-scaling-stroke" />
    <path
       d="M 0 0 L 0 10.5 L 3 10.5 L 3 25.5 L 0 25.5 L 0 40.5 L 3 40.5 L 3 55.5 L 0 55.5 L 0 66 L 10.5 66 L 10.5 63 L 25.5 63 L 25.5 66 L 40.5 66 L 40.5 63 L 55.5 63 L 55.5 66 L 66 66 L 66 55.5 L 63 55.5 L 63 40.5 L 66 40.5 L 66 25.5 L 63 25.5 L 63 10.5 L 66 10.5 L 66 0 L 55.5 0 L 55.5 3 L 40.5 3 L 40.5 0 L 25.5 0 L 25.5 3 L 10.5 3 L 10.5 0 L 0 0 Z"
       id="back_outsideCutPath"
       stroke="#FF0000"
       stroke-width="0.1"
       style="stroke:#FF0000;stroke-width:0.1"
       vector-effect="non-scaling-stroke" />
    <path
       d="M 42.036 34.334 L 42.088 34.334 A 6.334 6.334 0 0 1 42.245 34.122 Q 42.425 33.888 42.682 33.589 A 22.991 22.991 0 0 1 42.932 33.303 L 45.214 30.886 L 46.484 30.886 L 43.622 33.896 L 46.683 37.95 L 45.388 37.95 L 42.894 34.611 L 42.088 35.307 L 42.088 37.95 L 41.031 37.95 L 41.031 27.921 L 42.088 27.921 L 42.088 33.238 Q 42.088 33.586 42.038 34.307 A 44.929 44.929 0 0 1 42.036 34.334 Z M 20.387 37.041 L 20.309 37.041 L 20.084 37.95 L 19.317 37.95 L 19.317 27.921 L 20.387 27.921 L 20.387 30.357 A 22.307 22.307 0 0 1 20.374 31.111 Q 20.362 31.491 20.335 31.827 L 20.387 31.827 Q 21.134 30.77 22.604 30.77 A 3.27 3.27 0 0 1 23.524 30.893 A 2.448 2.448 0 0 1 24.766 31.721 A 3.153 3.153 0 0 1 25.319 32.785 Q 25.455 33.224 25.506 33.749 A 6.868 6.868 0 0 1 25.536 34.411 A 6.273 6.273 0 0 1 25.453 35.467 Q 25.282 36.467 24.76 37.115 A 2.533 2.533 0 0 1 22.959 38.062 A 3.629 3.629 0 0 1 22.604 38.079 A 3.245 3.245 0 0 1 21.788 37.979 A 2.824 2.824 0 0 1 21.344 37.824 A 2.37 2.37 0 0 1 20.387 37.041 Z M 32.542 37.95 L 31.75 37.95 L 31.537 36.944 L 31.485 36.944 Q 31.112 37.413 30.741 37.668 A 1.971 1.971 0 0 1 30.432 37.844 A 2.467 2.467 0 0 1 29.922 38.004 Q 29.675 38.056 29.388 38.072 A 4.815 4.815 0 0 1 29.12 38.079 A 3.283 3.283 0 0 1 28.452 38.015 Q 28.043 37.93 27.73 37.732 A 1.842 1.842 0 0 1 27.473 37.537 A 1.759 1.759 0 0 1 26.943 36.61 A 2.692 2.692 0 0 1 26.877 35.997 A 1.851 1.851 0 0 1 27.93 34.25 Q 28.775 33.8 30.299 33.754 L 31.498 33.715 L 31.498 33.277 Q 31.498 32.769 31.365 32.423 A 1.194 1.194 0 0 0 31.141 32.049 A 1.086 1.086 0 0 0 30.696 31.759 Q 30.518 31.694 30.297 31.669 A 2.644 2.644 0 0 0 29.996 31.653 A 3.483 3.483 0 0 0 29.195 31.753 Q 28.634 31.885 27.998 32.194 L 27.67 31.376 A 4.933 4.933 0 0 1 28.622 30.984 A 5.615 5.615 0 0 1 28.814 30.931 Q 29.436 30.77 30.061 30.77 A 4.519 4.519 0 0 1 30.749 30.819 Q 31.103 30.873 31.385 30.989 A 1.821 1.821 0 0 1 31.933 31.331 Q 32.411 31.77 32.514 32.626 A 4.21 4.21 0 0 1 32.542 33.129 L 32.542 37.95 Z M 39.458 31.124 L 39.129 32.033 A 4.76 4.76 0 0 0 38.613 31.861 A 5.685 5.685 0 0 0 38.356 31.798 Q 37.937 31.704 37.615 31.704 A 2.373 2.373 0 0 0 36.651 31.886 Q 35.462 32.41 35.462 34.45 A 5.182 5.182 0 0 0 35.513 35.205 Q 35.626 35.97 35.987 36.448 Q 36.513 37.144 37.544 37.144 A 4.479 4.479 0 0 0 38.779 36.965 A 5.53 5.53 0 0 0 39.355 36.764 L 39.355 37.711 Q 38.746 38.027 37.866 38.072 A 5.867 5.867 0 0 1 37.57 38.079 Q 36.036 38.079 35.195 37.135 A 3.095 3.095 0 0 1 34.551 35.953 Q 34.409 35.483 34.369 34.919 A 6.469 6.469 0 0 1 34.354 34.463 A 5.903 5.903 0 0 1 34.445 33.39 Q 34.633 32.374 35.208 31.724 A 2.77 2.77 0 0 1 36.724 30.851 A 4.2 4.2 0 0 1 37.641 30.757 A 4.828 4.828 0 0 1 38.659 30.867 A 5.34 5.34 0 0 1 38.956 30.939 Q 39.254 31.021 39.452 31.121 A 1.595 1.595 0 0 1 39.458 31.124 Z M 21.283 31.931 A 1.423 1.423 0 0 0 20.87 32.294 A 1.832 1.832 0 0 0 20.605 32.799 Q 20.387 33.411 20.387 34.411 A 7.074 7.074 0 0 0 20.422 35.143 Q 20.518 36.071 20.883 36.542 Q 21.328 37.117 22.254 37.176 A 3.44 3.44 0 0 0 22.475 37.183 A 2.133 2.133 0 0 0 23.081 37.102 A 1.539 1.539 0 0 0 23.944 36.464 A 2.456 2.456 0 0 0 24.248 35.807 Q 24.428 35.219 24.428 34.399 Q 24.428 33.019 23.944 32.343 A 1.56 1.56 0 0 0 22.951 31.714 A 2.475 2.475 0 0 0 22.449 31.666 Q 21.737 31.666 21.283 31.931 Z M 31.472 35.114 L 31.472 34.476 L 30.403 34.521 Q 29.126 34.566 28.562 34.917 A 1.142 1.142 0 0 0 28.018 35.746 A 1.69 1.69 0 0 0 27.998 36.01 Q 27.998 36.59 28.35 36.893 A 1.165 1.165 0 0 0 28.786 37.125 Q 28.959 37.176 29.166 37.19 A 2.406 2.406 0 0 0 29.333 37.196 A 2.946 2.946 0 0 0 29.969 37.131 Q 30.412 37.033 30.739 36.787 A 1.786 1.786 0 0 0 30.902 36.648 Q 31.469 36.103 31.472 35.125 A 3.4 3.4 0 0 0 31.472 35.114 Z"
       id="back_labelLayer"
       stroke="#777777"
       fill="#777777"
       style="stroke:#777777;fill:#777777"
       vector-effect="non-scaling-stroke" />
    <path
       d="M 72 0 L 72 10.5 L 69 10.5 L 69 25.5 L 72 25.5 L 72 40.5 L 69 40.5 L 69 55.5 L 72 55.5 L 72 66 L 79.5 66 L 79.5 63 L 94.5 63 L 94.5 66 L 109.5 66 L 109.5 63 L 124.5 63 L 124.5 66 L 132 66 L 132 55.5 L 135 55.5 L 135 40.5 L 132 40.5 L 132 25.5 L 135 25.5 L 135 10.5 L 132 10.5 L 132 0 L 124.5 0 L 124.5 3 L 109.5 3 L 109.5 0 L 94.5 0 L 94.5 3 L 79.5 3 L 79.5 0 L 72 0 Z"
       id="right_outsideCutPath"
       stroke="#FF0000"
       stroke-width="0.1"
       style="stroke:#FF0000;stroke-width:0.1"
       vector-effect="non-scaling-stroke" />
    <path
       d="M 110.208 36.429 L 109.138 36.429 L 109.138 31.859 Q 109.138 30.995 108.745 30.57 Q 108.427 30.226 107.817 30.16 A 2.836 2.836 0 0 0 107.514 30.145 A 3.238 3.238 0 0 0 106.909 30.197 Q 106.573 30.261 106.315 30.403 A 1.498 1.498 0 0 0 105.887 30.751 A 1.78 1.78 0 0 0 105.584 31.286 Q 105.402 31.776 105.378 32.505 A 6.905 6.905 0 0 0 105.374 32.736 L 105.374 36.429 L 104.304 36.429 L 104.304 26.4 L 105.374 26.4 L 105.374 29.436 A 9.625 9.625 0 0 1 105.367 29.805 Q 105.356 30.113 105.323 30.344 L 105.387 30.344 A 2.138 2.138 0 0 1 106.136 29.624 A 2.611 2.611 0 0 1 106.286 29.542 A 2.747 2.747 0 0 1 107.188 29.275 A 3.472 3.472 0 0 1 107.617 29.249 A 4.341 4.341 0 0 1 108.346 29.306 Q 108.734 29.372 109.041 29.515 A 1.928 1.928 0 0 1 109.56 29.864 A 1.863 1.863 0 0 1 110.02 30.586 Q 110.13 30.886 110.176 31.258 A 4.627 4.627 0 0 1 110.208 31.82 L 110.208 36.429 Z M 100.411 29.365 L 102.854 29.365 L 102.854 30.042 L 101.546 30.196 A 1.739 1.739 0 0 1 101.696 30.42 Q 101.762 30.536 101.822 30.674 A 3.298 3.298 0 0 1 101.868 30.786 A 2.058 2.058 0 0 1 101.99 31.278 A 2.643 2.643 0 0 1 102.01 31.608 A 2.453 2.453 0 0 1 101.897 32.368 A 1.984 1.984 0 0 1 101.301 33.264 A 2.373 2.373 0 0 1 100.367 33.756 Q 99.915 33.883 99.354 33.883 A 3.439 3.439 0 0 1 98.956 33.861 A 2.904 2.904 0 0 1 98.761 33.831 A 1.904 1.904 0 0 0 98.454 34.03 Q 98.296 34.158 98.204 34.304 A 0.805 0.805 0 0 0 98.078 34.74 A 0.555 0.555 0 0 0 98.106 34.922 Q 98.157 35.071 98.302 35.16 A 0.594 0.594 0 0 0 98.317 35.169 A 0.751 0.751 0 0 0 98.483 35.237 Q 98.657 35.288 98.922 35.302 A 4.07 4.07 0 0 0 99.135 35.307 L 100.385 35.307 A 4.38 4.38 0 0 1 101.051 35.355 Q 101.725 35.458 102.148 35.791 A 1.565 1.565 0 0 1 102.73 36.788 A 2.351 2.351 0 0 1 102.764 37.196 A 2.317 2.317 0 0 1 102.631 37.997 Q 102.418 38.581 101.859 38.96 A 2.544 2.544 0 0 1 101.823 38.984 Q 101.167 39.414 100.091 39.544 A 8.48 8.48 0 0 1 99.077 39.6 A 5.994 5.994 0 0 1 98.273 39.55 Q 97.865 39.494 97.532 39.378 A 2.486 2.486 0 0 1 96.94 39.084 A 1.705 1.705 0 0 1 96.391 38.488 Q 96.19 38.115 96.19 37.628 Q 96.19 36.983 96.602 36.513 A 1.868 1.868 0 0 1 97.244 36.045 A 2.648 2.648 0 0 1 97.762 35.875 A 1.11 1.11 0 0 1 97.331 35.526 A 1.318 1.318 0 0 1 97.308 35.494 A 0.992 0.992 0 0 1 97.126 34.958 A 1.229 1.229 0 0 1 97.124 34.895 A 1.224 1.224 0 0 1 97.186 34.501 A 1.084 1.084 0 0 1 97.33 34.218 Q 97.486 33.999 97.778 33.791 A 3.361 3.361 0 0 1 97.981 33.657 A 1.876 1.876 0 0 1 97.167 33.005 A 2.325 2.325 0 0 1 97.089 32.89 A 2.212 2.212 0 0 1 96.749 31.824 A 2.699 2.699 0 0 1 96.744 31.653 A 3.091 3.091 0 0 1 96.825 30.922 A 2.034 2.034 0 0 1 97.44 29.864 Q 98.041 29.322 99.075 29.248 A 4.725 4.725 0 0 1 99.412 29.236 A 4.101 4.101 0 0 1 99.955 29.27 A 3.123 3.123 0 0 1 100.411 29.365 Z M 115.654 35.546 L 115.654 36.364 A 1.052 1.052 0 0 1 115.53 36.414 Q 115.396 36.458 115.206 36.492 A 4 4 0 0 1 115.142 36.503 A 4.637 4.637 0 0 1 114.84 36.542 Q 114.677 36.558 114.533 36.558 A 2.794 2.794 0 0 1 113.709 36.447 Q 112.483 36.069 112.483 34.399 L 112.483 30.196 L 111.471 30.196 L 111.471 29.681 L 112.483 29.236 L 112.934 27.728 L 113.553 27.728 L 113.553 29.365 L 115.603 29.365 L 115.603 30.196 L 113.553 30.196 L 113.553 34.353 Q 113.553 34.802 113.703 35.104 A 1.038 1.038 0 0 0 113.856 35.333 A 0.994 0.994 0 0 0 114.467 35.658 A 1.43 1.43 0 0 0 114.688 35.675 A 3.514 3.514 0 0 0 115.202 35.638 A 3.239 3.239 0 0 0 115.235 35.633 Q 115.488 35.593 115.64 35.55 A 1.605 1.605 0 0 0 115.654 35.546 Z M 92.413 29.313 L 92.264 30.306 A 4.715 4.715 0 0 0 91.925 30.243 Q 91.756 30.219 91.606 30.212 A 2.51 2.51 0 0 0 91.491 30.209 Q 90.634 30.209 90.025 30.905 A 2.443 2.443 0 0 0 89.435 32.277 A 3.248 3.248 0 0 0 89.416 32.639 L 89.416 36.429 L 88.346 36.429 L 88.346 29.365 L 89.229 29.365 L 89.351 30.673 L 89.403 30.673 A 3.613 3.613 0 0 1 89.807 30.096 A 2.76 2.76 0 0 1 90.35 29.61 A 2.133 2.133 0 0 1 91.568 29.236 A 4.912 4.912 0 0 1 92.008 29.255 A 3.585 3.585 0 0 1 92.413 29.313 Z M 94.804 29.365 L 94.804 36.429 L 93.734 36.429 L 93.734 29.365 L 94.804 29.365 Z M 100.044 36.268 L 98.761 36.268 A 2.459 2.459 0 0 0 98.318 36.305 Q 98.066 36.351 97.867 36.454 A 1.253 1.253 0 0 0 97.627 36.616 A 1.127 1.127 0 0 0 97.257 37.255 A 1.712 1.712 0 0 0 97.221 37.615 Q 97.221 38.188 97.704 38.485 Q 98.185 38.78 99.081 38.781 A 5.374 5.374 0 0 0 99.09 38.781 Q 100.293 38.781 100.939 38.46 A 1.777 1.777 0 0 0 101.085 38.379 Q 101.733 37.976 101.733 37.286 A 1.448 1.448 0 0 0 101.706 36.999 Q 101.672 36.833 101.596 36.71 A 0.674 0.674 0 0 0 101.378 36.49 A 1.015 1.015 0 0 0 101.137 36.385 Q 100.881 36.306 100.475 36.28 A 6.808 6.808 0 0 0 100.044 36.268 Z M 97.801 31.627 A 2.088 2.088 0 0 0 97.844 32.065 Q 97.935 32.49 98.22 32.749 A 1.383 1.383 0 0 0 98.776 33.051 Q 99.048 33.129 99.386 33.129 A 2.331 2.331 0 0 0 99.997 33.056 Q 100.953 32.796 100.953 31.608 Q 100.953 30.016 99.367 30.016 A 2.245 2.245 0 0 0 98.91 30.059 Q 98.48 30.149 98.207 30.422 A 1.284 1.284 0 0 0 97.896 30.945 Q 97.831 31.148 97.81 31.394 A 2.815 2.815 0 0 0 97.801 31.627 Z M 93.644 27.451 Q 93.644 27.083 93.824 26.912 Q 94.005 26.742 94.275 26.742 Q 94.533 26.742 94.72 26.916 Q 94.907 27.09 94.907 27.451 Q 94.907 27.694 94.822 27.854 A 0.522 0.522 0 0 1 94.72 27.989 A 0.624 0.624 0 0 1 94.275 28.166 A 0.68 0.68 0 0 1 94.041 28.127 A 0.6 0.6 0 0 1 93.824 27.989 A 0.552 0.552 0 0 1 93.689 27.768 Q 93.644 27.632 93.644 27.451 Z"
       id="right_labelLayer"
       stroke="#777777"
       fill="#777777"
       style="stroke:#777777;fill:#777777"
       vector-effect="non-scaling-stroke" />
    <path
       d="M 141 3 L 141 10.5 L 138 10.5 L 138 25.5 L 141 25.5 L 141 40.5 L 138 40.5 L 138 55.5 L 141 55.5 L 141 63 L 148.5 63 L 148.5 66 L 163.5 66 L 163.5 63 L 178.5 63 L 178.5 66 L 193.5 66 L 193.5 63 L 201 63 L 201 55.5 L 204 55.5 L 204 40.5 L 201 40.5 L 201 25.5 L 204 25.5 L 204 10.5 L 201 10.5 L 201 3 L 193.5 3 L 193.5 0 L 178.5 0 L 178.5 3 L 163.5 3 L 163.5 0 L 148.5 0 L 148.5 3 L 141 3 Z"
       id="bottom_outsideCutPath"
       stroke="#FF0000"
       stroke-width="0.1"
       style="stroke:#FF0000;stroke-width:0.1"
       vector-effect="non-scaling-stroke" />
    <path
       d="M 192.714 37.95 L 191.644 37.95 L 191.644 33.354 A 3.156 3.156 0 0 0 191.612 32.89 Q 191.537 32.385 191.283 32.088 A 1.126 1.126 0 0 0 190.76 31.749 Q 190.501 31.666 190.162 31.666 A 2.753 2.753 0 0 0 189.602 31.719 Q 189.268 31.788 189.018 31.948 A 1.417 1.417 0 0 0 188.686 32.239 A 1.768 1.768 0 0 0 188.386 32.782 Q 188.209 33.279 188.209 34.005 L 188.209 37.95 L 187.139 37.95 L 187.139 33.354 A 3.156 3.156 0 0 0 187.107 32.89 Q 187.032 32.385 186.778 32.088 Q 186.466 31.722 185.849 31.673 A 2.505 2.505 0 0 0 185.65 31.666 A 2.657 2.657 0 0 0 185.101 31.719 Q 184.761 31.791 184.509 31.959 A 1.402 1.402 0 0 0 184.177 32.268 A 1.794 1.794 0 0 0 183.911 32.774 Q 183.71 33.343 183.71 34.244 L 183.71 37.95 L 182.64 37.95 L 182.64 30.886 L 183.51 30.886 L 183.684 31.853 L 183.736 31.853 A 2.103 2.103 0 0 1 184.59 31.047 A 2.54 2.54 0 0 1 185.593 30.765 A 3.068 3.068 0 0 1 185.824 30.757 Q 187.481 30.757 187.99 31.956 L 188.041 31.956 A 2.234 2.234 0 0 1 188.883 31.12 A 2.684 2.684 0 0 1 188.957 31.079 A 2.708 2.708 0 0 1 189.95 30.777 A 3.377 3.377 0 0 1 190.323 30.757 A 3.719 3.719 0 0 1 190.998 30.814 Q 191.373 30.883 191.665 31.037 A 1.763 1.763 0 0 1 192.118 31.372 Q 192.714 31.988 192.714 33.341 L 192.714 37.95 Z M 150.356 37.041 L 150.278 37.041 L 150.053 37.95 L 149.286 37.95 L 149.286 27.921 L 150.356 27.921 L 150.356 30.357 A 22.307 22.307 0 0 1 150.344 31.111 Q 150.331 31.491 150.304 31.827 L 150.356 31.827 Q 151.103 30.77 152.573 30.77 A 3.27 3.27 0 0 1 153.493 30.893 A 2.448 2.448 0 0 1 154.735 31.72 A 3.153 3.153 0 0 1 155.288 32.785 Q 155.424 33.224 155.475 33.749 A 6.868 6.868 0 0 1 155.505 34.411 A 6.273 6.273 0 0 1 155.422 35.467 Q 155.251 36.467 154.729 37.115 A 2.533 2.533 0 0 1 152.929 38.062 A 3.629 3.629 0 0 1 152.573 38.079 A 3.245 3.245 0 0 1 151.757 37.979 A 2.824 2.824 0 0 1 151.313 37.824 A 2.37 2.37 0 0 1 150.356 37.041 Z M 168.596 37.067 L 168.596 37.885 A 1.052 1.052 0 0 1 168.471 37.935 Q 168.338 37.979 168.147 38.013 A 4 4 0 0 1 168.083 38.024 A 4.637 4.637 0 0 1 167.781 38.063 Q 167.618 38.079 167.474 38.079 A 2.794 2.794 0 0 1 166.651 37.968 Q 165.425 37.59 165.425 35.92 L 165.425 31.717 L 164.413 31.717 L 164.413 31.202 L 165.425 30.757 L 165.876 29.249 L 166.495 29.249 L 166.495 30.886 L 168.544 30.886 L 168.544 31.717 L 166.495 31.717 L 166.495 35.874 Q 166.495 36.323 166.644 36.625 A 1.038 1.038 0 0 0 166.798 36.854 A 0.994 0.994 0 0 0 167.409 37.179 A 1.43 1.43 0 0 0 167.629 37.196 A 3.514 3.514 0 0 0 168.144 37.159 A 3.239 3.239 0 0 0 168.177 37.154 Q 168.429 37.114 168.582 37.071 A 1.605 1.605 0 0 0 168.596 37.067 Z M 173.256 37.067 L 173.256 37.885 A 1.052 1.052 0 0 1 173.131 37.935 Q 172.998 37.979 172.807 38.013 A 4 4 0 0 1 172.743 38.024 A 4.637 4.637 0 0 1 172.441 38.063 Q 172.278 38.079 172.134 38.079 A 2.794 2.794 0 0 1 171.311 37.968 Q 170.085 37.59 170.085 35.92 L 170.085 31.717 L 169.073 31.717 L 169.073 31.202 L 170.085 30.757 L 170.536 29.249 L 171.155 29.249 L 171.155 30.886 L 173.204 30.886 L 173.204 31.717 L 171.155 31.717 L 171.155 35.874 Q 171.155 36.323 171.304 36.625 A 1.038 1.038 0 0 0 171.458 36.854 A 0.994 0.994 0 0 0 172.069 37.179 A 1.43 1.43 0 0 0 172.289 37.196 A 3.514 3.514 0 0 0 172.804 37.159 A 3.239 3.239 0 0 0 172.837 37.154 Q 173.089 37.114 173.241 37.071 A 1.605 1.605 0 0 0 173.256 37.067 Z M 163.472 34.411 Q 163.472 36.139 162.602 37.109 A 2.852 2.852 0 0 1 160.923 38.018 A 4.155 4.155 0 0 1 160.198 38.079 A 3.436 3.436 0 0 1 159.199 37.938 A 2.979 2.979 0 0 1 158.515 37.634 Q 157.781 37.189 157.381 36.358 A 3.958 3.958 0 0 1 157.049 35.278 A 5.352 5.352 0 0 1 156.981 34.411 Q 156.981 33.096 157.482 32.224 A 2.956 2.956 0 0 1 157.845 31.72 A 2.83 2.83 0 0 1 159.496 30.821 A 4.155 4.155 0 0 1 160.243 30.757 A 3.595 3.595 0 0 1 161.298 30.904 A 2.801 2.801 0 0 1 162.599 31.743 Q 163.472 32.729 163.472 34.411 Z M 180.765 34.411 Q 180.765 36.139 179.894 37.109 A 2.852 2.852 0 0 1 178.216 38.018 A 4.155 4.155 0 0 1 177.49 38.079 A 3.436 3.436 0 0 1 176.492 37.938 A 2.979 2.979 0 0 1 175.808 37.634 Q 175.073 37.189 174.674 36.358 A 3.958 3.958 0 0 1 174.341 35.278 A 5.352 5.352 0 0 1 174.274 34.411 Q 174.274 33.096 174.775 32.224 A 2.956 2.956 0 0 1 175.138 31.72 A 2.83 2.83 0 0 1 176.789 30.821 A 4.155 4.155 0 0 1 177.536 30.757 A 3.595 3.595 0 0 1 178.591 30.904 A 2.801 2.801 0 0 1 179.891 31.743 Q 180.765 32.729 180.765 34.411 Z M 158.318 35.897 A 2.245 2.245 0 0 0 158.631 36.474 A 1.754 1.754 0 0 0 159.773 37.146 A 2.657 2.657 0 0 0 160.223 37.183 A 2.485 2.485 0 0 0 160.879 37.101 A 1.729 1.729 0 0 0 161.819 36.477 A 2.297 2.297 0 0 0 162.176 35.78 Q 162.363 35.208 162.363 34.411 A 5.338 5.338 0 0 0 162.313 33.651 Q 162.197 32.851 161.819 32.365 A 1.76 1.76 0 0 0 160.724 31.712 A 2.698 2.698 0 0 0 160.211 31.666 A 2.546 2.546 0 0 0 159.577 31.74 A 1.704 1.704 0 0 0 158.625 32.355 Q 158.24 32.852 158.132 33.699 A 5.654 5.654 0 0 0 158.09 34.411 Q 158.09 35.29 158.318 35.897 Z M 175.611 35.897 A 2.245 2.245 0 0 0 175.924 36.474 A 1.754 1.754 0 0 0 177.066 37.146 A 2.657 2.657 0 0 0 177.516 37.183 A 2.485 2.485 0 0 0 178.172 37.101 A 1.729 1.729 0 0 0 179.111 36.477 A 2.297 2.297 0 0 0 179.469 35.78 Q 179.656 35.208 179.656 34.411 A 5.338 5.338 0 0 0 179.605 33.651 Q 179.49 32.851 179.111 32.365 A 1.76 1.76 0 0 0 178.017 31.712 A 2.698 2.698 0 0 0 177.503 31.666 A 2.546 2.546 0 0 0 176.869 31.74 A 1.704 1.704 0 0 0 175.918 32.355 Q 175.533 32.852 175.425 33.699 A 5.654 5.654 0 0 0 175.383 34.411 Q 175.383 35.29 175.611 35.897 Z M 151.252 31.931 A 1.423 1.423 0 0 0 150.839 32.294 A 1.832 1.832 0 0 0 150.574 32.799 Q 150.356 33.411 150.356 34.411 A 7.074 7.074 0 0 0 150.391 35.143 Q 150.487 36.071 150.852 36.542 Q 151.297 37.116 152.223 37.176 A 3.44 3.44 0 0 0 152.444 37.183 A 2.133 2.133 0 0 0 153.05 37.102 A 1.539 1.539 0 0 0 153.913 36.464 A 2.456 2.456 0 0 0 154.217 35.807 Q 154.397 35.219 154.397 34.398 Q 154.397 33.019 153.913 32.342 A 1.56 1.56 0 0 0 152.92 31.714 A 2.475 2.475 0 0 0 152.418 31.666 Q 151.706 31.666 151.252 31.931 Z"
       id="bottom_labelLayer"
       stroke="#777777"
       fill="#777777"
       style="stroke:#777777;fill:#777777"
       vector-effect="non-scaling-stroke" />
  </g>
  <rect
     style="fill:none;stroke:#ff0000;stroke-width:0.100534;stroke-dasharray:none;stroke-opacity:0.0666667"
     id="rect455"
     width="29.899467"
     height="13.899467"
     x="18.050266"
     y="95.05027" />
</svg>
