999
"DXF R12 Output" (www.mydxf.blogspot.com)
 0 
SECTION
 2 
HEADER
 9 
$ACADVER
 1 
AC1009
 9 
$EXTMIN
 10 
 0 
 20 
 0 
 9 
$EXTMAX
 10 
 8.5 
 20 
 11 
 0 
ENDSEC
 0 
SECTION
 2 
ENTITIES
0
LINE
8
Layer 1
10
0.793749
20
297.794000
11
-0.793749
21
296.206000
0
LINE
8
Layer 1
10
0.000000
20
298.323000
11
0.000000
21
295.677000
0
LINE
8
Layer 1
10
2.116660
20
295.942000
11
1.058330
21
294.883670
0
LINE
8
Layer 1
10
1.587500
20
296.471000
11
0.529170
21
295.412670
0
LINE
8
Layer 1
10
1.058330
20
297.000000
11
0.000000
21
295.941670
0
LINE
8
0
10
0.000000
20
66.000300
11
0.000000
21
55.500300
0
LINE
8
0
10
0.000000
20
55.500300
11
3.000000
21
55.500300
0
LINE
8
0
10
3.000000
20
55.500300
11
3.000000
21
40.500300
0
LINE
8
0
10
3.000000
20
40.500300
11
0.000000
21
40.500300
0
LINE
8
0
10
0.000000
20
40.500300
11
0.000000
21
25.500300
0
LINE
8
0
10
0.000000
20
25.500300
11
3.000000
21
25.500300
0
LINE
8
0
10
3.000000
20
25.500300
11
3.000000
21
10.500400
0
LINE
8
0
10
3.000000
20
10.500400
11
0.000000
21
10.500400
0
LINE
8
0
10
0.000000
20
10.500400
11
0.000000
21
0.000374
0
LINE
8
0
10
0.000000
20
0.000374
11
10.500000
21
0.000374
0
LINE
8
0
10
10.500000
20
0.000374
11
10.500000
21
3.000370
0
LINE
8
0
10
10.500000
20
3.000370
11
25.500000
21
3.000370
0
LINE
8
0
10
25.500000
20
3.000370
11
25.500000
21
0.000374
0
LINE
8
0
10
25.500000
20
0.000374
11
40.499900
21
0.000374
0
LINE
8
0
10
40.499900
20
0.000374
11
40.499900
21
3.000370
0
LINE
8
0
10
40.499900
20
3.000370
11
55.499900
21
3.000370
0
LINE
8
0
10
55.499900
20
3.000370
11
55.499900
21
0.000374
0
LINE
8
0
10
55.499900
20
0.000374
11
65.999900
21
0.000374
0
LINE
8
0
10
65.999900
20
0.000374
11
65.999900
21
10.500400
0
LINE
8
0
10
65.999900
20
10.500400
11
62.999900
21
10.500400
0
LINE
8
0
10
62.999900
20
10.500400
11
62.999900
21
25.500300
0
LINE
8
0
10
62.999900
20
25.500300
11
65.999900
21
25.500300
0
LINE
8
0
10
65.999900
20
25.500300
11
65.999900
21
40.500300
0
LINE
8
0
10
65.999900
20
40.500300
11
62.999900
21
40.500300
0
LINE
8
0
10
62.999900
20
40.500300
11
62.999900
21
55.500300
0
LINE
8
0
10
62.999900
20
55.500300
11
65.999900
21
55.500300
0
LINE
8
0
10
65.999900
20
55.500300
11
65.999900
21
66.000300
0
LINE
8
0
10
65.999900
20
66.000300
11
55.499900
21
66.000300
0
LINE
8
0
10
55.499900
20
66.000300
11
55.499900
21
63.000300
0
LINE
8
0
10
55.499900
20
63.000300
11
40.499900
21
63.000300
0
LINE
8
0
10
40.499900
20
63.000300
11
40.499900
21
66.000300
0
LINE
8
0
10
40.499900
20
66.000300
11
25.500000
21
66.000300
0
LINE
8
0
10
25.500000
20
66.000300
11
25.500000
21
63.000300
0
LINE
8
0
10
25.500000
20
63.000300
11
10.500000
21
63.000300
0
LINE
8
0
10
10.500000
20
63.000300
11
10.500000
21
66.000300
0
LINE
8
0
10
10.500000
20
66.000300
11
0.000000
21
66.000300
0
LINE
8
0
10
0.000000
20
66.000300
11
0.000000
21
66.000300
0
LINE
8
0
10
0.000000
20
66.000300
11
0.000000
21
66.000300
0
LINE
8
0
10
71.999900
20
66.000300
11
71.999900
21
55.500300
0
LINE
8
0
10
71.999900
20
55.500300
11
68.999900
21
55.500300
0
LINE
8
0
10
68.999900
20
55.500300
11
68.999900
21
40.500300
0
LINE
8
0
10
68.999900
20
40.500300
11
71.999900
21
40.500300
0
LINE
8
0
10
71.999900
20
40.500300
11
71.999900
21
25.500300
0
LINE
8
0
10
71.999900
20
25.500300
11
68.999900
21
25.500300
0
LINE
8
0
10
68.999900
20
25.500300
11
68.999900
21
10.500400
0
LINE
8
0
10
68.999900
20
10.500400
11
71.999900
21
10.500400
0
LINE
8
0
10
71.999900
20
10.500400
11
71.999900
21
0.000374
0
LINE
8
0
10
71.999900
20
0.000374
11
79.499900
21
0.000374
0
LINE
8
0
10
79.499900
20
0.000374
11
79.499900
21
3.000370
0
LINE
8
0
10
79.499900
20
3.000370
11
94.499900
21
3.000370
0
LINE
8
0
10
94.499900
20
3.000370
11
94.499900
21
0.000374
0
LINE
8
0
10
94.499900
20
0.000374
11
109.500000
21
0.000374
0
LINE
8
0
10
109.500000
20
0.000374
11
109.500000
21
3.000370
0
LINE
8
0
10
109.500000
20
3.000370
11
124.500000
21
3.000370
0
LINE
8
0
10
124.500000
20
3.000370
11
124.500000
21
0.000374
0
LINE
8
0
10
124.500000
20
0.000374
11
132.000000
21
0.000374
0
LINE
8
0
10
132.000000
20
0.000374
11
132.000000
21
10.500400
0
LINE
8
0
10
132.000000
20
10.500400
11
135.000000
21
10.500400
0
LINE
8
0
10
135.000000
20
10.500400
11
135.000000
21
25.500300
0
LINE
8
0
10
135.000000
20
25.500300
11
132.000000
21
25.500300
0
LINE
8
0
10
132.000000
20
25.500300
11
132.000000
21
40.500300
0
LINE
8
0
10
132.000000
20
40.500300
11
135.000000
21
40.500300
0
LINE
8
0
10
135.000000
20
40.500300
11
135.000000
21
55.500300
0
LINE
8
0
10
135.000000
20
55.500300
11
132.000000
21
55.500300
0
LINE
8
0
10
132.000000
20
55.500300
11
132.000000
21
66.000300
0
LINE
8
0
10
132.000000
20
66.000300
11
124.500000
21
66.000300
0
LINE
8
0
10
124.500000
20
66.000300
11
124.500000
21
63.000300
0
LINE
8
0
10
124.500000
20
63.000300
11
109.500000
21
63.000300
0
LINE
8
0
10
109.500000
20
63.000300
11
109.500000
21
66.000300
0
LINE
8
0
10
109.500000
20
66.000300
11
94.499900
21
66.000300
0
LINE
8
0
10
94.499900
20
66.000300
11
94.499900
21
63.000300
0
LINE
8
0
10
94.499900
20
63.000300
11
79.499900
21
63.000300
0
LINE
8
0
10
79.499900
20
63.000300
11
79.499900
21
66.000300
0
LINE
8
0
10
79.499900
20
66.000300
11
71.999900
21
66.000300
0
LINE
8
0
10
71.999900
20
66.000300
11
71.999900
21
66.000300
0
LINE
8
0
10
71.999900
20
66.000300
11
71.999900
21
66.000300
0
LINE
8
0
10
141.000000
20
63.000300
11
141.000000
21
55.500300
0
LINE
8
0
10
141.000000
20
55.500300
11
138.000000
21
55.500300
0
LINE
8
0
10
138.000000
20
55.500300
11
138.000000
21
40.500300
0
LINE
8
0
10
138.000000
20
40.500300
11
141.000000
21
40.500300
0
LINE
8
0
10
141.000000
20
40.500300
11
141.000000
21
25.500300
0
LINE
8
0
10
141.000000
20
25.500300
11
138.000000
21
25.500300
0
LINE
8
0
10
138.000000
20
25.500300
11
138.000000
21
10.500400
0
LINE
8
0
10
138.000000
20
10.500400
11
141.000000
21
10.500400
0
LINE
8
0
10
141.000000
20
10.500400
11
141.000000
21
3.000370
0
LINE
8
0
10
141.000000
20
3.000370
11
148.500000
21
3.000370
0
LINE
8
0
10
148.500000
20
3.000370
11
148.500000
21
0.000374
0
LINE
8
0
10
148.500000
20
0.000374
11
163.500000
21
0.000374
0
LINE
8
0
10
163.500000
20
0.000374
11
163.500000
21
3.000370
0
LINE
8
0
10
163.500000
20
3.000370
11
178.500000
21
3.000370
0
LINE
8
0
10
178.500000
20
3.000370
11
178.500000
21
0.000374
0
LINE
8
0
10
178.500000
20
0.000374
11
193.500000
21
0.000374
0
LINE
8
0
10
193.500000
20
0.000374
11
193.500000
21
3.000370
0
LINE
8
0
10
193.500000
20
3.000370
11
201.000000
21
3.000370
0
LINE
8
0
10
201.000000
20
3.000370
11
201.000000
21
10.500400
0
LINE
8
0
10
201.000000
20
10.500400
11
204.000000
21
10.500400
0
LINE
8
0
10
204.000000
20
10.500400
11
204.000000
21
25.500300
0
LINE
8
0
10
204.000000
20
25.500300
11
201.000000
21
25.500300
0
LINE
8
0
10
201.000000
20
25.500300
11
201.000000
21
40.500300
0
LINE
8
0
10
201.000000
20
40.500300
11
204.000000
21
40.500300
0
LINE
8
0
10
204.000000
20
40.500300
11
204.000000
21
55.500300
0
LINE
8
0
10
204.000000
20
55.500300
11
201.000000
21
55.500300
0
LINE
8
0
10
201.000000
20
55.500300
11
201.000000
21
63.000300
0
LINE
8
0
10
201.000000
20
63.000300
11
193.500000
21
63.000300
0
LINE
8
0
10
193.500000
20
63.000300
11
193.500000
21
66.000300
0
LINE
8
0
10
193.500000
20
66.000300
11
178.500000
21
66.000300
0
LINE
8
0
10
178.500000
20
66.000300
11
178.500000
21
63.000300
0
LINE
8
0
10
178.500000
20
63.000300
11
163.500000
21
63.000300
0
LINE
8
0
10
163.500000
20
63.000300
11
163.500000
21
66.000300
0
LINE
8
0
10
163.500000
20
66.000300
11
148.500000
21
66.000300
0
LINE
8
0
10
148.500000
20
66.000300
11
148.500000
21
63.000300
0
LINE
8
0
10
148.500000
20
63.000300
11
141.000000
21
63.000300
0
LINE
8
0
10
141.000000
20
63.000300
11
141.000000
21
63.000300
0
LINE
8
0
10
141.000000
20
63.000300
11
141.000000
21
63.000300
0
LINE
8
0
10
0.000000
20
135.000000
11
0.000000
21
124.500000
0
LINE
8
0
10
0.000000
20
124.500000
11
3.000000
21
124.500000
0
LINE
8
0
10
3.000000
20
124.500000
11
3.000000
21
109.500000
0
LINE
8
0
10
3.000000
20
109.500000
11
0.000000
21
109.500000
0
LINE
8
0
10
0.000000
20
109.500000
11
0.000000
21
94.500300
0
LINE
8
0
10
0.000000
20
94.500300
11
3.000000
21
94.500300
0
LINE
8
0
10
3.000000
20
94.500300
11
3.000000
21
79.500300
0
LINE
8
0
10
3.000000
20
79.500300
11
0.000000
21
79.500300
0
LINE
8
0
10
0.000000
20
79.500300
11
0.000000
21
69.000300
0
LINE
8
0
10
0.000000
20
69.000300
11
10.500000
21
69.000300
0
LINE
8
0
10
10.500000
20
69.000300
11
10.500000
21
72.000300
0
LINE
8
0
10
10.500000
20
72.000300
11
25.500000
21
72.000300
0
LINE
8
0
10
25.500000
20
72.000300
11
25.500000
21
69.000300
0
LINE
8
0
10
25.500000
20
69.000300
11
40.499900
21
69.000300
0
LINE
8
0
10
40.499900
20
69.000300
11
40.499900
21
72.000300
0
LINE
8
0
10
40.499900
20
72.000300
11
55.499900
21
72.000300
0
LINE
8
0
10
55.499900
20
72.000300
11
55.499900
21
69.000300
0
LINE
8
0
10
55.499900
20
69.000300
11
65.999900
21
69.000300
0
LINE
8
0
10
65.999900
20
69.000300
11
65.999900
21
79.500300
0
LINE
8
0
10
65.999900
20
79.500300
11
62.999900
21
79.500300
0
LINE
8
0
10
62.999900
20
79.500300
11
62.999900
21
94.500300
0
LINE
8
0
10
62.999900
20
94.500300
11
65.999900
21
94.500300
0
LINE
8
0
10
65.999900
20
94.500300
11
65.999900
21
109.500000
0
LINE
8
0
10
65.999900
20
109.500000
11
62.999900
21
109.500000
0
LINE
8
0
10
62.999900
20
109.500000
11
62.999900
21
124.500000
0
LINE
8
0
10
62.999900
20
124.500000
11
65.999900
21
124.500000
0
LINE
8
0
10
65.999900
20
124.500000
11
65.999900
21
135.000000
0
LINE
8
0
10
65.999900
20
135.000000
11
55.499900
21
135.000000
0
LINE
8
0
10
55.499900
20
135.000000
11
55.499900
21
132.000000
0
LINE
8
0
10
55.499900
20
132.000000
11
40.499900
21
132.000000
0
LINE
8
0
10
40.499900
20
132.000000
11
40.499900
21
135.000000
0
LINE
8
0
10
40.499900
20
135.000000
11
25.500000
21
135.000000
0
LINE
8
0
10
25.500000
20
135.000000
11
25.500000
21
132.000000
0
LINE
8
0
10
25.500000
20
132.000000
11
10.500000
21
132.000000
0
LINE
8
0
10
10.500000
20
132.000000
11
10.500000
21
135.000000
0
LINE
8
0
10
10.500000
20
135.000000
11
0.000000
21
135.000000
0
LINE
8
0
10
0.000000
20
135.000000
11
0.000000
21
135.000000
0
LINE
8
0
10
0.000000
20
135.000000
11
0.000000
21
135.000000
0
LINE
8
0
10
71.999900
20
135.000000
11
71.999900
21
124.500000
0
LINE
8
0
10
71.999900
20
124.500000
11
68.999900
21
124.500000
0
LINE
8
0
10
68.999900
20
124.500000
11
68.999900
21
109.500000
0
LINE
8
0
10
68.999900
20
109.500000
11
71.999900
21
109.500000
0
LINE
8
0
10
71.999900
20
109.500000
11
71.999900
21
94.500300
0
LINE
8
0
10
71.999900
20
94.500300
11
68.999900
21
94.500300
0
LINE
8
0
10
68.999900
20
94.500300
11
68.999900
21
79.500300
0
LINE
8
0
10
68.999900
20
79.500300
11
71.999900
21
79.500300
0
LINE
8
0
10
71.999900
20
79.500300
11
71.999900
21
69.000300
0
LINE
8
0
10
71.999900
20
69.000300
11
79.499900
21
69.000300
0
LINE
8
0
10
79.499900
20
69.000300
11
79.499900
21
72.000300
0
LINE
8
0
10
79.499900
20
72.000300
11
94.499900
21
72.000300
0
LINE
8
0
10
94.499900
20
72.000300
11
94.499900
21
69.000300
0
LINE
8
0
10
94.499900
20
69.000300
11
109.500000
21
69.000300
0
LINE
8
0
10
109.500000
20
69.000300
11
109.500000
21
72.000300
0
LINE
8
0
10
109.500000
20
72.000300
11
124.500000
21
72.000300
0
LINE
8
0
10
124.500000
20
72.000300
11
124.500000
21
69.000300
0
LINE
8
0
10
124.500000
20
69.000300
11
132.000000
21
69.000300
0
LINE
8
0
10
132.000000
20
69.000300
11
132.000000
21
79.500300
0
LINE
8
0
10
132.000000
20
79.500300
11
135.000000
21
79.500300
0
LINE
8
0
10
135.000000
20
79.500300
11
135.000000
21
94.500300
0
LINE
8
0
10
135.000000
20
94.500300
11
132.000000
21
94.500300
0
LINE
8
0
10
132.000000
20
94.500300
11
132.000000
21
109.500000
0
LINE
8
0
10
132.000000
20
109.500000
11
135.000000
21
109.500000
0
LINE
8
0
10
135.000000
20
109.500000
11
135.000000
21
124.500000
0
LINE
8
0
10
135.000000
20
124.500000
11
132.000000
21
124.500000
0
LINE
8
0
10
132.000000
20
124.500000
11
132.000000
21
135.000000
0
LINE
8
0
10
132.000000
20
135.000000
11
124.500000
21
135.000000
0
LINE
8
0
10
124.500000
20
135.000000
11
124.500000
21
132.000000
0
LINE
8
0
10
124.500000
20
132.000000
11
109.500000
21
132.000000
0
LINE
8
0
10
109.500000
20
132.000000
11
109.500000
21
135.000000
0
LINE
8
0
10
109.500000
20
135.000000
11
94.499900
21
135.000000
0
LINE
8
0
10
94.499900
20
135.000000
11
94.499900
21
132.000000
0
LINE
8
0
10
94.499900
20
132.000000
11
79.499900
21
132.000000
0
LINE
8
0
10
79.499900
20
132.000000
11
79.499900
21
135.000000
0
LINE
8
0
10
79.499900
20
135.000000
11
71.999900
21
135.000000
0
LINE
8
0
10
71.999900
20
135.000000
11
71.999900
21
135.000000
0
LINE
8
0
10
71.999900
20
135.000000
11
71.999900
21
135.000000
0
LINE
8
0
10
141.000000
20
132.000000
11
141.000000
21
124.500000
0
LINE
8
0
10
141.000000
20
124.500000
11
138.000000
21
124.500000
0
LINE
8
0
10
138.000000
20
124.500000
11
138.000000
21
109.500000
0
LINE
8
0
10
138.000000
20
109.500000
11
141.000000
21
109.500000
0
LINE
8
0
10
141.000000
20
109.500000
11
141.000000
21
94.500300
0
LINE
8
0
10
141.000000
20
94.500300
11
138.000000
21
94.500300
0
LINE
8
0
10
138.000000
20
94.500300
11
138.000000
21
79.500300
0
LINE
8
0
10
138.000000
20
79.500300
11
141.000000
21
79.500300
0
LINE
8
0
10
141.000000
20
79.500300
11
141.000000
21
72.000300
0
LINE
8
0
10
141.000000
20
72.000300
11
148.500000
21
72.000300
0
LINE
8
0
10
148.500000
20
72.000300
11
148.500000
21
69.000300
0
LINE
8
0
10
148.500000
20
69.000300
11
163.500000
21
69.000300
0
LINE
8
0
10
163.500000
20
69.000300
11
163.500000
21
72.000300
0
LINE
8
0
10
163.500000
20
72.000300
11
178.500000
21
72.000300
0
LINE
8
0
10
178.500000
20
72.000300
11
178.500000
21
69.000300
0
LINE
8
0
10
178.500000
20
69.000300
11
193.500000
21
69.000300
0
LINE
8
0
10
193.500000
20
69.000300
11
193.500000
21
72.000300
0
LINE
8
0
10
193.500000
20
72.000300
11
201.000000
21
72.000300
0
LINE
8
0
10
201.000000
20
72.000300
11
201.000000
21
79.500300
0
LINE
8
0
10
201.000000
20
79.500300
11
204.000000
21
79.500300
0
LINE
8
0
10
204.000000
20
79.500300
11
204.000000
21
94.500300
0
LINE
8
0
10
204.000000
20
94.500300
11
201.000000
21
94.500300
0
LINE
8
0
10
201.000000
20
94.500300
11
201.000000
21
109.500000
0
LINE
8
0
10
201.000000
20
109.500000
11
204.000000
21
109.500000
0
LINE
8
0
10
204.000000
20
109.500000
11
204.000000
21
124.500000
0
LINE
8
0
10
204.000000
20
124.500000
11
201.000000
21
124.500000
0
LINE
8
0
10
201.000000
20
124.500000
11
201.000000
21
132.000000
0
LINE
8
0
10
201.000000
20
132.000000
11
193.500000
21
132.000000
0
LINE
8
0
10
193.500000
20
132.000000
11
193.500000
21
135.000000
0
LINE
8
0
10
193.500000
20
135.000000
11
178.500000
21
135.000000
0
LINE
8
0
10
178.500000
20
135.000000
11
178.500000
21
132.000000
0
LINE
8
0
10
178.500000
20
132.000000
11
163.500000
21
132.000000
0
LINE
8
0
10
163.500000
20
132.000000
11
163.500000
21
135.000000
0
LINE
8
0
10
163.500000
20
135.000000
11
148.500000
21
135.000000
0
LINE
8
0
10
148.500000
20
135.000000
11
148.500000
21
132.000000
0
LINE
8
0
10
148.500000
20
132.000000
11
141.000000
21
132.000000
0
LINE
8
0
10
141.000000
20
132.000000
11
141.000000
21
132.000000
0
LINE
8
0
10
141.000000
20
132.000000
11
141.000000
21
132.000000
0
LINE
8
0
10
18.050200
20
39.950100
11
47.949700
21
39.950100
0
LINE
8
0
10
47.949700
20
39.950100
11
47.949700
21
26.050600
0
LINE
8
0
10
47.949700
20
26.050600
11
18.050200
21
26.050600
0
LINE
8
0
10
18.050200
20
26.050600
11
18.050200
21
39.950100
0
LINE
8
0
10
18.050200
20
39.950100
11
18.050200
21
39.950100
 0 
ENDSEC
 0 
EOF