999
"DXF R12 Output" (www.mydxf.blogspot.com)
 0 
SECTION
 2 
HEADER
 9 
$ACADVER
 1 
AC1009
 9 
$EXTMIN
 10 
 0 
 20 
 0 
 9 
$EXTMAX
 10 
 8.5 
 20 
 11 
 0 
ENDSEC
 0 
SECTION
 2 
ENTITIES
0
LINE
8
Layer 1
10
22.348300
20
274.653000
11
106.348000
21
274.653000
0
LINE
8
Layer 1
10
106.348000
20
274.653000
11
107.960275
21
274.490467
0
LINE
8
Layer 1
10
107.960275
20
274.490467
11
109.461954
21
274.024318
0
LINE
8
Layer 1
10
109.461954
20
274.024318
11
110.820866
21
273.286724
0
LINE
8
Layer 1
10
110.820866
20
273.286724
11
112.004841
21
272.309854
0
LINE
8
Layer 1
10
112.004841
20
272.309854
11
112.981709
21
271.125877
0
LINE
8
Layer 1
10
112.981709
20
271.125877
11
113.719302
21
269.766965
0
LINE
8
Layer 1
10
113.719302
20
269.766965
11
114.185449
21
268.265286
0
LINE
8
Layer 1
10
114.185449
20
268.265286
11
114.347980
21
266.653010
0
LINE
8
Layer 1
10
114.347980
20
266.653010
11
114.348000
21
231.653000
0
LINE
8
Layer 1
10
114.348000
20
231.653000
11
114.185469
21
230.040724
0
LINE
8
Layer 1
10
114.185469
20
230.040724
11
113.719322
21
228.539045
0
LINE
8
Layer 1
10
113.719322
20
228.539045
11
112.981729
21
227.180133
0
LINE
8
Layer 1
10
112.981729
20
227.180133
11
112.004861
21
225.996156
0
LINE
8
Layer 1
10
112.004861
20
225.996156
11
110.820886
21
225.019286
0
LINE
8
Layer 1
10
110.820886
20
225.019286
11
109.461974
21
224.281692
0
LINE
8
Layer 1
10
109.461974
20
224.281692
11
107.960295
21
223.815543
0
LINE
8
Layer 1
10
107.960295
20
223.815543
11
106.348020
21
223.653010
0
LINE
8
Layer 1
10
106.348020
20
223.653010
11
22.348300
21
223.653000
0
LINE
8
Layer 1
10
22.348300
20
223.653000
11
20.736025
21
223.815533
0
LINE
8
Layer 1
10
20.736025
20
223.815533
11
19.234346
21
224.281682
0
LINE
8
Layer 1
10
19.234346
20
224.281682
11
17.875434
21
225.019276
0
LINE
8
Layer 1
10
17.875434
20
225.019276
11
16.691459
21
225.996146
0
LINE
8
Layer 1
10
16.691459
20
225.996146
11
15.714591
21
227.180123
0
LINE
8
Layer 1
10
15.714591
20
227.180123
11
14.976998
21
228.539035
0
LINE
8
Layer 1
10
14.976998
20
228.539035
11
14.510851
21
230.040714
0
LINE
8
Layer 1
10
14.510851
20
230.040714
11
14.348320
21
231.652990
0
LINE
8
Layer 1
10
14.348320
20
231.652990
11
14.348400
21
266.653000
0
LINE
8
Layer 1
10
14.348400
20
266.653000
11
14.510931
21
268.265276
0
LINE
8
Layer 1
10
14.510931
20
268.265276
11
14.977078
21
269.766955
0
LINE
8
Layer 1
10
14.977078
20
269.766955
11
15.714671
21
271.125867
0
LINE
8
Layer 1
10
15.714671
20
271.125867
11
16.691539
21
272.309844
0
LINE
8
Layer 1
10
16.691539
20
272.309844
11
17.875514
21
273.286714
0
LINE
8
Layer 1
10
17.875514
20
273.286714
11
19.234426
21
274.024308
0
LINE
8
Layer 1
10
19.234426
20
274.024308
11
20.736105
21
274.490457
0
LINE
8
Layer 1
10
20.736105
20
274.490457
11
22.348380
21
274.652990
0
LINE
8
Layer 1
10
22.348380
20
274.652990
11
22.348300
21
274.653000
0
LINE
8
Layer 1
10
24.500100
20
246.289000
11
44.535500
21
246.289000
0
LINE
8
Layer 1
10
44.535500
20
246.289000
11
44.535500
21
247.581000
0
LINE
8
Layer 1
10
44.535500
20
247.581000
11
24.500100
21
247.581000
0
LINE
8
Layer 1
10
24.500100
20
247.581000
11
24.500100
21
246.289000
0
LINE
8
Layer 1
10
24.500100
20
244.768000
11
44.535500
21
244.768000
0
LINE
8
Layer 1
10
44.535500
20
244.768000
11
44.535500
21
243.475000
0
LINE
8
Layer 1
10
44.535500
20
243.475000
11
24.500100
21
243.475000
0
LINE
8
Layer 1
10
24.500100
20
243.475000
11
24.500100
21
244.768000
0
LINE
8
Layer 1
10
104.671000
20
246.289000
11
84.635900
21
246.289000
0
LINE
8
Layer 1
10
84.635900
20
246.289000
11
84.635900
21
247.581000
0
LINE
8
Layer 1
10
84.635900
20
247.581000
11
104.671000
21
247.581000
0
LINE
8
Layer 1
10
104.671000
20
247.581000
11
104.671000
21
246.289000
0
LINE
8
Layer 1
10
104.671000
20
244.768000
11
84.635900
21
244.768000
0
LINE
8
Layer 1
10
84.635900
20
244.768000
11
84.635900
21
243.475000
0
LINE
8
Layer 1
10
84.635900
20
243.475000
11
104.671000
21
243.475000
0
LINE
8
Layer 1
10
104.671000
20
243.475000
11
104.671000
21
244.768000
0
LINE
8
Layer 1
10
28.570900
20
268.652000
11
100.571000
21
268.652000
0
LINE
8
Layer 1
10
100.571000
20
268.652000
11
101.355003
21
268.574431
0
LINE
8
Layer 1
10
101.355003
20
268.574431
11
102.101730
21
268.347519
0
LINE
8
Layer 1
10
102.101730
20
268.347519
11
102.790196
21
267.979955
0
LINE
8
Layer 1
10
102.790196
20
267.979955
11
103.399420
21
267.480430
0
LINE
8
Layer 1
10
103.399420
20
267.480430
11
103.898945
21
266.871206
0
LINE
8
Layer 1
10
103.898945
20
266.871206
11
104.266509
21
266.182740
0
LINE
8
Layer 1
10
104.266509
20
266.182740
11
104.493421
21
265.436013
0
LINE
8
Layer 1
10
104.493421
20
265.436013
11
104.570990
21
264.652010
0
LINE
8
Layer 1
10
104.570990
20
264.652010
11
104.571000
21
257.652000
0
LINE
8
Layer 1
10
104.571000
20
257.652000
11
104.493431
21
256.867997
0
LINE
8
Layer 1
10
104.493431
20
256.867997
11
104.266519
21
256.121270
0
LINE
8
Layer 1
10
104.266519
20
256.121270
11
103.898955
21
255.432804
0
LINE
8
Layer 1
10
103.898955
20
255.432804
11
103.399430
21
254.823580
0
LINE
8
Layer 1
10
103.399430
20
254.823580
11
102.790206
21
254.324055
0
LINE
8
Layer 1
10
102.790206
20
254.324055
11
102.101740
21
253.956491
0
LINE
8
Layer 1
10
102.101740
20
253.956491
11
101.355013
21
253.729579
0
LINE
8
Layer 1
10
101.355013
20
253.729579
11
100.571010
21
253.652010
0
LINE
8
Layer 1
10
100.571010
20
253.652010
11
28.570900
21
253.652000
0
LINE
8
Layer 1
10
28.570900
20
253.652000
11
27.786897
21
253.729569
0
LINE
8
Layer 1
10
27.786897
20
253.729569
11
27.040170
21
253.956481
0
LINE
8
Layer 1
10
27.040170
20
253.956481
11
26.351704
21
254.324045
0
LINE
8
Layer 1
10
26.351704
20
254.324045
11
25.742480
21
254.823570
0
LINE
8
Layer 1
10
25.742480
20
254.823570
11
25.242955
21
255.432794
0
LINE
8
Layer 1
10
25.242955
20
255.432794
11
24.875391
21
256.121260
0
LINE
8
Layer 1
10
24.875391
20
256.121260
11
24.648479
21
256.867987
0
LINE
8
Layer 1
10
24.648479
20
256.867987
11
24.570910
21
257.651990
0
LINE
8
Layer 1
10
24.570910
20
257.651990
11
24.570900
21
264.652000
0
LINE
8
Layer 1
10
24.570900
20
264.652000
11
24.648469
21
265.436003
0
LINE
8
Layer 1
10
24.648469
20
265.436003
11
24.875381
21
266.182730
0
LINE
8
Layer 1
10
24.875381
20
266.182730
11
25.242945
21
266.871196
0
LINE
8
Layer 1
10
25.242945
20
266.871196
11
25.742470
21
267.480420
0
LINE
8
Layer 1
10
25.742470
20
267.480420
11
26.351694
21
267.979945
0
LINE
8
Layer 1
10
26.351694
20
267.979945
11
27.040160
21
268.347509
0
LINE
8
Layer 1
10
27.040160
20
268.347509
11
27.786887
21
268.574421
0
LINE
8
Layer 1
10
27.786887
20
268.574421
11
28.570890
21
268.651990
0
LINE
8
Layer 1
10
28.570890
20
268.651990
11
28.570900
21
268.652000
0
LINE
8
Layer 1
10
21.822500
20
219.854000
11
31.822500
21
219.854000
0
LINE
8
Layer 1
10
31.822500
20
219.854000
11
32.802507
21
219.757041
0
LINE
8
Layer 1
10
32.802507
20
219.757041
11
33.735918
21
219.473401
0
LINE
8
Layer 1
10
33.735918
20
219.473401
11
34.596504
21
219.013947
0
LINE
8
Layer 1
10
34.596504
20
219.013947
11
35.358037
21
218.389541
0
LINE
8
Layer 1
10
35.358037
20
218.389541
11
35.982446
21
217.628011
0
LINE
8
Layer 1
10
35.982446
20
217.628011
11
36.441904
21
216.767426
0
LINE
8
Layer 1
10
36.441904
20
216.767426
11
36.725547
21
215.834016
0
LINE
8
Layer 1
10
36.725547
20
215.834016
11
36.822510
21
214.854010
0
LINE
8
Layer 1
10
36.822510
20
214.854010
11
36.822500
21
184.854000
0
LINE
8
Layer 1
10
36.822500
20
184.854000
11
36.725542
21
183.873989
0
LINE
8
Layer 1
10
36.725542
20
183.873989
11
36.441902
21
182.940574
0
LINE
8
Layer 1
10
36.441902
20
182.940574
11
35.982446
21
182.079985
0
LINE
8
Layer 1
10
35.982446
20
182.079985
11
35.358037
21
181.318450
0
LINE
8
Layer 1
10
35.358037
20
181.318450
11
34.596504
21
180.694039
0
LINE
8
Layer 1
10
34.596504
20
180.694039
11
33.735915
21
180.234581
0
LINE
8
Layer 1
10
33.735915
20
180.234581
11
32.802501
21
179.950940
0
LINE
8
Layer 1
10
32.802501
20
179.950940
11
31.822490
21
179.853980
0
LINE
8
Layer 1
10
31.822490
20
179.853980
11
21.822500
21
179.854000
0
LINE
8
Layer 1
10
21.822500
20
179.854000
11
20.842493
21
179.950961
0
LINE
8
Layer 1
10
20.842493
20
179.950961
11
19.909083
21
180.234602
0
LINE
8
Layer 1
10
19.909083
20
180.234602
11
19.048497
21
180.694059
0
LINE
8
Layer 1
10
19.048497
20
180.694059
11
18.286966
21
181.318466
0
LINE
8
Layer 1
10
18.286966
20
181.318466
11
17.662559
21
182.079997
0
LINE
8
Layer 1
10
17.662559
20
182.079997
11
17.203102
21
182.940583
0
LINE
8
Layer 1
10
17.203102
20
182.940583
11
16.919461
21
183.873993
0
LINE
8
Layer 1
10
16.919461
20
183.873993
11
16.822500
21
184.854000
0
LINE
8
Layer 1
10
16.822500
20
184.854000
11
16.822500
21
214.854000
0
LINE
8
Layer 1
10
16.822500
20
214.854000
11
16.919464
21
215.834008
0
LINE
8
Layer 1
10
16.919464
20
215.834008
11
17.203107
21
216.767419
0
LINE
8
Layer 1
10
17.203107
20
216.767419
11
17.662566
21
217.628004
0
LINE
8
Layer 1
10
17.662566
20
217.628004
11
18.286977
21
218.389535
0
LINE
8
Layer 1
10
18.286977
20
218.389535
11
19.048511
21
219.013940
0
LINE
8
Layer 1
10
19.048511
20
219.013940
11
19.909099
21
219.473394
0
LINE
8
Layer 1
10
19.909099
20
219.473394
11
20.842512
21
219.757032
0
LINE
8
Layer 1
10
20.842512
20
219.757032
11
21.822520
21
219.853990
0
LINE
8
Layer 1
10
21.822520
20
219.853990
11
21.822500
21
219.854000
0
LINE
8
Layer 1
10
56.822500
20
179.854000
11
57.802511
21
179.950960
0
LINE
8
Layer 1
10
57.802511
20
179.950960
11
58.735925
21
180.234601
0
LINE
8
Layer 1
10
58.735925
20
180.234601
11
59.596514
21
180.694059
0
LINE
8
Layer 1
10
59.596514
20
180.694059
11
60.358047
21
181.318470
0
LINE
8
Layer 1
10
60.358047
20
181.318470
11
60.982456
21
182.080005
0
LINE
8
Layer 1
10
60.982456
20
182.080005
11
61.441912
21
182.940594
0
LINE
8
Layer 1
10
61.441912
20
182.940594
11
61.725552
21
183.874009
0
LINE
8
Layer 1
10
61.725552
20
183.874009
11
61.822510
21
184.854020
0
LINE
8
Layer 1
10
61.822510
20
184.854020
11
61.822500
21
214.854000
0
LINE
8
Layer 1
10
61.822500
20
214.854000
11
61.725537
21
215.834006
0
LINE
8
Layer 1
10
61.725537
20
215.834006
11
61.441894
21
216.767416
0
LINE
8
Layer 1
10
61.441894
20
216.767416
11
60.982436
21
217.628001
0
LINE
8
Layer 1
10
60.982436
20
217.628001
11
60.358027
21
218.389531
0
LINE
8
Layer 1
10
60.358027
20
218.389531
11
59.596494
21
219.013937
0
LINE
8
Layer 1
10
59.596494
20
219.013937
11
58.735908
21
219.473391
0
LINE
8
Layer 1
10
58.735908
20
219.473391
11
57.802497
21
219.757031
0
LINE
8
Layer 1
10
57.802497
20
219.757031
11
56.822490
21
219.853990
0
LINE
8
Layer 1
10
56.822490
20
219.853990
11
46.822500
21
219.854000
0
LINE
8
Layer 1
10
46.822500
20
219.854000
11
45.842492
21
219.757042
0
LINE
8
Layer 1
10
45.842492
20
219.757042
11
44.909079
21
219.473404
0
LINE
8
Layer 1
10
44.909079
20
219.473404
11
44.048491
21
219.013950
0
LINE
8
Layer 1
10
44.048491
20
219.013950
11
43.286957
21
218.389545
0
LINE
8
Layer 1
10
43.286957
20
218.389545
11
42.662546
21
217.628014
0
LINE
8
Layer 1
10
42.662546
20
217.628014
11
42.203087
21
216.767429
0
LINE
8
Layer 1
10
42.203087
20
216.767429
11
41.919444
21
215.834018
0
LINE
8
Layer 1
10
41.919444
20
215.834018
11
41.822480
21
214.854010
0
LINE
8
Layer 1
10
41.822480
20
214.854010
11
41.822500
21
184.854000
0
LINE
8
Layer 1
10
41.822500
20
184.854000
11
41.919458
21
183.873988
0
LINE
8
Layer 1
10
41.919458
20
183.873988
11
42.203099
21
182.940572
0
LINE
8
Layer 1
10
42.203099
20
182.940572
11
42.662556
21
182.079982
0
LINE
8
Layer 1
10
42.662556
20
182.079982
11
43.286966
21
181.318446
0
LINE
8
Layer 1
10
43.286966
20
181.318446
11
44.048502
21
180.694036
0
LINE
8
Layer 1
10
44.048502
20
180.694036
11
44.909092
21
180.234579
0
LINE
8
Layer 1
10
44.909092
20
180.234579
11
45.842508
21
179.950938
0
LINE
8
Layer 1
10
45.842508
20
179.950938
11
46.822520
21
179.853980
0
LINE
8
Layer 1
10
46.822520
20
179.853980
11
56.822500
21
179.854000
0
LINE
8
Layer 1
10
81.822500
20
179.854000
11
82.802512
21
179.950958
0
LINE
8
Layer 1
10
82.802512
20
179.950958
11
83.735928
21
180.234599
0
LINE
8
Layer 1
10
83.735928
20
180.234599
11
84.596518
21
180.694056
0
LINE
8
Layer 1
10
84.596518
20
180.694056
11
85.358054
21
181.318466
0
LINE
8
Layer 1
10
85.358054
20
181.318466
11
85.982464
21
182.080002
0
LINE
8
Layer 1
10
85.982464
20
182.080002
11
86.441921
21
182.940592
0
LINE
8
Layer 1
10
86.441921
20
182.940592
11
86.725562
21
183.874008
0
LINE
8
Layer 1
10
86.725562
20
183.874008
11
86.822520
21
184.854020
0
LINE
8
Layer 1
10
86.822520
20
184.854020
11
86.822500
21
214.854000
0
LINE
8
Layer 1
10
86.822500
20
214.854000
11
86.725536
21
215.834008
0
LINE
8
Layer 1
10
86.725536
20
215.834008
11
86.441893
21
216.767419
0
LINE
8
Layer 1
10
86.441893
20
216.767419
11
85.982434
21
217.628004
0
LINE
8
Layer 1
10
85.982434
20
217.628004
11
85.358023
21
218.389535
0
LINE
8
Layer 1
10
85.358023
20
218.389535
11
84.596489
21
219.013940
0
LINE
8
Layer 1
10
84.596489
20
219.013940
11
83.735901
21
219.473394
0
LINE
8
Layer 1
10
83.735901
20
219.473394
11
82.802488
21
219.757032
0
LINE
8
Layer 1
10
82.802488
20
219.757032
11
81.822480
21
219.853990
0
LINE
8
Layer 1
10
81.822480
20
219.853990
11
71.822500
21
219.854000
0
LINE
8
Layer 1
10
71.822500
20
219.854000
11
70.814829
21
219.752416
0
LINE
8
Layer 1
10
70.814829
20
219.752416
11
69.876280
21
219.461073
0
LINE
8
Layer 1
10
69.876280
20
219.461073
11
69.026961
21
219.000077
0
LINE
8
Layer 1
10
69.026961
20
219.000077
11
68.286976
21
218.389534
0
LINE
8
Layer 1
10
68.286976
20
218.389534
11
67.676433
21
217.649549
0
LINE
8
Layer 1
10
67.676433
20
217.649549
11
67.215437
21
216.800230
0
LINE
8
Layer 1
10
67.215437
20
216.800230
11
66.924094
21
215.861681
0
LINE
8
Layer 1
10
66.924094
20
215.861681
11
66.822510
21
214.854010
0
LINE
8
Layer 1
10
66.822510
20
214.854010
11
66.822500
21
184.854000
0
LINE
8
Layer 1
10
66.822500
20
184.854000
11
66.919458
21
183.873992
0
LINE
8
Layer 1
10
66.919458
20
183.873992
11
67.203096
21
182.940579
0
LINE
8
Layer 1
10
67.203096
20
182.940579
11
67.662550
21
182.079991
0
LINE
8
Layer 1
10
67.662550
20
182.079991
11
68.286955
21
181.318457
0
LINE
8
Layer 1
10
68.286955
20
181.318457
11
69.048486
21
180.694046
0
LINE
8
Layer 1
10
69.048486
20
180.694046
11
69.909071
21
180.234587
0
LINE
8
Layer 1
10
69.909071
20
180.234587
11
70.842482
21
179.950944
0
LINE
8
Layer 1
10
70.842482
20
179.950944
11
71.822490
21
179.853980
0
LINE
8
Layer 1
10
71.822490
20
179.853980
11
81.822500
21
179.854000
0
LINE
8
Layer 1
10
106.822000
20
179.854000
11
107.802008
21
179.950964
0
LINE
8
Layer 1
10
107.802008
20
179.950964
11
108.735419
21
180.234607
0
LINE
8
Layer 1
10
108.735419
20
180.234607
11
109.596004
21
180.694066
0
LINE
8
Layer 1
10
109.596004
20
180.694066
11
110.357535
21
181.318477
0
LINE
8
Layer 1
10
110.357535
20
181.318477
11
110.981940
21
182.080011
0
LINE
8
Layer 1
10
110.981940
20
182.080011
11
111.441394
21
182.940599
0
LINE
8
Layer 1
10
111.441394
20
182.940599
11
111.725032
21
183.874012
0
LINE
8
Layer 1
10
111.725032
20
183.874012
11
111.821990
21
184.854020
0
LINE
8
Layer 1
10
111.821990
20
184.854020
11
111.822000
21
214.854000
0
LINE
8
Layer 1
10
111.822000
20
214.854000
11
111.720416
21
215.861671
0
LINE
8
Layer 1
10
111.720416
20
215.861671
11
111.429073
21
216.800220
0
LINE
8
Layer 1
10
111.429073
20
216.800220
11
110.968077
21
217.649539
0
LINE
8
Layer 1
10
110.968077
20
217.649539
11
110.357534
21
218.389524
0
LINE
8
Layer 1
10
110.357534
20
218.389524
11
109.617549
21
219.000067
0
LINE
8
Layer 1
10
109.617549
20
219.000067
11
108.768230
21
219.461063
0
LINE
8
Layer 1
10
108.768230
20
219.461063
11
107.829681
21
219.752406
0
LINE
8
Layer 1
10
107.829681
20
219.752406
11
106.822010
21
219.853990
0
LINE
8
Layer 1
10
106.822010
20
219.853990
11
96.822500
21
219.854000
0
LINE
8
Layer 1
10
96.822500
20
219.854000
11
95.814829
21
219.752416
0
LINE
8
Layer 1
10
95.814829
20
219.752416
11
94.876280
21
219.461073
0
LINE
8
Layer 1
10
94.876280
20
219.461073
11
94.026961
21
219.000077
0
LINE
8
Layer 1
10
94.026961
20
219.000077
11
93.286976
21
218.389534
0
LINE
8
Layer 1
10
93.286976
20
218.389534
11
92.676433
21
217.649549
0
LINE
8
Layer 1
10
92.676433
20
217.649549
11
92.215437
21
216.800230
0
LINE
8
Layer 1
10
92.215437
20
216.800230
11
91.924094
21
215.861681
0
LINE
8
Layer 1
10
91.924094
20
215.861681
11
91.822510
21
214.854010
0
LINE
8
Layer 1
10
91.822510
20
214.854010
11
91.822500
21
184.854000
0
LINE
8
Layer 1
10
91.822500
20
184.854000
11
91.919458
21
183.873992
0
LINE
8
Layer 1
10
91.919458
20
183.873992
11
92.203096
21
182.940579
0
LINE
8
Layer 1
10
92.203096
20
182.940579
11
92.662550
21
182.079991
0
LINE
8
Layer 1
10
92.662550
20
182.079991
11
93.286955
21
181.318457
0
LINE
8
Layer 1
10
93.286955
20
181.318457
11
94.048486
21
180.694046
0
LINE
8
Layer 1
10
94.048486
20
180.694046
11
94.909071
21
180.234587
0
LINE
8
Layer 1
10
94.909071
20
180.234587
11
95.842482
21
179.950944
0
LINE
8
Layer 1
10
95.842482
20
179.950944
11
96.822490
21
179.853980
0
LINE
8
Layer 1
10
96.822490
20
179.853980
11
106.822000
21
179.854000
0
LINE
8
Layer 1
10
16.184300
20
171.696000
11
16.184300
21
175.489000
0
LINE
8
Layer 1
10
16.184300
20
175.489000
11
113.169000
21
175.489000
0
LINE
8
Layer 1
10
113.169000
20
175.489000
11
113.169000
21
171.696000
0
LINE
8
Layer 1
10
113.169000
20
171.696000
11
16.184300
21
171.696000
0
LINE
8
Layer 1
10
128.436000
20
196.152000
11
128.435000
21
196.151000
0
LINE
8
Layer 1
10
128.435000
20
196.151000
11
127.660000
21
196.593000
0
LINE
8
Layer 1
10
127.660000
20
196.593000
11
127.878000
21
197.089000
0
LINE
8
Layer 1
10
127.878000
20
197.089000
11
127.995000
21
197.060000
0
LINE
8
Layer 1
10
127.995000
20
197.060000
11
128.085000
21
197.338000
0
LINE
8
Layer 1
10
128.085000
20
197.338000
11
128.662461
21
198.263172
0
LINE
8
Layer 1
10
128.662461
20
198.263172
11
129.375812
21
199.087000
0
LINE
8
Layer 1
10
129.375812
20
199.087000
11
130.202883
21
199.792328
0
LINE
8
Layer 1
10
130.202883
20
199.792328
11
131.121500
21
200.362000
0
LINE
8
Layer 1
10
131.121500
20
200.362000
11
132.109492
21
200.778859
0
LINE
8
Layer 1
10
132.109492
20
200.778859
11
133.144687
21
201.025750
0
LINE
8
Layer 1
10
133.144687
20
201.025750
11
134.204914
21
201.085516
0
LINE
8
Layer 1
10
134.204914
20
201.085516
11
135.268000
21
200.941000
0
LINE
8
Layer 1
10
135.268000
20
200.941000
11
136.611862
21
200.784167
0
LINE
8
Layer 1
10
136.611862
20
200.784167
11
137.727972
21
200.910858
0
LINE
8
Layer 1
10
137.727972
20
200.910858
11
139.157160
21
201.453414
0
LINE
8
Layer 1
10
139.157160
20
201.453414
11
140.955580
21
202.477039
0
LINE
8
Layer 1
10
140.955580
20
202.477039
11
142.859180
21
203.272404
0
LINE
8
Layer 1
10
142.859180
20
203.272404
11
144.140045
21
203.407723
0
LINE
8
Layer 1
10
144.140045
20
203.407723
11
145.486766
21
203.250060
0
LINE
8
Layer 1
10
145.486766
20
203.250060
11
148.047790
21
202.509644
0
LINE
8
Layer 1
10
148.047790
20
202.509644
11
149.177158
21
202.199158
0
LINE
8
Layer 1
10
149.177158
20
202.199158
11
150.225814
21
202.059409
0
LINE
8
Layer 1
10
150.225814
20
202.059409
11
151.173996
21
202.072274
0
LINE
8
Layer 1
10
151.173996
20
202.072274
11
152.001943
21
202.219630
0
LINE
8
Layer 1
10
152.001943
20
202.219630
11
152.689894
21
202.483355
0
LINE
8
Layer 1
10
152.689894
20
202.483355
11
153.218088
21
202.845325
0
LINE
8
Layer 1
10
153.218088
20
202.845325
11
153.566763
21
203.287419
0
LINE
8
Layer 1
10
153.566763
20
203.287419
11
153.716160
21
203.791514
0
LINE
8
Layer 1
10
153.716160
20
203.791514
11
153.569003
21
204.234151
0
LINE
8
Layer 1
10
153.569003
20
204.234151
11
153.099360
21
204.531126
0
LINE
8
Layer 1
10
153.099360
20
204.531126
11
151.537876
21
204.804046
0
LINE
8
Layer 1
10
151.537876
20
204.804046
11
148.342930
21
204.877464
0
LINE
8
Layer 1
10
148.342930
20
204.877464
11
146.123621
21
205.395268
0
LINE
8
Layer 1
10
146.123621
20
205.395268
11
144.810901
21
205.667456
0
LINE
8
Layer 1
10
144.810901
20
205.667456
11
143.726600
21
205.726883
0
LINE
8
Layer 1
10
143.726600
20
205.726883
11
141.984275
21
205.439383
0
LINE
8
Layer 1
10
141.984275
20
205.439383
11
140.689370
21
205.118601
0
LINE
8
Layer 1
10
140.689370
20
205.118601
11
138.862218
21
204.657000
0
LINE
8
Layer 1
10
138.862218
20
204.657000
11
137.820696
21
204.598593
0
LINE
8
Layer 1
10
137.820696
20
204.598593
11
136.587960
21
204.825554
0
LINE
8
Layer 1
10
136.587960
20
204.825554
11
135.937814
21
205.094320
0
LINE
8
Layer 1
10
135.937814
20
205.094320
11
135.936139
21
205.091808
0
LINE
8
Layer 1
10
135.936139
20
205.091808
11
135.795476
21
205.172187
0
LINE
8
Layer 1
10
135.795476
20
205.172187
11
135.770358
21
205.186421
0
LINE
8
Layer 1
10
135.770358
20
205.186421
11
135.032297
21
205.607153
0
LINE
8
Layer 1
10
135.032297
20
205.607153
11
135.219010
21
205.790098
0
LINE
8
Layer 1
10
135.219010
20
205.790098
11
135.185100
21
206.006534
0
LINE
8
Layer 1
10
135.185100
20
206.006534
11
135.352733
21
206.441977
0
LINE
8
Layer 1
10
135.352733
20
206.441977
11
135.722058
21
206.714190
0
LINE
8
Layer 1
10
135.722058
20
206.714190
11
136.588380
21
206.852603
0
LINE
8
Layer 1
10
136.588380
20
206.852603
11
137.654507
21
206.851953
0
LINE
8
Layer 1
10
137.654507
20
206.851953
11
138.627912
21
207.091678
0
LINE
8
Layer 1
10
138.627912
20
207.091678
11
140.403230
21
208.043056
0
LINE
8
Layer 1
10
140.403230
20
208.043056
11
142.127683
21
209.208331
0
LINE
8
Layer 1
10
142.127683
20
209.208331
11
143.037507
21
209.715430
0
LINE
8
Layer 1
10
143.037507
20
209.715430
11
144.014620
21
210.089103
0
LINE
8
Layer 1
10
144.014620
20
210.089103
11
145.190464
21
210.278504
0
LINE
8
Layer 1
10
145.190464
20
210.278504
11
146.367840
21
210.277438
0
LINE
8
Layer 1
10
146.367840
20
210.277438
11
148.736450
21
210.248186
0
LINE
8
Layer 1
10
148.736450
20
210.248186
11
150.963087
21
210.587284
0
LINE
8
Layer 1
10
150.963087
20
210.587284
11
151.970827
21
211.007978
0
LINE
8
Layer 1
10
151.970827
20
211.007978
11
152.696770
21
211.722636
0
LINE
8
Layer 1
10
152.696770
20
211.722636
11
152.829168
21
212.214808
0
LINE
8
Layer 1
10
152.829168
20
212.214808
11
152.555140
21
212.500441
0
LINE
8
Layer 1
10
152.555140
20
212.500441
11
151.950609
21
212.610206
0
LINE
8
Layer 1
10
151.950609
20
212.610206
11
151.091499
21
212.574775
0
LINE
8
Layer 1
10
151.091499
20
212.574775
11
148.913242
21
212.191014
0
LINE
8
Layer 1
10
148.913242
20
212.191014
11
146.627760
21
211.594532
0
LINE
8
Layer 1
10
146.627760
20
211.594532
11
144.939370
21
211.305337
0
LINE
8
Layer 1
10
144.939370
20
211.305337
11
143.563587
21
211.367995
0
LINE
8
Layer 1
10
143.563587
20
211.367995
11
141.765690
21
211.698773
0
LINE
8
Layer 1
10
141.765690
20
211.698773
11
140.710223
21
211.658066
0
LINE
8
Layer 1
10
140.710223
20
211.658066
11
139.741257
21
211.463863
0
LINE
8
Layer 1
10
139.741257
20
211.463863
11
137.853090
21
210.679803
0
LINE
8
Layer 1
10
137.853090
20
210.679803
11
136.917849
21
210.080521
0
LINE
8
Layer 1
10
136.917849
20
210.080521
11
135.929860
21
209.606833
0
LINE
8
Layer 1
10
135.929860
20
209.606833
11
134.581530
21
209.406723
0
LINE
8
Layer 1
10
134.581530
20
209.406723
11
133.216240
21
209.407561
0
LINE
8
Layer 1
10
133.216240
20
209.407561
11
131.053184
21
209.402432
0
LINE
8
Layer 1
10
131.053184
20
209.402432
11
130.023956
21
209.138873
0
LINE
8
Layer 1
10
130.023956
20
209.138873
11
129.147910
21
208.525070
0
LINE
8
Layer 1
10
129.147910
20
208.525070
11
128.650462
21
208.256251
0
LINE
8
Layer 1
10
128.650462
20
208.256251
11
128.158666
21
208.365150
0
LINE
8
Layer 1
10
128.158666
20
208.365150
11
128.157829
21
208.364312
0
LINE
8
Layer 1
10
128.157829
20
208.364312
11
127.336459
21
208.833188
0
LINE
8
Layer 1
10
127.336459
20
208.833188
11
127.739000
21
208.833000
0
LINE
8
Layer 1
10
127.739000
20
208.833000
11
127.670134
21
209.299050
0
LINE
8
Layer 1
10
127.670134
20
209.299050
11
127.902688
21
209.770751
0
LINE
8
Layer 1
10
127.902688
20
209.770751
11
128.767347
21
210.468480
0
LINE
8
Layer 1
10
128.767347
20
210.468480
11
129.769607
21
210.910706
0
LINE
8
Layer 1
10
129.769607
20
210.910706
11
130.853188
21
211.142565
0
LINE
8
Layer 1
10
130.853188
20
211.142565
11
131.961808
21
211.209191
0
LINE
8
Layer 1
10
131.961808
20
211.209191
11
134.675428
21
211.173188
0
LINE
8
Layer 1
10
134.675428
20
211.173188
11
135.869231
21
211.445356
0
LINE
8
Layer 1
10
135.869231
20
211.445356
11
136.985478
21
211.955206
0
LINE
8
Layer 1
10
136.985478
20
211.955206
11
139.328653
21
212.978514
0
LINE
8
Layer 1
10
139.328653
20
212.978514
11
140.554422
21
213.305647
0
LINE
8
Layer 1
10
140.554422
20
213.305647
11
141.834158
21
213.461466
0
LINE
8
Layer 1
10
141.834158
20
213.461466
11
143.152356
21
213.370556
0
LINE
8
Layer 1
10
143.152356
20
213.370556
11
144.532132
21
213.134823
0
LINE
8
Layer 1
10
144.532132
20
213.134823
11
145.906333
21
212.978370
0
LINE
8
Layer 1
10
145.906333
20
212.978370
11
147.207808
21
213.125299
0
LINE
8
Layer 1
10
147.207808
20
213.125299
11
149.843558
21
214.059701
0
LINE
8
Layer 1
10
149.843558
20
214.059701
11
152.533318
21
214.469967
0
LINE
8
Layer 1
10
152.533318
20
214.469967
11
153.118994
21
214.455315
0
LINE
8
Layer 1
10
153.118994
20
214.455315
11
153.119000
21
214.713000
0
LINE
8
Layer 1
10
153.119000
20
214.713000
11
153.919438
21
214.255428
0
LINE
8
Layer 1
10
153.919438
20
214.255428
11
154.410437
21
213.913929
0
LINE
8
Layer 1
10
154.410437
20
213.913929
11
154.757241
21
213.435575
0
LINE
8
Layer 1
10
154.757241
20
213.435575
11
154.949096
21
212.871897
0
LINE
8
Layer 1
10
154.949096
20
212.871897
11
154.975248
21
212.274428
0
LINE
8
Layer 1
10
154.975248
20
212.274428
11
154.836934
21
211.678865
0
LINE
8
Layer 1
10
154.836934
20
211.678865
11
154.565924
21
211.151623
0
LINE
8
Layer 1
10
154.565924
20
211.151623
11
153.726450
21
210.281808
0
LINE
8
Layer 1
10
153.726450
20
210.281808
11
152.658084
21
209.624401
0
LINE
8
Layer 1
10
152.658084
20
209.624401
11
151.562088
21
209.138818
0
LINE
8
Layer 1
10
151.562088
20
209.138818
11
150.328548
21
208.752571
0
LINE
8
Layer 1
10
150.328548
20
208.752571
11
149.077936
21
208.543408
0
LINE
8
Layer 1
10
149.077936
20
208.543408
11
146.519998
21
208.525093
0
LINE
8
Layer 1
10
146.519998
20
208.525093
11
144.834033
21
208.543618
0
LINE
8
Layer 1
10
144.834033
20
208.543618
11
143.963814
21
208.441143
0
LINE
8
Layer 1
10
143.963814
20
208.441143
11
143.198938
21
208.221161
0
LINE
8
Layer 1
10
143.198938
20
208.221161
11
142.264326
21
207.597965
0
LINE
8
Layer 1
10
142.264326
20
207.597965
11
140.976798
21
206.758441
0
LINE
8
Layer 1
10
140.976798
20
206.758441
11
141.884074
21
207.062255
0
LINE
8
Layer 1
10
141.884074
20
207.062255
11
143.032997
21
207.290322
0
LINE
8
Layer 1
10
143.032997
20
207.290322
11
144.409633
21
207.364224
0
LINE
8
Layer 1
10
144.409633
20
207.364224
11
146.000048
21
207.205547
0
LINE
8
Layer 1
10
146.000048
20
207.205547
11
147.816311
21
206.765034
0
LINE
8
Layer 1
10
147.816311
20
206.765034
11
148.860711
21
206.550900
0
LINE
8
Layer 1
10
148.860711
20
206.550900
11
149.893808
21
206.464556
0
LINE
8
Layer 1
10
149.893808
20
206.464556
11
151.650627
21
206.607417
0
LINE
8
Layer 1
10
151.650627
20
206.607417
11
152.524878
21
206.652473
0
LINE
8
Layer 1
10
152.524878
20
206.652473
11
153.392378
21
206.571309
0
LINE
8
Layer 1
10
153.392378
20
206.571309
11
153.392000
21
206.769000
0
LINE
8
Layer 1
10
153.392000
20
206.769000
11
154.283701
21
206.264540
0
LINE
8
Layer 1
10
154.283701
20
206.264540
11
154.347753
21
206.228118
0
LINE
8
Layer 1
10
154.347753
20
206.228118
11
154.482973
21
206.151926
0
LINE
8
Layer 1
10
154.482973
20
206.151926
11
154.473344
21
206.149833
0
LINE
8
Layer 1
10
154.473344
20
206.149833
11
154.952044
21
205.767439
0
LINE
8
Layer 1
10
154.952044
20
205.767439
11
155.308213
21
205.290106
0
LINE
8
Layer 1
10
155.308213
20
205.290106
11
155.512888
21
204.726979
0
LINE
8
Layer 1
10
155.512888
20
204.726979
11
155.537104
21
204.087203
0
LINE
8
Layer 1
10
155.537104
20
204.087203
11
155.374112
21
203.434415
0
LINE
8
Layer 1
10
155.374112
20
203.434415
11
155.009168
21
202.754943
0
LINE
8
Layer 1
10
155.009168
20
202.754943
11
154.418738
21
202.102090
0
LINE
8
Layer 1
10
154.418738
20
202.102090
11
153.579288
21
201.529160
0
LINE
8
Layer 1
10
153.579288
20
201.529160
11
152.467284
21
201.089456
0
LINE
8
Layer 1
10
152.467284
20
201.089456
11
151.059193
21
200.836279
0
LINE
8
Layer 1
10
151.059193
20
200.836279
11
149.331481
21
200.822934
0
LINE
8
Layer 1
10
149.331481
20
200.822934
11
147.260614
21
201.102723
0
LINE
8
Layer 1
10
147.260614
20
201.102723
11
145.527760
21
201.644651
0
LINE
8
Layer 1
10
145.527760
20
201.644651
11
144.628602
21
201.896777
0
LINE
8
Layer 1
10
144.628602
20
201.896777
11
143.765394
21
201.969306
0
LINE
8
Layer 1
10
143.765394
20
201.969306
11
143.008381
21
201.824781
0
LINE
8
Layer 1
10
143.008381
20
201.824781
11
142.254773
21
201.529525
0
LINE
8
Layer 1
10
142.254773
20
201.529525
11
140.793369
21
200.670582
0
LINE
8
Layer 1
10
140.793369
20
200.670582
11
139.452378
21
199.759991
0
LINE
8
Layer 1
10
139.452378
20
199.759991
11
138.302994
21
199.165266
0
LINE
8
Layer 1
10
138.302994
20
199.165266
11
136.995011
21
198.956051
0
LINE
8
Layer 1
10
136.995011
20
198.956051
11
135.673524
21
199.072747
0
LINE
8
Layer 1
10
135.673524
20
199.072747
11
134.454812
21
199.251034
0
LINE
8
Layer 1
10
134.454812
20
199.251034
11
133.228254
21
199.177825
0
LINE
8
Layer 1
10
133.228254
20
199.177825
11
132.106865
21
198.810868
0
LINE
8
Layer 1
10
132.106865
20
198.810868
11
131.107533
21
198.221495
0
LINE
8
Layer 1
10
131.107533
20
198.221495
11
130.263149
21
197.428115
0
LINE
8
Layer 1
10
130.263149
20
197.428115
11
129.606604
21
196.449135
0
LINE
8
Layer 1
10
129.606604
20
196.449135
11
129.365786
21
196.153182
0
LINE
8
Layer 1
10
129.365786
20
196.153182
11
129.065326
21
196.020017
0
LINE
8
Layer 1
10
129.065326
20
196.020017
11
128.436000
21
196.152000
0
LINE
8
Layer 1
10
127.285000
20
197.796000
11
127.862299
21
198.720949
0
LINE
8
Layer 1
10
127.862299
20
198.720949
11
128.575599
21
199.544595
0
LINE
8
Layer 1
10
128.575599
20
199.544595
11
129.402697
21
200.249784
0
LINE
8
Layer 1
10
129.402697
20
200.249784
11
130.321389
21
200.819357
0
LINE
8
Layer 1
10
130.321389
20
200.819357
11
131.309470
21
201.236161
0
LINE
8
Layer 1
10
131.309470
20
201.236161
11
132.344737
21
201.483038
0
LINE
8
Layer 1
10
132.344737
20
201.483038
11
133.404985
21
201.542833
0
LINE
8
Layer 1
10
133.404985
20
201.542833
11
134.468010
21
201.398390
0
LINE
8
Layer 1
10
134.468010
20
201.398390
11
135.811634
21
201.241557
0
LINE
8
Layer 1
10
135.811634
20
201.241557
11
136.927622
21
201.368248
0
LINE
8
Layer 1
10
136.927622
20
201.368248
11
138.356750
21
201.910804
0
LINE
8
Layer 1
10
138.356750
20
201.910804
11
140.155485
21
202.934429
0
LINE
8
Layer 1
10
140.155485
20
202.934429
11
142.058770
21
203.729794
0
LINE
8
Layer 1
10
142.058770
20
203.729794
11
143.339641
21
203.865172
0
LINE
8
Layer 1
10
143.339641
20
203.865172
11
144.686409
21
203.707606
0
LINE
8
Layer 1
10
144.686409
20
203.707606
11
147.247800
21
202.967034
0
LINE
8
Layer 1
10
147.247800
20
202.967034
11
148.397535
21
202.672861
0
LINE
8
Layer 1
10
148.397535
20
202.672861
11
149.499987
21
202.575867
0
LINE
8
Layer 1
10
149.499987
20
202.575867
11
150.523963
21
202.649129
0
LINE
8
Layer 1
10
150.523963
20
202.649129
11
151.438271
21
202.865722
0
LINE
8
Layer 1
10
151.438271
20
202.865722
11
152.211721
21
203.198723
0
LINE
8
Layer 1
10
152.211721
20
203.198723
11
152.813120
21
203.621208
0
LINE
8
Layer 1
10
152.813120
20
203.621208
11
153.211277
21
204.106253
0
LINE
8
Layer 1
10
153.211277
20
204.106253
11
153.375000
21
204.626934
0
LINE
8
Layer 1
10
153.375000
20
204.626934
11
153.209493
21
204.932926
0
LINE
8
Layer 1
10
153.209493
20
204.932926
11
152.788172
21
205.159600
0
LINE
8
Layer 1
10
152.788172
20
205.159600
11
151.911860
21
205.360390
0
LINE
8
Layer 1
10
151.911860
20
205.360390
11
150.015006
21
205.398591
0
LINE
8
Layer 1
10
150.015006
20
205.398591
11
148.115640
21
205.502727
0
LINE
8
Layer 1
10
148.115640
20
205.502727
11
146.021243
21
205.991645
0
LINE
8
Layer 1
10
146.021243
20
205.991645
11
144.794194
21
206.243973
0
LINE
8
Layer 1
10
144.794194
20
206.243973
11
143.748820
21
206.294373
0
LINE
8
Layer 1
10
143.748820
20
206.294373
11
141.595028
21
205.951979
0
LINE
8
Layer 1
10
141.595028
20
205.951979
11
139.888970
21
205.575988
0
LINE
8
Layer 1
10
139.888970
20
205.575988
11
138.062185
21
205.114386
0
LINE
8
Layer 1
10
138.062185
20
205.114386
11
137.020709
21
205.055980
0
LINE
8
Layer 1
10
137.020709
20
205.055980
11
135.787980
21
205.282941
0
LINE
8
Layer 1
10
135.787980
20
205.282941
11
134.973623
21
205.641557
0
LINE
8
Layer 1
10
134.973623
20
205.641557
11
134.551568
21
205.995811
0
LINE
8
Layer 1
10
134.551568
20
205.995811
11
134.384700
21
206.463921
0
LINE
8
Layer 1
10
134.384700
20
206.463921
11
134.552339
21
206.899364
0
LINE
8
Layer 1
10
134.552339
20
206.899364
11
134.921710
21
207.171578
0
LINE
8
Layer 1
10
134.921710
20
207.171578
11
135.788400
21
207.309990
0
LINE
8
Layer 1
10
135.788400
20
207.309990
11
136.854388
21
207.309340
0
LINE
8
Layer 1
10
136.854388
20
207.309340
11
137.827689
21
207.549066
0
LINE
8
Layer 1
10
137.827689
20
207.549066
11
139.602883
21
208.500443
0
LINE
8
Layer 1
10
139.602883
20
208.500443
11
141.327290
21
209.665719
0
LINE
8
Layer 1
10
141.327290
20
209.665719
11
142.237108
21
210.172818
0
LINE
8
Layer 1
10
142.237108
20
210.172818
11
143.214220
21
210.546490
0
LINE
8
Layer 1
10
143.214220
20
210.546490
11
144.390307
21
210.735892
0
LINE
8
Layer 1
10
144.390307
20
210.735892
11
145.567807
21
210.734825
0
LINE
8
Layer 1
10
145.567807
20
210.734825
11
147.936470
21
210.705573
0
LINE
8
Layer 1
10
147.936470
20
210.705573
11
150.018155
21
211.172617
0
LINE
8
Layer 1
10
150.018155
20
211.172617
11
151.007779
21
211.609305
0
LINE
8
Layer 1
10
151.007779
20
211.609305
11
151.896380
21
212.180023
0
LINE
8
Layer 1
10
151.896380
20
212.180023
11
152.350394
21
212.638171
0
LINE
8
Layer 1
10
152.350394
20
212.638171
11
152.466370
21
212.926803
0
LINE
8
Layer 1
10
152.466370
20
212.926803
11
152.308321
21
213.158801
0
LINE
8
Layer 1
10
152.308321
20
213.158801
11
151.895543
21
213.192292
0
LINE
8
Layer 1
10
151.895543
20
213.192292
11
149.009023
21
212.730115
0
LINE
8
Layer 1
10
149.009023
20
212.730115
11
146.199123
21
211.937631
0
LINE
8
Layer 1
10
146.199123
20
211.937631
11
144.971882
21
211.731137
0
LINE
8
Layer 1
10
144.971882
20
211.731137
11
143.868983
21
211.767664
0
LINE
8
Layer 1
10
143.868983
20
211.767664
11
142.747710
21
212.000846
0
LINE
8
Layer 1
10
142.747710
20
212.000846
11
141.615453
21
212.159929
0
LINE
8
Layer 1
10
141.615453
20
212.159929
11
140.514203
21
212.107776
0
LINE
8
Layer 1
10
140.514203
20
212.107776
11
139.444547
21
211.888389
0
LINE
8
Layer 1
10
139.444547
20
211.888389
11
137.410223
21
211.067699
0
LINE
8
Layer 1
10
137.410223
20
211.067699
11
136.296222
21
210.503164
0
LINE
8
Layer 1
10
136.296222
20
210.503164
11
135.129473
21
210.064219
0
LINE
8
Layer 1
10
135.129473
20
210.064219
11
133.781509
21
209.864109
0
LINE
8
Layer 1
10
133.781509
20
209.864109
11
132.416273
21
209.864947
0
LINE
8
Layer 1
10
132.416273
20
209.864947
11
130.253010
21
209.859871
0
LINE
8
Layer 1
10
130.253010
20
209.859871
11
129.223754
21
209.596436
0
LINE
8
Layer 1
10
129.223754
20
209.596436
11
128.347523
21
208.982875
0
LINE
8
Layer 1
10
128.347523
20
208.982875
11
128.040927
21
208.762723
0
LINE
8
Layer 1
10
128.040927
20
208.762723
11
127.719211
21
208.708509
0
LINE
8
Layer 1
10
127.719211
20
208.708509
11
127.146866
21
208.980781
0
LINE
8
Layer 1
10
127.146866
20
208.980781
11
126.863382
21
209.565463
0
LINE
8
Layer 1
10
126.863382
20
209.565463
11
126.902742
21
209.901761
0
LINE
8
Layer 1
10
126.902742
20
209.901761
11
127.101653
21
210.228325
0
LINE
8
Layer 1
10
127.101653
20
210.228325
11
127.966377
21
210.926054
0
LINE
8
Layer 1
10
127.966377
20
210.926054
11
128.968782
21
211.368280
0
LINE
8
Layer 1
10
128.968782
20
211.368280
11
130.052507
21
211.600139
0
LINE
8
Layer 1
10
130.052507
20
211.600139
11
131.161193
21
211.666765
0
LINE
8
Layer 1
10
131.161193
20
211.666765
11
133.874813
21
211.630762
0
LINE
8
Layer 1
10
133.874813
20
211.630762
11
135.068407
21
211.902930
0
LINE
8
Layer 1
10
135.068407
20
211.902930
11
136.184443
21
212.412780
0
LINE
8
Layer 1
10
136.184443
20
212.412780
11
138.527933
21
213.436089
0
LINE
8
Layer 1
10
138.527933
20
213.436089
11
139.753624
21
213.763221
0
LINE
8
Layer 1
10
139.753624
20
213.763221
11
141.033123
21
213.919040
0
LINE
8
Layer 1
10
141.033123
20
213.919040
11
142.351505
21
213.828137
0
LINE
8
Layer 1
10
142.351505
20
213.828137
11
143.731307
21
213.592449
0
LINE
8
Layer 1
10
143.731307
20
213.592449
11
145.105534
21
213.436121
0
LINE
8
Layer 1
10
145.105534
20
213.436121
11
146.407193
21
213.583292
0
LINE
8
Layer 1
10
146.407193
20
213.583292
11
149.042943
21
214.517276
0
LINE
8
Layer 1
10
149.042943
20
214.517276
11
151.732703
21
214.927542
0
LINE
8
Layer 1
10
151.732703
20
214.927542
11
152.441458
21
214.902842
0
LINE
8
Layer 1
10
152.441458
20
214.902842
11
153.118813
21
214.713617
0
LINE
8
Layer 1
10
153.118813
20
214.713617
11
153.609635
21
214.371877
0
LINE
8
Layer 1
10
153.609635
20
214.371877
11
153.956459
21
213.893397
0
LINE
8
Layer 1
10
153.956459
20
213.893397
11
154.148412
21
213.329673
0
LINE
8
Layer 1
10
154.148412
20
213.329673
11
154.174623
21
212.732197
0
LINE
8
Layer 1
10
154.174623
20
212.732197
11
154.036171
21
212.136634
0
LINE
8
Layer 1
10
154.036171
20
212.136634
11
153.765057
21
211.609392
0
LINE
8
Layer 1
10
153.765057
20
211.609392
11
152.925458
21
210.739577
0
LINE
8
Layer 1
10
152.925458
20
210.739577
11
151.857046
21
210.082170
0
LINE
8
Layer 1
10
151.857046
20
210.082170
11
150.761043
21
209.596587
0
LINE
8
Layer 1
10
150.761043
20
209.596587
11
149.527746
21
209.210340
0
LINE
8
Layer 1
10
149.527746
20
209.210340
11
148.277258
21
209.001177
0
LINE
8
Layer 1
10
148.277258
20
209.001177
11
145.719373
21
208.982862
0
LINE
8
Layer 1
10
145.719373
20
208.982862
11
144.309502
21
208.958895
0
LINE
8
Layer 1
10
144.309502
20
208.958895
11
142.950493
21
208.593946
0
LINE
8
Layer 1
10
142.950493
20
208.593946
11
139.045433
21
206.628856
0
LINE
8
Layer 1
10
139.045433
20
206.628856
11
139.466963
21
206.886575
0
LINE
8
Layer 1
10
139.466963
20
206.886575
11
140.682312
21
207.402346
0
LINE
8
Layer 1
10
140.682312
20
207.402346
11
142.617613
21
207.790092
0
LINE
8
Layer 1
10
142.617613
20
207.790092
11
143.832164
21
207.815307
0
LINE
8
Layer 1
10
143.832164
20
207.815307
11
145.199003
21
207.663736
0
LINE
8
Layer 1
10
145.199003
20
207.663736
11
147.015423
21
207.222857
0
LINE
8
Layer 1
10
147.015423
20
207.222857
11
148.059724
21
207.008677
0
LINE
8
Layer 1
10
148.059724
20
207.008677
11
149.092763
21
206.922326
0
LINE
8
Layer 1
10
149.092763
20
206.922326
11
151.131638
21
207.090357
0
LINE
8
Layer 1
10
151.131638
20
207.090357
11
152.143816
21
207.094760
0
LINE
8
Layer 1
10
152.143816
20
207.094760
11
153.144773
21
206.875020
0
LINE
8
Layer 1
10
153.144773
20
206.875020
11
153.832060
21
206.508404
0
LINE
8
Layer 1
10
153.832060
20
206.508404
11
154.361652
21
205.985152
0
LINE
8
Layer 1
10
154.361652
20
205.985152
11
154.680722
21
205.324299
0
LINE
8
Layer 1
10
154.680722
20
205.324299
11
154.736443
21
204.544880
0
LINE
8
Layer 1
10
154.736443
20
204.544880
11
154.573469
21
203.892109
0
LINE
8
Layer 1
10
154.573469
20
203.892109
11
154.208573
21
203.212679
0
LINE
8
Layer 1
10
154.208573
20
203.212679
11
153.618210
21
202.559878
0
LINE
8
Layer 1
10
153.618210
20
202.559878
11
152.778836
21
201.986995
0
LINE
8
Layer 1
10
152.778836
20
201.986995
11
151.666910
21
201.547317
0
LINE
8
Layer 1
10
151.666910
20
201.547317
11
150.258886
21
201.294133
0
LINE
8
Layer 1
10
150.258886
20
201.294133
11
148.531222
21
201.280732
0
LINE
8
Layer 1
10
148.531222
20
201.280732
11
146.460373
21
201.560400
0
LINE
8
Layer 1
10
146.460373
20
201.560400
11
144.727152
21
202.102328
0
LINE
8
Layer 1
10
144.727152
20
202.102328
11
143.827948
21
202.354454
0
LINE
8
Layer 1
10
143.827948
20
202.354454
11
142.964733
21
202.426983
0
LINE
8
Layer 1
10
142.964733
20
202.426983
11
142.207721
21
202.282458
0
LINE
8
Layer 1
10
142.207721
20
202.282458
11
141.454119
21
201.987209
0
LINE
8
Layer 1
10
141.454119
20
201.987209
11
139.992760
21
201.128311
0
LINE
8
Layer 1
10
139.992760
20
201.128311
11
138.651894
21
200.217841
0
LINE
8
Layer 1
10
138.651894
20
200.217841
11
137.502753
21
199.623353
0
LINE
8
Layer 1
10
137.502753
20
199.623353
11
136.194402
21
199.413772
0
LINE
8
Layer 1
10
136.194402
20
199.413772
11
134.872863
21
199.530415
0
LINE
8
Layer 1
10
134.872863
20
199.530415
11
133.654361
21
199.708860
0
LINE
8
Layer 1
10
133.654361
20
199.708860
11
132.428013
21
199.635493
0
LINE
8
Layer 1
10
132.428013
20
199.635493
11
131.306564
21
199.268536
0
LINE
8
Layer 1
10
131.306564
20
199.268536
11
130.307134
21
198.679164
0
LINE
8
Layer 1
10
130.307134
20
198.679164
11
129.462731
21
197.885784
0
LINE
8
Layer 1
10
129.462731
20
197.885784
11
128.806363
21
196.906803
0
LINE
8
Layer 1
10
128.806363
20
196.906803
11
128.569935
21
196.614686
0
LINE
8
Layer 1
10
128.569935
20
196.614686
11
128.275434
21
196.479526
0
LINE
8
Layer 1
10
128.275434
20
196.479526
11
127.654795
21
196.596600
0
LINE
8
Layer 1
10
127.654795
20
196.596600
11
127.229599
21
197.091075
0
LINE
8
Layer 1
10
127.229599
20
197.091075
11
127.179403
21
197.427666
0
LINE
8
Layer 1
10
127.179403
20
197.427666
11
127.285000
21
197.796000
0
LINE
8
Layer 1
10
127.285000
20
197.796000
11
127.862299
21
198.720949
0
LINE
8
Layer 1
10
127.862299
20
198.720949
11
128.575599
21
199.544595
0
LINE
8
Layer 1
10
128.575599
20
199.544595
11
129.402697
21
200.249784
0
LINE
8
Layer 1
10
129.402697
20
200.249784
11
130.321389
21
200.819357
0
LINE
8
Layer 1
10
130.321389
20
200.819357
11
131.309470
21
201.236161
0
LINE
8
Layer 1
10
131.309470
20
201.236161
11
132.344737
21
201.483038
0
LINE
8
Layer 1
10
132.344737
20
201.483038
11
133.404985
21
201.542833
0
LINE
8
Layer 1
10
133.404985
20
201.542833
11
134.468010
21
201.398390
0
LINE
8
Layer 1
10
134.468010
20
201.398390
11
135.811634
21
201.241557
0
LINE
8
Layer 1
10
135.811634
20
201.241557
11
136.927622
21
201.368248
0
LINE
8
Layer 1
10
136.927622
20
201.368248
11
138.356750
21
201.910804
0
LINE
8
Layer 1
10
138.356750
20
201.910804
11
140.155485
21
202.934429
0
LINE
8
Layer 1
10
140.155485
20
202.934429
11
142.058770
21
203.729794
0
LINE
8
Layer 1
10
142.058770
20
203.729794
11
143.339641
21
203.865172
0
LINE
8
Layer 1
10
143.339641
20
203.865172
11
144.686409
21
203.707606
0
LINE
8
Layer 1
10
144.686409
20
203.707606
11
147.247800
21
202.967034
0
LINE
8
Layer 1
10
147.247800
20
202.967034
11
148.397535
21
202.672861
0
LINE
8
Layer 1
10
148.397535
20
202.672861
11
149.499987
21
202.575867
0
LINE
8
Layer 1
10
149.499987
20
202.575867
11
150.523963
21
202.649129
0
LINE
8
Layer 1
10
150.523963
20
202.649129
11
151.438271
21
202.865722
0
LINE
8
Layer 1
10
151.438271
20
202.865722
11
152.211721
21
203.198723
0
LINE
8
Layer 1
10
152.211721
20
203.198723
11
152.813120
21
203.621208
0
LINE
8
Layer 1
10
152.813120
20
203.621208
11
153.211277
21
204.106253
0
LINE
8
Layer 1
10
153.211277
20
204.106253
11
153.375000
21
204.626934
0
LINE
8
Layer 1
10
153.375000
20
204.626934
11
153.209493
21
204.932926
0
LINE
8
Layer 1
10
153.209493
20
204.932926
11
152.788172
21
205.159600
0
LINE
8
Layer 1
10
152.788172
20
205.159600
11
151.911860
21
205.360390
0
LINE
8
Layer 1
10
151.911860
20
205.360390
11
150.015006
21
205.398591
0
LINE
8
Layer 1
10
150.015006
20
205.398591
11
148.115640
21
205.502727
0
LINE
8
Layer 1
10
148.115640
20
205.502727
11
146.021243
21
205.991645
0
LINE
8
Layer 1
10
146.021243
20
205.991645
11
144.794194
21
206.243973
0
LINE
8
Layer 1
10
144.794194
20
206.243973
11
143.748820
21
206.294373
0
LINE
8
Layer 1
10
143.748820
20
206.294373
11
141.595028
21
205.951979
0
LINE
8
Layer 1
10
141.595028
20
205.951979
11
139.888970
21
205.575988
0
LINE
8
Layer 1
10
139.888970
20
205.575988
11
138.062185
21
205.114386
0
LINE
8
Layer 1
10
138.062185
20
205.114386
11
137.020709
21
205.055980
0
LINE
8
Layer 1
10
137.020709
20
205.055980
11
135.787980
21
205.282941
0
LINE
8
Layer 1
10
135.787980
20
205.282941
11
134.973623
21
205.641557
0
LINE
8
Layer 1
10
134.973623
20
205.641557
11
134.551568
21
205.995811
0
LINE
8
Layer 1
10
134.551568
20
205.995811
11
134.384700
21
206.463921
0
LINE
8
Layer 1
10
134.384700
20
206.463921
11
134.552339
21
206.899364
0
LINE
8
Layer 1
10
134.552339
20
206.899364
11
134.921710
21
207.171578
0
LINE
8
Layer 1
10
134.921710
20
207.171578
11
135.788400
21
207.309990
0
LINE
8
Layer 1
10
135.788400
20
207.309990
11
136.854388
21
207.309340
0
LINE
8
Layer 1
10
136.854388
20
207.309340
11
137.827689
21
207.549066
0
LINE
8
Layer 1
10
137.827689
20
207.549066
11
139.602883
21
208.500443
0
LINE
8
Layer 1
10
139.602883
20
208.500443
11
141.327290
21
209.665719
0
LINE
8
Layer 1
10
141.327290
20
209.665719
11
142.237108
21
210.172818
0
LINE
8
Layer 1
10
142.237108
20
210.172818
11
143.214220
21
210.546490
0
LINE
8
Layer 1
10
143.214220
20
210.546490
11
144.390307
21
210.735892
0
LINE
8
Layer 1
10
144.390307
20
210.735892
11
145.567807
21
210.734825
0
LINE
8
Layer 1
10
145.567807
20
210.734825
11
147.936470
21
210.705573
0
LINE
8
Layer 1
10
147.936470
20
210.705573
11
150.018155
21
211.172617
0
LINE
8
Layer 1
10
150.018155
20
211.172617
11
151.007779
21
211.609305
0
LINE
8
Layer 1
10
151.007779
20
211.609305
11
151.896380
21
212.180023
0
LINE
8
Layer 1
10
151.896380
20
212.180023
11
152.350394
21
212.638171
0
LINE
8
Layer 1
10
152.350394
20
212.638171
11
152.466370
21
212.926803
0
LINE
8
Layer 1
10
152.466370
20
212.926803
11
152.308321
21
213.158801
0
LINE
8
Layer 1
10
152.308321
20
213.158801
11
151.895543
21
213.192292
0
LINE
8
Layer 1
10
151.895543
20
213.192292
11
149.009023
21
212.730115
0
LINE
8
Layer 1
10
149.009023
20
212.730115
11
146.199123
21
211.937631
0
LINE
8
Layer 1
10
146.199123
20
211.937631
11
144.971882
21
211.731137
0
LINE
8
Layer 1
10
144.971882
20
211.731137
11
143.868983
21
211.767664
0
LINE
8
Layer 1
10
143.868983
20
211.767664
11
142.747710
21
212.000846
0
LINE
8
Layer 1
10
142.747710
20
212.000846
11
141.615453
21
212.159929
0
LINE
8
Layer 1
10
141.615453
20
212.159929
11
140.514203
21
212.107776
0
LINE
8
Layer 1
10
140.514203
20
212.107776
11
139.444547
21
211.888389
0
LINE
8
Layer 1
10
139.444547
20
211.888389
11
137.410223
21
211.067699
0
LINE
8
Layer 1
10
137.410223
20
211.067699
11
136.296222
21
210.503164
0
LINE
8
Layer 1
10
136.296222
20
210.503164
11
135.129473
21
210.064219
0
LINE
8
Layer 1
10
135.129473
20
210.064219
11
133.781509
21
209.864109
0
LINE
8
Layer 1
10
133.781509
20
209.864109
11
132.416273
21
209.864947
0
LINE
8
Layer 1
10
132.416273
20
209.864947
11
130.253010
21
209.859871
0
LINE
8
Layer 1
10
130.253010
20
209.859871
11
129.223754
21
209.596436
0
LINE
8
Layer 1
10
129.223754
20
209.596436
11
128.347523
21
208.982875
0
LINE
8
Layer 1
10
128.347523
20
208.982875
11
128.040927
21
208.762723
0
LINE
8
Layer 1
10
128.040927
20
208.762723
11
127.719211
21
208.708509
0
LINE
8
Layer 1
10
127.719211
20
208.708509
11
127.146866
21
208.980781
0
LINE
8
Layer 1
10
127.146866
20
208.980781
11
126.863382
21
209.565463
0
LINE
8
Layer 1
10
126.863382
20
209.565463
11
126.902742
21
209.901761
0
LINE
8
Layer 1
10
126.902742
20
209.901761
11
127.101653
21
210.228325
0
LINE
8
Layer 1
10
127.101653
20
210.228325
11
127.966377
21
210.926054
0
LINE
8
Layer 1
10
127.966377
20
210.926054
11
128.968782
21
211.368280
0
LINE
8
Layer 1
10
128.968782
20
211.368280
11
130.052507
21
211.600139
0
LINE
8
Layer 1
10
130.052507
20
211.600139
11
131.161193
21
211.666765
0
LINE
8
Layer 1
10
131.161193
20
211.666765
11
133.874813
21
211.630762
0
LINE
8
Layer 1
10
133.874813
20
211.630762
11
135.068407
21
211.902930
0
LINE
8
Layer 1
10
135.068407
20
211.902930
11
136.184443
21
212.412780
0
LINE
8
Layer 1
10
136.184443
20
212.412780
11
138.527933
21
213.436089
0
LINE
8
Layer 1
10
138.527933
20
213.436089
11
139.753624
21
213.763221
0
LINE
8
Layer 1
10
139.753624
20
213.763221
11
141.033123
21
213.919040
0
LINE
8
Layer 1
10
141.033123
20
213.919040
11
142.351505
21
213.828137
0
LINE
8
Layer 1
10
142.351505
20
213.828137
11
143.731307
21
213.592449
0
LINE
8
Layer 1
10
143.731307
20
213.592449
11
145.105534
21
213.436121
0
LINE
8
Layer 1
10
145.105534
20
213.436121
11
146.407193
21
213.583292
0
LINE
8
Layer 1
10
146.407193
20
213.583292
11
149.042943
21
214.517276
0
LINE
8
Layer 1
10
149.042943
20
214.517276
11
151.732703
21
214.927542
0
LINE
8
Layer 1
10
151.732703
20
214.927542
11
152.441458
21
214.902842
0
LINE
8
Layer 1
10
152.441458
20
214.902842
11
153.118813
21
214.713617
0
LINE
8
Layer 1
10
153.118813
20
214.713617
11
153.609635
21
214.371877
0
LINE
8
Layer 1
10
153.609635
20
214.371877
11
153.956459
21
213.893397
0
LINE
8
Layer 1
10
153.956459
20
213.893397
11
154.148412
21
213.329673
0
LINE
8
Layer 1
10
154.148412
20
213.329673
11
154.174623
21
212.732197
0
LINE
8
Layer 1
10
154.174623
20
212.732197
11
154.036171
21
212.136634
0
LINE
8
Layer 1
10
154.036171
20
212.136634
11
153.765057
21
211.609392
0
LINE
8
Layer 1
10
153.765057
20
211.609392
11
152.925458
21
210.739577
0
LINE
8
Layer 1
10
152.925458
20
210.739577
11
151.857046
21
210.082170
0
LINE
8
Layer 1
10
151.857046
20
210.082170
11
150.761043
21
209.596587
0
LINE
8
Layer 1
10
150.761043
20
209.596587
11
149.527746
21
209.210340
0
LINE
8
Layer 1
10
149.527746
20
209.210340
11
148.277258
21
209.001177
0
LINE
8
Layer 1
10
148.277258
20
209.001177
11
145.719373
21
208.982862
0
LINE
8
Layer 1
10
145.719373
20
208.982862
11
144.309502
21
208.958895
0
LINE
8
Layer 1
10
144.309502
20
208.958895
11
142.950493
21
208.593946
0
LINE
8
Layer 1
10
142.950493
20
208.593946
11
139.045433
21
206.628856
0
LINE
8
Layer 1
10
139.045433
20
206.628856
11
139.466963
21
206.886575
0
LINE
8
Layer 1
10
139.466963
20
206.886575
11
140.682312
21
207.402346
0
LINE
8
Layer 1
10
140.682312
20
207.402346
11
142.617613
21
207.790092
0
LINE
8
Layer 1
10
142.617613
20
207.790092
11
143.832164
21
207.815307
0
LINE
8
Layer 1
10
143.832164
20
207.815307
11
145.199003
21
207.663736
0
LINE
8
Layer 1
10
145.199003
20
207.663736
11
147.015423
21
207.222857
0
LINE
8
Layer 1
10
147.015423
20
207.222857
11
148.059724
21
207.008677
0
LINE
8
Layer 1
10
148.059724
20
207.008677
11
149.092763
21
206.922326
0
LINE
8
Layer 1
10
149.092763
20
206.922326
11
151.131638
21
207.090357
0
LINE
8
Layer 1
10
151.131638
20
207.090357
11
152.143816
21
207.094760
0
LINE
8
Layer 1
10
152.143816
20
207.094760
11
153.144773
21
206.875020
0
LINE
8
Layer 1
10
153.144773
20
206.875020
11
153.832060
21
206.508404
0
LINE
8
Layer 1
10
153.832060
20
206.508404
11
154.361652
21
205.985152
0
LINE
8
Layer 1
10
154.361652
20
205.985152
11
154.680722
21
205.324299
0
LINE
8
Layer 1
10
154.680722
20
205.324299
11
154.736443
21
204.544880
0
LINE
8
Layer 1
10
154.736443
20
204.544880
11
154.573469
21
203.892109
0
LINE
8
Layer 1
10
154.573469
20
203.892109
11
154.208573
21
203.212679
0
LINE
8
Layer 1
10
154.208573
20
203.212679
11
153.618210
21
202.559878
0
LINE
8
Layer 1
10
153.618210
20
202.559878
11
152.778836
21
201.986995
0
LINE
8
Layer 1
10
152.778836
20
201.986995
11
151.666910
21
201.547317
0
LINE
8
Layer 1
10
151.666910
20
201.547317
11
150.258886
21
201.294133
0
LINE
8
Layer 1
10
150.258886
20
201.294133
11
148.531222
21
201.280732
0
LINE
8
Layer 1
10
148.531222
20
201.280732
11
146.460373
21
201.560400
0
LINE
8
Layer 1
10
146.460373
20
201.560400
11
144.727152
21
202.102328
0
LINE
8
Layer 1
10
144.727152
20
202.102328
11
143.827948
21
202.354454
0
LINE
8
Layer 1
10
143.827948
20
202.354454
11
142.964733
21
202.426983
0
LINE
8
Layer 1
10
142.964733
20
202.426983
11
142.207721
21
202.282458
0
LINE
8
Layer 1
10
142.207721
20
202.282458
11
141.454119
21
201.987209
0
LINE
8
Layer 1
10
141.454119
20
201.987209
11
139.992760
21
201.128311
0
LINE
8
Layer 1
10
139.992760
20
201.128311
11
138.651894
21
200.217841
0
LINE
8
Layer 1
10
138.651894
20
200.217841
11
137.502753
21
199.623353
0
LINE
8
Layer 1
10
137.502753
20
199.623353
11
136.194402
21
199.413772
0
LINE
8
Layer 1
10
136.194402
20
199.413772
11
134.872863
21
199.530415
0
LINE
8
Layer 1
10
134.872863
20
199.530415
11
133.654361
21
199.708860
0
LINE
8
Layer 1
10
133.654361
20
199.708860
11
132.428013
21
199.635493
0
LINE
8
Layer 1
10
132.428013
20
199.635493
11
131.306564
21
199.268536
0
LINE
8
Layer 1
10
131.306564
20
199.268536
11
130.307134
21
198.679164
0
LINE
8
Layer 1
10
130.307134
20
198.679164
11
129.462731
21
197.885784
0
LINE
8
Layer 1
10
129.462731
20
197.885784
11
128.806363
21
196.906803
0
LINE
8
Layer 1
10
128.806363
20
196.906803
11
128.569935
21
196.614686
0
LINE
8
Layer 1
10
128.569935
20
196.614686
11
128.275434
21
196.479526
0
LINE
8
Layer 1
10
128.275434
20
196.479526
11
127.654795
21
196.596600
0
LINE
8
Layer 1
10
127.654795
20
196.596600
11
127.229599
21
197.091075
0
LINE
8
Layer 1
10
127.229599
20
197.091075
11
127.179403
21
197.427666
0
LINE
8
Layer 1
10
127.179403
20
197.427666
11
127.285000
21
197.796000
0
LINE
8
Layer 1
10
127.285000
20
197.796000
11
127.285000
21
197.796000
0
LINE
8
Layer 1
10
128.797000
20
211.948000
11
129.509785
21
212.103054
0
LINE
8
Layer 1
10
129.509785
20
212.103054
11
130.239210
21
212.090756
0
LINE
8
Layer 1
10
130.239210
20
212.090756
11
130.173902
21
212.087826
0
LINE
8
Layer 1
10
129.132000
20
212.407000
11
130.099056
21
212.455981
0
LINE
8
Layer 1
10
130.099056
20
212.455981
11
130.012816
21
212.438398
0
LINE
8
Layer 1
10
132.774000
20
212.138000
11
133.427625
21
212.056250
0
LINE
8
Layer 1
10
133.427625
20
212.056250
11
134.076000
21
212.171000
0
LINE
8
Layer 1
10
133.164000
20
212.542000
11
133.935133
21
212.561257
0
LINE
8
Layer 1
10
133.935133
20
212.561257
11
133.965275
21
212.583027
0
LINE
8
Layer 1
10
133.965275
20
212.583027
11
133.943087
21
212.596842
0
LINE
8
Layer 1
10
136.677000
20
213.098000
11
137.857000
21
213.611000
0
LINE
8
Layer 1
10
136.990000
20
213.673000
11
137.664009
21
213.946790
0
LINE
8
Layer 1
10
137.664009
20
213.946790
11
137.599120
21
213.943860
0
LINE
8
Layer 1
10
140.037000
20
214.167000
11
141.568000
21
214.215000
0
LINE
8
Layer 1
10
140.292000
20
214.537000
11
141.156490
21
214.593935
0
LINE
8
Layer 1
10
141.156490
20
214.593935
11
141.201284
21
214.575933
0
LINE
8
Layer 1
10
141.201284
20
214.575933
11
141.176585
21
214.555002
0
LINE
8
Layer 1
10
143.333000
20
214.213000
11
144.864000
21
214.136000
0
LINE
8
Layer 1
10
143.771000
20
214.495000
11
144.606000
21
214.472000
0
LINE
8
Layer 1
10
147.166000
20
214.413000
11
148.655520
21
214.938811
0
LINE
8
Layer 1
10
148.655520
20
214.938811
11
148.596492
21
214.895691
0
LINE
8
Layer 1
10
147.553000
20
214.941000
11
148.318000
21
215.219000
0
LINE
8
Layer 1
10
151.081000
20
215.375000
11
152.514840
21
215.326856
0
LINE
8
Layer 1
10
152.514840
20
215.326856
11
152.449114
21
215.313460
0
LINE
8
Layer 1
10
151.730000
20
215.772000
11
152.571000
21
215.679000
0
LINE
8
Layer 1
10
154.736000
20
214.396000
11
155.057358
21
213.975896
0
LINE
8
Layer 1
10
155.057358
20
213.975896
11
155.239623
21
213.479181
0
LINE
8
Layer 1
10
155.239623
20
213.479181
11
155.238786
21
213.436480
0
LINE
8
Layer 1
10
155.238786
20
213.436480
11
155.229576
21
213.450295
0
LINE
8
Layer 1
10
155.316000
20
214.403000
11
155.633000
21
213.691000
0
LINE
8
Layer 1
10
155.041000
20
211.222000
11
154.630250
21
210.632875
0
LINE
8
Layer 1
10
154.630250
20
210.632875
11
154.047000
21
210.214000
0
LINE
8
Layer 1
10
155.140000
20
210.673000
11
154.577000
21
210.151000
0
LINE
8
Layer 1
10
154.582000
20
206.631000
11
155.311625
21
206.241125
0
LINE
8
Layer 1
10
155.311625
20
206.241125
11
155.799000
21
205.573000
0
LINE
8
Layer 1
10
155.303000
20
206.775000
11
155.667000
21
206.532750
0
LINE
8
Layer 1
10
155.667000
20
206.532750
11
155.926000
21
206.181000
0
LINE
8
Layer 1
10
155.958000
20
203.898000
11
155.792375
21
203.180500
0
LINE
8
Layer 1
10
155.792375
20
203.180500
11
155.371000
21
202.577000
0
LINE
8
Layer 1
10
156.245000
20
203.481000
11
155.934000
21
202.664000
0
LINE
8
Layer 1
10
152.309000
20
200.675000
11
153.472000
21
201.016000
0
LINE
8
Layer 1
10
152.704000
20
200.440000
11
153.490204
21
200.645133
0
LINE
8
Layer 1
10
153.490204
20
200.645133
11
153.423222
21
200.626294
0
LINE
8
Layer 1
10
148.342000
20
200.466000
11
149.853710
21
200.309010
0
LINE
8
Layer 1
10
149.853710
20
200.309010
11
149.803473
21
200.301893
0
LINE
8
Layer 1
10
148.576000
20
200.006000
11
149.544000
21
199.870000
0
LINE
8
Layer 1
10
149.544000
20
199.870000
11
149.479000
21
199.883000
0
LINE
8
Layer 1
10
143.122000
20
201.228000
11
143.874875
21
201.399375
0
LINE
8
Layer 1
10
143.874875
20
201.399375
11
144.636000
21
201.270000
0
LINE
8
Layer 1
10
143.561000
20
200.885000
11
144.004125
21
200.975000
0
LINE
8
Layer 1
10
144.004125
20
200.975000
11
144.448000
21
200.891000
0
LINE
8
Layer 1
10
138.668000
20
198.854000
11
139.394234
21
199.115283
0
LINE
8
Layer 1
10
139.394234
20
199.115283
11
140.055790
21
199.512519
0
LINE
8
Layer 1
10
140.055790
20
199.512519
11
139.988389
21
199.466469
0
LINE
8
Layer 1
10
139.272000
20
198.694000
11
139.980756
21
199.099661
0
LINE
8
Layer 1
10
139.980756
20
199.099661
11
139.942660
21
199.048587
0
LINE
8
Layer 1
10
134.889000
20
198.831000
11
136.202690
21
198.630472
0
LINE
8
Layer 1
10
136.202690
20
198.630472
11
136.113520
21
198.630891
0
LINE
8
Layer 1
10
135.024000
20
198.450000
11
135.928000
21
198.327000
0
LINE
8
Layer 1
10
131.221000
20
197.931000
11
131.853250
21
198.308000
0
LINE
8
Layer 1
10
131.853250
20
198.308000
11
132.562000
21
198.505000
0
LINE
8
Layer 1
10
131.713000
20
197.878000
11
132.489575
21
198.196166
0
LINE
8
Layer 1
10
132.489575
20
198.196166
11
132.424686
21
198.166443
0
LINE
8
Layer 1
10
128.945000
20
195.643000
11
129.541250
21
195.762625
0
LINE
8
Layer 1
10
129.541250
20
195.762625
11
130.010000
21
196.150000
0
LINE
8
Layer 1
10
129.385000
20
195.430000
11
129.956000
21
195.669000
0
LINE
8
Layer 1
10
126.931000
20
198.156000
11
126.725000
21
197.667750
0
LINE
8
Layer 1
10
126.725000
20
197.667750
11
126.645000
21
197.154000
0
LINE
8
Layer 1
10
126.645000
20
197.154000
11
126.914000
21
196.503000
0
LINE
8
Layer 1
10
126.463000
20
197.957000
11
126.168625
21
197.348125
0
LINE
8
Layer 1
10
126.168625
20
197.348125
11
126.271000
21
196.680000
0
LINE
8
Layer 1
10
126.891000
20
210.780000
11
126.400000
21
210.104000
0
LINE
8
Layer 1
10
126.400000
20
210.104000
11
126.318250
21
209.690625
0
LINE
8
Layer 1
10
126.318250
20
209.690625
11
126.397000
21
209.281000
0
LINE
8
Layer 1
10
126.224000
20
210.677000
11
125.970250
21
210.181500
0
LINE
8
Layer 1
10
125.970250
20
210.181500
11
125.907000
21
209.629000
 0 
ENDSEC
 0 
EOF