0
SECTION
2
HEADER
9
$INSUNITS
70
4
9
$ACADVER
1
AC1014
9
$HANDSEED
5
FFFF
0
ENDSEC
0
SECTION
2
TABLES
0
TABLE
2
VPORT
5
8
100
AcDbSymbolTable
0
ENDTAB
0
TABLE
2
LTYPE
5
5
100
AcDbSymbolTable
0
LTYPE
5
14
100
AcDbSymbolTableRecord
100
AcDbLinetypeTableRecord
2
BYBLOCK
70
0
0
LTYPE
5
15
100
AcDbSymbolTableRecord
100
AcDbLinetypeTableRecord
2
BYLAYER
70
0
0
ENDTAB
0
TABLE
2
LAYER
5
2
100
AcDbSymbolTable
70
2
0
LAYER
5
50
100
AcDbSymbolTableRecord
100
AcDbLayerTableRecord
2
0
70
0
6
CONTINUOUS
0
ENDTAB
0
TABLE
2
STYLE
5
3
100
AcDbSymbolTable
70
1
0
STYLE
5
11
100
AcDbSymbolTableRecord
100
AcDbTextStyleTableRecord
2
STANDARD
70
0
0
ENDTAB
0
TABLE
2
VIEW
5
6
100
AcDbSymbolTable
70
0
0
ENDTAB
0
TABLE
2
UCS
5
7
100
AcDbSymbolTable
70
0
0
ENDTAB
0
TABLE
2
APPID
5
9
100
AcDbSymbolTable
70
2
0
APPID
5
12
100
AcDbSymbolTableRecord
100
AcDbRegAppTableRecord
2
ACAD
70
0
0
ENDTAB
0
TABLE
2
DIMSTYLE
5
A
100
AcDbSymbolTable
70
1
0
ENDTAB
0
TABLE
2
BLOCK_RECORD
5
1
100
AcDbSymbolTable
70
1
0
BLOCK_RECORD
5
1F
100
AcDbSymbolTableRecord
100
AcDbBlockTableRecord
2
*MODEL_SPACE
0
BLOCK_RECORD
5
1B
100
AcDbSymbolTableRecord
100
AcDbBlockTableRecord
2
*PAPER_SPACE
0
ENDTAB
0
ENDSEC
0
SECTION
2
BLOCKS
0
BLOCK
5
20
100
AcDbEntity
100
AcDbBlockBegin
2
*MODEL_SPACE
0
ENDBLK
5
21
100
AcDbEntity
100
AcDbBlockEnd
0
BLOCK
5
1C
100
AcDbEntity
100
AcDbBlockBegin
2
*PAPER_SPACE
0
ENDBLK
5
1D
100
AcDbEntity
100
AcDbBlockEnd
0
ENDSEC
0
SECTION
2
ENTITIES
0
LWPOLYLINE
5
100
100
AcDbEntity
8
0
100
AcDbPolyline
90
14
70
1
43
0.0
10
-235
20
10
42
0.41421356237309437
10
-240
20
4.9999999999999991
10
-240
20
0
10
-390
20
0
42
0.41421356237309509
10
-400
20
-10
10
-400
20
-290.00000000000006
42
0.41421356237309509
10
-390
20
-300.00000000000006
10
-10
20
-300.00000000000006
42
0.41421356237309553
10
1.7763568394002505e-14
20
-290.00000000000006
10
0
20
-10
42
0.41421356237309553
10
-9.9999999999999982
20
-1.1102230246251345e-15
10
-160
20
0
10
-160
20
5
42
0.41421356237309437
10
-165
20
9.9999999999999893
0
CIRCLE
5
101
100
AcDbEntity
8
0
100
AcDbCircle
10
-249.38121778956986
20
-227.00000000000006
30
0
40
1.6499999999999915
210
0
220
-0
230
1
0
CIRCLE
5
102
100
AcDbEntity
8
0
100
AcDbCircle
10
-200
20
-211.22346642195845
30
0
40
1.6499999999999915
210
0
220
-0
230
1
0
CIRCLE
5
103
100
AcDbEntity
8
0
100
AcDbCircle
10
-370
20
-270.00000000000006
30
0
40
6.0000000000000142
210
0
220
-0
230
1
0
CIRCLE
5
104
100
AcDbEntity
8
0
100
AcDbCircle
10
-200
20
-88.776533578041622
30
0
40
1.6499999999999915
210
0
220
-0
230
1
0
CIRCLE
5
105
100
AcDbEntity
8
0
100
AcDbCircle
10
-285
20
-270.00000000000006
30
0
40
5.9999999999999787
210
0
220
-0
230
1
0
CIRCLE
5
106
100
AcDbEntity
8
0
100
AcDbCircle
10
-327.5
20
-270.00000000000006
30
0
40
6.0000000000000142
210
0
220
-0
230
1
0
CIRCLE
5
107
100
AcDbEntity
8
0
100
AcDbCircle
10
-199.99999999999997
20
-253.50000000000006
30
0
40
6.0000000000000142
210
0
220
-0
230
1
0
CIRCLE
5
108
100
AcDbEntity
8
0
100
AcDbCircle
10
-150
20
-227.00000000000006
30
0
40
1.6500000000000092
210
0
220
-0
230
1
0
CIRCLE
5
109
100
AcDbEntity
8
0
100
AcDbCircle
10
-261.22346642195839
20
-150.00000000000003
30
0
40
1.6499999999999915
210
0
220
-0
230
1
0
CIRCLE
5
110
100
AcDbEntity
8
0
100
AcDbCircle
10
-172.49999999999997
20
-253.50000000000006
30
0
40
6.0000000000000142
210
0
220
-0
230
1
0
LWPOLYLINE
5
111
100
AcDbEntity
8
0
100
AcDbPolyline
90
8
70
1
43
0.0
10
-46.999999999999986
20
-5.1000000000000263
10
-46.999999999999972
20
-9.9000000000000234
42
-0.41421356237309509
10
-47.999999999999979
20
-10.900000000000025
10
-65.799999999999997
20
-10.899999999999995
42
-0.41421356237309509
10
-66.799999999999983
20
-9.8999999999999986
10
-66.799999999999983
20
-5.1000000000000352
42
-0.41421356237309509
10
-65.799999999999997
20
-4.1000000000000361
10
-47.999999999999979
20
-4.1000000000000298
42
-0.41421356237309509
0
LWPOLYLINE
5
112
100
AcDbEntity
8
0
100
AcDbPolyline
90
8
70
1
43
0.0
10
-333.19999999999993
20
-290.09999999999962
10
-333.19999999999987
20
-294.89999999999958
42
-0.41421356237309509
10
-334.19999999999987
20
-295.89999999999964
10
-351.99999999999994
20
-295.89999999999952
42
-0.41421356237309509
10
-353
20
-294.89999999999952
10
-353.00000000000006
20
-290.09999999999957
42
-0.41421356237309509
10
-352
20
-289.09999999999957
10
-334.19999999999993
20
-289.09999999999962
42
-0.41421356237309509
0
LWPOLYLINE
5
113
100
AcDbEntity
8
0
100
AcDbPolyline
90
8
70
1
43
0.0
10
-47.999999999999979
20
-295.89999999999998
10
-65.799999999999997
20
-295.89999999999998
42
-0.41421356237309509
10
-66.799999999999983
20
-294.89999999999998
10
-66.800000000000011
20
-290.10000000000002
42
-0.41421356237309509
10
-65.799999999999997
20
-289.10000000000002
10
-47.999999999999979
20
-289.10000000000002
42
-0.41421356237309509
10
-46.999999999999986
20
-290.10000000000002
10
-46.999999999999964
20
-294.89999999999998
42
-0.41421356237309509
0
CIRCLE
5
114
100
AcDbEntity
8
0
100
AcDbCircle
10
-200
20
-150.00000000000003
30
0
40
56.000000000000014
210
0
220
-0
230
1
0
CIRCLE
5
115
100
AcDbEntity
8
0
100
AcDbCircle
10
-227.5
20
-253.50000000000006
30
0
40
6.0000000000000142
210
0
220
-0
230
1
0
LWPOLYLINE
5
116
100
AcDbEntity
8
0
100
AcDbPolyline
90
8
70
1
43
0.0
10
-333.19999999999993
20
-5.1000000000004295
10
-333.19999999999987
20
-9.9000000000003947
42
-0.41421356237309509
10
-334.19999999999987
20
-10.900000000000396
10
-351.99999999999994
20
-10.9000000000005
42
-0.41421356237309509
10
-353
20
-9.9000000000004853
10
-353.00000000000006
20
-5.1000000000004908
42
-0.41421356237309509
10
-352
20
-4.1000000000004908
10
-334.19999999999993
20
-4.1000000000004153
42
-0.41421356237309509
0
CIRCLE
5
117
100
AcDbEntity
8
0
100
AcDbCircle
10
-114.99999999999999
20
-270.00000000000006
30
0
40
5.9999999999999964
210
0
220
-0
230
1
0
CIRCLE
5
118
100
AcDbEntity
8
0
100
AcDbCircle
10
-29.999999999999982
20
-270.00000000000006
30
0
40
6.0000000000000009
210
0
220
-0
230
1
0
CIRCLE
5
119
100
AcDbEntity
8
0
100
AcDbCircle
10
-72.499999999999986
20
-270.00000000000006
30
0
40
5.9999999999999964
210
0
220
-0
230
1
0
CIRCLE
5
120
100
AcDbEntity
8
0
100
AcDbCircle
10
-149.99999999999997
20
-280.00000000000006
30
0
40
1.6499999999999915
210
0
220
-0
230
1
0
CIRCLE
5
121
100
AcDbEntity
8
0
100
AcDbCircle
10
-250
20
-280.00000000000006
30
0
40
1.6499999999999915
210
0
220
-0
230
1
0
CIRCLE
5
122
100
AcDbEntity
8
0
100
AcDbCircle
10
-138.77653357804161
20
-150.00000000000003
30
0
40
1.6499999999999915
210
0
220
-0
230
1
0
ENDSEC
0
SECTION
2
OBJECTS
0
DICTIONARY
5
C
100
AcDbDictionary
3
ACAD_GROUP
350
D
3
ACAD_MLINESTYLE
350
17
0
DICTIONARY
5
D
100
AcDbDictionary
0
DICTIONARY
5
1A
330
C
100
AcDbDictionary
0
DICTIONARY
5
17
100
AcDbDictionary
0
ENDSEC
0
EOF
