0
SECTION
2
HEADER
9
$INSUNITS
70
4
9
$ACADVER
1
AC1014
9
$HANDSEED
5
FFFF
0
ENDSEC
0
SECTION
2
TABLES
0
TABLE
2
VPORT
5
8
100
AcDbSymbolTable
0
ENDTAB
0
TABLE
2
LTYPE
5
5
100
AcDbSymbolTable
0
LTYPE
5
14
100
AcDbSymbolTableRecord
100
AcDbLinetypeTableRecord
2
BYBLOCK
70
0
0
LTYPE
5
15
100
AcDbSymbolTableRecord
100
AcDbLinetypeTableRecord
2
BYLAYER
70
0
0
ENDTAB
0
TABLE
2
LAYER
5
2
100
AcDbSymbolTable
70
2
0
LAYER
5
50
100
AcDbSymbolTableRecord
100
AcDbLayerTableRecord
2
0
70
0
6
CONTINUOUS
0
ENDTAB
0
TABLE
2
STYLE
5
3
100
AcDbSymbolTable
70
1
0
STYLE
5
11
100
AcDbSymbolTableRecord
100
AcDbTextStyleTableRecord
2
STANDARD
70
0
0
ENDTAB
0
TABLE
2
VIEW
5
6
100
AcDbSymbolTable
70
0
0
ENDTAB
0
TABLE
2
UCS
5
7
100
AcDbSymbolTable
70
0
0
ENDTAB
0
TABLE
2
APPID
5
9
100
AcDbSymbolTable
70
2
0
APPID
5
12
100
AcDbSymbolTableRecord
100
AcDbRegAppTableRecord
2
ACAD
70
0
0
ENDTAB
0
TABLE
2
DIMSTYLE
5
A
100
AcDbSymbolTable
70
1
0
ENDTAB
0
TABLE
2
BLOCK_RECORD
5
1
100
AcDbSymbolTable
70
1
0
BLOCK_RECORD
5
1F
100
AcDbSymbolTableRecord
100
AcDbBlockTableRecord
2
*MODEL_SPACE
0
BLOCK_RECORD
5
1B
100
AcDbSymbolTableRecord
100
AcDbBlockTableRecord
2
*PAPER_SPACE
0
ENDTAB
0
ENDSEC
0
SECTION
2
BLOCKS
0
BLOCK
5
20
100
AcDbEntity
100
AcDbBlockBegin
2
*MODEL_SPACE
0
ENDBLK
5
21
100
AcDbEntity
100
AcDbBlockEnd
0
BLOCK
5
1C
100
AcDbEntity
100
AcDbBlockBegin
2
*PAPER_SPACE
0
ENDBLK
5
1D
100
AcDbEntity
100
AcDbBlockEnd
0
ENDSEC
0
SECTION
2
ENTITIES
0
LWPOLYLINE
5
100
100
AcDbEntity
8
0
100
AcDbPolyline
90
14
70
1
43
0.0
10
-234.53553390593277
20
9.5355339059327449
42
0.41421356237309437
10
-239.53553390593277
20
4.535533905932744
10
-239.53553390593277
20
-0.46446609406725514
10
-389.53553390593277
20
-0.46446609406725514
42
0.41421356237309509
10
-399.53553390593277
20
-10.464466094067255
10
-399.53553390593277
20
-290.46446609406729
42
0.41421356237309509
10
-389.53553390593277
20
-300.46446609406729
10
-9.5355339059327804
20
-300.46446609406729
42
0.41421356237309553
10
0.46446609406723738
20
-290.46446609406729
10
0.46446609406721961
20
-10.464466094067255
42
0.41421356237309553
10
-9.5355339059327786
20
-0.46446609406725625
10
-159.53553390593277
20
-0.46446609406725514
10
-159.53553390593277
20
4.5355339059327449
42
0.41421356237309437
10
-164.53553390593277
20
9.5355339059327342
0
CIRCLE
5
101
100
AcDbEntity
8
0
100
AcDbCircle
10
-369.53553390593277
20
-30.464466094067255
30
0
40
6.0000000000000142
210
0
220
-0
230
1
0
CIRCLE
5
102
100
AcDbEntity
8
0
100
AcDbCircle
10
-29.53553390593278
20
-30.464466094067255
30
0
40
6.0000000000000009
210
0
220
-0
230
1
0
CIRCLE
5
103
100
AcDbEntity
8
0
100
AcDbCircle
10
-199.53553390593274
20
-253.96446609406729
30
0
40
6.0000000000000142
210
0
220
-0
230
1
0
LWPOLYLINE
5
104
100
AcDbEntity
8
0
100
AcDbPolyline
90
8
70
1
43
0.0
10
-332.7355339059327
20
-290.56446609406686
10
-332.73553390593264
20
-295.36446609406687
42
-0.41421356237309509
10
-333.73553390593264
20
-296.36446609406687
10
-351.53553390593277
20
-296.36446609406681
42
-0.41421356237309509
10
-352.53553390593277
20
-295.36446609406676
10
-352.53553390593282
20
-290.5644660940668
42
-0.41421356237309509
10
-351.53553390593282
20
-289.5644660940668
10
-333.7355339059327
20
-289.56446609406686
42
-0.41421356237309509
0
CIRCLE
5
105
100
AcDbEntity
8
0
100
AcDbCircle
10
-199.53553390593277
20
-89.24099967210887
30
0
40
1.6499999999999915
210
0
220
-0
230
1
0
CIRCLE
5
106
100
AcDbEntity
8
0
100
AcDbCircle
10
-149.53553390593277
20
-280.46446609406735
30
0
40
1.6499999999999915
210
0
220
-0
230
1
0
LWPOLYLINE
5
107
100
AcDbEntity
8
0
100
AcDbPolyline
90
8
70
1
43
0.0
10
-47.535533905932759
20
-296.36446609406727
10
-65.335533905932778
20
-296.36446609406727
42
-0.41421356237309509
10
-66.335533905932763
20
-295.36446609406721
10
-66.335533905932792
20
-290.56446609406731
42
-0.41421356237309509
10
-65.335533905932778
20
-289.56446609406731
10
-47.535533905932759
20
-289.56446609406726
42
-0.41421356237309509
10
-46.535533905932766
20
-290.56446609406726
10
-46.535533905932745
20
-295.36446609406721
42
-0.41421356237309509
0
CIRCLE
5
108
100
AcDbEntity
8
0
100
AcDbCircle
10
-249.53553390593277
20
-280.46446609406735
30
0
40
1.6499999999999915
210
0
220
-0
230
1
0
CIRCLE
5
109
100
AcDbEntity
8
0
100
AcDbCircle
10
-114.53553390593277
20
-270.46446609406729
30
0
40
5.9999999999999964
210
0
220
-0
230
1
0
CIRCLE
5
110
100
AcDbEntity
8
0
100
AcDbCircle
10
-72.035533905932766
20
-270.46446609406729
30
0
40
5.9999999999999964
210
0
220
-0
230
1
0
CIRCLE
5
111
100
AcDbEntity
8
0
100
AcDbCircle
10
-227.03553390593277
20
-253.96446609406729
30
0
40
6.0000000000000142
210
0
220
-0
230
1
0
CIRCLE
5
112
100
AcDbEntity
8
0
100
AcDbCircle
10
-172.03553390593274
20
-253.96446609406729
30
0
40
6.0000000000000142
210
0
220
-0
230
1
0
CIRCLE
5
113
100
AcDbEntity
8
0
100
AcDbCircle
10
-327.03553390593277
20
-270.46446609406729
30
0
40
6.0000000000000142
210
0
220
-0
230
1
0
CIRCLE
5
114
100
AcDbEntity
8
0
100
AcDbCircle
10
-149.53553390593277
20
-227.46446609406732
30
0
40
1.6500000000000092
210
0
220
-0
230
1
0
CIRCLE
5
115
100
AcDbEntity
8
0
100
AcDbCircle
10
-199.53553390593277
20
-211.68793251602568
30
0
40
1.6499999999999915
210
0
220
-0
230
1
0
CIRCLE
5
116
100
AcDbEntity
8
0
100
AcDbCircle
10
-260.75900032789116
20
-150.46446609406726
30
0
40
1.6499999999999915
210
0
220
-0
230
1
0
CIRCLE
5
117
100
AcDbEntity
8
0
100
AcDbCircle
10
-29.535533905932763
20
-270.46446609406729
30
0
40
6.0000000000000009
210
0
220
-0
230
1
0
CIRCLE
5
118
100
AcDbEntity
8
0
100
AcDbCircle
10
-248.91675169550265
20
-227.46446609406732
30
0
40
1.6499999999999915
210
0
220
-0
230
1
0
CIRCLE
5
119
100
AcDbEntity
8
0
100
AcDbCircle
10
-138.31206748397437
20
-150.46446609406729
30
0
40
1.6499999999999915
210
0
220
-0
230
1
0
CIRCLE
5
120
100
AcDbEntity
8
0
100
AcDbCircle
10
-199.53553390593277
20
-150.46446609406726
30
0
40
56.000000000000014
210
0
220
-0
230
1
0
LWPOLYLINE
5
121
100
AcDbEntity
8
0
100
AcDbPolyline
90
8
70
1
43
0.0
10
-332.7355339059327
20
-5.5644660940676847
10
-332.73553390593264
20
-10.36446609406765
42
-0.41421356237309509
10
-333.73553390593264
20
-11.364466094067652
10
-351.53553390593277
20
-11.364466094067755
42
-0.41421356237309509
10
-352.53553390593277
20
-10.36446609406774
10
-352.53553390593282
20
-5.5644660940677459
42
-0.41421356237309509
10
-351.53553390593282
20
-4.5644660940677459
10
-333.7355339059327
20
-4.5644660940676705
42
-0.41421356237309509
0
LWPOLYLINE
5
122
100
AcDbEntity
8
0
100
AcDbPolyline
90
8
70
1
43
0.0
10
-46.535533905932766
20
-5.5644660940672814
10
-46.535533905932752
20
-10.364466094067279
42
-0.41421356237309509
10
-47.535533905932759
20
-11.36446609406728
10
-65.335533905932778
20
-11.36446609406725
42
-0.41421356237309509
10
-66.335533905932763
20
-10.364466094067254
10
-66.335533905932763
20
-5.5644660940672894
42
-0.4142135623730947
10
-65.335533905932778
20
-4.5644660940672912
10
-47.535533905932759
20
-4.564466094067285
42
-0.41421356237309509
0
CIRCLE
5
123
100
AcDbEntity
8
0
100
AcDbCircle
10
-284.53553390593277
20
-270.46446609406729
30
0
40
5.9999999999999787
210
0
220
-0
230
1
0
CIRCLE
5
124
100
AcDbEntity
8
0
100
AcDbCircle
10
-369.53553390593277
20
-270.46446609406729
30
0
40
6.0000000000000142
210
0
220
-0
230
1
0
ENDSEC
0
SECTION
2
OBJECTS
0
DICTIONARY
5
C
100
AcDbDictionary
3
ACAD_GROUP
350
D
3
ACAD_MLINESTYLE
350
17
0
DICTIONARY
5
D
100
AcDbDictionary
0
DICTIONARY
5
1A
330
C
100
AcDbDictionary
0
DICTIONARY
5
17
100
AcDbDictionary
0
ENDSEC
0
EOF
