<?xml version="1.0" encoding="UTF-8" standalone="no"?>
<svg
   viewBox="0 0 793.7007874015749 1122.5196850393702"
   width="793.7007874015749"
   height="1122.5196850393702"
   version="1.1"
   id="svg56689"
   sodipodi:docname="WiggleRV5_LaserCut_Single_Lid.svg"
   inkscape:version="1.2.2 (b0a84865, 2022-12-01)"
   xmlns:inkscape="http://www.inkscape.org/namespaces/inkscape"
   xmlns:sodipodi="http://sodipodi.sourceforge.net/DTD/sodipodi-0.dtd"
   xmlns="http://www.w3.org/2000/svg"
   xmlns:svg="http://www.w3.org/2000/svg">
  <sodipodi:namedview
     id="namedview56691"
     pagecolor="#ffffff"
     bordercolor="#000000"
     borderopacity="0.25"
     inkscape:showpageshadow="2"
     inkscape:pageopacity="0.0"
     inkscape:pagecheckerboard="0"
     inkscape:deskcolor="#d1d1d1"
     showgrid="false"
     inkscape:zoom="0.49890313"
     inkscape:cx="622.3653"
     inkscape:cy="541.18722"
     inkscape:window-width="1390"
     inkscape:window-height="916"
     inkscape:window-x="131"
     inkscape:window-y="38"
     inkscape:window-maximized="0"
     inkscape:current-layer="g6893" />
  <desc
     id="desc56621">top2.dxf - scale = 1.000000, origin = (0.000000, 0.000000), method = manual</desc>
  <defs
     id="defs56635">
    <inkscape:path-effect
       effect="fillet_chamfer"
       id="path-effect68311"
       is_visible="true"
       lpeversion="1"
       nodesatellites_param="F,0,0,1,0,45,0,1 @ F,0,0,1,0,45,0,1 @ F,0,0,1,0,45,0,1 @ F,0,0,1,0,45,0,1"
       unit="px"
       method="auto"
       mode="F"
       radius="0"
       chamfer_steps="1"
       flexible="false"
       use_knot_distance="true"
       apply_no_radius="true"
       apply_with_radius="true"
       only_selected="false"
       hide_knots="false" />
    <marker
       id="DistanceX"
       orient="auto"
       refX="0.0"
       refY="0.0"
       style="overflow:visible">
      <path
         d="M 3,-3 L -3,3 M 0,-5 L  0,5"
         style="stroke:#000000; stroke-width:0.5"
         id="path56623" />
    </marker>
    <pattern
       id="Hatch"
       patternUnits="userSpaceOnUse"
       width="8"
       height="8"
       x="0"
       y="0">
      <path
         d="M8 4 l-4,4"
         stroke="#000000"
         stroke-width="0.25"
         linecap="square"
         id="path56626" />
      <path
         d="M6 2 l-4,4"
         stroke="#000000"
         stroke-width="0.25"
         linecap="square"
         id="path56628" />
      <path
         d="M4 0 l-4,4"
         stroke="#000000"
         stroke-width="0.25"
         linecap="square"
         id="path56630" />
    </pattern>
    <symbol
       id="*MODEL_SPACE" />
    <symbol
       id="*PAPER_SPACE" />
    <clipPath
       clipPathUnits="userSpaceOnUse"
       id="clipPath6883">
      <path
         d="M 0,128 H 128 V 0 H 0 Z"
         id="path6881" />
    </clipPath>
  </defs>
  <g
     inkscape:groupmode="layer"
     inkscape:label="0"
     id="g56687">
    <path
       d="m 98.379389,1078.5459 1411.825711,1.8685 a 45.000296,45.000296 135.07602 0 0 45.0599,-44.9404 L 1556.6394,2.0945302 A 44.999707,44.999707 45.076022 0 0 1511.6993,-42.964991 L 99.873582,-44.83366 A 45.000293,45.000293 135.07602 0 0 54.813767,0.10673919 L 53.439282,1033.4863 a 44.999705,44.999705 45.07602 0 0 44.940107,45.0596 z"
       style="fill:none;stroke:#ff0000;stroke-width:0.930799"
       id="path56637"
       inkscape:path-effect="#path-effect68311"
       inkscape:original-d="M 53.379428,1078.4863 1555.2051,1080.474 1556.6993,-42.90543 54.873621,-44.893221 Z" />
    <g
       id="g68345">
      <path
         d="m 1232.126,272.12598 a 24.56695,24.56695 0 0 0 -49.1339,0 24.56695,24.56695 0 0 0 49.1339,0 z"
         style="fill:none;stroke:#ff0000"
         id="path56641" />
      <path
         d="m 1232.126,763.46457 a 24.56695,24.56695 0 0 0 -49.1339,0 24.56695,24.56695 0 0 0 49.1339,0 z"
         style="fill:none;stroke:#ff0000"
         id="path56643" />
      <path
         d="m 1232.126,517.79528 a 24.56695,24.56695 0 0 0 -49.1339,0 24.56695,24.56695 0 0 0 49.1339,0 z"
         style="fill:none;stroke:#ff0000"
         id="path56645" />
      <path
         d="m 427.08661,763.46457 a 24.566929,24.566929 0 0 0 -49.13385,0 24.566929,24.566929 0 0 0 49.13385,0 z"
         style="fill:none;stroke:#ff0000"
         id="path56649" />
      <path
         d="m 427.08661,517.79528 a 24.566929,24.566929 0 0 0 -49.13385,0 24.566929,24.566929 0 0 0 49.13385,0 z"
         style="fill:none;stroke:#ff0000"
         id="path56651" />
      <path
         d="m 427.08661,272.12598 a 24.566929,24.566929 0 0 0 -49.13385,0 24.566929,24.566929 0 0 0 49.13385,0 z"
         style="fill:none;stroke:#ff0000"
         id="path56653" />
      <path
         d="m 1016.6929,517.79528 a 211.65354,211.65354 0 0 0 -423.30707,0 211.65354,211.65354 0 0 0 423.30707,0 z"
         style="fill:none;stroke:#ff0000"
         id="path56655" />
      <path
         d="m 811.27559,749.19105 a 6.2362205,6.2362205 0 0 0 -12.47244,0 6.2362205,6.2362205 0 0 0 12.47244,0 z"
         style="fill:none;stroke:#ff0000"
         id="path56661" />
      <path
         d="m 1042.6714,517.79528 a 6.23625,6.23625 0 0 0 -12.4725,0 6.23625,6.23625 0 0 0 12.4725,0 z"
         style="fill:none;stroke:#ff0000"
         id="path56663" />
      <path
         d="m 811.27559,286.3995 a 6.2362205,6.2362205 0 0 0 -12.47244,0 6.2362205,6.2362205 0 0 0 12.47244,0 z"
         style="fill:none;stroke:#ff0000"
         id="path56665" />
      <path
         d="m 579.87981,517.79528 a 6.2362205,6.2362205 0 0 0 -12.47244,0 6.2362205,6.2362205 0 0 0 12.47244,0 z"
         style="fill:none;stroke:#ff0000"
         id="path56667" />
      <path
         d="m 1087.3381,517.79528 a 282.29875,282.29875 0 0 0 -564.59748,0 282.29875,282.29875 0 0 0 564.59748,0 z"
         style="fill:none;stroke:#ff0000;stroke-dasharray:12,12;stroke-dashoffset:0"
         id="path56669" />
      <path
         d="m 1098.6767,517.79528 a 293.63733,293.63733 0 0 0 -587.27466,0 293.63733,293.63733 0 0 0 587.27466,0 z"
         style="fill:none;stroke:#ff0000;stroke-dasharray:12,12;stroke-dashoffset:0"
         id="path56671" />
      <path
         d="m 1110.0153,517.79528 a 304.97592,304.97592 0 0 0 -609.95184,0 304.97592,304.97592 0 0 0 609.95184,0 z"
         style="fill:none;stroke:#ff0000;stroke-dasharray:12,12;stroke-dashoffset:0"
         id="path56673" />
    </g>
    <g
       id="g6877"
       transform="matrix(1.3333333,0,0,-1.3333333,75.281335,1062.8941)">
      <g
         id="g6879"
         clip-path="url(#clipPath6883)"
         transform="translate(-7.2727282,-3.2323234)">
        <g
           id="g6885"
           transform="translate(89.2276,103.9526)">
          <path
             d="M 0,0 0.002,0.002 -1.054,1.853 -2.238,1.332 -2.169,1.053 C -2.387,1.016 -2.608,0.954 -2.834,0.838 -9.012,-2.36 -13.046,-9.587 -11.439,-16.32 c 1.1,-4.611 -0.5,-7.962 -1.224,-9.29 -1.567,-2.875 -3.505,-5.633 -4.345,-8.843 -1.018,-3.887 0.553,-8.719 1.822,-12.394 2.56,-7.409 0.308,-13.265 -3.062,-13.54 -3.345,-0.273 -2.24,9.87 -2.594,12.835 -0.267,2.234 -2.355,8.227 -2.029,11.027 0.423,3.63 0.924,5.05 1.453,7.255 0.694,2.891 2.013,5.482 0.7,9.797 -0.08,0.263 -0.301,0.902 -0.642,1.553 0,0 0.006,0.004 0.006,0.004 l -0.192,0.336 c -0.012,0.02 -0.022,0.04 -0.034,0.06 l -1.005,1.763 -0.437,-0.446 c -0.165,0.053 -0.335,0.091 -0.517,0.081 -1.669,-0.086 -2.165,-2.217 -2.021,-3.352 0.902,-7.143 -5.908,-11.244 -7.731,-17.739 -1.051,-3.745 -0.022,-7.485 -0.38,-11.279 -0.309,-3.265 -0.677,-7.765 -3.522,-9.46 -3.858,-2.299 -1.672,7.692 0.306,14.497 1.707,5.871 -0.181,9.776 -0.249,11.614 -0.132,3.555 0.817,6.225 2.434,9.346 0.91,1.756 2.053,2.67 2.563,4.594 0.558,2.11 0.558,4.318 0.476,6.482 -0.125,3.273 -0.545,7.266 2.108,9.718 0.794,0.735 0.791,1.646 0.382,2.363 l 0.002,0.002 -1.12,1.962 v -0.96 c -0.693,0.302 -1.529,0.267 -2.24,-0.391 -2.677,-2.475 -3.439,-6.185 -3.436,-9.696 10e-4,-2.16 0.257,-4.324 0.086,-6.482 -0.159,-2.007 -0.952,-3.758 -1.868,-5.518 -1.906,-3.659 -3.413,-7.406 -3.598,-11.582 -0.179,-4.029 1.992,-8.878 0.803,-12.836 -0.64,-2.128 -1.682,-4.109 -2.232,-6.296 -0.525,-2.088 -0.873,-4.273 -0.98,-6.425 -0.023,-0.465 -0.009,-0.935 0.035,-1.399 h -0.616 l 1.093,-1.912 c 0.815,-1.782 2.83,-2.714 4.732,-2.522 4.022,0.405 6.174,4.832 7.49,8.153 1.547,3.903 1.757,7.906 1.466,12.044 -0.164,2.332 -0.196,5.763 0.726,7.933 0.503,1.186 2.302,2.998 3.494,5.308 -1.005,-2.49 -2.027,-6.608 -1.068,-11.999 0.419,-2.359 1.797,-6.11 1.77,-9.301 -0.024,-2.797 -0.801,-5.608 -0.255,-8.357 h -0.472 l 1.205,-2.13 c 0.028,-0.053 0.058,-0.102 0.087,-0.153 l 0.182,-0.323 0.005,0.023 c 1.057,-1.689 2.777,-2.782 4.927,-2.541 3.96,0.445 9.958,5.436 7.129,19.77 -0.504,2.552 -2.258,5.703 -2.07,8.349 0.343,4.814 5.697,9.768 6.698,13.048 0.635,2.082 0.624,4.156 0.221,6.281 -0.374,1.978 -0.678,3.838 -0.251,5.841 0.795,3.731 3.124,6.894 6.518,8.651 C 0.515,-2.163 0.562,-0.913 0,0"
             style="fill:#0000ff;fill-opacity:1;fill-rule:nonzero;stroke:none"
             id="path6887" />
        </g>
        <g
           id="g6889"
           transform="translate(85.3013,106.7017)">
          <path
             d="m 0,0 c -6.178,-3.197 -10.212,-10.425 -8.605,-17.158 1.1,-4.61 -0.5,-7.961 -1.224,-9.289 -1.567,-2.876 -3.505,-5.634 -4.345,-8.843 -1.018,-3.887 0.552,-8.719 1.822,-12.395 2.559,-7.408 -0.592,-14.406 -3.965,-14.636 -1.097,-0.075 -1.712,2.648 -1.752,3.495 -0.144,2.958 0.014,6.102 -0.34,9.068 -0.267,2.233 -2.217,7.631 -1.891,10.431 0.423,3.631 1.186,7.015 1.716,9.22 0.694,2.89 2.013,5.481 0.7,9.796 -0.193,0.632 -1.151,3.438 -2.821,3.352 -1.669,-0.086 -2.165,-2.217 -2.021,-3.353 0.902,-7.142 -5.908,-11.243 -7.731,-17.738 -1.051,-3.746 -0.022,-7.486 -0.38,-11.28 -0.309,-3.264 -1.492,-6.843 -3.522,-9.459 -0.373,-0.481 -1.766,-2.083 -2.338,-0.984 -0.154,0.297 -0.119,0.653 -0.08,0.986 0.273,2.302 0.513,4.647 1.104,6.895 0.548,2.081 1.421,4.528 1.893,6.712 0.473,2.184 0.707,3.778 0.406,5.566 -0.304,1.803 -0.869,3.545 -0.937,5.383 -0.132,3.555 0.992,6.925 2.609,10.045 0.91,1.757 1.887,3.523 2.397,5.448 0.558,2.109 0.558,4.317 0.476,6.481 -0.125,3.274 -0.545,7.266 2.107,9.719 1.993,1.843 -0.988,4.813 -2.975,2.976 -2.677,-2.475 -3.439,-6.186 -3.436,-9.697 0.001,-2.159 0.257,-4.323 0.086,-6.482 -0.159,-2.006 -0.952,-3.758 -1.868,-5.517 -1.906,-3.66 -3.413,-7.407 -3.598,-11.582 -0.179,-4.03 1.992,-8.878 0.802,-12.837 -0.639,-2.128 -1.682,-4.109 -2.231,-6.296 -0.525,-2.088 -0.874,-4.272 -0.98,-6.425 -0.055,-1.126 0.042,-2.285 0.511,-3.311 0.816,-1.781 2.831,-2.714 4.733,-2.522 4.022,0.406 6.174,4.833 7.49,8.154 1.547,3.902 1.757,7.905 1.466,12.043 -0.164,2.333 0.007,4.443 0.929,6.614 0.836,1.97 4.694,9.328 4.694,9.328 0,0 -4.103,-5.527 -2.472,-14.699 0.42,-2.36 1.798,-6.11 1.771,-9.301 -0.028,-3.247 -1.08,-6.514 0.113,-9.679 0.898,-2.384 2.915,-4.1 5.566,-3.802 3.96,0.445 9.957,5.435 7.129,19.769 -0.504,2.553 -2.258,5.704 -2.07,8.35 0.343,4.814 5.697,9.768 6.697,13.047 0.636,2.083 0.625,4.157 0.222,6.282 -0.375,1.977 -0.678,3.838 -0.251,5.84 0.795,3.731 3.124,6.895 6.518,8.651 C 4.53,-2.389 2.404,1.244 0,0"
             style="fill:#ffffff;fill-opacity:1;fill-rule:nonzero;stroke:none"
             id="path6891" />
        </g>
        <g
           id="g6893"
           transform="translate(85.3013,106.7017)">
          <path
             d="m 0,0 c -6.178,-3.197 -10.212,-10.425 -8.605,-17.158 1.1,-4.61 -0.5,-7.961 -1.224,-9.289 -1.567,-2.876 -3.505,-5.634 -4.345,-8.843 -1.018,-3.887 0.552,-8.719 1.822,-12.395 2.559,-7.408 -0.592,-14.406 -3.965,-14.636 -1.097,-0.075 -1.712,2.648 -1.752,3.495 -0.144,2.958 0.014,6.102 -0.34,9.068 -0.267,2.233 -2.217,7.631 -1.891,10.431 0.423,3.631 1.186,7.015 1.716,9.22 0.694,2.89 2.013,5.481 0.7,9.796 -0.193,0.632 -1.151,3.438 -2.821,3.352 -1.669,-0.086 -2.165,-2.217 -2.021,-3.353 0.902,-7.142 -5.908,-11.243 -7.731,-17.738 -1.051,-3.746 -0.022,-7.486 -0.38,-11.28 -0.309,-3.264 -1.492,-6.843 -3.522,-9.459 -0.373,-0.481 -1.766,-2.083 -2.338,-0.984 -0.154,0.297 -0.119,0.653 -0.08,0.986 0.273,2.302 0.513,4.647 1.104,6.895 0.548,2.081 1.421,4.528 1.893,6.712 0.473,2.184 0.707,3.778 0.406,5.566 -0.304,1.803 -0.869,3.545 -0.937,5.383 -0.132,3.555 0.992,6.925 2.609,10.045 0.91,1.757 1.887,3.523 2.397,5.448 0.558,2.109 0.558,4.317 0.476,6.481 -0.125,3.274 -0.545,7.266 2.107,9.719 1.993,1.843 -0.988,4.813 -2.975,2.976 -2.677,-2.475 -3.439,-6.186 -3.436,-9.697 0.001,-2.159 0.257,-4.323 0.086,-6.482 -0.159,-2.006 -0.952,-3.758 -1.868,-5.517 -1.906,-3.66 -3.413,-7.407 -3.598,-11.582 -0.179,-4.03 1.992,-8.878 0.802,-12.837 -0.639,-2.128 -1.682,-4.109 -2.231,-6.296 -0.525,-2.088 -0.874,-4.272 -0.98,-6.425 -0.055,-1.126 0.042,-2.285 0.511,-3.311 0.816,-1.781 2.831,-2.714 4.733,-2.522 4.022,0.406 6.174,4.833 7.49,8.154 1.547,3.902 1.757,7.905 1.466,12.043 -0.164,2.333 0.007,4.443 0.929,6.614 0.836,1.97 4.694,9.328 4.694,9.328 0,0 -4.103,-5.527 -2.472,-14.699 0.42,-2.36 1.798,-6.11 1.771,-9.301 -0.028,-3.247 -1.08,-6.514 0.113,-9.679 0.898,-2.384 2.915,-4.1 5.566,-3.802 3.96,0.445 9.957,5.435 7.129,19.769 -0.504,2.553 -2.258,5.704 -2.07,8.35 0.343,4.814 5.697,9.768 6.697,13.047 0.636,2.083 0.625,4.157 0.222,6.282 -0.375,1.977 -0.678,3.838 -0.251,5.84 0.795,3.731 3.124,6.895 6.518,8.651 C 4.53,-2.389 2.404,1.244 0,0 Z"
             style="fill:none;stroke:#0000ff;stroke-width:0.25;stroke-linecap:round;stroke-linejoin:round;stroke-miterlimit:10;stroke-dasharray:none;stroke-opacity:1"
             id="path6895" />
        </g>
      </g>
    </g>
  </g>
</svg>
