<?xml version="1.0" encoding="UTF-8" standalone="no"?>
<svg
   width="107.2mm"
   height="103.8mm"
   viewBox="0 0 107.2 103.8"
   version="1.1"
   preserveAspectRatio="xMidYMid meet"
   id="svg45454"
   sodipodi:docname="box(3).svg"
   inkscape:version="1.2.2 (b0a84865, 2022-12-01)"
   xmlns:inkscape="http://www.inkscape.org/namespaces/inkscape"
   xmlns:sodipodi="http://sodipodi.sourceforge.net/DTD/sodipodi-0.dtd"
   xmlns="http://www.w3.org/2000/svg"
   xmlns:svg="http://www.w3.org/2000/svg">
  <defs
     id="defs45458" />
  <sodipodi:namedview
     id="namedview45456"
     pagecolor="#ffffff"
     bordercolor="#000000"
     borderopacity="0.25"
     inkscape:showpageshadow="2"
     inkscape:pageopacity="0.0"
     inkscape:pagecheckerboard="0"
     inkscape:deskcolor="#d1d1d1"
     inkscape:document-units="mm"
     showgrid="false"
     inkscape:zoom="1.7171168"
     inkscape:cx="184.3206"
     inkscape:cy="160.44337"
     inkscape:window-width="1504"
     inkscape:window-height="831"
     inkscape:window-x="0"
     inkscape:window-y="38"
     inkscape:window-maximized="0"
     inkscape:current-layer="svg45454" />
  <path
     d="m 9.962,100.8 h 10.476 v 3 H 30.4 v -9.087 h -3 V 84.238 h 3 V 72.963 h -3 V 62.488 h 3 V 53.4 h -9.962 v 3 H 9.962 v -3 H 0 v 9.088 H 3 V 72.963 H 0 V 84.238 H 3 V 94.713 H 0 v 9.087 h 9.962 z"
     id="front_outsideCutPath"
     stroke="#FF0000"
     stroke-width="0.1"
     style="font-size:12px;fill:none;fill-rule:evenodd;stroke:#ff0000;stroke-width:0.1;stroke-linecap:round"
     vector-effect="non-scaling-stroke" />
  <path
     d="M 19.631,80.896 H 19.138 V 78.791 A 1.393,1.393 0 0 0 19.122,78.573 Q 19.084,78.335 18.957,78.198 18.776,78.002 18.39,78.002 a 1.492,1.492 0 0 0 -0.279,0.024 q -0.302,0.058 -0.469,0.252 a 0.806,0.806 0 0 0 -0.14,0.245 q -0.098,0.259 -0.098,0.666 v 1.707 h -0.493 v -3.253 h 0.401 l 0.08,0.445 h 0.024 a 0.998,0.998 0 0 1 0.391,-0.356 1.2,1.2 0 0 1 0.034,-0.017 1.334,1.334 0 0 1 0.475,-0.126 1.614,1.614 0 0 1 0.133,-0.006 1.946,1.946 0 0 1 0.331,0.026 q 0.179,0.031 0.321,0.099 a 0.886,0.886 0 0 1 0.233,0.159 0.854,0.854 0 0 1 0.208,0.326 q 0.089,0.24 0.089,0.581 z m -9.467,-3.253 v 0.382 H 9.335 v 2.871 H 8.842 V 78.025 H 8.261 v -0.222 l 0.581,-0.178 v -0.181 q 0,-1.036 0.781,-1.177 A 1.498,1.498 0 0 1 9.89,76.244 q 0.201,0 0.456,0.063 a 3.19,3.19 0 0 1 0.15,0.041 l -0.128,0.395 a 2.393,2.393 0 0 0 -0.186,-0.052 q -0.168,-0.04 -0.301,-0.04 a 0.665,0.665 0 0 0 -0.16,0.018 0.427,0.427 0 0 0 -0.252,0.167 0.57,0.57 0 0 0 -0.076,0.152 q -0.058,0.173 -0.058,0.444 v 0.211 z m 11.975,2.847 v 0.377 q -0.08,0.038 -0.236,0.063 -0.145,0.024 -0.263,0.026 a 1.264,1.264 0 0 1 -0.017,0 q -0.753,0 -0.905,-0.633 a 1.549,1.549 0 0 1 -0.039,-0.362 v -1.936 h -0.466 v -0.237 l 0.466,-0.205 0.208,-0.695 h 0.285 v 0.755 h 0.944 v 0.382 h -0.944 v 1.915 a 0.992,0.992 0 0 0 0.014,0.175 q 0.017,0.095 0.055,0.171 a 0.478,0.478 0 0 0 0.07,0.106 0.458,0.458 0 0 0 0.282,0.149 0.659,0.659 0 0 0 0.101,0.008 1.618,1.618 0 0 0 0.237,-0.017 1.495,1.495 0 0 0 0.015,-0.002 2.666,2.666 0 0 0 0.072,-0.013 q 0.068,-0.012 0.115,-0.026 a 0.738,0.738 0 0 0 0.006,-0.001 z m -9.508,-2.871 -0.069,0.457 Q 12.36,78.031 12.206,78.031 a 0.854,0.854 0 0 0 -0.631,0.273 1.168,1.168 0 0 0 -0.044,0.048 1.125,1.125 0 0 0 -0.272,0.632 1.496,1.496 0 0 0 -0.009,0.167 v 1.745 h -0.493 v -3.253 h 0.407 l 0.056,0.602 h 0.024 a 1.664,1.664 0 0 1 0.186,-0.266 1.271,1.271 0 0 1 0.251,-0.224 0.982,0.982 0 0 1 0.561,-0.172 2.262,2.262 0 0 1 0.202,0.009 1.651,1.651 0 0 1 0.187,0.027 z m 3.371,2.143 a 2.546,2.546 0 0 0 0.046,-0.496 2.892,2.892 0 0 0 -10e-4,-0.078 q -0.02,-0.72 -0.402,-1.151 a 1.29,1.29 0 0 0 -0.599,-0.386 1.656,1.656 0 0 0 -0.486,-0.068 1.914,1.914 0 0 0 -0.344,0.03 1.304,1.304 0 0 0 -0.76,0.414 q -0.264,0.295 -0.353,0.745 a 2.559,2.559 0 0 0 -0.045,0.494 2.465,2.465 0 0 0 0.031,0.4 1.823,1.823 0 0 0 0.153,0.497 1.62,1.62 0 0 0 0.036,0.07 1.334,1.334 0 0 0 0.487,0.518 1.372,1.372 0 0 0 0.315,0.14 1.583,1.583 0 0 0 0.459,0.065 q 0.707,0 1.108,-0.447 a 1.375,1.375 0 0 0 0.163,-0.225 q 0.134,-0.228 0.192,-0.522 z m -2.433,-0.496 a 2.496,2.496 0 0 0 0.023,0.357 q 0.054,0.368 0.226,0.593 a 0.808,0.808 0 0 0 0.526,0.31 1.224,1.224 0 0 0 0.207,0.017 1.145,1.145 0 0 0 0.302,-0.038 0.797,0.797 0 0 0 0.433,-0.287 1.058,1.058 0 0 0 0.165,-0.321 q 0.086,-0.264 0.086,-0.631 a 2.459,2.459 0 0 0 -0.023,-0.35 q -0.053,-0.368 -0.228,-0.592 a 0.811,0.811 0 0 0 -0.504,-0.301 1.243,1.243 0 0 0 -0.237,-0.021 1.173,1.173 0 0 0 -0.292,0.034 0.785,0.785 0 0 0 -0.438,0.283 1.019,1.019 0 0 0 -0.158,0.306 q -0.047,0.141 -0.069,0.313 a 2.604,2.604 0 0 0 -0.019,0.328 z"
     id="front_labelLayer"
     stroke="#777777"
     fill="#777777"
     style="font-size:12px;fill:#777777;fill-rule:evenodd;stroke:#777777;stroke-width:0.25mm;stroke-linecap:round"
     vector-effect="non-scaling-stroke" />
  <path
     d="m 48.363,100.8 h 10.474 v 3 H 70.8 v -8.687 h 3 V 83.838 h -3 V 73.363 h 3 V 62.088 h -3 V 53.4 H 58.837 v 3 H 48.363 v -3 H 36.4 v 8.688 h -3 v 11.275 h 3 v 10.475 h -3 v 11.275 h 3 v 8.687 h 11.963 z"
     id="left_outsideCutPath"
     stroke="#FF0000"
     stroke-width="0.1"
     style="font-size:12px;fill:none;fill-rule:evenodd;stroke:#ff0000;stroke-width:0.1;stroke-linecap:round"
     vector-effect="non-scaling-stroke" />
  <path
     d="m 56.474,77.328 v 0.508 h -1.101 v 3.816 h -0.655 v -3.816 h -0.773 v -0.295 l 0.773,-0.237 v -0.241 a 2.654,2.654 0 0 1 0.062,-0.601 q 0.192,-0.821 0.976,-0.963 a 1.991,1.991 0 0 1 0.355,-0.03 q 0.343,0 0.805,0.138 l -0.17,0.525 a 3.18,3.18 0 0 0 -0.247,-0.07 q -0.224,-0.052 -0.4,-0.052 a 0.883,0.883 0 0 0 -0.213,0.024 0.567,0.567 0 0 0 -0.335,0.222 0.758,0.758 0 0 0 -0.1,0.202 q -0.067,0.198 -0.076,0.491 a 3.092,3.092 0 0 0 -0.002,0.098 v 0.281 z m -3.065,1.866 v 0.414 H 50.43 a 2.629,2.629 0 0 0 0.046,0.44 q 0.047,0.24 0.142,0.429 a 1.23,1.23 0 0 0 0.197,0.287 q 0.365,0.394 1.027,0.394 a 3.459,3.459 0 0 0 1.296,-0.256 3.964,3.964 0 0 0 0.085,-0.036 v 0.584 a 3.932,3.932 0 0 1 -0.358,0.136 3.007,3.007 0 0 1 -0.299,0.079 q -0.24,0.051 -0.559,0.062 a 5.336,5.336 0 0 1 -0.188,0.004 q -0.959,0 -1.513,-0.584 -0.523,-0.551 -0.553,-1.504 a 3.741,3.741 0 0 1 -0.002,-0.118 3.439,3.439 0 0 1 0.064,-0.682 q 0.084,-0.414 0.278,-0.737 a 1.939,1.939 0 0 1 0.173,-0.242 1.678,1.678 0 0 1 1.223,-0.61 2.315,2.315 0 0 1 0.16,-0.005 1.995,1.995 0 0 1 0.562,0.075 1.518,1.518 0 0 1 0.724,0.459 1.831,1.831 0 0 1 0.415,0.837 2.666,2.666 0 0 1 0.059,0.574 z m 5.843,1.917 v 0.501 a 0.644,0.644 0 0 1 -0.077,0.03 q -0.081,0.028 -0.198,0.048 a 2.449,2.449 0 0 1 -0.039,0.007 q -0.193,0.031 -0.351,0.033 a 1.677,1.677 0 0 1 -0.022,10e-4 q -1.254,0 -1.254,-1.322 v -2.573 h -0.62 v -0.315 l 0.62,-0.272 0.276,-0.924 h 0.378 v 1.003 h 1.255 v 0.508 h -1.255 v 2.545 a 1.319,1.319 0 0 0 0.02,0.232 q 0.022,0.127 0.072,0.228 a 0.635,0.635 0 0 0 0.094,0.14 0.608,0.608 0 0 0 0.374,0.199 0.875,0.875 0 0 0 0.135,0.01 2.151,2.151 0 0 0 0.315,-0.023 1.978,1.978 0 0 0 0.02,-0.003 q 0.162,-0.025 0.257,-0.053 z M 48.603,75.513 v 6.139 h -0.655 v -6.139 z m 1.843,3.562 h 2.26 A 2.232,2.232 0 0 0 52.679,78.717 Q 52.62,78.353 52.43,78.126 a 0.897,0.897 0 0 0 -0.54,-0.307 1.346,1.346 0 0 0 -0.249,-0.022 1.291,1.291 0 0 0 -0.373,0.051 0.997,0.997 0 0 0 -0.457,0.288 1.294,1.294 0 0 0 -0.258,0.434 q -0.065,0.179 -0.094,0.393 a 2.474,2.474 0 0 0 -0.013,0.112 z"
     id="left_labelLayer"
     stroke="#777777"
     fill="#777777"
     style="font-size:12px;fill:#777777;fill-rule:evenodd;stroke:#777777;stroke-width:0.25mm;stroke-linecap:round"
     vector-effect="non-scaling-stroke" />
  <path
     d="M 97.638,100.8 H 104.2 V 89.238 h 3 V 77.963 h -3 V 66.4 h -6.562 v -3 H 86.363 v 3 H 79.8 v 11.563 h -3 v 11.275 h 3 V 100.8 h 6.563 v 3 h 11.275 z"
     id="top_outsideCutPath"
     stroke="#FF0000"
     stroke-width="0.1"
     style="font-size:12px;fill:none;fill-rule:evenodd;stroke:#ff0000;stroke-width:0.1;stroke-linecap:round"
     vector-effect="non-scaling-stroke" />
  <path
     d="m 94.185,84.455 h -0.036 q 0.036,0.285 0.036,0.54 v 1.339 H 93.692 V 81.62 h 0.401 l 0.068,0.445 h 0.024 a 1.327,1.327 0 0 1 0.192,-0.218 1.026,1.026 0 0 1 0.25,-0.168 Q 94.88,81.56 95.206,81.56 a 1.511,1.511 0 0 1 0.427,0.058 1.117,1.117 0 0 1 0.572,0.385 q 0.288,0.361 0.34,0.961 a 3.209,3.209 0 0 1 0.012,0.28 q 0,0.801 -0.358,1.245 -0.357,0.444 -0.993,0.444 a 1.495,1.495 0 0 1 -0.375,-0.046 1.301,1.301 0 0 1 -0.205,-0.071 q -0.263,-0.118 -0.441,-0.361 z m -4.815,0.012 v 0.377 q -0.08,0.039 -0.236,0.064 -0.146,0.023 -0.264,0.025 a 1.264,1.264 0 0 1 -0.017,0 q -0.753,0 -0.905,-0.633 a 1.549,1.549 0 0 1 -0.039,-0.362 v -1.935 h -0.466 v -0.238 l 0.466,-0.205 0.208,-0.694 h 0.285 v 0.754 h 0.944 v 0.383 h -0.944 v 1.915 a 0.992,0.992 0 0 0 0.014,0.174 q 0.017,0.096 0.055,0.171 a 0.478,0.478 0 0 0 0.07,0.106 0.458,0.458 0 0 0 0.282,0.15 0.659,0.659 0 0 0 0.101,0.007 1.618,1.618 0 0 0 0.237,-0.017 1.495,1.495 0 0 0 0.016,-0.002 2.666,2.666 0 0 0 0.071,-0.012 q 0.068,-0.013 0.115,-0.026 a 0.738,0.738 0 0 0 0.007,-0.002 z m 3.413,-0.728 a 2.546,2.546 0 0 0 0.045,-0.495 2.892,2.892 0 0 0 -0.001,-0.078 q -0.019,-0.72 -0.401,-1.151 a 1.29,1.29 0 0 0 -0.599,-0.387 1.656,1.656 0 0 0 -0.486,-0.068 1.914,1.914 0 0 0 -0.344,0.03 1.304,1.304 0 0 0 -0.76,0.414 q -0.265,0.295 -0.353,0.745 a 2.559,2.559 0 0 0 -0.045,0.495 2.465,2.465 0 0 0 0.031,0.399 1.823,1.823 0 0 0 0.153,0.497 1.62,1.62 0 0 0 0.036,0.071 1.334,1.334 0 0 0 0.486,0.517 1.372,1.372 0 0 0 0.315,0.14 1.583,1.583 0 0 0 0.46,0.065 q 0.707,0 1.107,-0.447 a 1.375,1.375 0 0 0 0.164,-0.225 q 0.134,-0.228 0.192,-0.522 z m -2.434,-0.495 a 2.496,2.496 0 0 0 0.024,0.356 q 0.053,0.368 0.226,0.594 a 0.808,0.808 0 0 0 0.526,0.31 1.224,1.224 0 0 0 0.207,0.016 1.145,1.145 0 0 0 0.302,-0.037 0.797,0.797 0 0 0 0.433,-0.288 1.058,1.058 0 0 0 0.165,-0.321 q 0.086,-0.263 0.086,-0.63 A 2.459,2.459 0 0 0 92.294,82.893 Q 92.241,82.525 92.067,82.301 A 0.811,0.811 0 0 0 91.563,82 a 1.243,1.243 0 0 0 -0.237,-0.021 1.173,1.173 0 0 0 -0.292,0.034 0.785,0.785 0 0 0 -0.438,0.284 1.019,1.019 0 0 0 -0.159,0.306 q -0.046,0.14 -0.068,0.313 a 2.604,2.604 0 0 0 -0.02,0.328 z m 3.836,-0.11 v 0.11 q 0,0.686 0.229,0.981 0.204,0.265 0.631,0.292 a 1.585,1.585 0 0 0 0.102,0.003 q 0.421,0 0.66,-0.341 a 1.192,1.192 0 0 0 0.164,-0.348 q 0.047,-0.16 0.065,-0.352 a 2.625,2.625 0 0 0 0.01,-0.241 q 0,-0.609 -0.239,-0.934 a 0.767,0.767 0 0 0 -0.56,-0.319 1.06,1.06 0 0 0 -0.112,-0.006 q -0.499,0 -0.721,0.276 -0.209,0.259 -0.227,0.803 a 3.137,3.137 0 0 0 -0.002,0.076 z"
     id="top_labelLayer"
     stroke="#777777"
     fill="#777777"
     style="font-size:12px;fill:#777777;fill-rule:evenodd;stroke:#777777;stroke-width:0.25mm;stroke-linecap:round"
     vector-effect="non-scaling-stroke" />
  <path
     d="m 9.962,47.4 h 10.476 v 3 H 30.4 v -9.087 h -3 V 30.838 h 3 V 19.563 h -3 V 9.088 h 3 V 0 H 20.438 V 3 H 9.962 V 0 H 0 V 9.088 H 3 V 19.563 H 0 V 30.838 H 3 V 41.313 H 0 V 50.4 h 9.962 z"
     id="back_outsideCutPath"
     stroke="#FF0000"
     stroke-width="0.1"
     style="font-size:12px;fill:none;fill-rule:evenodd;stroke:#ff0000;stroke-width:0.1;stroke-linecap:round"
     vector-effect="non-scaling-stroke" />
  <path
     d="m 19.362,25.814 h 0.024 a 2.917,2.917 0 0 1 0.072,-0.097 q 0.121,-0.157 0.317,-0.378 l 1.051,-1.113 h 0.585 l -1.319,1.387 1.411,1.867 h -0.597 l -1.149,-1.538 -0.371,0.321 v 1.217 h -0.487 v -4.619 h 0.487 v 2.449 a 3.284,3.284 0 0 1 -0.002,0.093 q -0.004,0.155 -0.022,0.411 z M 9.39,27.061 H 9.355 L 9.251,27.48 H 8.897 V 22.861 H 9.39 v 1.122 q 0,0.365 -0.022,0.657 A 6.127,6.127 0 0 1 9.366,24.66 H 9.39 a 1.12,1.12 0 0 1 0.818,-0.475 1.683,1.683 0 0 1 0.203,-0.012 1.506,1.506 0 0 1 0.424,0.056 1.128,1.128 0 0 1 0.572,0.382 q 0.355,0.438 0.355,1.239 0,0.802 -0.358,1.246 -0.357,0.443 -0.993,0.443 A 1.495,1.495 0 0 1 10.036,27.494 1.301,1.301 0 0 1 9.831,27.422 Q 9.568,27.305 9.39,27.061 Z m 5.599,0.419 h -0.365 l -0.098,-0.463 h -0.024 a 2.043,2.043 0 0 1 -0.165,0.185 q -0.16,0.157 -0.32,0.229 -0.242,0.108 -0.604,0.108 A 1.512,1.512 0 0 1 13.105,27.51 q -0.27,-0.056 -0.451,-0.22 A 0.81,0.81 0 0 1 12.41,26.863 1.24,1.24 0 0 1 12.38,26.58 q 0,-0.985 1.576,-1.033 l 0.552,-0.018 v -0.201 q 0,-0.234 -0.061,-0.394 a 0.55,0.55 0 0 0 -0.103,-0.172 q -0.132,-0.146 -0.389,-0.175 a 1.218,1.218 0 0 0 -0.138,-0.008 1.604,1.604 0 0 0 -0.37,0.047 q -0.258,0.061 -0.551,0.203 l -0.151,-0.377 a 2.272,2.272 0 0 1 0.438,-0.18 2.586,2.586 0 0 1 0.089,-0.025 2.282,2.282 0 0 1 0.574,-0.074 q 0.364,0 0.61,0.101 a 0.839,0.839 0 0 1 0.253,0.157 0.78,0.78 0 0 1 0.201,0.311 q 0.079,0.215 0.079,0.517 z m 3.186,-3.144 -0.152,0.419 a 2.192,2.192 0 0 0 -0.238,-0.079 2.618,2.618 0 0 0 -0.118,-0.03 q -0.193,-0.043 -0.341,-0.043 -0.881,0 -0.98,0.998 a 2.723,2.723 0 0 0 -0.012,0.267 q 0,0.6 0.242,0.92 a 0.783,0.783 0 0 0 0.507,0.303 1.192,1.192 0 0 0 0.21,0.018 2.063,2.063 0 0 0 0.569,-0.083 2.547,2.547 0 0 0 0.265,-0.092 v 0.436 a 1.402,1.402 0 0 1 -0.343,0.121 q -0.158,0.036 -0.342,0.045 a 2.703,2.703 0 0 1 -0.137,0.003 1.842,1.842 0 0 1 -0.448,-0.051 1.249,1.249 0 0 1 -0.646,-0.384 1.425,1.425 0 0 1 -0.297,-0.544 q -0.065,-0.216 -0.083,-0.476 a 2.98,2.98 0 0 1 -0.008,-0.21 2.719,2.719 0 0 1 0.043,-0.495 q 0.086,-0.467 0.351,-0.767 a 1.276,1.276 0 0 1 0.699,-0.402 1.934,1.934 0 0 1 0.422,-0.043 q 0.234,0 0.469,0.05 0.234,0.051 0.368,0.119 z m -7.835,0.249 a 1.385,1.385 0 0 0 -0.268,0.025 q -0.153,0.03 -0.269,0.098 a 0.655,0.655 0 0 0 -0.19,0.167 Q 9.39,25.164 9.39,25.85 q 0,0.686 0.229,0.981 0.205,0.265 0.632,0.293 a 1.585,1.585 0 0 0 0.101,0.003 0.982,0.982 0 0 0 0.279,-0.038 0.709,0.709 0 0 0 0.398,-0.293 q 0.159,-0.237 0.204,-0.621 a 2.824,2.824 0 0 0 0.019,-0.331 2.912,2.912 0 0 0 -0.018,-0.332 Q 11.189,25.121 11.029,24.897 A 0.719,0.719 0 0 0 10.571,24.608 1.14,1.14 0 0 0 10.34,24.585 Z m 4.156,1.589 V 25.88 l -0.492,0.021 q -0.491,0.017 -0.753,0.133 a 0.757,0.757 0 0 0 -0.095,0.049 0.526,0.526 0 0 0 -0.251,0.382 0.778,0.778 0 0 0 -0.009,0.121 q 0,0.235 0.125,0.372 a 0.439,0.439 0 0 0 0.037,0.035 0.536,0.536 0 0 0 0.201,0.107 q 0.08,0.023 0.175,0.03 a 1.108,1.108 0 0 0 0.077,0.003 1.357,1.357 0 0 0 0.293,-0.03 q 0.204,-0.045 0.355,-0.159 a 0.823,0.823 0 0 0 0.075,-0.064 q 0.261,-0.251 0.262,-0.701 a 1.551,1.551 0 0 0 0,-0.005 z"
     id="back_labelLayer"
     stroke="#777777"
     fill="#777777"
     style="font-size:12px;fill:#777777;fill-rule:evenodd;stroke:#777777;stroke-width:0.25mm;stroke-linecap:round"
     vector-effect="non-scaling-stroke" />
  <path
     d="m 48.363,47.4 h 10.474 v 3 H 70.8 v -8.687 h 3 V 30.438 h -3 V 19.963 h 3 V 8.688 h -3 V 0 H 58.837 V 3 H 48.363 V 0 H 36.4 v 8.688 h -3 v 11.275 h 3 v 10.475 h -3 v 11.275 h 3 V 50.4 h 11.963 z"
     id="right_outsideCutPath"
     stroke="#FF0000"
     stroke-width="0.1"
     style="font-size:12px;fill:none;fill-rule:evenodd;stroke:#ff0000;stroke-width:0.1;stroke-linecap:round"
     vector-effect="non-scaling-stroke" />
  <path
     d="m 58.624,27.299 h -0.655 v -2.797 a 1.851,1.851 0 0 0 -0.021,-0.291 q -0.024,-0.153 -0.076,-0.274 a 0.779,0.779 0 0 0 -0.143,-0.224 q -0.195,-0.211 -0.568,-0.251 a 1.736,1.736 0 0 0 -0.186,-0.01 1.982,1.982 0 0 0 -0.37,0.032 q -0.405,0.078 -0.626,0.339 -0.287,0.339 -0.311,1.074 a 4.227,4.227 0 0 0 -0.003,0.141 v 2.261 H 55.01 V 21.16 h 0.655 v 1.858 a 5.891,5.891 0 0 1 -0.004,0.226 q -0.004,0.107 -0.012,0.198 a 2.562,2.562 0 0 1 -0.015,0.133 h 0.039 a 1.308,1.308 0 0 1 0.459,-0.442 1.599,1.599 0 0 1 0.092,-0.05 1.681,1.681 0 0 1 0.551,-0.163 2.126,2.126 0 0 1 0.263,-0.016 2.657,2.657 0 0 1 0.447,0.035 q 0.237,0.04 0.425,0.128 a 1.18,1.18 0 0 1 0.318,0.214 q 0.308,0.292 0.377,0.853 a 2.832,2.832 0 0 1 0.019,0.344 z m -5.997,-4.324 h 1.496 v 0.414 l -0.801,0.095 q 0.093,0.116 0.169,0.292 a 2.019,2.019 0 0 1 0.028,0.069 1.26,1.26 0 0 1 0.075,0.301 1.618,1.618 0 0 1 0.012,0.202 1.501,1.501 0 0 1 -0.069,0.465 1.214,1.214 0 0 1 -0.365,0.549 1.453,1.453 0 0 1 -0.571,0.301 q -0.217,0.06 -0.474,0.074 A 2.845,2.845 0 0 1 51.98,25.74 2.105,2.105 0 0 1 51.737,25.727 1.777,1.777 0 0 1 51.617,25.709 1.165,1.165 0 0 0 51.43,25.83 q -0.231,0.186 -0.231,0.435 a 0.339,0.339 0 0 0 0.018,0.111 q 0.032,0.096 0.128,0.152 0.146,0.084 0.501,0.084 h 0.766 a 2.681,2.681 0 0 1 0.407,0.029 q 0.213,0.033 0.385,0.103 a 1.184,1.184 0 0 1 0.287,0.164 0.958,0.958 0 0 1 0.356,0.611 1.439,1.439 0 0 1 0.021,0.249 q 0,0.704 -0.554,1.08 a 1.557,1.557 0 0 1 -0.022,0.015 1.964,1.964 0 0 1 -0.507,0.23 q -0.249,0.076 -0.554,0.112 a 5.191,5.191 0 0 1 -0.62,0.035 3.669,3.669 0 0 1 -0.492,-0.031 q -0.5,-0.068 -0.816,-0.285 a 1.044,1.044 0 0 1 -0.337,-0.365 q -0.107,-0.2 -0.121,-0.453 a 1.383,1.383 0 0 1 -0.002,-0.073 q 0,-0.395 0.253,-0.683 a 1.144,1.144 0 0 1 0.393,-0.286 1.621,1.621 0 0 1 0.317,-0.104 0.68,0.68 0 0 1 -0.264,-0.214 0.807,0.807 0 0 1 -0.014,-0.019 0.607,0.607 0 0 1 -0.112,-0.328 0.752,0.752 0 0 1 -10e-4,-0.039 0.749,0.749 0 0 1 0.038,-0.241 0.664,0.664 0 0 1 0.089,-0.173 q 0.095,-0.135 0.274,-0.262 a 2.057,2.057 0 0 1 0.124,-0.082 1.148,1.148 0 0 1 -0.499,-0.399 1.423,1.423 0 0 1 -0.047,-0.07 1.354,1.354 0 0 1 -0.208,-0.653 1.652,1.652 0 0 1 -0.003,-0.105 q 0,-0.71 0.426,-1.094 a 1.391,1.391 0 0 1 0.534,-0.295 q 0.212,-0.065 0.467,-0.083 a 2.893,2.893 0 0 1 0.206,-0.007 2.51,2.51 0 0 1 0.332,0.021 1.912,1.912 0 0 1 0.279,0.058 z m 9.331,3.783 v 0.501 a 0.644,0.644 0 0 1 -0.076,0.031 q -0.082,0.027 -0.198,0.048 a 2.449,2.449 0 0 1 -0.04,0.006 q -0.193,0.032 -0.35,0.034 a 1.677,1.677 0 0 1 -0.022,0 q -1.255,0 -1.255,-1.322 v -2.572 h -0.619 v -0.316 l 0.619,-0.272 0.276,-0.923 h 0.379 v 1.002 h 1.255 v 0.509 h -1.255 v 2.544 a 1.319,1.319 0 0 0 0.019,0.232 q 0.023,0.127 0.073,0.228 a 0.635,0.635 0 0 0 0.093,0.14 0.608,0.608 0 0 0 0.374,0.199 0.875,0.875 0 0 0 0.135,0.01 2.151,2.151 0 0 0 0.315,-0.022 1.978,1.978 0 0 0 0.021,-0.003 q 0.161,-0.026 0.256,-0.054 z m -14.227,-3.815 -0.09,0.608 a 2.887,2.887 0 0 0 -0.208,-0.038 q -0.104,-0.015 -0.196,-0.02 a 1.536,1.536 0 0 0 -0.07,-10e-4 1.135,1.135 0 0 0 -0.838,0.362 1.552,1.552 0 0 0 -0.059,0.064 q -0.373,0.426 -0.373,1.061 v 2.32 h -0.655 v -4.324 h 0.54 l 0.075,0.801 h 0.032 a 2.212,2.212 0 0 1 0.247,-0.354 1.689,1.689 0 0 1 0.333,-0.297 1.306,1.306 0 0 1 0.746,-0.229 q 0.288,0 0.516,0.047 z m 1.464,0.032 v 4.324 H 48.54 v -4.324 z m 3.208,4.225 h -0.786 a 1.505,1.505 0 0 0 -0.271,0.023 q -0.154,0.028 -0.276,0.091 a 0.767,0.767 0 0 0 -0.147,0.099 0.69,0.69 0 0 0 -0.227,0.392 1.048,1.048 0 0 0 -0.021,0.22 q 0,0.351 0.295,0.532 a 1.049,1.049 0 0 0 0.258,0.111 q 0.244,0.07 0.585,0.071 a 3.295,3.295 0 0 0 0.006,0 4.403,4.403 0 0 0 0.43,-0.02 q 0.431,-0.042 0.701,-0.177 a 1.088,1.088 0 0 0 0.09,-0.05 0.955,0.955 0 0 0 0.221,-0.185 0.716,0.716 0 0 0 0.175,-0.483 q 0,-0.352 -0.217,-0.488 Q 53.002,27.2 52.403,27.2 Z M 51.03,24.36 a 1.278,1.278 0 0 0 0.026,0.268 q 0.056,0.26 0.23,0.418 a 0.847,0.847 0 0 0 0.341,0.185 q 0.166,0.048 0.373,0.048 a 1.427,1.427 0 0 0 0.374,-0.045 q 0.427,-0.116 0.542,-0.535 a 1.326,1.326 0 0 0 0.043,-0.351 1.408,1.408 0 0 0 -0.048,-0.386 q -0.168,-0.589 -0.923,-0.589 a 1.374,1.374 0 0 0 -0.28,0.027 q -0.171,0.036 -0.302,0.119 a 0.754,0.754 0 0 0 -0.128,0.103 0.786,0.786 0 0 0 -0.19,0.32 q -0.04,0.124 -0.053,0.275 A 1.723,1.723 0 0 0 51.03,24.36 Z m -2.545,-2.557 q 0,-0.225 0.11,-0.329 a 0.379,0.379 0 0 1 0.243,-0.104 0.5,0.5 0 0 1 0.034,-0.001 q 0.157,0 0.272,0.107 a 0.331,0.331 0 0 1 0.087,0.139 q 0.018,0.052 0.024,0.117 a 0.749,0.749 0 0 1 0.003,0.071 0.678,0.678 0 0 1 -0.01,0.124 q -0.013,0.069 -0.042,0.123 a 0.32,0.32 0 0 1 -0.062,0.082 q -0.115,0.109 -0.272,0.109 a 0.416,0.416 0 0 1 -0.144,-0.024 0.367,0.367 0 0 1 -0.133,-0.085 0.338,0.338 0 0 1 -0.082,-0.135 q -0.018,-0.054 -0.025,-0.12 a 0.773,0.773 0 0 1 -0.003,-0.074 z"
     id="right_labelLayer"
     stroke="#777777"
     fill="#777777"
     style="font-size:12px;fill:#777777;fill-rule:evenodd;stroke:#777777;stroke-width:0.25mm;stroke-linecap:round"
     vector-effect="non-scaling-stroke" />
  <path
     d="M 97.638,57.4 H 104.2 V 45.838 h 3 V 34.563 h -3 V 23 H 97.638 V 20 H 86.363 v 3 H 79.8 v 11.563 h -3 v 11.275 h 3 V 57.4 h 6.563 v 3 h 11.275 z"
     id="bottom_outsideCutPath"
     stroke="#FF0000"
     stroke-width="0.1"
     style="font-size:12px;fill:none;fill-rule:evenodd;stroke:#ff0000;stroke-width:0.1;stroke-linecap:round"
     vector-effect="non-scaling-stroke" />
  <path
     d="m 102.002,42.48 h -0.493 v -2.117 a 1.454,1.454 0 0 0 -0.015,-0.214 q -0.034,-0.232 -0.151,-0.369 -0.167,-0.195 -0.517,-0.195 -0.46,0 -0.68,0.265 a 0.814,0.814 0 0 0 -0.138,0.25 q -0.081,0.227 -0.081,0.558 a 2.664,2.664 0 0 0 0,0.005 V 42.48 H 99.434 V 40.363 A 1.454,1.454 0 0 0 99.419,40.149 Q 99.384,39.917 99.267,39.78 99.124,39.612 98.84,39.589 a 1.154,1.154 0 0 0 -0.092,-0.004 1.224,1.224 0 0 0 -0.253,0.025 q -0.156,0.033 -0.273,0.111 a 0.646,0.646 0 0 0 -0.152,0.142 0.826,0.826 0 0 0 -0.123,0.233 q -0.079,0.224 -0.091,0.561 a 3.431,3.431 0 0 0 -0.002,0.116 v 1.707 h -0.492 v -3.254 h 0.4 l 0.08,0.445 h 0.024 q 0.14,-0.237 0.394,-0.371 a 1.17,1.17 0 0 1 0.462,-0.129 1.413,1.413 0 0 1 0.106,-0.004 q 0.473,0 0.742,0.212 a 0.841,0.841 0 0 1 0.256,0.34 h 0.023 a 1.029,1.029 0 0 1 0.388,-0.385 1.237,1.237 0 0 1 0.034,-0.019 1.247,1.247 0 0 1 0.457,-0.139 1.555,1.555 0 0 1 0.172,-0.009 q 0.373,0 0.619,0.129 a 0.812,0.812 0 0 1 0.208,0.154 q 0.2,0.207 0.254,0.593 a 2.26,2.26 0 0 1 0.021,0.314 z M 82.491,42.061 h -0.036 l -0.103,0.419 h -0.354 v -4.619 h 0.493 v 1.122 q 0,0.365 -0.022,0.657 a 6.127,6.127 0 0 1 -0.002,0.02 h 0.024 a 1.12,1.12 0 0 1 0.818,-0.475 1.683,1.683 0 0 1 0.203,-0.012 1.506,1.506 0 0 1 0.424,0.056 1.128,1.128 0 0 1 0.572,0.382 q 0.355,0.438 0.355,1.239 0,0.802 -0.358,1.245 -0.357,0.444 -0.993,0.444 a 1.495,1.495 0 0 1 -0.375,-0.046 1.301,1.301 0 0 1 -0.205,-0.071 q -0.263,-0.117 -0.441,-0.361 z m 8.402,0.012 v 0.377 q -0.081,0.039 -0.236,0.064 -0.146,0.024 -0.264,0.025 a 1.264,1.264 0 0 1 -0.017,0 q -0.753,0 -0.905,-0.632 a 1.549,1.549 0 0 1 -0.039,-0.362 v -1.936 h -0.466 v -0.237 l 0.466,-0.205 0.208,-0.695 h 0.285 v 0.754 h 0.944 v 0.383 h -0.944 v 1.915 a 0.992,0.992 0 0 0 0.014,0.174 q 0.017,0.096 0.055,0.172 a 0.478,0.478 0 0 0 0.07,0.105 0.458,0.458 0 0 0 0.282,0.15 0.659,0.659 0 0 0 0.101,0.008 1.618,1.618 0 0 0 0.237,-0.017 1.495,1.495 0 0 0 0.016,-0.003 2.666,2.666 0 0 0 0.071,-0.012 q 0.068,-0.013 0.115,-0.026 a 0.738,0.738 0 0 0 0.007,-0.002 z m 2.146,0 v 0.377 q -0.08,0.039 -0.236,0.064 -0.145,0.024 -0.264,0.025 a 1.264,1.264 0 0 1 -0.017,0 q -0.752,0 -0.905,-0.632 a 1.549,1.549 0 0 1 -0.039,-0.362 v -1.936 h -0.466 v -0.237 l 0.466,-0.205 0.208,-0.695 h 0.285 v 0.754 h 0.944 v 0.383 h -0.944 v 1.915 a 0.992,0.992 0 0 0 0.015,0.174 q 0.017,0.096 0.054,0.172 a 0.478,0.478 0 0 0 0.071,0.105 0.458,0.458 0 0 0 0.281,0.15 0.659,0.659 0 0 0 0.102,0.008 1.618,1.618 0 0 0 0.237,-0.017 1.495,1.495 0 0 0 0.015,-0.003 2.666,2.666 0 0 0 0.071,-0.012 q 0.068,-0.013 0.115,-0.026 a 0.738,0.738 0 0 0 0.007,-0.002 z m -4.552,-0.728 a 2.546,2.546 0 0 0 0.045,-0.495 2.892,2.892 0 0 0 -10e-4,-0.078 q -0.019,-0.72 -0.401,-1.151 a 1.29,1.29 0 0 0 -0.599,-0.386 1.656,1.656 0 0 0 -0.486,-0.068 1.914,1.914 0 0 0 -0.344,0.029 1.304,1.304 0 0 0 -0.76,0.415 q -0.264,0.294 -0.353,0.744 a 2.559,2.559 0 0 0 -0.045,0.495 2.465,2.465 0 0 0 0.031,0.399 1.823,1.823 0 0 0 0.153,0.498 1.62,1.62 0 0 0 0.036,0.07 1.334,1.334 0 0 0 0.487,0.517 1.372,1.372 0 0 0 0.314,0.141 1.583,1.583 0 0 0 0.46,0.064 q 0.707,0 1.108,-0.446 a 1.375,1.375 0 0 0 0.163,-0.225 q 0.134,-0.229 0.192,-0.523 z m 7.965,0 a 2.546,2.546 0 0 0 0.046,-0.495 2.892,2.892 0 0 0 -0.001,-0.078 q -0.02,-0.72 -0.402,-1.151 a 1.29,1.29 0 0 0 -0.599,-0.386 1.656,1.656 0 0 0 -0.486,-0.068 1.914,1.914 0 0 0 -0.344,0.029 1.304,1.304 0 0 0 -0.76,0.415 q -0.264,0.294 -0.353,0.744 a 2.559,2.559 0 0 0 -0.045,0.495 2.465,2.465 0 0 0 0.031,0.399 1.823,1.823 0 0 0 0.153,0.498 1.62,1.62 0 0 0 0.036,0.07 1.334,1.334 0 0 0 0.487,0.517 1.372,1.372 0 0 0 0.315,0.141 1.583,1.583 0 0 0 0.46,0.064 q 0.706,0 1.107,-0.446 a 1.375,1.375 0 0 0 0.164,-0.225 q 0.133,-0.229 0.191,-0.523 z M 86.054,40.85 a 2.496,2.496 0 0 0 0.023,0.357 q 0.054,0.367 0.226,0.593 a 0.808,0.808 0 0 0 0.526,0.31 1.224,1.224 0 0 0 0.207,0.017 1.145,1.145 0 0 0 0.302,-0.038 0.797,0.797 0 0 0 0.433,-0.287 1.058,1.058 0 0 0 0.165,-0.321 q 0.086,-0.264 0.086,-0.631 A 2.459,2.459 0 0 0 87.999,40.5 Q 87.945,40.131 87.771,39.908 A 0.811,0.811 0 0 0 87.267,39.607 1.243,1.243 0 0 0 87.03,39.585 1.173,1.173 0 0 0 86.738,39.62 0.785,0.785 0 0 0 86.3,39.903 1.019,1.019 0 0 0 86.142,40.209 q -0.047,0.141 -0.069,0.313 a 2.604,2.604 0 0 0 -0.019,0.328 z m 7.965,0 a 2.496,2.496 0 0 0 0.023,0.357 q 0.054,0.367 0.226,0.593 a 0.808,0.808 0 0 0 0.526,0.31 1.224,1.224 0 0 0 0.207,0.017 1.145,1.145 0 0 0 0.302,-0.038 0.797,0.797 0 0 0 0.433,-0.287 1.058,1.058 0 0 0 0.165,-0.321 q 0.086,-0.264 0.086,-0.631 A 2.459,2.459 0 0 0 95.964,40.5 q -0.053,-0.369 -0.228,-0.592 a 0.811,0.811 0 0 0 -0.504,-0.301 1.243,1.243 0 0 0 -0.237,-0.022 1.173,1.173 0 0 0 -0.292,0.035 0.785,0.785 0 0 0 -0.438,0.283 1.019,1.019 0 0 0 -0.158,0.306 Q 94.06,40.35 94.038,40.522 A 2.604,2.604 0 0 0 94.019,40.85 Z M 83.441,39.585 a 1.385,1.385 0 0 0 -0.268,0.025 q -0.153,0.03 -0.269,0.098 a 0.655,0.655 0 0 0 -0.19,0.167 q -0.223,0.289 -0.223,0.975 0,0.686 0.229,0.981 0.205,0.265 0.631,0.292 a 1.585,1.585 0 0 0 0.102,0.004 0.982,0.982 0 0 0 0.279,-0.038 0.709,0.709 0 0 0 0.398,-0.293 q 0.159,-0.237 0.204,-0.621 a 2.824,2.824 0 0 0 0.018,-0.331 2.912,2.912 0 0 0 -0.017,-0.332 Q 84.29,40.121 84.13,39.897 a 0.719,0.719 0 0 0 -0.458,-0.289 1.14,1.14 0 0 0 -0.231,-0.023 z"
     id="bottom_labelLayer"
     stroke="#777777"
     fill="#777777"
     style="font-size:12px;fill:#777777;fill-rule:evenodd;stroke:#777777;stroke-width:0.25mm;stroke-linecap:round"
     vector-effect="non-scaling-stroke" />
  <ellipse
     style="fill:none;stroke:#ff0000;stroke-width:0.0938222;stroke-linejoin:round;stroke-dasharray:none"
     id="path26150"
     cx="92"
     cy="83.599998"
     rx="1.8530889"
     ry="1.8530887" />
  <rect
     style="fill:none;stroke:#ff0000;stroke-width:0.0840648;stroke-linejoin:round;stroke-dasharray:none"
     id="rect33421"
     width="21.715937"
     height="0.71593517"
     x="29.342031"
     y="-92.357971"
     ry="0.17842655"
     rx="0.178"
     transform="rotate(90)" />
</svg>
