<?xml version="1.0" encoding="UTF-8" standalone="no"?>
<svg
   width="106.6mm"
   height="103.4mm"
   viewBox="0 0 106.6 103.4"
   version="1.1"
   preserveAspectRatio="xMidYMid meet"
   id="svg48526"
   sodipodi:docname="SoilMoistureCoverKern0-1.svg"
   inkscape:version="1.2.2 (b0a84865, 2022-12-01)"
   xmlns:inkscape="http://www.inkscape.org/namespaces/inkscape"
   xmlns:sodipodi="http://sodipodi.sourceforge.net/DTD/sodipodi-0.dtd"
   xmlns="http://www.w3.org/2000/svg"
   xmlns:svg="http://www.w3.org/2000/svg">
  <defs
     id="defs48530" />
  <sodipodi:namedview
     id="namedview48528"
     pagecolor="#ffffff"
     bordercolor="#000000"
     borderopacity="0.25"
     inkscape:showpageshadow="2"
     inkscape:pageopacity="0.0"
     inkscape:pagecheckerboard="0"
     inkscape:deskcolor="#d1d1d1"
     inkscape:document-units="mm"
     showgrid="false"
     inkscape:zoom="1.2070505"
     inkscape:cx="281.26412"
     inkscape:cy="199.66024"
     inkscape:window-width="1468"
     inkscape:window-height="792"
     inkscape:window-x="10"
     inkscape:window-y="38"
     inkscape:window-maximized="0"
     inkscape:current-layer="svg48526" />
  <path
     d="m 9.763,100.4 h 10.675 v 3 H 30.2 v -8.887 h -3 V 83.838 h 3 V 72.763 h -3 V 62.088 h 3 V 53.2 h -9.762 v 3 H 9.763 v -3 H 0 v 8.888 H 3 V 72.763 H 0 V 83.838 H 3 V 94.513 H 0 v 8.887 h 9.763 z"
     id="front_outsideCutPath"
     stroke="#FF0000"
     stroke-width="0.1"
     style="font-size:12px;fill:none;fill-rule:evenodd;stroke:#ff0000;stroke-width:0.1;stroke-linecap:round"
     vector-effect="non-scaling-stroke" />
  <path
     d="m 19.502,80.581 h -0.49 V 78.49 A 1.384,1.384 0 0 0 18.996,78.273 Q 18.959,78.037 18.832,77.9 18.652,77.706 18.269,77.706 a 1.482,1.482 0 0 0 -0.277,0.024 q -0.155,0.029 -0.274,0.095 a 0.69,0.69 0 0 0 -0.192,0.155 q -0.236,0.274 -0.236,0.905 v 1.696 H 16.8 v -3.232 h 0.398 l 0.08,0.442 h 0.024 a 0.991,0.991 0 0 1 0.388,-0.353 1.192,1.192 0 0 1 0.033,-0.017 q 0.272,-0.131 0.605,-0.131 a 1.933,1.933 0 0 1 0.329,0.026 q 0.178,0.031 0.318,0.098 a 0.88,0.88 0 0 1 0.232,0.157 q 0.295,0.282 0.295,0.901 z m -9.405,-3.232 v 0.38 H 9.274 v 2.852 H 8.784 V 77.729 H 8.206 v -0.221 l 0.578,-0.177 v -0.18 q 0,-1.191 1.041,-1.191 0.257,0 0.602,0.103 L 10.3,76.455 Q 10.099,76.39 9.94,76.371 a 1.053,1.053 0 0 0 -0.124,-0.007 0.66,0.66 0 0 0 -0.159,0.018 0.424,0.424 0 0 0 -0.25,0.166 q -0.121,0.167 -0.132,0.518 a 2.312,2.312 0 0 0 -0.001,0.073 v 0.21 z m 11.897,2.828 v 0.375 a 0.482,0.482 0 0 1 -0.057,0.022 q -0.061,0.021 -0.148,0.036 a 1.831,1.831 0 0 1 -0.03,0.005 q -0.144,0.023 -0.262,0.025 a 1.252,1.252 0 0 1 -0.016,0 1.279,1.279 0 0 1 -0.377,-0.051 Q 20.543,80.416 20.543,79.652 V 77.729 H 20.08 v -0.236 l 0.463,-0.203 0.206,-0.69 h 0.283 v 0.749 h 0.938 v 0.38 h -0.938 v 1.903 q 0,0.205 0.069,0.343 a 0.475,0.475 0 0 0 0.07,0.105 0.455,0.455 0 0 0 0.28,0.149 0.654,0.654 0 0 0 0.1,0.007 1.608,1.608 0 0 0 0.236,-0.017 1.484,1.484 0 0 0 0.015,-0.002 q 0.115,-0.018 0.185,-0.038 a 0.733,0.733 0 0 0 0.007,-0.002 z m -9.447,-2.852 -0.067,0.454 a 2.158,2.158 0 0 0 -0.156,-0.028 q -0.107,-0.016 -0.198,-0.016 a 0.848,0.848 0 0 0 -0.627,0.271 1.161,1.161 0 0 0 -0.044,0.048 1.118,1.118 0 0 0 -0.27,0.627 1.486,1.486 0 0 0 -0.009,0.166 v 1.734 h -0.49 v -3.232 h 0.405 l 0.056,0.599 h 0.023 q 0.18,-0.316 0.434,-0.487 a 0.976,0.976 0 0 1 0.557,-0.171 2.248,2.248 0 0 1 0.201,0.008 1.64,1.64 0 0 1 0.185,0.027 z m 2.997,2.871 a 1.366,1.366 0 0 0 0.162,-0.223 q 0.236,-0.403 0.236,-1.011 a 2.873,2.873 0 0 0 -10e-4,-0.078 q -0.007,-0.269 -0.066,-0.497 a 1.524,1.524 0 0 0 -0.333,-0.646 1.282,1.282 0 0 0 -0.595,-0.384 1.645,1.645 0 0 0 -0.483,-0.067 1.901,1.901 0 0 0 -0.341,0.029 1.295,1.295 0 0 0 -0.756,0.412 1.353,1.353 0 0 0 -0.166,0.23 q -0.128,0.223 -0.184,0.509 a 2.542,2.542 0 0 0 -0.045,0.492 q 0,0.51 0.183,0.891 a 1.609,1.609 0 0 0 0.036,0.069 1.325,1.325 0 0 0 0.483,0.515 1.363,1.363 0 0 0 0.313,0.139 1.572,1.572 0 0 0 0.457,0.064 1.901,1.901 0 0 0 0.332,-0.028 1.305,1.305 0 0 0 0.768,-0.416 z m -1.96,-0.554 a 1.027,1.027 0 0 0 0.143,0.264 0.802,0.802 0 0 0 0.523,0.308 1.216,1.216 0 0 0 0.206,0.016 1.137,1.137 0 0 0 0.3,-0.037 0.791,0.791 0 0 0 0.43,-0.286 1.051,1.051 0 0 0 0.163,-0.318 q 0.086,-0.262 0.086,-0.627 0,-0.395 -0.103,-0.669 a 1.008,1.008 0 0 0 -0.146,-0.267 0.805,0.805 0 0 0 -0.501,-0.299 1.235,1.235 0 0 0 -0.235,-0.021 1.165,1.165 0 0 0 -0.29,0.034 0.78,0.78 0 0 0 -0.436,0.281 1.012,1.012 0 0 0 -0.157,0.304 q -0.047,0.14 -0.068,0.311 a 2.587,2.587 0 0 0 -0.02,0.326 q 0,0.402 0.105,0.68 z"
     id="front_labelLayer"
     stroke="#777777"
     fill="#777777"
     style="font-size:12px;fill:#777777;fill-rule:evenodd;stroke:#777777;stroke-width:0.25mm;stroke-linecap:round"
     vector-effect="non-scaling-stroke" />
  <path
     d="m 47.963,100.4 h 10.675 v 3 H 70.4 v -8.687 h 3 V 83.638 h -3 V 72.963 h 3 V 61.888 h -3 V 53.2 H 58.638 v 3 H 47.963 v -3 H 36.2 v 8.688 h -3 v 11.075 h 3 v 10.675 h -3 v 11.075 h 3 v 8.687 h 11.763 z"
     id="left_outsideCutPath"
     stroke="#FF0000"
     stroke-width="0.1"
     style="font-size:12px;fill:none;fill-rule:evenodd;stroke:#ff0000;stroke-width:0.1;stroke-linecap:round"
     vector-effect="non-scaling-stroke" />
  <path
     d="m 56.16,77.034 v 0.506 h -1.095 v 3.797 H 54.413 V 77.54 h -0.769 v -0.294 l 0.769,-0.236 v -0.239 a 2.641,2.641 0 0 1 0.062,-0.599 q 0.23,-0.987 1.324,-0.987 0.265,0 0.602,0.083 a 4.218,4.218 0 0 1 0.199,0.054 l -0.169,0.522 a 3.165,3.165 0 0 0 -0.246,-0.069 q -0.223,-0.052 -0.398,-0.052 a 0.879,0.879 0 0 0 -0.212,0.024 0.564,0.564 0 0 0 -0.334,0.221 0.754,0.754 0 0 0 -0.099,0.201 q -0.067,0.196 -0.076,0.488 a 3.077,3.077 0 0 0 -0.001,0.098 v 0.279 z m -3.05,1.857 v 0.412 h -2.964 q 0.013,0.518 0.187,0.865 a 1.224,1.224 0 0 0 0.195,0.285 1.184,1.184 0 0 0 0.622,0.351 1.794,1.794 0 0 0 0.401,0.042 3.442,3.442 0 0 0 1.289,-0.256 3.944,3.944 0 0 0 0.085,-0.035 v 0.581 Q 52.58,81.285 52.271,81.35 A 2.736,2.736 0 0 1 52,81.392 q -0.134,0.014 -0.285,0.02 a 5.31,5.31 0 0 1 -0.187,0.003 q -0.954,0 -1.506,-0.581 -0.552,-0.581 -0.552,-1.613 a 3.422,3.422 0 0 1 0.064,-0.679 q 0.083,-0.413 0.277,-0.733 a 1.93,1.93 0 0 1 0.172,-0.241 1.67,1.67 0 0 1 1.217,-0.607 2.304,2.304 0 0 1 0.159,-0.006 1.985,1.985 0 0 1 0.559,0.075 1.511,1.511 0 0 1 0.721,0.457 1.822,1.822 0 0 1 0.412,0.833 2.652,2.652 0 0 1 0.059,0.571 z m 5.814,1.908 v 0.498 q -0.096,0.046 -0.274,0.078 a 2.437,2.437 0 0 1 -0.038,0.007 2.825,2.825 0 0 1 -0.185,0.024 q -0.099,0.009 -0.186,0.009 a 1.702,1.702 0 0 1 -0.502,-0.067 q -0.551,-0.171 -0.696,-0.77 A 2.048,2.048 0 0 1 56.992,80.1 v -2.56 h -0.616 v -0.314 l 0.616,-0.271 0.275,-0.918 h 0.377 v 0.997 h 1.248 v 0.506 h -1.248 v 2.532 a 1.312,1.312 0 0 0 0.019,0.231 q 0.04,0.225 0.165,0.366 a 0.605,0.605 0 0 0 0.373,0.198 0.871,0.871 0 0 0 0.134,0.01 2.14,2.14 0 0 0 0.313,-0.022 1.967,1.967 0 0 0 0.021,-0.003 q 0.153,-0.025 0.246,-0.051 a 0.98,0.98 0 0 0 0.009,-0.002 z M 48.328,75.228 v 6.109 h -0.652 v -6.109 z m 1.833,3.545 h 2.25 a 2.221,2.221 0 0 0 -0.027,-0.357 q -0.031,-0.192 -0.099,-0.345 a 1.008,1.008 0 0 0 -0.149,-0.242 0.893,0.893 0 0 0 -0.538,-0.306 1.339,1.339 0 0 0 -0.247,-0.022 q -0.518,0 -0.827,0.338 a 1.287,1.287 0 0 0 -0.255,0.431 q -0.082,0.223 -0.108,0.503 z"
     id="left_labelLayer"
     stroke="#777777"
     fill="#777777"
     style="font-size:12px;fill:#777777;fill-rule:evenodd;stroke:#777777;stroke-width:0.25mm;stroke-linecap:round"
     vector-effect="non-scaling-stroke" />
  <path
     d="m 96.066866,99.195549 h 6.562004 v -11.562 h 3 v -11.075 h -3 v -11.563 h -6.562004 v -3 h -11.075 v 3 h -6.563 v 11.563 h -3 v 11.075 h 3 v 11.562 h 6.563 v 3.000001 h 11.075 z"
     id="top_outsideCutPath"
     stroke="#FF0000"
     stroke-width="0.1"
     style="font-size:12px;fill:none;fill-rule:evenodd;stroke:#ff0000;stroke-width:0.1;stroke-linecap:round"
     vector-effect="non-scaling-stroke" />
  <path
     d="m 93.671,84.149 h -0.036 q 0.036,0.284 0.036,0.537 v 1.33 h -0.49 v -4.683 h 0.398 l 0.068,0.442 h 0.024 q 0.188,-0.265 0.439,-0.383 a 1.226,1.226 0 0 1 0.351,-0.103 1.587,1.587 0 0 1 0.224,-0.015 1.501,1.501 0 0 1 0.424,0.057 1.109,1.109 0 0 1 0.569,0.382 q 0.285,0.36 0.337,0.955 a 3.188,3.188 0 0 1 0.012,0.278 q 0,0.562 -0.177,0.947 a 1.376,1.376 0 0 1 -0.178,0.29 1.159,1.159 0 0 1 -0.824,0.433 1.66,1.66 0 0 1 -0.163,0.008 1.485,1.485 0 0 1 -0.373,-0.045 1.292,1.292 0 0 1 -0.203,-0.071 q -0.261,-0.117 -0.438,-0.359 z m -4.784,0.012 v 0.375 a 0.482,0.482 0 0 1 -0.057,0.022 q -0.061,0.021 -0.148,0.036 a 1.831,1.831 0 0 1 -0.029,0.005 q -0.145,0.024 -0.263,0.025 a 1.252,1.252 0 0 1 -0.016,0 1.279,1.279 0 0 1 -0.377,-0.051 Q 87.436,84.4 87.436,83.636 v -1.923 h -0.463 v -0.236 l 0.463,-0.203 0.206,-0.69 h 0.284 v 0.749 h 0.937 v 0.38 h -0.937 v 1.903 q 0,0.205 0.068,0.343 a 0.475,0.475 0 0 0 0.07,0.105 0.455,0.455 0 0 0 0.28,0.149 0.654,0.654 0 0 0 0.101,0.007 1.608,1.608 0 0 0 0.235,-0.017 1.484,1.484 0 0 0 0.015,-0.002 q 0.116,-0.018 0.185,-0.038 a 0.733,0.733 0 0 0 0.007,-0.002 z m 3.038,0.019 a 1.366,1.366 0 0 0 0.162,-0.223 q 0.236,-0.403 0.236,-1.011 a 2.873,2.873 0 0 0 -10e-4,-0.078 q -0.008,-0.269 -0.066,-0.497 a 1.524,1.524 0 0 0 -0.333,-0.646 1.282,1.282 0 0 0 -0.595,-0.384 1.645,1.645 0 0 0 -0.483,-0.067 1.901,1.901 0 0 0 -0.341,0.029 1.295,1.295 0 0 0 -0.756,0.412 1.353,1.353 0 0 0 -0.166,0.23 q -0.128,0.223 -0.184,0.509 a 2.542,2.542 0 0 0 -0.045,0.492 q 0,0.51 0.183,0.891 a 1.609,1.609 0 0 0 0.035,0.07 1.325,1.325 0 0 0 0.484,0.514 1.363,1.363 0 0 0 0.313,0.139 1.572,1.572 0 0 0 0.457,0.064 1.901,1.901 0 0 0 0.332,-0.028 1.305,1.305 0 0 0 0.768,-0.416 z m -1.96,-0.554 a 1.027,1.027 0 0 0 0.143,0.264 0.802,0.802 0 0 0 0.523,0.308 1.216,1.216 0 0 0 0.205,0.016 1.137,1.137 0 0 0 0.3,-0.037 0.791,0.791 0 0 0 0.43,-0.286 1.051,1.051 0 0 0 0.164,-0.318 q 0.086,-0.262 0.086,-0.627 0,-0.395 -0.103,-0.669 a 1.008,1.008 0 0 0 -0.147,-0.267 0.805,0.805 0 0 0 -0.5,-0.299 1.235,1.235 0 0 0 -0.235,-0.021 1.165,1.165 0 0 0 -0.291,0.034 0.78,0.78 0 0 0 -0.435,0.281 1.012,1.012 0 0 0 -0.157,0.304 q -0.047,0.14 -0.069,0.311 a 2.587,2.587 0 0 0 -0.019,0.326 q 0,0.402 0.105,0.68 z m 3.706,-0.789 v 0.109 a 3.237,3.237 0 0 0 0.016,0.335 q 0.035,0.337 0.147,0.543 a 0.738,0.738 0 0 0 0.064,0.097 q 0.203,0.263 0.627,0.29 a 1.574,1.574 0 0 0 0.101,0.003 0.825,0.825 0 0 0 0.321,-0.06 q 0.185,-0.077 0.317,-0.253 a 0.976,0.976 0 0 0 0.018,-0.026 Q 95.47,83.607 95.509,83.18 A 2.608,2.608 0 0 0 95.52,82.94 2.471,2.471 0 0 0 95.497,82.59 Q 95.446,82.235 95.282,82.013 A 0.762,0.762 0 0 0 94.725,81.695 1.053,1.053 0 0 0 94.614,81.69 q -0.318,0 -0.523,0.113 a 0.647,0.647 0 0 0 -0.193,0.161 0.839,0.839 0 0 0 -0.131,0.239 q -0.083,0.225 -0.095,0.559 a 3.117,3.117 0 0 0 -10e-4,0.075 z"
     id="top_labelLayer"
     stroke="#777777"
     fill="#777777"
     style="font-size:12px;fill:#777777;fill-rule:evenodd;stroke:#777777;stroke-width:0.25mm;stroke-linecap:round"
     vector-effect="non-scaling-stroke" />
  <path
     d="m 9.763,47.2 h 10.675 v 3 H 30.2 v -8.887 h -3 V 30.637 h 3 V 19.563 h -3 V 8.887 h 3 V 0 H 20.438 V 3 H 9.763 V 0 H 0 V 8.887 H 3 V 19.563 H 0 V 30.637 H 3 V 41.313 H 0 V 50.2 h 9.763 z"
     id="back_outsideCutPath"
     stroke="#FF0000"
     stroke-width="0.1"
     style="font-size:12px;fill:none;fill-rule:evenodd;stroke:#ff0000;stroke-width:0.1;stroke-linecap:round"
     vector-effect="non-scaling-stroke" />
  <path
     d="m 19.235,25.71 h 0.023 a 2.898,2.898 0 0 1 0.072,-0.097 q 0.12,-0.155 0.315,-0.374 l 1.044,-1.106 h 0.581 l -1.31,1.377 1.401,1.855 h -0.593 l -1.141,-1.528 -0.369,0.319 v 1.209 h -0.483 v -4.589 h 0.483 v 2.433 q 0,0.162 -0.023,0.501 z M 9.328,26.949 H 9.293 L 9.19,27.365 H 8.839 v -4.589 h 0.489 v 1.115 a 10.207,10.207 0 0 1 -0.005,0.345 q -0.006,0.163 -0.017,0.308 a 6.132,6.132 0 0 1 -10e-4,0.019 h 0.023 a 1.113,1.113 0 0 1 0.813,-0.472 1.672,1.672 0 0 1 0.202,-0.011 q 0.637,0 0.989,0.435 0.283,0.348 0.339,0.928 a 3.142,3.142 0 0 1 0.014,0.303 q 0,0.562 -0.177,0.947 a 1.376,1.376 0 0 1 -0.179,0.29 1.159,1.159 0 0 1 -0.823,0.433 1.66,1.66 0 0 1 -0.163,0.008 A 1.485,1.485 0 0 1 9.97,27.378 1.292,1.292 0 0 1 9.766,27.307 Q 9.505,27.191 9.328,26.949 Z m 5.563,0.416 h -0.363 l -0.097,-0.46 h -0.024 q -0.242,0.304 -0.482,0.411 a 1.129,1.129 0 0 1 -0.233,0.074 q -0.165,0.034 -0.367,0.034 a 1.502,1.502 0 0 1 -0.306,-0.029 q -0.187,-0.039 -0.331,-0.13 a 0.843,0.843 0 0 1 -0.117,-0.089 0.805,0.805 0 0 1 -0.243,-0.424 1.232,1.232 0 0 1 -0.03,-0.281 0.847,0.847 0 0 1 0.482,-0.799 q 0.387,-0.206 1.084,-0.227 l 0.549,-0.018 v -0.2 q 0,-0.381 -0.164,-0.562 a 0.497,0.497 0 0 0 -0.203,-0.133 q -0.082,-0.029 -0.183,-0.041 a 1.21,1.21 0 0 0 -0.137,-0.007 1.594,1.594 0 0 0 -0.367,0.045 q -0.257,0.061 -0.548,0.202 l -0.15,-0.374 a 2.257,2.257 0 0 1 0.436,-0.179 2.569,2.569 0 0 1 0.087,-0.025 q 0.285,-0.073 0.571,-0.073 a 2.068,2.068 0 0 1 0.315,0.022 q 0.345,0.053 0.542,0.234 a 0.775,0.775 0 0 1 0.2,0.309 q 0.079,0.213 0.079,0.514 z m 3.164,-3.123 -0.15,0.416 A 2.178,2.178 0 0 0 17.668,24.579 2.601,2.601 0 0 0 17.551,24.55 2.022,2.022 0 0 0 17.397,24.521 q -0.075,-0.01 -0.142,-0.013 a 1.085,1.085 0 0 0 -0.043,-10e-4 1.086,1.086 0 0 0 -0.441,0.083 q -0.463,0.204 -0.532,0.908 a 2.705,2.705 0 0 0 -0.012,0.266 q 0,0.39 0.103,0.662 a 1.015,1.015 0 0 0 0.137,0.252 0.778,0.778 0 0 0 0.504,0.301 1.184,1.184 0 0 0 0.208,0.017 2.049,2.049 0 0 0 0.566,-0.082 2.53,2.53 0 0 0 0.263,-0.092 v 0.434 a 1.393,1.393 0 0 1 -0.341,0.12 q -0.214,0.048 -0.476,0.048 A 1.83,1.83 0 0 1 16.746,27.373 1.241,1.241 0 0 1 16.104,26.992 1.416,1.416 0 0 1 15.81,26.451 q -0.065,-0.215 -0.084,-0.473 a 2.96,2.96 0 0 1 -0.007,-0.209 2.701,2.701 0 0 1 0.042,-0.491 q 0.051,-0.274 0.163,-0.49 a 1.35,1.35 0 0 1 0.186,-0.272 1.268,1.268 0 0 1 0.694,-0.399 1.922,1.922 0 0 1 0.419,-0.043 2.209,2.209 0 0 1 0.466,0.05 2.444,2.444 0 0 1 0.136,0.033 q 0.139,0.038 0.23,0.085 z m -7.783,0.247 a 1.376,1.376 0 0 0 -0.266,0.025 Q 9.707,24.573 9.55,24.777 9.328,25.065 9.328,25.746 a 3.237,3.237 0 0 0 0.016,0.334 q 0.036,0.338 0.148,0.543 a 0.738,0.738 0 0 0 0.063,0.098 q 0.204,0.263 0.628,0.29 a 1.574,1.574 0 0 0 0.101,0.003 0.976,0.976 0 0 0 0.277,-0.037 0.704,0.704 0 0 0 0.395,-0.292 1.124,1.124 0 0 0 0.139,-0.301 q 0.044,-0.142 0.064,-0.315 a 2.805,2.805 0 0 0 0.019,-0.329 q 0,-0.631 -0.222,-0.941 a 0.714,0.714 0 0 0 -0.454,-0.288 1.132,1.132 0 0 0 -0.23,-0.022 z m 4.129,1.578 v -0.292 l -0.49,0.021 q -0.487,0.017 -0.748,0.132 a 0.752,0.752 0 0 0 -0.094,0.049 0.522,0.522 0 0 0 -0.249,0.379 0.773,0.773 0 0 0 -0.009,0.121 0.7,0.7 0 0 0 0.018,0.161 q 0.029,0.123 0.107,0.208 a 0.436,0.436 0 0 0 0.036,0.035 0.533,0.533 0 0 0 0.2,0.106 q 0.079,0.024 0.173,0.03 a 1.101,1.101 0 0 0 0.077,0.003 1.348,1.348 0 0 0 0.291,-0.03 q 0.203,-0.045 0.352,-0.157 a 0.817,0.817 0 0 0 0.075,-0.064 0.82,0.82 0 0 0 0.229,-0.409 q 0.032,-0.132 0.032,-0.288 a 1.53,1.53 0 0 0 0,-0.005 z"
     id="back_labelLayer"
     stroke="#777777"
     fill="#777777"
     style="font-size:12px;fill:#777777;fill-rule:evenodd;stroke:#777777;stroke-width:0.25mm;stroke-linecap:round"
     vector-effect="non-scaling-stroke" />
  <path
     d="m 47.963,47.2 h 10.675 v 3 H 70.4 v -8.688 h 3 V 30.438 h -3 V 19.762 h 3 V 8.688 h -3 V 0 H 58.638 V 3 H 47.963 V 0 H 36.2 v 8.688 h -3 v 11.074 h 3 v 10.676 h -3 v 11.074 h 3 V 50.2 h 11.763 z"
     id="right_outsideCutPath"
     stroke="#FF0000"
     stroke-width="0.1"
     style="font-size:12px;fill:none;fill-rule:evenodd;stroke:#ff0000;stroke-width:0.1;stroke-linecap:round"
     vector-effect="non-scaling-stroke" />
  <path
     d="M 58.299,27.188 H 57.648 V 24.405 A 1.842,1.842 0 0 0 57.627,24.116 Q 57.577,23.802 57.408,23.62 A 0.735,0.735 0 0 0 57.107,23.428 Q 56.989,23.386 56.843,23.37 a 1.728,1.728 0 0 0 -0.184,-0.009 1.972,1.972 0 0 0 -0.369,0.032 q -0.205,0.039 -0.362,0.125 a 0.912,0.912 0 0 0 -0.261,0.212 q -0.285,0.337 -0.31,1.068 a 4.206,4.206 0 0 0 -0.002,0.141 v 2.249 H 54.703 V 21.08 h 0.652 v 1.849 a 5.863,5.863 0 0 1 -0.004,0.225 q -0.004,0.106 -0.012,0.196 a 2.549,2.549 0 0 1 -0.015,0.133 h 0.039 q 0.192,-0.311 0.548,-0.489 a 1.673,1.673 0 0 1 0.549,-0.163 2.115,2.115 0 0 1 0.261,-0.016 q 0.519,0 0.868,0.162 a 1.175,1.175 0 0 1 0.316,0.213 q 0.306,0.291 0.375,0.849 a 2.818,2.818 0 0 1 0.019,0.343 z m -5.967,-4.302 h 1.488 v 0.412 l -0.797,0.094 a 1.059,1.059 0 0 1 0.092,0.137 q 0.04,0.07 0.077,0.154 a 2.009,2.009 0 0 1 0.028,0.068 q 0.086,0.222 0.086,0.501 a 1.494,1.494 0 0 1 -0.069,0.463 1.208,1.208 0 0 1 -0.363,0.546 q -0.389,0.339 -1.039,0.373 a 2.83,2.83 0 0 1 -0.147,0.004 2.094,2.094 0 0 1 -0.242,-0.014 1.769,1.769 0 0 1 -0.119,-0.018 q -0.416,0.22 -0.416,0.554 0,0.171 0.137,0.256 a 0.362,0.362 0 0 0 0.008,0.005 0.457,0.457 0 0 0 0.102,0.042 q 0.146,0.042 0.397,0.042 h 0.762 a 2.668,2.668 0 0 1 0.405,0.029 q 0.411,0.063 0.668,0.266 a 0.953,0.953 0 0 1 0.355,0.607 1.432,1.432 0 0 1 0.02,0.249 1.411,1.411 0 0 1 -0.08,0.488 q -0.131,0.355 -0.471,0.586 a 1.549,1.549 0 0 1 -0.022,0.015 1.954,1.954 0 0 1 -0.504,0.229 q -0.481,0.146 -1.168,0.146 -0.844,0 -1.302,-0.314 -0.457,-0.314 -0.457,-0.887 a 0.996,0.996 0 0 1 0.251,-0.679 1.138,1.138 0 0 1 0.391,-0.285 1.613,1.613 0 0 1 0.316,-0.104 0.676,0.676 0 0 1 -0.263,-0.212 0.803,0.803 0 0 1 -0.014,-0.02 0.604,0.604 0 0 1 -0.111,-0.326 0.748,0.748 0 0 1 -0.001,-0.039 0.745,0.745 0 0 1 0.038,-0.24 0.66,0.66 0 0 1 0.088,-0.172 q 0.125,-0.177 0.396,-0.342 a 1.142,1.142 0 0 1 -0.496,-0.397 1.416,1.416 0 0 1 -0.047,-0.07 1.347,1.347 0 0 1 -0.207,-0.649 1.644,1.644 0 0 1 -0.003,-0.105 1.883,1.883 0 0 1 0.049,-0.445 1.239,1.239 0 0 1 0.375,-0.644 q 0.366,-0.331 0.996,-0.376 a 2.878,2.878 0 0 1 0.205,-0.007 2.498,2.498 0 0 1 0.33,0.021 1.902,1.902 0 0 1 0.278,0.058 z m 9.285,3.765 v 0.498 q -0.096,0.046 -0.273,0.078 a 2.437,2.437 0 0 1 -0.039,0.007 2.825,2.825 0 0 1 -0.184,0.024 q -0.1,0.009 -0.187,0.009 A 1.702,1.702 0 0 1 60.432,27.2 q -0.551,-0.171 -0.696,-0.77 a 2.048,2.048 0 0 1 -0.051,-0.478 v -2.56 h -0.616 v -0.314 l 0.616,-0.271 0.275,-0.918 h 0.377 v 0.997 h 1.248 v 0.506 h -1.248 v 2.532 a 1.312,1.312 0 0 0 0.019,0.231 q 0.04,0.225 0.165,0.366 a 0.605,0.605 0 0 0 0.373,0.198 0.871,0.871 0 0 0 0.134,0.01 2.14,2.14 0 0 0 0.313,-0.022 1.967,1.967 0 0 0 0.021,-0.003 q 0.153,-0.025 0.246,-0.051 a 0.98,0.98 0 0 0 0.009,-0.002 z M 47.46,22.854 47.37,23.459 A 2.872,2.872 0 0 0 47.164,23.421 Q 47.02,23.4 46.899,23.4 q -0.522,0 -0.893,0.424 a 1.488,1.488 0 0 0 -0.359,0.836 1.978,1.978 0 0 0 -0.012,0.22 v 2.308 h -0.652 v -4.302 h 0.538 l 0.075,0.797 h 0.031 q 0.24,-0.42 0.577,-0.648 a 1.299,1.299 0 0 1 0.742,-0.228 q 0.287,0 0.514,0.047 z m 1.457,0.032 v 4.302 h -0.652 v -4.302 z m 3.192,4.204 h -0.782 a 1.498,1.498 0 0 0 -0.27,0.023 q -0.254,0.047 -0.421,0.189 -0.247,0.212 -0.247,0.609 a 0.655,0.655 0 0 0 0.043,0.243 q 0.062,0.156 0.213,0.262 a 0.765,0.765 0 0 0 0.038,0.025 1.044,1.044 0 0 0 0.257,0.11 q 0.242,0.07 0.582,0.07 a 3.262,3.262 0 0 0 0.006,0 4.381,4.381 0 0 0 0.427,-0.019 q 0.504,-0.05 0.788,-0.226 a 0.951,0.951 0 0 0 0.22,-0.185 0.712,0.712 0 0 0 0.174,-0.48 q 0,-0.217 -0.083,-0.351 A 0.411,0.411 0 0 0 52.921,27.226 0.618,0.618 0 0 0 52.775,27.162 Q 52.618,27.114 52.371,27.098 A 4.147,4.147 0 0 0 52.109,27.09 Z m -1.367,-2.826 q 0,0.451 0.256,0.683 0.229,0.209 0.622,0.229 a 1.678,1.678 0 0 0 0.088,0.002 1.42,1.42 0 0 0 0.372,-0.044 q 0.582,-0.158 0.582,-0.882 a 1.401,1.401 0 0 0 -0.048,-0.384 q -0.167,-0.586 -0.918,-0.586 a 1.367,1.367 0 0 0 -0.278,0.027 q -0.171,0.036 -0.301,0.119 A 0.75,0.75 0 0 0 50.99,23.53 q -0.21,0.21 -0.242,0.592 a 1.714,1.714 0 0 0 -0.006,0.142 z M 48.32,21.392 a 0.305,0.305 0 0 0 -0.067,0.096 Q 48.21,21.581 48.21,21.72 a 0.769,0.769 0 0 0 0.004,0.073 q 0.006,0.066 0.024,0.12 a 0.336,0.336 0 0 0 0.082,0.135 0.366,0.366 0 0 0 0.132,0.084 0.414,0.414 0 0 0 0.143,0.024 q 0.157,0 0.271,-0.108 a 0.318,0.318 0 0 0 0.062,-0.083 q 0.052,-0.097 0.052,-0.245 0,-0.107 -0.027,-0.188 a 0.329,0.329 0 0 0 -0.087,-0.138 0.384,0.384 0 0 0 -0.271,-0.106 0.497,0.497 0 0 0 -0.033,0.001 0.377,0.377 0 0 0 -0.242,0.103 z"
     id="right_labelLayer"
     stroke="#777777"
     fill="#777777"
     style="font-size:12px;fill:#777777;fill-rule:evenodd;stroke:#777777;stroke-width:0.25mm;stroke-linecap:round"
     vector-effect="non-scaling-stroke" />
  <path
     d="m 96.15764,56.77488 h 6.562 v -11.563 h 3 v -11.074 h -3 v -11.563 h -6.562 v -3 h -11.075 v 3 h -6.563 v 11.563 h -3 v 11.074 h 3 v 11.563 h 6.563 v 3 h 11.075 z"
     id="bottom_outsideCutPath"
     stroke="#FF0000"
     stroke-width="0.1"
     style="font-size:12px;fill:none;fill-rule:evenodd;stroke:#ff0000;stroke-width:0.1;stroke-linecap:round"
     vector-effect="non-scaling-stroke" />
  <path
     d="m 101.96517,42.365 h -0.49 v -2.103 q 0,-0.242 -0.064,-0.408 a 0.592,0.592 0 0 0 -0.101,-0.171 q -0.165,-0.194 -0.513,-0.194 a 1.26,1.26 0 0 0 -0.256,0.025 q -0.153,0.032 -0.268,0.105 a 0.648,0.648 0 0 0 -0.151,0.133 A 0.809,0.809 0 0 0 99.984167,40 q -0.081,0.228 -0.081,0.56 v 1.805 h -0.489 v -2.103 q 0,-0.242 -0.065,-0.408 a 0.592,0.592 0 0 0 -0.1,-0.171 q -0.143,-0.168 -0.425,-0.19 a 1.146,1.146 0 0 0 -0.091,-0.004 q -0.322,0 -0.523,0.135 a 0.642,0.642 0 0 0 -0.151,0.141 q -0.194,0.25 -0.212,0.789 a 3.408,3.408 0 0 0 -0.002,0.115 v 1.696 h -0.49 v -3.232 h 0.398 l 0.08,0.442 h 0.024 a 0.962,0.962 0 0 1 0.39,-0.369 1.162,1.162 0 0 1 0.46,-0.128 1.404,1.404 0 0 1 0.105,-0.004 q 0.47,0 0.738,0.21 a 0.836,0.836 0 0 1 0.253,0.338 h 0.024 a 1.022,1.022 0 0 1 0.385003,-0.382 1.228,1.228 0 0 1 0.034,-0.019 1.239,1.239 0 0 1 0.454,-0.138 1.545,1.545 0 0 1 0.171,-0.009 1.702,1.702 0 0 1 0.308,0.026 q 0.323,0.059 0.513,0.255 0.199,0.205 0.253,0.589 a 2.245,2.245 0 0 1 0.02,0.312 z M 82.583167,41.949 h -0.036 l -0.103,0.416 h -0.351 v -4.589 h 0.49 v 1.115 a 10.207,10.207 0 0 1 -0.006,0.345 q -0.005,0.163 -0.016,0.308 a 6.132,6.132 0 0 1 -0.002,0.019 h 0.024 a 1.113,1.113 0 0 1 0.812,-0.472 1.672,1.672 0 0 1 0.202,-0.012 q 0.637,0 0.99,0.436 0.282,0.348 0.338,0.928 a 3.142,3.142 0 0 1 0.014,0.303 q 0,0.562 -0.177,0.947 a 1.376,1.376 0 0 1 -0.178,0.29 1.159,1.159 0 0 1 -0.824,0.433 1.66,1.66 0 0 1 -0.163,0.008 1.485,1.485 0 0 1 -0.373,-0.046 1.292,1.292 0 0 1 -0.203,-0.071 q -0.261,-0.116 -0.438,-0.358 z m 8.346,0.012 v 0.374 a 0.482,0.482 0 0 1 -0.057,0.023 q -0.061,0.02 -0.148,0.036 a 1.831,1.831 0 0 1 -0.03,0.005 q -0.144,0.023 -0.262,0.025 a 1.252,1.252 0 0 1 -0.016,0 1.279,1.279 0 0 1 -0.377,-0.051 q -0.561,-0.173 -0.561,-0.937 v -1.923 h -0.463 v -0.236 l 0.463,-0.203 0.206,-0.691 h 0.283 v 0.75 h 0.938 v 0.38 h -0.938 v 1.902 q 0,0.205 0.069,0.344 a 0.475,0.475 0 0 0 0.07,0.105 0.455,0.455 0 0 0 0.28,0.148 0.654,0.654 0 0 0 0.101,0.008 1.608,1.608 0 0 0 0.235,-0.017 1.484,1.484 0 0 0 0.015,-0.002 q 0.116,-0.019 0.185,-0.038 a 0.733,0.733 0 0 0 0.007,-0.002 z m 2.132,0 v 0.374 a 0.482,0.482 0 0 1 -0.057,0.023 q -0.061,0.02 -0.148,0.036 a 1.831,1.831 0 0 1 -0.029,0.005 q -0.145,0.023 -0.262,0.025 a 1.252,1.252 0 0 1 -0.017,0 1.279,1.279 0 0 1 -0.377,-0.051 q -0.561,-0.173 -0.561,-0.937 v -1.923 h -0.463 v -0.236 l 0.463,-0.203 0.207,-0.691 h 0.283 v 0.75 h 0.938 v 0.38 h -0.938 v 1.902 q 0,0.205 0.068,0.344 a 0.475,0.475 0 0 0 0.07,0.105 0.455,0.455 0 0 0 0.28,0.148 0.654,0.654 0 0 0 0.101,0.008 1.608,1.608 0 0 0 0.235,-0.017 1.484,1.484 0 0 0 0.016,-0.002 q 0.115,-0.019 0.185,-0.038 a 0.733,0.733 0 0 0 0.006,-0.002 z m -4.875,0.019 a 1.366,1.366 0 0 0 0.163,-0.223 q 0.235,-0.403 0.235,-1.011 a 2.873,2.873 0 0 0 -10e-4,-0.078 q -0.007,-0.269 -0.065,-0.498 a 1.524,1.524 0 0 0 -0.333,-0.645 1.282,1.282 0 0 0 -0.595,-0.384 1.645,1.645 0 0 0 -0.483,-0.067 1.901,1.901 0 0 0 -0.342,0.029 1.295,1.295 0 0 0 -0.755,0.412 1.353,1.353 0 0 0 -0.166,0.23 q -0.128,0.223 -0.185,0.509 a 2.542,2.542 0 0 0 -0.045,0.492 q 0,0.51 0.183,0.89 a 1.609,1.609 0 0 0 0.036,0.07 1.325,1.325 0 0 0 0.483,0.514 1.363,1.363 0 0 0 0.313,0.14 1.572,1.572 0 0 0 0.457,0.064 1.901,1.901 0 0 0 0.332,-0.028 1.305,1.305 0 0 0 0.768,-0.416 z m 7.913,0 a 1.366,1.366 0 0 0 0.163,-0.223 q 0.235,-0.403 0.235,-1.011 a 2.873,2.873 0 0 0 -0.001,-0.078 q -0.007,-0.269 -0.066,-0.498 a 1.524,1.524 0 0 0 -0.333,-0.645 1.282,1.282 0 0 0 -0.595,-0.384 1.645,1.645 0 0 0 -0.483,-0.067 1.901,1.901 0 0 0 -0.341,0.029 1.295,1.295 0 0 0 -0.756,0.412 1.353,1.353 0 0 0 -0.166,0.23 q -0.128,0.223 -0.184,0.509 a 2.542,2.542 0 0 0 -0.045,0.492 q 0,0.51 0.183,0.89 a 1.609,1.609 0 0 0 0.036,0.07 1.325,1.325 0 0 0 0.483,0.514 1.363,1.363 0 0 0 0.313,0.14 1.572,1.572 0 0 0 0.457,0.064 1.901,1.901 0 0 0 0.332,-0.028 1.305,1.305 0 0 0 0.768,-0.416 z m -9.873,-0.555 a 1.027,1.027 0 0 0 0.143,0.265 0.802,0.802 0 0 0 0.523,0.307 1.216,1.216 0 0 0 0.206,0.017 1.137,1.137 0 0 0 0.3,-0.037 0.791,0.791 0 0 0 0.43,-0.286 1.051,1.051 0 0 0 0.163,-0.319 q 0.086,-0.262 0.086,-0.626 0,-0.396 -0.103,-0.669 a 1.008,1.008 0 0 0 -0.146,-0.268 0.805,0.805 0 0 0 -0.501,-0.298 1.235,1.235 0 0 0 -0.235,-0.022 1.165,1.165 0 0 0 -0.29,0.034 0.78,0.78 0 0 0 -0.436,0.282 1.012,1.012 0 0 0 -0.157,0.304 q -0.046,0.14 -0.068,0.311 a 2.587,2.587 0 0 0 -0.019,0.326 q 0,0.402 0.104,0.679 z m 7.913,0 a 1.027,1.027 0 0 0 0.143,0.265 0.802,0.802 0 0 0 0.523,0.307 1.216,1.216 0 0 0 0.206,0.017 1.137,1.137 0 0 0 0.3,-0.037 0.791,0.791 0 0 0 0.43,-0.286 1.051,1.051 0 0 0 0.163,-0.319 q 0.086,-0.262 0.086,-0.626 0,-0.396 -0.103,-0.669 a 1.008,1.008 0 0 0 -0.146,-0.268 0.805,0.805 0 0 0 -0.501,-0.298 1.235,1.235 0 0 0 -0.235,-0.022 1.165,1.165 0 0 0 -0.29,0.034 0.78,0.78 0 0 0 -0.436,0.282 1.012,1.012 0 0 0 -0.157,0.304 q -0.047,0.14 -0.068,0.311 a 2.587,2.587 0 0 0 -0.02,0.326 q 0,0.402 0.105,0.679 z m -10.613,-1.936 a 1.376,1.376 0 0 0 -0.266,0.024 q -0.299,0.06 -0.456,0.264 -0.221,0.288 -0.221,0.969 a 3.237,3.237 0 0 0 0.016,0.334 q 0.035,0.338 0.147,0.543 a 0.738,0.738 0 0 0 0.064,0.098 q 0.203,0.263 0.627,0.29 a 1.574,1.574 0 0 0 0.101,0.003 0.976,0.976 0 0 0 0.277,-0.037 0.704,0.704 0 0 0 0.396,-0.292 1.124,1.124 0 0 0 0.139,-0.301 q 0.043,-0.142 0.064,-0.315 a 2.805,2.805 0 0 0 0.018,-0.329 q 0,-0.631 -0.221,-0.941 a 0.714,0.714 0 0 0 -0.455,-0.288 1.132,1.132 0 0 0 -0.23,-0.022 z"
     id="bottom_labelLayer"
     stroke="#777777"
     fill="#777777"
     style="font-size:12px;fill:#777777;fill-rule:evenodd;stroke:#777777;stroke-width:0.25mm;stroke-linecap:round"
     vector-effect="non-scaling-stroke" />
  <ellipse
     style="fill:none;stroke:#ff0000;stroke-width:0.0938222;stroke-linejoin:round;stroke-dasharray:none"
     id="path26150"
     cx="90.528862"
     cy="82.095551"
     rx="1.8530889"
     ry="1.8530887" />
  <rect
     style="fill:none;stroke:#ff0000;stroke-width:0.0840648;stroke-linejoin:round;stroke-dasharray:none"
     id="rect33421"
     width="21.715937"
     height="0.71593517"
     x="28.816912"
     y="-90.977608"
     ry="0.17842655"
     rx="0.178"
     transform="rotate(90)" />
</svg>
