<?xml version="1.0" encoding="UTF-8" standalone="no"?>
<svg
   width="105.5mm"
   height="96mm"
   viewBox="0 0 105.5 96"
   version="1.1"
   preserveAspectRatio="xMidYMid meet"
   id="svg26319"
   sodipodi:docname="SoilMoistureCover.svg"
   inkscape:version="1.2.2 (b0a84865, 2022-12-01)"
   xmlns:inkscape="http://www.inkscape.org/namespaces/inkscape"
   xmlns:sodipodi="http://sodipodi.sourceforge.net/DTD/sodipodi-0.dtd"
   xmlns="http://www.w3.org/2000/svg"
   xmlns:svg="http://www.w3.org/2000/svg">
  <defs
     id="defs26323" />
  <sodipodi:namedview
     id="namedview26321"
     pagecolor="#ffffff"
     bordercolor="#000000"
     borderopacity="0.25"
     inkscape:showpageshadow="2"
     inkscape:pageopacity="0.0"
     inkscape:pagecheckerboard="0"
     inkscape:deskcolor="#d1d1d1"
     inkscape:document-units="mm"
     showgrid="false"
     inkscape:zoom="1.4928117"
     inkscape:cx="167.80415"
     inkscape:cy="167.46922"
     inkscape:window-width="1390"
     inkscape:window-height="916"
     inkscape:window-x="2406"
     inkscape:window-y="369"
     inkscape:window-maximized="0"
     inkscape:current-layer="svgGroup" />
  <g
     id="svgGroup"
     stroke-linecap="round"
     fill-rule="evenodd"
     font-size="9pt"
     stroke="#000"
     stroke-width="0.25mm"
     fill="none"
     style="stroke:#000;stroke-width:0.25mm;fill:none">
    <path
       d="M 13.625 93 L 22.875 93 L 22.875 96 L 36.5 96 L 36.5 87.125 L 33.5 87.125 L 33.5 77.875 L 36.5 77.875 L 36.5 67.625 L 33.5 67.625 L 33.5 58.375 L 36.5 58.375 L 36.5 49.5 L 22.875 49.5 L 22.875 52.5 L 13.625 52.5 L 13.625 49.5 L 0 49.5 L 0 58.375 L 3 58.375 L 3 67.625 L 0 67.625 L 0 77.875 L 3 77.875 L 3 87.125 L 0 87.125 L 0 96 L 13.625 96 L 13.625 93 Z"
       id="front_outsideCutPath"
       stroke="#FF0000"
       stroke-width="0.1"
       style="stroke:#FF0000;stroke-width:1;stroke-dasharray:none"
       vector-effect="non-scaling-stroke" />
    <path
       d="m 20.562167,110.59838 h -0.592 v -2.527 q 0,-0.305 -0.088,-0.511 a 0.704,0.704 0 0 0 -0.129,-0.202 q -0.218,-0.235 -0.681,-0.235 -0.404,0 -0.665,0.144 a 0.834,0.834 0 0 0 -0.233,0.187 0.967,0.967 0 0 0 -0.168,0.294 q -0.102,0.27 -0.115,0.672 a 3.791,3.791 0 0 0 -0.002,0.128 v 2.05 h -0.592 v -3.907 h 0.481 l 0.096,0.535 h 0.029 q 0.182,-0.289 0.51,-0.447 a 1.602,1.602 0 0 1 0.57,-0.152 1.937,1.937 0 0 1 0.16,-0.007 q 0.468,0 0.783,0.15 a 1.063,1.063 0 0 1 0.28,0.191 q 0.271,0.258 0.336,0.754 a 2.582,2.582 0 0 1 0.02,0.334 z m -11.3669999,-3.907 v 0.46 h -0.995 v 3.447 h -0.591 v -3.447 h -0.699 v -0.267 l 0.699,-0.214 v -0.217 a 2.398,2.398 0 0 1 0.056,-0.544 q 0.173,-0.741 0.881,-0.87 a 1.798,1.798 0 0 1 0.321,-0.026 q 0.241,0 0.547,0.075 a 3.83,3.83 0 0 1 0.18,0.049 l -0.153,0.474 a 2.873,2.873 0 0 0 -0.224,-0.063 q -0.112,-0.026 -0.212,-0.038 a 1.272,1.272 0 0 0 -0.149,-0.009 0.798,0.798 0 0 0 -0.192,0.022 0.512,0.512 0 0 0 -0.303,0.201 0.685,0.685 0 0 0 -0.091,0.182 q -0.06,0.178 -0.068,0.443 a 2.794,2.794 0 0 0 -0.002,0.089 v 0.253 z m 14.3789999,3.419 v 0.452 a 0.582,0.582 0 0 1 -0.069,0.028 q -0.074,0.024 -0.179,0.043 a 2.212,2.212 0 0 1 -0.035,0.006 2.565,2.565 0 0 1 -0.168,0.022 q -0.09,0.008 -0.169,0.008 -0.904,0 -1.087,-0.759 a 1.86,1.86 0 0 1 -0.047,-0.435 v -2.324 h -0.559 v -0.285 l 0.559,-0.246 0.25,-0.834 h 0.342 v 0.905 h 1.133 v 0.46 h -1.133 v 2.299 a 1.191,1.191 0 0 0 0.017,0.21 q 0.021,0.114 0.066,0.205 a 0.574,0.574 0 0 0 0.084,0.127 0.55,0.55 0 0 0 0.338,0.18 0.791,0.791 0 0 0 0.122,0.009 1.943,1.943 0 0 0 0.285,-0.02 1.793,1.793 0 0 0 0.018,-0.003 q 0.146,-0.023 0.232,-0.048 z m -11.417,-3.447 -0.082,0.549 a 2.608,2.608 0 0 0 -0.188,-0.035 q -0.13,-0.019 -0.24,-0.019 a 1.025,1.025 0 0 0 -0.757,0.327 1.403,1.403 0 0 0 -0.054,0.058 q -0.337,0.385 -0.337,0.959 v 2.096 H 9.9081671 v -3.907 h 0.4879999 l 0.068,0.724 h 0.028 a 1.998,1.998 0 0 1 0.224,-0.319 1.526,1.526 0 0 1 0.3,-0.269 1.18,1.18 0 0 1 0.674,-0.207 q 0.26,0 0.467,0.043 z m 4.048,2.573 a 3.056,3.056 0 0 0 0.055,-0.595 3.472,3.472 0 0 0 -0.002,-0.094 q -0.023,-0.864 -0.481,-1.382 a 1.549,1.549 0 0 0 -0.719,-0.463 1.988,1.988 0 0 0 -0.584,-0.082 2.298,2.298 0 0 0 -0.413,0.036 1.565,1.565 0 0 0 -0.913,0.497 1.635,1.635 0 0 0 -0.201,0.278 q -0.277,0.483 -0.277,1.21 a 2.96,2.96 0 0 0 0.037,0.48 2.189,2.189 0 0 0 0.184,0.597 q 0.221,0.459 0.628,0.705 a 1.648,1.648 0 0 0 0.378,0.169 1.9,1.9 0 0 0 0.552,0.077 2.298,2.298 0 0 0 0.401,-0.033 1.577,1.577 0 0 0 0.928,-0.503 1.651,1.651 0 0 0 0.197,-0.27 q 0.16,-0.274 0.23,-0.627 z m -2.922,-0.595 a 2.996,2.996 0 0 0 0.029,0.428 q 0.064,0.442 0.271,0.713 a 0.97,0.97 0 0 0 0.631,0.372 1.47,1.47 0 0 0 0.249,0.02 1.374,1.374 0 0 0 0.363,-0.045 0.956,0.956 0 0 0 0.519,-0.345 1.27,1.27 0 0 0 0.198,-0.386 q 0.104,-0.316 0.104,-0.757 0,-0.478 -0.124,-0.808 a 1.218,1.218 0 0 0 -0.178,-0.324 q -0.301,-0.386 -0.889,-0.386 a 1.408,1.408 0 0 0 -0.351,0.041 0.942,0.942 0 0 0 -0.526,0.34 q -0.213,0.275 -0.272,0.743 a 3.127,3.127 0 0 0 -0.024,0.394 z"
       id="front_labelLayer"
       stroke="#777777"
       fill="#777777"
       style="fill:#777777;stroke:#777777"
       vector-effect="non-scaling-stroke" />
    <path
       d="M 48.125 93 L 57.375 93 L 57.375 96 L 63 96 L 63 87.625 L 66 87.625 L 66 77.375 L 63 77.375 L 63 68.125 L 66 68.125 L 66 57.875 L 63 57.875 L 63 49.5 L 57.375 49.5 L 57.375 52.5 L 48.125 52.5 L 48.125 49.5 L 42.5 49.5 L 42.5 57.875 L 39.5 57.875 L 39.5 68.125 L 42.5 68.125 L 42.5 77.375 L 39.5 77.375 L 39.5 87.625 L 42.5 87.625 L 42.5 96 L 48.125 96 L 48.125 93 Z"
       id="left_outsideCutPath"
       stroke="#FF0000"
       stroke-width="0.1"
       style="stroke:#FF0000;stroke-width:1;stroke-dasharray:none"
       vector-effect="non-scaling-stroke" />
    <path
       d="m 55.637611,106.25443 v 0.334 h -0.722 v 2.503 h -0.429 v -2.503 h -0.508 v -0.194 l 0.508,-0.155 v -0.158 q 0,-0.903 0.68,-1.026 a 1.306,1.306 0 0 1 0.233,-0.02 q 0.175,0 0.397,0.055 a 2.781,2.781 0 0 1 0.131,0.036 l -0.111,0.344 a 2.086,2.086 0 0 0 -0.162,-0.045 q -0.082,-0.02 -0.155,-0.028 a 0.924,0.924 0 0 0 -0.108,-0.007 0.579,0.579 0 0 0 -0.139,0.016 0.372,0.372 0 0 0 -0.22,0.146 q -0.106,0.146 -0.116,0.454 a 2.028,2.028 0 0 0 -0.001,0.065 v 0.183 z m -2.011,1.224 v 0.272 h -1.953 a 1.724,1.724 0 0 0 0.03,0.289 q 0.057,0.291 0.222,0.469 a 0.781,0.781 0 0 0 0.41,0.231 1.183,1.183 0 0 0 0.264,0.028 2.269,2.269 0 0 0 0.85,-0.168 2.6,2.6 0 0 0 0.056,-0.023 v 0.383 a 2.579,2.579 0 0 1 -0.235,0.088 1.972,1.972 0 0 1 -0.196,0.053 1.803,1.803 0 0 1 -0.179,0.027 q -0.088,0.01 -0.188,0.013 a 3.5,3.5 0 0 1 -0.123,0.002 q -0.629,0 -0.993,-0.383 -0.363,-0.383 -0.363,-1.063 a 2.256,2.256 0 0 1 0.041,-0.448 q 0.055,-0.271 0.183,-0.483 a 1.272,1.272 0 0 1 0.113,-0.159 1.101,1.101 0 0 1 0.803,-0.4 1.519,1.519 0 0 1 0.104,-0.003 1.309,1.309 0 0 1 0.369,0.049 0.996,0.996 0 0 1 0.475,0.301 q 0.31,0.351 0.31,0.925 z m 3.833,1.258 v 0.329 q -0.063,0.03 -0.18,0.051 a 1.604,1.604 0 0 1 -0.026,0.004 1.862,1.862 0 0 1 -0.121,0.016 q -0.065,0.006 -0.123,0.006 a 1.122,1.122 0 0 1 -0.331,-0.044 q -0.363,-0.112 -0.458,-0.507 a 1.35,1.35 0 0 1 -0.034,-0.316 v -1.687 h -0.406 v -0.207 l 0.406,-0.178 0.181,-0.606 h 0.249 v 0.657 h 0.822 v 0.334 h -0.822 v 1.669 q 0,0.18 0.06,0.302 a 0.417,0.417 0 0 0 0.061,0.092 q 0.122,0.137 0.334,0.137 a 1.411,1.411 0 0 0 0.207,-0.015 1.295,1.295 0 0 0 0.013,-0.002 2.324,2.324 0 0 0 0.062,-0.011 q 0.059,-0.011 0.1,-0.022 a 0.641,0.641 0 0 0 0.006,-0.002 z m -6.985,-3.672 v 4.027 h -0.429 v -4.027 z m 1.209,2.337 h 1.483 a 1.464,1.464 0 0 0 -0.018,-0.236 q -0.02,-0.126 -0.065,-0.227 a 0.665,0.665 0 0 0 -0.098,-0.16 0.589,0.589 0 0 0 -0.355,-0.201 0.883,0.883 0 0 0 -0.163,-0.015 q -0.341,0 -0.545,0.223 -0.203,0.222 -0.239,0.616 z"
       id="left_labelLayer"
       stroke="#777777"
       fill="#777777"
       style="fill:#777777;stroke:#777777"
       vector-effect="non-scaling-stroke" />
    <path
       d="m 91.796261,92.933395 h 10.124989 v -5.125 h 3 v -10.25 h -3 v -5.125 H 91.796261 v -3 h -10.25 v 3 h -10.125 v 5.125 h -3 v 10.25 h 3 v 5.125 h 10.125 v 3 h 10.25 z"
       id="top_outsideCutPath"
       stroke="#FF0000"
       stroke-width="0.1"
       style="stroke:#ff0000;stroke-width:1;stroke-dasharray:none"
       vector-effect="non-scaling-stroke" />
    <ellipse
       style="fill:none;stroke:#ff0000;stroke-width:0.0938222;stroke-linejoin:round;stroke-dasharray:none"
       id="path26150"
       cx="86.671257"
       cy="82.683395"
       rx="1.8530889"
       ry="1.8530887" />
    <path
       d="m 119.108,81.740431 h -0.031 a 4.066,4.066 0 0 1 0.026,0.301 3.407,3.407 0 0 1 0.005,0.17 v 1.167 h -0.43 v -4.109 h 0.349 l 0.06,0.388 h 0.021 a 1.156,1.156 0 0 1 0.167,-0.19 0.894,0.894 0 0 1 0.218,-0.146 1.076,1.076 0 0 1 0.309,-0.091 1.392,1.392 0 0 1 0.196,-0.013 1.317,1.317 0 0 1 0.372,0.05 0.973,0.973 0 0 1 0.499,0.336 q 0.306,0.385 0.306,1.081 a 2.519,2.519 0 0 1 -0.033,0.424 q -0.039,0.226 -0.122,0.407 a 1.207,1.207 0 0 1 -0.156,0.255 1.017,1.017 0 0 1 -0.723,0.38 1.457,1.457 0 0 1 -0.143,0.007 1.303,1.303 0 0 1 -0.328,-0.04 1.134,1.134 0 0 1 -0.178,-0.062 0.951,0.951 0 0 1 -0.384,-0.315 z m -4.198,0.011 v 0.328 q -0.063,0.031 -0.18,0.052 a 1.604,1.604 0 0 1 -0.026,0.004 1.862,1.862 0 0 1 -0.121,0.016 q -0.065,0.006 -0.123,0.006 a 1.122,1.122 0 0 1 -0.331,-0.045 q -0.363,-0.112 -0.458,-0.507 a 1.35,1.35 0 0 1 -0.034,-0.315 v -1.687 h -0.406 v -0.207 l 0.406,-0.179 0.181,-0.605 h 0.248 v 0.657 h 0.823 v 0.334 h -0.823 v 1.669 q 0,0.18 0.061,0.301 a 0.417,0.417 0 0 0 0.061,0.092 q 0.122,0.137 0.334,0.137 a 1.411,1.411 0 0 0 0.207,-0.014 1.295,1.295 0 0 0 0.013,-0.002 2.324,2.324 0 0 0 0.062,-0.011 q 0.059,-0.011 0.1,-0.023 a 0.641,0.641 0 0 0 0.006,-0.001 z m 3.015,-1.067 q 0,0.694 -0.349,1.083 -0.35,0.39 -0.966,0.39 a 1.38,1.38 0 0 1 -0.401,-0.057 1.196,1.196 0 0 1 -0.274,-0.122 1.163,1.163 0 0 1 -0.424,-0.451 1.412,1.412 0 0 1 -0.032,-0.061 1.589,1.589 0 0 1 -0.133,-0.433 2.149,2.149 0 0 1 -0.027,-0.349 q 0,-0.693 0.347,-1.08 a 1.136,1.136 0 0 1 0.663,-0.361 1.668,1.668 0 0 1 0.299,-0.026 1.444,1.444 0 0 1 0.424,0.059 1.125,1.125 0 0 1 0.522,0.337 1.338,1.338 0 0 1 0.293,0.567 q 0.051,0.2 0.057,0.436 a 2.521,2.521 0 0 1 10e-4,0.068 z m -2.069,0.597 a 0.901,0.901 0 0 0 0.125,0.232 q 0.218,0.284 0.64,0.284 a 0.998,0.998 0 0 0 0.263,-0.032 0.694,0.694 0 0 0 0.377,-0.251 0.922,0.922 0 0 0 0.144,-0.28 q 0.075,-0.23 0.075,-0.55 0,-0.347 -0.09,-0.586 a 0.885,0.885 0 0 0 -0.129,-0.235 0.707,0.707 0 0 0 -0.439,-0.262 1.083,1.083 0 0 0 -0.206,-0.019 1.022,1.022 0 0 0 -0.255,0.03 0.684,0.684 0 0 0 -0.382,0.247 q -0.155,0.199 -0.198,0.539 a 2.27,2.27 0 0 0 -0.017,0.286 q 0,0.353 0.092,0.597 z m 3.252,-0.692 v 0.095 a 2.84,2.84 0 0 0 0.014,0.294 q 0.031,0.296 0.129,0.476 a 0.648,0.648 0 0 0 0.056,0.086 0.623,0.623 0 0 0 0.316,0.213 q 0.141,0.044 0.323,0.044 a 0.724,0.724 0 0 0 0.282,-0.053 q 0.162,-0.067 0.278,-0.222 a 0.857,0.857 0 0 0 0.016,-0.022 1.039,1.039 0 0 0 0.142,-0.304 q 0.042,-0.139 0.057,-0.306 a 2.289,2.289 0 0 0 0.009,-0.211 q 0,-0.348 -0.089,-0.59 a 0.911,0.911 0 0 0 -0.119,-0.224 0.668,0.668 0 0 0 -0.489,-0.278 0.924,0.924 0 0 0 -0.097,-0.005 1.238,1.238 0 0 0 -0.231,0.02 q -0.129,0.025 -0.228,0.079 a 0.568,0.568 0 0 0 -0.17,0.142 q -0.182,0.225 -0.198,0.7 a 2.734,2.734 0 0 0 -10e-4,0.066 z"
       id="top_labelLayer"
       stroke="#777777"
       fill="#777777"
       style="fill:#777777;stroke:#777777"
       vector-effect="non-scaling-stroke" />
    <path
       d="M 13.625 43.5 L 22.875 43.5 L 22.875 46.5 L 36.5 46.5 L 36.5 37.625 L 33.5 37.625 L 33.5 28.375 L 36.5 28.375 L 36.5 18.125 L 33.5 18.125 L 33.5 8.875 L 36.5 8.875 L 36.5 0 L 22.875 0 L 22.875 3 L 13.625 3 L 13.625 0 L 0 0 L 0 8.875 L 3 8.875 L 3 18.125 L 0 18.125 L 0 28.375 L 3 28.375 L 3 37.625 L 0 37.625 L 0 46.5 L 13.625 46.5 L 13.625 43.5 Z"
       id="back_outsideCutPath"
       stroke="#FF0000"
       stroke-width="0.1"
       style="stroke:#FF0000;stroke-width:1;stroke-dasharray:none"
       vector-effect="non-scaling-stroke" />
    <path
       d="m 24.249611,-21.380146 h 0.029 q 0.117,-0.167 0.329,-0.413 a 12.715,12.715 0 0 1 0.138,-0.158 l 1.262,-1.336 h 0.702 l -1.583,1.664 1.693,2.242 h -0.716 l -1.38,-1.846 -0.445,0.385 v 1.461 h -0.585 v -5.546 h 0.585 v 2.941 a 3.944,3.944 0 0 1 -0.002,0.111 q -0.005,0.183 -0.026,0.48 a 23.185,23.185 0 0 1 -10e-4,0.015 z m -11.973,1.497 h -0.042 l -0.125,0.502 h -0.424 v -5.546 h 0.591 v 1.348 q 0,0.438 -0.026,0.789 a 7.393,7.393 0 0 1 -0.002,0.023 h 0.028 a 1.345,1.345 0 0 1 0.982,-0.57 2.021,2.021 0 0 1 0.245,-0.014 1.808,1.808 0 0 1 0.508,0.068 1.354,1.354 0 0 1 0.687,0.457 q 0.342,0.421 0.409,1.122 a 3.798,3.798 0 0 1 0.017,0.367 3.469,3.469 0 0 1 -0.046,0.583 q -0.094,0.553 -0.383,0.912 a 1.401,1.401 0 0 1 -0.996,0.523 2.007,2.007 0 0 1 -0.196,0.01 1.795,1.795 0 0 1 -0.451,-0.055 1.562,1.562 0 0 1 -0.246,-0.086 1.311,1.311 0 0 1 -0.53,-0.433 z m 6.723,0.502 h -0.439 l -0.117,-0.556 h -0.029 a 2.453,2.453 0 0 1 -0.198,0.223 q -0.107,0.105 -0.213,0.178 a 1.09,1.09 0 0 1 -0.171,0.097 1.365,1.365 0 0 1 -0.282,0.089 q -0.137,0.028 -0.295,0.037 a 2.663,2.663 0 0 1 -0.149,0.004 q -0.581,0 -0.911,-0.3 a 0.973,0.973 0 0 1 -0.293,-0.513 1.489,1.489 0 0 1 -0.036,-0.339 q 0,-1.183 1.892,-1.24 l 0.663,-0.021 v -0.243 a 1.699,1.699 0 0 0 -0.016,-0.245 q -0.018,-0.126 -0.057,-0.227 a 0.66,0.66 0 0 0 -0.124,-0.207 0.601,0.601 0 0 0 -0.246,-0.16 q -0.099,-0.036 -0.221,-0.05 a 1.462,1.462 0 0 0 -0.166,-0.009 1.926,1.926 0 0 0 -0.443,0.055 q -0.204,0.048 -0.425,0.139 a 3.963,3.963 0 0 0 -0.237,0.105 l -0.182,-0.452 a 2.728,2.728 0 0 1 0.527,-0.217 3.105,3.105 0 0 1 0.106,-0.029 2.74,2.74 0 0 1 0.69,-0.089 q 0.698,0 1.035,0.31 0.264,0.243 0.321,0.716 a 2.328,2.328 0 0 1 0.016,0.278 z m 3.825,-3.774 -0.182,0.502 q -0.196,-0.078 -0.428,-0.13 a 2.444,2.444 0 0 0 -0.186,-0.034 q -0.091,-0.013 -0.171,-0.016 a 1.312,1.312 0 0 0 -0.053,-0.001 q -1.057,0 -1.176,1.198 a 3.269,3.269 0 0 0 -0.014,0.32 q 0,0.472 0.125,0.801 a 1.227,1.227 0 0 0 0.165,0.304 0.94,0.94 0 0 0 0.609,0.364 1.432,1.432 0 0 0 0.252,0.021 2.477,2.477 0 0 0 0.683,-0.099 3.058,3.058 0 0 0 0.319,-0.111 v 0.524 a 1.683,1.683 0 0 1 -0.412,0.145 q -0.19,0.042 -0.412,0.054 a 3.245,3.245 0 0 1 -0.164,0.004 2.211,2.211 0 0 1 -0.538,-0.062 1.5,1.5 0 0 1 -0.775,-0.46 1.712,1.712 0 0 1 -0.356,-0.654 q -0.109,-0.361 -0.109,-0.824 0,-0.71 0.247,-1.186 a 1.631,1.631 0 0 1 0.225,-0.329 1.532,1.532 0 0 1 0.839,-0.482 2.323,2.323 0 0 1 0.506,-0.052 2.67,2.67 0 0 1 0.564,0.06 q 0.278,0.06 0.438,0.141 a 0.871,0.871 0 0 1 0.004,0.002 z m -9.407,0.299 a 1.663,1.663 0 0 0 -0.322,0.029 q -0.361,0.072 -0.551,0.319 a 1.013,1.013 0 0 0 -0.147,0.279 q -0.099,0.277 -0.117,0.699 a 4.559,4.559 0 0 0 -0.004,0.193 3.912,3.912 0 0 0 0.02,0.404 q 0.042,0.408 0.178,0.656 a 0.892,0.892 0 0 0 0.077,0.118 0.858,0.858 0 0 0 0.435,0.293 q 0.146,0.046 0.323,0.057 a 1.903,1.903 0 0 0 0.122,0.004 1.18,1.18 0 0 0 0.335,-0.045 0.851,0.851 0 0 0 0.478,-0.352 1.358,1.358 0 0 0 0.168,-0.364 q 0.053,-0.172 0.077,-0.381 a 3.39,3.39 0 0 0 0.022,-0.398 3.496,3.496 0 0 0 -0.021,-0.398 q -0.05,-0.436 -0.219,-0.699 a 0.982,0.982 0 0 0 -0.027,-0.04 q -0.267,-0.374 -0.827,-0.374 z m 4.99,1.907 v -0.353 l -0.591,0.025 q -0.59,0.021 -0.905,0.16 a 0.909,0.909 0 0 0 -0.113,0.059 0.631,0.631 0 0 0 -0.301,0.458 0.935,0.935 0 0 0 -0.011,0.147 0.846,0.846 0 0 0 0.021,0.194 q 0.035,0.149 0.129,0.251 a 0.527,0.527 0 0 0 0.044,0.043 0.644,0.644 0 0 0 0.242,0.128 q 0.132,0.039 0.302,0.039 a 1.629,1.629 0 0 0 0.352,-0.035 q 0.245,-0.055 0.426,-0.191 a 0.988,0.988 0 0 0 0.09,-0.077 0.991,0.991 0 0 0 0.276,-0.494 q 0.039,-0.16 0.039,-0.348 a 1.863,1.863 0 0 0 0,-0.006 z"
       id="back_labelLayer"
       stroke="#777777"
       fill="#777777"
       style="fill:#777777;stroke:#777777"
       vector-effect="non-scaling-stroke" />
    <path
       d="M 48.125 43.5 L 57.375 43.5 L 57.375 46.5 L 63 46.5 L 63 38.125 L 66 38.125 L 66 27.875 L 63 27.875 L 63 18.625 L 66 18.625 L 66 8.375 L 63 8.375 L 63 0 L 57.375 0 L 57.375 3 L 48.125 3 L 48.125 0 L 42.5 0 L 42.5 8.375 L 39.5 8.375 L 39.5 18.625 L 42.5 18.625 L 42.5 27.875 L 39.5 27.875 L 39.5 38.125 L 42.5 38.125 L 42.5 46.5 L 48.125 46.5 L 48.125 43.5 Z"
       id="right_outsideCutPath"
       stroke="#FF0000"
       stroke-width="0.1"
       style="stroke:#FF0000;stroke-width:1;stroke-dasharray:none"
       vector-effect="non-scaling-stroke" />
    <path
       d="m 58.301875,-16.48005 h -0.43 v -1.835 a 1.214,1.214 0 0 0 -0.014,-0.19 q -0.033,-0.208 -0.144,-0.328 -0.158,-0.17 -0.494,-0.17 -0.292,0 -0.482,0.103 a 0.601,0.601 0 0 0 -0.172,0.14 q -0.205,0.243 -0.205,0.797 v 1.483 h -0.43 v -4.027 h 0.43 v 1.219 q 0,0.22 -0.021,0.365 h 0.026 a 0.858,0.858 0 0 1 0.301,-0.29 1.049,1.049 0 0 1 0.06,-0.032 1.103,1.103 0 0 1 0.362,-0.108 1.394,1.394 0 0 1 0.172,-0.01 q 0.342,0 0.572,0.107 a 0.774,0.774 0 0 1 0.209,0.14 0.748,0.748 0 0 1 0.184,0.29 q 0.044,0.12 0.063,0.27 a 1.858,1.858 0 0 1 0.013,0.225 z m -3.934,-2.837 h 0.981 v 0.272 l -0.525,0.062 a 0.698,0.698 0 0 1 0.06,0.09 q 0.027,0.047 0.051,0.102 a 1.324,1.324 0 0 1 0.018,0.045 0.826,0.826 0 0 1 0.049,0.197 1.061,1.061 0 0 1 0.008,0.133 0.985,0.985 0 0 1 -0.045,0.305 0.797,0.797 0 0 1 -0.24,0.36 0.953,0.953 0 0 1 -0.375,0.198 q -0.141,0.039 -0.31,0.048 a 1.866,1.866 0 0 1 -0.096,0.003 1.381,1.381 0 0 1 -0.16,-0.009 1.166,1.166 0 0 1 -0.078,-0.012 q -0.157,0.083 -0.224,0.19 a 0.323,0.323 0 0 0 -0.051,0.175 0.223,0.223 0 0 0 0.012,0.073 q 0.02,0.059 0.078,0.095 a 0.239,0.239 0 0 0 0.006,0.004 q 0.096,0.055 0.329,0.055 h 0.502 a 1.758,1.758 0 0 1 0.267,0.019 q 0.139,0.022 0.252,0.068 a 0.776,0.776 0 0 1 0.189,0.108 0.628,0.628 0 0 1 0.233,0.4 0.944,0.944 0 0 1 0.014,0.164 q 0,0.471 -0.378,0.718 -0.378,0.247 -1.103,0.247 a 2.407,2.407 0 0 1 -0.322,-0.02 q -0.164,-0.022 -0.298,-0.069 a 0.998,0.998 0 0 1 -0.237,-0.118 0.685,0.685 0 0 1 -0.221,-0.24 q -0.071,-0.131 -0.08,-0.297 a 0.907,0.907 0 0 1 -0.001,-0.048 q 0,-0.259 0.166,-0.448 a 0.75,0.75 0 0 1 0.257,-0.187 1.063,1.063 0 0 1 0.208,-0.069 0.446,0.446 0 0 1 -0.173,-0.14 0.53,0.53 0 0 1 -0.009,-0.013 q -0.074,-0.103 -0.074,-0.24 a 0.491,0.491 0 0 1 0.025,-0.158 0.435,0.435 0 0 1 0.058,-0.114 q 0.063,-0.088 0.18,-0.171 a 1.349,1.349 0 0 1 0.081,-0.054 0.753,0.753 0 0 1 -0.327,-0.262 0.933,0.933 0 0 1 -0.031,-0.046 0.888,0.888 0 0 1 -0.136,-0.428 1.084,1.084 0 0 1 -0.002,-0.069 1.241,1.241 0 0 1 0.032,-0.293 0.817,0.817 0 0 1 0.247,-0.425 0.912,0.912 0 0 1 0.35,-0.193 q 0.139,-0.043 0.307,-0.055 a 1.897,1.897 0 0 1 0.135,-0.004 q 0.223,0 0.401,0.051 z m 6.12,2.482 v 0.329 q -0.063,0.03 -0.18,0.051 a 1.604,1.604 0 0 1 -0.025,0.005 1.862,1.862 0 0 1 -0.122,0.015 q -0.065,0.007 -0.123,0.007 a 1.122,1.122 0 0 1 -0.331,-0.045 q -0.363,-0.112 -0.458,-0.507 a 1.35,1.35 0 0 1 -0.034,-0.315 v -1.688 h -0.406 v -0.207 l 0.406,-0.178 0.181,-0.606 h 0.249 v 0.657 h 0.823 v 0.334 h -0.823 v 1.669 q 0,0.18 0.06,0.302 a 0.417,0.417 0 0 0 0.061,0.092 q 0.122,0.137 0.334,0.137 a 1.411,1.411 0 0 0 0.207,-0.015 1.295,1.295 0 0 0 0.013,-0.002 2.324,2.324 0 0 0 0.062,-0.011 q 0.06,-0.011 0.101,-0.022 a 0.641,0.641 0 0 0 0.005,-0.002 z m -9.331,-2.502 -0.06,0.398 q -0.147,-0.032 -0.264,-0.037 a 1.008,1.008 0 0 0 -0.047,-0.002 q -0.344,0 -0.588,0.28 a 0.981,0.981 0 0 0 -0.237,0.551 1.304,1.304 0 0 0 -0.008,0.145 v 1.522 h -0.429 v -2.837 h 0.354 l 0.049,0.526 h 0.021 a 1.451,1.451 0 0 1 0.162,-0.232 1.108,1.108 0 0 1 0.218,-0.195 0.856,0.856 0 0 1 0.489,-0.15 1.972,1.972 0 0 1 0.177,0.007 1.439,1.439 0 0 1 0.163,0.024 z m 0.96,0.02 v 2.837 h -0.43 v -2.837 z m 2.104,2.772 h -0.515 a 0.987,0.987 0 0 0 -0.178,0.015 q -0.101,0.019 -0.181,0.06 a 0.503,0.503 0 0 0 -0.097,0.065 0.453,0.453 0 0 0 -0.149,0.256 0.687,0.687 0 0 0 -0.014,0.145 0.431,0.431 0 0 0 0.029,0.16 q 0.04,0.103 0.14,0.173 a 0.504,0.504 0 0 0 0.025,0.016 q 0.193,0.119 0.553,0.119 a 2.228,2.228 0 0 0 0.004,0 2.888,2.888 0 0 0 0.282,-0.012 q 0.282,-0.028 0.46,-0.117 a 0.713,0.713 0 0 0 0.059,-0.032 0.627,0.627 0 0 0 0.145,-0.122 0.47,0.47 0 0 0 0.115,-0.317 0.581,0.581 0 0 0 -0.011,-0.115 q -0.028,-0.14 -0.132,-0.205 -0.108,-0.068 -0.362,-0.084 a 2.733,2.733 0 0 0 -0.173,-0.005 z m -0.901,-1.863 a 0.839,0.839 0 0 0 0.017,0.176 q 0.037,0.17 0.151,0.274 0.152,0.138 0.41,0.151 a 1.106,1.106 0 0 0 0.059,0.002 q 0.496,0 0.601,-0.381 a 0.87,0.87 0 0 0 0.027,-0.23 0.924,0.924 0 0 0 -0.031,-0.253 q -0.081,-0.284 -0.369,-0.359 a 0.934,0.934 0 0 0 -0.236,-0.027 q -0.303,0 -0.466,0.163 a 0.516,0.516 0 0 0 -0.125,0.21 q -0.026,0.081 -0.034,0.18 a 1.13,1.13 0 0 0 -0.004,0.094 z m -1.663,-1.756 a 0.476,0.476 0 0 0 -0.006,0.079 q 0,0.073 0.018,0.127 a 0.222,0.222 0 0 0 0.054,0.089 0.241,0.241 0 0 0 0.087,0.055 0.273,0.273 0 0 0 0.094,0.016 q 0.104,0 0.179,-0.071 a 0.21,0.21 0 0 0 0.041,-0.054 q 0.019,-0.035 0.027,-0.081 a 0.444,0.444 0 0 0 0.007,-0.081 0.491,0.491 0 0 0 -0.002,-0.047 q -0.004,-0.042 -0.016,-0.077 a 0.217,0.217 0 0 0 -0.057,-0.091 0.253,0.253 0 0 0 -0.179,-0.07 0.328,0.328 0 0 0 -0.021,10e-4 0.248,0.248 0 0 0 -0.16,0.068 0.201,0.201 0 0 0 -0.044,0.063 q -0.015,0.033 -0.022,0.074 z"
       id="right_labelLayer"
       stroke="#777777"
       fill="#777777"
       style="fill:#777777;stroke:#777777"
       vector-effect="non-scaling-stroke" />
    <path
       d="m 93.162261,64.214573 h 10.124999 v -5.125 h 3 v -10.25 h -3 v -5.125 H 93.162261 v -3 h -10.25 v 3 h -10.125 v 5.125 h -3 v 10.25 h 3 v 5.125 h 10.125 v 3 h 10.25 z"
       id="bottom_outsideCutPath"
       stroke="#FF0000"
       stroke-width="0.1"
       style="stroke:#ff0000;stroke-width:1;stroke-dasharray:none"
       vector-effect="non-scaling-stroke" />
    <path
       d="m 126.92461,55.487653 h -0.43 v -1.845 a 1.267,1.267 0 0 0 -0.013,-0.186 q -0.014,-0.095 -0.044,-0.172 a 0.519,0.519 0 0 0 -0.088,-0.15 0.452,0.452 0 0 0 -0.21,-0.136 q -0.075,-0.024 -0.166,-0.031 a 0.997,0.997 0 0 0 -0.074,-0.003 1.105,1.105 0 0 0 -0.225,0.022 q -0.235,0.048 -0.368,0.209 a 0.71,0.71 0 0 0 -0.12,0.217 q -0.071,0.2 -0.071,0.492 v 1.583 h -0.43 v -1.845 a 1.267,1.267 0 0 0 -0.013,-0.186 q -0.014,-0.095 -0.044,-0.172 a 0.519,0.519 0 0 0 -0.088,-0.15 q -0.145,-0.17 -0.453,-0.17 a 1.067,1.067 0 0 0 -0.22,0.022 q -0.239,0.05 -0.371,0.22 -0.188,0.242 -0.188,0.793 v 1.488 h -0.429 v -2.836 h 0.349 l 0.07,0.388 h 0.021 q 0.121,-0.207 0.343,-0.323 a 1.02,1.02 0 0 1 0.402,-0.113 1.232,1.232 0 0 1 0.093,-0.004 1.406,1.406 0 0 1 0.317,0.033 q 0.402,0.093 0.553,0.449 h 0.02 a 0.897,0.897 0 0 1 0.338,-0.336 1.078,1.078 0 0 1 0.03,-0.016 q 0.241,-0.13 0.548,-0.13 a 1.493,1.493 0 0 1 0.271,0.023 q 0.151,0.028 0.268,0.09 a 0.708,0.708 0 0 1 0.182,0.134 0.74,0.74 0 0 1 0.159,0.26 q 0.043,0.115 0.063,0.257 a 1.97,1.97 0 0 1 0.018,0.274 z m -17.008,-0.364 h -0.031 l -0.091,0.364 h -0.308 v -4.026 h 0.43 v 0.978 q 0,0.318 -0.019,0.573 a 5.347,5.347 0 0 1 -0.002,0.017 h 0.021 a 0.977,0.977 0 0 1 0.713,-0.414 1.467,1.467 0 0 1 0.177,-0.01 1.313,1.313 0 0 1 0.37,0.049 0.983,0.983 0 0 1 0.498,0.332 1.266,1.266 0 0 1 0.222,0.428 q 0.055,0.176 0.075,0.387 a 2.757,2.757 0 0 1 0.013,0.266 2.519,2.519 0 0 1 -0.034,0.423 q -0.038,0.226 -0.122,0.407 a 1.207,1.207 0 0 1 -0.156,0.255 1.017,1.017 0 0 1 -0.723,0.38 1.457,1.457 0 0 1 -0.143,0.007 1.303,1.303 0 0 1 -0.327,-0.04 1.134,1.134 0 0 1 -0.179,-0.062 0.951,0.951 0 0 1 -0.384,-0.314 z m 7.324,0.01 v 0.329 q -0.063,0.03 -0.18,0.051 a 1.604,1.604 0 0 1 -0.026,0.004 1.862,1.862 0 0 1 -0.121,0.016 q -0.066,0.006 -0.124,0.006 a 1.122,1.122 0 0 1 -0.33,-0.044 q -0.364,-0.112 -0.459,-0.507 a 1.35,1.35 0 0 1 -0.034,-0.316 v -1.687 h -0.406 v -0.207 l 0.406,-0.179 0.182,-0.605 h 0.248 v 0.657 h 0.823 v 0.334 h -0.823 v 1.669 q 0,0.18 0.06,0.301 a 0.417,0.417 0 0 0 0.062,0.092 q 0.121,0.138 0.334,0.138 a 1.411,1.411 0 0 0 0.206,-0.015 1.295,1.295 0 0 0 0.013,-0.002 2.324,2.324 0 0 0 0.063,-0.011 q 0.059,-0.011 0.1,-0.022 a 0.641,0.641 0 0 0 0.006,-0.002 z m 1.871,0 v 0.329 q -0.063,0.03 -0.18,0.051 a 1.604,1.604 0 0 1 -0.026,0.004 1.862,1.862 0 0 1 -0.121,0.016 q -0.066,0.006 -0.124,0.006 a 1.122,1.122 0 0 1 -0.33,-0.044 q -0.364,-0.112 -0.459,-0.507 a 1.35,1.35 0 0 1 -0.033,-0.316 v -1.687 h -0.407 v -0.207 l 0.407,-0.179 0.181,-0.605 h 0.248 v 0.657 h 0.823 v 0.334 h -0.823 v 1.669 q 0,0.18 0.06,0.301 a 0.417,0.417 0 0 0 0.062,0.092 q 0.121,0.138 0.334,0.138 a 1.411,1.411 0 0 0 0.206,-0.015 1.295,1.295 0 0 0 0.014,-0.002 2.324,2.324 0 0 0 0.062,-0.011 q 0.059,-0.011 0.1,-0.022 a 0.641,0.641 0 0 0 0.006,-0.002 z m -3.929,-1.066 q 0,0.693 -0.349,1.083 -0.349,0.389 -0.965,0.389 a 1.38,1.38 0 0 1 -0.401,-0.056 1.196,1.196 0 0 1 -0.275,-0.122 1.163,1.163 0 0 1 -0.424,-0.452 1.412,1.412 0 0 1 -0.031,-0.061 1.589,1.589 0 0 1 -0.134,-0.433 2.149,2.149 0 0 1 -0.027,-0.348 q 0,-0.694 0.347,-1.081 a 1.136,1.136 0 0 1 0.663,-0.361 1.668,1.668 0 0 1 0.3,-0.026 1.444,1.444 0 0 1 0.424,0.06 1.125,1.125 0 0 1 0.522,0.336 1.338,1.338 0 0 1 0.292,0.567 q 0.051,0.2 0.057,0.436 a 2.521,2.521 0 0 1 10e-4,0.069 z m 6.944,0 q 0,0.693 -0.35,1.083 -0.349,0.389 -0.965,0.389 a 1.38,1.38 0 0 1 -0.401,-0.056 1.196,1.196 0 0 1 -0.274,-0.122 1.163,1.163 0 0 1 -0.425,-0.452 1.412,1.412 0 0 1 -0.031,-0.061 1.589,1.589 0 0 1 -0.133,-0.433 2.149,2.149 0 0 1 -0.027,-0.348 q 0,-0.694 0.346,-1.081 a 1.136,1.136 0 0 1 0.663,-0.361 1.668,1.668 0 0 1 0.3,-0.026 1.444,1.444 0 0 1 0.424,0.06 1.125,1.125 0 0 1 0.522,0.336 1.338,1.338 0 0 1 0.292,0.567 q 0.051,0.2 0.058,0.436 a 2.521,2.521 0 0 1 0.001,0.069 z m -9.013,0.596 a 0.901,0.901 0 0 0 0.126,0.232 q 0.217,0.284 0.639,0.284 a 0.998,0.998 0 0 0 0.263,-0.032 0.694,0.694 0 0 0 0.378,-0.251 0.922,0.922 0 0 0 0.143,-0.28 q 0.075,-0.229 0.075,-0.549 0,-0.347 -0.09,-0.587 a 0.885,0.885 0 0 0 -0.128,-0.235 0.707,0.707 0 0 0 -0.44,-0.262 1.083,1.083 0 0 0 -0.206,-0.019 1.022,1.022 0 0 0 -0.255,0.03 0.684,0.684 0 0 0 -0.382,0.247 q -0.154,0.199 -0.198,0.54 a 2.27,2.27 0 0 0 -0.017,0.286 q 0,0.352 0.092,0.596 z m 6.943,0 a 0.901,0.901 0 0 0 0.126,0.232 q 0.218,0.284 0.639,0.284 a 0.998,0.998 0 0 0 0.264,-0.032 0.694,0.694 0 0 0 0.377,-0.251 0.922,0.922 0 0 0 0.143,-0.28 q 0.076,-0.229 0.076,-0.549 0,-0.347 -0.09,-0.587 a 0.885,0.885 0 0 0 -0.129,-0.235 0.707,0.707 0 0 0 -0.44,-0.262 1.083,1.083 0 0 0 -0.206,-0.019 1.022,1.022 0 0 0 -0.254,0.03 0.684,0.684 0 0 0 -0.382,0.247 q -0.155,0.199 -0.198,0.54 a 2.27,2.27 0 0 0 -0.017,0.286 q 0,0.352 0.091,0.596 z m -9.312,-1.699 a 1.207,1.207 0 0 0 -0.234,0.021 q -0.262,0.052 -0.4,0.232 a 0.735,0.735 0 0 0 -0.106,0.202 q -0.072,0.202 -0.085,0.508 a 3.31,3.31 0 0 0 -0.003,0.14 2.84,2.84 0 0 0 0.014,0.293 q 0.031,0.296 0.13,0.477 a 0.648,0.648 0 0 0 0.055,0.085 0.623,0.623 0 0 0 0.316,0.213 q 0.141,0.044 0.323,0.044 a 0.856,0.856 0 0 0 0.244,-0.032 0.618,0.618 0 0 0 0.346,-0.256 0.986,0.986 0 0 0 0.123,-0.264 q 0.038,-0.125 0.056,-0.277 a 2.462,2.462 0 0 0 0.016,-0.288 2.538,2.538 0 0 0 -0.016,-0.29 q -0.036,-0.316 -0.159,-0.507 a 0.713,0.713 0 0 0 -0.02,-0.029 0.626,0.626 0 0 0 -0.398,-0.252 0.994,0.994 0 0 0 -0.202,-0.02 z"
       id="bottom_labelLayer"
       stroke="#777777"
       fill="#777777"
       style="fill:#777777;stroke:#777777"
       vector-effect="non-scaling-stroke" />
    <rect
       style="fill:none;stroke:#ff0000;stroke-width:0.0840648;stroke-linejoin:round;stroke-dasharray:none"
       id="rect33421"
       width="21.715937"
       height="0.71593517"
       x="77.179291"
       y="53.606606"
       ry="0.17842655"
       rx="0.178" />
  </g>
</svg>
