<?xml version="1.0" encoding="UTF-8" standalone="no"?>
<svg
   viewBox="0 0 793.7007874015749 1122.5196850393702"
   width="793.7007874015749"
   height="1122.5196850393702"
   version="1.1"
   id="svg52255"
   sodipodi:docname="FullSizeLid.svg"
   inkscape:version="1.2.2 (b0a84865, 2022-12-01)"
   xmlns:inkscape="http://www.inkscape.org/namespaces/inkscape"
   xmlns:sodipodi="http://sodipodi.sourceforge.net/DTD/sodipodi-0.dtd"
   xmlns="http://www.w3.org/2000/svg"
   xmlns:svg="http://www.w3.org/2000/svg">
  <sodipodi:namedview
     id="namedview52257"
     pagecolor="#ffffff"
     bordercolor="#000000"
     borderopacity="0.25"
     inkscape:showpageshadow="2"
     inkscape:pageopacity="0.0"
     inkscape:pagecheckerboard="0"
     inkscape:deskcolor="#d1d1d1"
     showgrid="false"
     inkscape:zoom="0.28842047"
     inkscape:cx="-301.64294"
     inkscape:cy="270.4385"
     inkscape:window-width="1390"
     inkscape:window-height="916"
     inkscape:window-x="2107"
     inkscape:window-y="213"
     inkscape:window-maximized="0"
     inkscape:current-layer="g52253"
     showguides="false" />
  <desc
     id="desc51959">FullSizeLid.dxf - scale = 1.000000, origin = (0.000000, 0.000000), method = manual</desc>
  <defs
     id="defs51973">
    <marker
       id="DistanceX"
       orient="auto"
       refX="0.0"
       refY="0.0"
       style="overflow:visible">
      <path
         d="M 3,-3 L -3,3 M 0,-5 L  0,5"
         style="stroke:#000000; stroke-width:0.5"
         id="path51961" />
    </marker>
    <pattern
       id="Hatch"
       patternUnits="userSpaceOnUse"
       width="8"
       height="8"
       x="0"
       y="0">
      <path
         d="M8 4 l-4,4"
         stroke="#000000"
         stroke-width="0.25"
         linecap="square"
         id="path51964" />
      <path
         d="M6 2 l-4,4"
         stroke="#000000"
         stroke-width="0.25"
         linecap="square"
         id="path51966" />
      <path
         d="M4 0 l-4,4"
         stroke="#000000"
         stroke-width="0.25"
         linecap="square"
         id="path51968" />
    </pattern>
    <symbol
       id="*MODEL_SPACE" />
    <symbol
       id="*PAPER_SPACE" />
    <clipPath
       clipPathUnits="userSpaceOnUse"
       id="clipPath12800-0-5-4-6">
      <path
         d="M 0,128 H 128 V 0 H 0 Z"
         id="path12798-0-8-4-3" />
    </clipPath>
    <clipPath
       clipPathUnits="userSpaceOnUse"
       id="clipPath12800-0-5-4-6-1">
      <path
         d="M 0,128 H 128 V 0 H 0 Z"
         id="path12798-0-8-4-3-3" />
    </clipPath>
    <clipPath
       clipPathUnits="userSpaceOnUse"
       id="clipPath12800-0-5-4-6-2">
      <path
         d="M 0,128 H 128 V 0 H 0 Z"
         id="path12798-0-8-4-3-33" />
    </clipPath>
  </defs>
  <g
     inkscape:groupmode="layer"
     inkscape:label="0"
     id="g52253">
    <path
       d="m 1266.4861,-368.45211 h 317.4803 a 30.23622,30.23622 0 0 1 30.2362,30.23622 v 98.26771 a 30.23622,30.23622 0 0 1 -30.2362,30.23622 h -317.4803 a 30.23622,30.23622 0 0 1 -30.2363,-30.23622 v -98.26771 a 30.23622,30.23622 0 0 1 30.2363,-30.23622 z"
       style="fill:none;stroke:#ff0000"
       id="path51981" />
    <path
       d="m 1274.0451,-255.06629 h 75.5906 v -11.33858 h -75.5906 z"
       style="fill:none;stroke:#ff0000"
       id="path51985" />
    <path
       d="m 1274.0451,-243.7277 h 75.5906 v 11.33858 h -75.5906 z"
       style="fill:none;stroke:#ff0000"
       id="path51991" />
    <path
       d="m 1576.4073,-255.06629 h -75.5905 v -11.33858 h 75.5905 z"
       style="fill:none;stroke:#ff0000"
       id="path51993" />
    <path
       d="m 1576.4073,-243.7277 h -75.5905 v 11.33858 h 75.5905 z"
       style="fill:none;stroke:#ff0000"
       id="path51995" />
    <path
       d="m 1289.1632,-345.77495 h 272.126 a 15.11811,15.11811 0 0 1 15.1181,15.11811 v 26.4567 a 15.11811,15.11811 0 0 1 -15.1181,15.11811 h -272.126 a 15.11811,15.11811 0 0 1 -15.1181,-15.11811 v -26.4567 a 15.11811,15.11811 0 0 1 15.1181,-15.11811 z"
       style="fill:none;stroke:#ff0000"
       id="path51997" />
    <path
       d="m 1260.7307,-138.7359 h 37.7953 a 18.897638,18.897638 0 0 1 18.8976,18.89764 V -6.4524317 A 18.897638,18.897638 0 0 1 1298.526,12.445206 h -37.7953 A 18.897638,18.897638 0 0 1 1241.8331,-6.4524317 V -119.83826 a 18.897638,18.897638 0 0 1 18.8976,-18.89764 z"
       style="fill:none;stroke:#ff0000"
       id="path52003" />
    <path
       d="m 1393.0142,12.445206 a 18.897638,18.897638 0 0 0 18.8976,-18.8976377 V -119.83826 a 18.897638,18.897638 0 0 0 -18.8976,-18.89764 h -37.7953 a 18.897638,18.897638 0 0 0 -18.8976,18.89764 V -6.4524317 a 18.897638,18.897638 0 0 0 18.8976,18.8976377 z"
       style="fill:none;stroke:#ff0000"
       id="path52005" />
    <path
       d="M 1487.5024,12.445206 A 18.897638,18.897638 0 0 0 1506.4,-6.4524317 V -119.83826 a 18.897638,18.897638 0 0 0 -18.8976,-18.89764 h -37.7953 a 18.897638,18.897638 0 0 0 -18.8976,18.89764 V -6.4524317 a 18.897638,18.897638 0 0 0 18.8976,18.8976377 z"
       style="fill:none;stroke:#ff0000"
       id="path52007" />
    <path
       d="m 1581.9906,12.445206 a 18.897638,18.897638 0 0 0 18.8976,-18.8976377 V -119.83826 a 18.897638,18.897638 0 0 0 -18.8976,-18.89764 h -37.7953 a 18.897638,18.897638 0 0 0 -18.8977,18.89764 V -6.4524317 a 18.897638,18.897638 0 0 0 18.8977,18.8976377 z"
       style="fill:none;stroke:#ff0000"
       id="path52009" />
    <path
       style="fill:none;stroke:#ff0000"
       d="M 966.438 -16.5921 L 966.438 44.3391"
       id="path52041" />
    <path
       style="fill:none;stroke:#ff0000"
       d="M 966.438 71.5968 L 966.438 132.528"
       id="path52043" />
    <path
       style="fill:none;stroke:#ff0000"
       d="M 966.438 159.786 L 966.438 220.717"
       id="path52045" />
    <path
       style="fill:none;stroke:#ff0000"
       d="M 966.438 247.975 L 966.438 308.906"
       id="path52047" />
    <path
       style="fill:none;stroke:#ff0000"
       d="M 966.438 336.164 L 966.438 397.095"
       id="path52049" />
    <path
       style="fill:none;stroke:#ff0000"
       d="M 966.438 424.353 L 966.438 485.284"
       id="path52051" />
    <path
       style="fill:none;stroke:#ff0000"
       d="M 966.438 512.542 L 966.438 573.473"
       id="path52053" />
    <path
       style="fill:none;stroke:#ff0000"
       d="M 966.438 600.731 L 966.438 661.662"
       id="path52055" />
    <path
       style="fill:none;stroke:#ff0000"
       d="M 966.438 688.92 L 966.438 749.851"
       id="path52057" />
    <path
       style="fill:none;stroke:#ff0000"
       d="M 966.438 777.109 L 966.438 838.04"
       id="path52059" />
    <path
       style="fill:none;stroke:#ff0000"
       d="M 928.643 -209.836 L 928.643 -77.4079"
       id="path52061" />
    <path
       style="fill:none;stroke:#ff0000"
       d="M 928.643 -39.7574 L 928.643 92.6708"
       id="path52063" />
    <path
       style="fill:none;stroke:#ff0000"
       d="M 928.643 130.321 L 928.643 262.75"
       id="path52065" />
    <path
       style="fill:none;stroke:#ff0000"
       d="M 928.643 300.4 L 928.643 432.828"
       id="path52067" />
    <path
       style="fill:none;stroke:#ff0000"
       d="M 928.643 470.479 L 928.643 602.907"
       id="path52069" />
    <path
       style="fill:none;stroke:#ff0000"
       d="M 928.643 640.558 L 928.643 772.986"
       id="path52071" />
    <path
       style="fill:none;stroke:#ff0000"
       d="M 928.643 810.636 L 928.643 943.065"
       id="path52073" />
    <path
       style="fill:none;stroke:#ff0000"
       d="M 853.052 300.4 L 853.052 432.828"
       id="path52075" />
    <path
       style="fill:none;stroke:#ff0000"
       d="M 853.052 130.321 L 853.052 262.75"
       id="path52077" />
    <path
       style="fill:none;stroke:#ff0000"
       d="M 890.848 -16.5921 L 890.848 44.3391"
       id="path52079" />
    <path
       style="fill:none;stroke:#ff0000"
       d="M 853.052 470.479 L 853.052 602.907"
       id="path52081" />
    <path
       style="fill:none;stroke:#ff0000"
       d="M 890.848 336.164 L 890.848 397.095"
       id="path52083" />
    <path
       style="fill:none;stroke:#ff0000"
       d="M 890.848 71.5968 L 890.848 132.528"
       id="path52085" />
    <path
       style="fill:none;stroke:#ff0000"
       d="M 853.052 640.558 L 853.052 772.986"
       id="path52087" />
    <path
       style="fill:none;stroke:#ff0000"
       d="M 853.052 -209.836 L 853.052 -77.4079"
       id="path52089" />
    <path
       style="fill:none;stroke:#ff0000"
       d="M 890.848 688.92 L 890.848 749.851"
       id="path52091" />
    <path
       style="fill:none;stroke:#ff0000"
       d="M 853.052 810.636 L 853.052 943.065"
       id="path52093" />
    <path
       style="fill:none;stroke:#ff0000"
       d="M 890.848 512.542 L 890.848 573.473"
       id="path52095" />
    <path
       style="fill:none;stroke:#ff0000"
       d="M 890.848 424.353 L 890.848 485.284"
       id="path52097" />
    <path
       style="fill:none;stroke:#ff0000"
       d="M 890.848 777.109 L 890.848 838.04"
       id="path52099" />
    <path
       style="fill:none;stroke:#ff0000"
       d="M 890.848 247.975 L 890.848 308.906"
       id="path52101" />
    <path
       style="fill:none;stroke:#ff0000"
       d="M 890.848 600.731 L 890.848 661.662"
       id="path52103" />
    <path
       style="fill:none;stroke:#ff0000"
       d="M 853.052 -39.7574 L 853.052 92.6708"
       id="path52105" />
    <path
       style="fill:none;stroke:#ff0000"
       d="M 890.848 159.786 L 890.848 220.717"
       id="path52107" />
    <path
       style="fill:none;stroke:#ff0000"
       d="M 815.257 -16.5921 L 815.257 44.3391"
       id="path52109" />
    <path
       style="fill:none;stroke:#ff0000"
       d="M 815.257 71.5968 L 815.257 132.528"
       id="path52111" />
    <path
       style="fill:none;stroke:#ff0000"
       d="M 815.257 159.786 L 815.257 220.717"
       id="path52113" />
    <path
       style="fill:none;stroke:#ff0000"
       d="M 815.257 247.975 L 815.257 308.906"
       id="path52115" />
    <path
       style="fill:none;stroke:#ff0000"
       d="M 815.257 336.164 L 815.257 397.095"
       id="path52117" />
    <path
       style="fill:none;stroke:#ff0000"
       d="M 815.257 424.353 L 815.257 485.284"
       id="path52119" />
    <path
       style="fill:none;stroke:#ff0000"
       d="M 815.257 512.542 L 815.257 573.473"
       id="path52121" />
    <path
       style="fill:none;stroke:#ff0000"
       d="M 815.257 600.731 L 815.257 661.662"
       id="path52123" />
    <path
       style="fill:none;stroke:#ff0000"
       d="M 815.257 688.92 L 815.257 749.851"
       id="path52125" />
    <path
       style="fill:none;stroke:#ff0000"
       d="M 815.257 777.109 L 815.257 838.04"
       id="path52127" />
    <path
       style="fill:none;stroke:#ff0000"
       d="M -890.848 -16.5921 L -890.848 44.3391"
       id="path52131" />
    <path
       style="fill:none;stroke:#ff0000"
       d="M -815.257 -16.5921 L -815.257 44.3391"
       id="path52133" />
    <path
       style="fill:none;stroke:#ff0000"
       d="M -815.257 600.731 L -815.257 661.662"
       id="path52135" />
    <path
       style="fill:none;stroke:#ff0000"
       d="M -815.257 512.542 L -815.257 573.473"
       id="path52137" />
    <path
       style="fill:none;stroke:#ff0000"
       d="M -853.052 470.479 L -853.052 602.907"
       id="path52141" />
    <path
       style="fill:none;stroke:#ff0000"
       d="M -853.052 640.558 L -853.052 772.986"
       id="path52143" />
    <path
       style="fill:none;stroke:#ff0000"
       d="M -890.848 600.731 L -890.848 661.662"
       id="path52145" />
    <path
       style="fill:none;stroke:#ff0000"
       d="M -966.438 247.975 L -966.438 308.906"
       id="path52147" />
    <path
       style="fill:none;stroke:#ff0000"
       d="M -853.052 130.321 L -853.052 262.75"
       id="path52155" />
    <path
       style="fill:none;stroke:#ff0000"
       d="M -928.643 -209.836 L -928.643 -77.4079"
       id="path52157" />
    <path
       style="fill:none;stroke:#ff0000"
       d="M -966.438 336.164 L -966.438 397.095"
       id="path52159" />
    <path
       style="fill:none;stroke:#ff0000"
       d="M -966.438 424.353 L -966.438 485.284"
       id="path52161" />
    <path
       style="fill:none;stroke:#ff0000"
       d="M -815.257 688.92 L -815.257 749.851"
       id="path52171" />
    <path
       style="fill:none;stroke:#ff0000"
       d="M -890.848 777.109 L -890.848 838.04"
       id="path52173" />
    <path
       style="fill:none;stroke:#ff0000"
       d="M -890.848 512.542 L -890.848 573.473"
       id="path52177" />
    <path
       style="fill:none;stroke:#ff0000"
       d="M -815.257 424.353 L -815.257 485.284"
       id="path52179" />
    <path
       style="fill:none;stroke:#ff0000"
       d="M -853.052 810.636 L -853.052 943.065"
       id="path52181" />
    <path
       style="fill:none;stroke:#ff0000"
       d="M -966.438 71.5968 L -966.438 132.528"
       id="path52185" />
    <path
       style="fill:none;stroke:#ff0000"
       d="M -928.643 300.4 L -928.643 432.828"
       id="path52187" />
    <path
       style="fill:none;stroke:#ff0000"
       d="M -815.257 336.164 L -815.257 397.095"
       id="path52189" />
    <path
       style="fill:none;stroke:#ff0000"
       d="M -928.643 130.321 L -928.643 262.75"
       id="path52193" />
    <path
       style="fill:none;stroke:#ff0000"
       d="M -853.052 -39.7574 L -853.052 92.6708"
       id="path52195" />
    <path
       style="fill:none;stroke:#ff0000"
       d="M -890.848 336.164 L -890.848 397.095"
       id="path52197" />
    <path
       style="fill:none;stroke:#ff0000"
       d="M -966.438 -16.5921 L -966.438 44.3391"
       id="path52199" />
    <path
       style="fill:none;stroke:#ff0000"
       d="M -853.052 -209.836 L -853.052 -77.4079"
       id="path52205" />
    <path
       style="fill:none;stroke:#ff0000"
       d="M -890.848 71.5968 L -890.848 132.528"
       id="path52207" />
    <path
       style="fill:none;stroke:#ff0000"
       d="M -815.257 247.975 L -815.257 308.906"
       id="path52211" />
    <path
       style="fill:none;stroke:#ff0000"
       d="M -815.257 159.786 L -815.257 220.717"
       id="path52213" />
    <path
       style="fill:none;stroke:#ff0000"
       d="M -966.438 159.786 L -966.438 220.717"
       id="path52215" />
    <path
       style="fill:none;stroke:#ff0000"
       d="M -815.257 71.5968 L -815.257 132.528"
       id="path52217" />
    <path
       style="fill:none;stroke:#ff0000"
       d="M -890.848 159.786 L -890.848 220.717"
       id="path52219" />
    <path
       style="fill:none;stroke:#ff0000"
       d="M -928.643 -39.7574 L -928.643 92.6708"
       id="path52221" />
    <path
       style="fill:none;stroke:#ff0000"
       d="M -890.848 424.353 L -890.848 485.284"
       id="path52223" />
    <path
       style="fill:none;stroke:#ff0000"
       d="M -928.643 470.479 L -928.643 602.907"
       id="path52225" />
    <path
       style="fill:none;stroke:#ff0000"
       d="M -853.052 300.4 L -853.052 432.828"
       id="path52229" />
    <path
       style="fill:none;stroke:#ff0000"
       d="M -966.438 777.109 L -966.438 838.04"
       id="path52231" />
    <path
       style="fill:none;stroke:#ff0000"
       d="M -966.438 512.542 L -966.438 573.473"
       id="path52235" />
    <path
       id="path52237"
       style="fill:none;stroke:#ff0000"
       d="m -1162.2,480 h 28.34 M 0,1122.52 c -360.31329,0.485 -720.62662,0.172 -1080.94,0 m -90.71,-859.843 v 207.874 m 90.7051,-859.84234 c -29.2233,-1e-5 -52.9134,23.69013 -52.9134,52.91339 m -28.3464,589.6063 c -5.2184,1e-5 -9.4488,4.23038 -9.4488,9.44881 m 37.7935,-9.44916 v -589.606 m 0,1405.988 V 480 m 0,589.6113 c 0,29.2233 23.6901,52.9134 52.9134,52.9134 M -1133.86,253.228 h -28.34 m -9.4535,217.32318 c 0,5.21843 4.2304,9.44881 9.4488,9.44882 m 81.2647,-869.291 H 0 M 0,1122.52 c 360.31325,-0.6881 720.62658,-0.2416 1080.94,0 m 52.92,-869.292 v -589.606 m 0,1405.988 V 480 m 28.3447,0 c 5.2184,-10e-6 9.4488,-4.23039 9.4488,-9.44882 m 0,-207.87402 c 0,-5.21843 -4.2304,-9.4488 -9.4488,-9.44881 M 1162.2,480 h -28.34 m 37.79,-217.323 v 207.874 m -37.79,-217.323 h 28.34 m -81.2551,869.2917 c 29.2233,0 52.9134,-23.6901 52.9134,-52.9134 m 0,-1405.98425 c 0,-29.22326 -23.6901,-52.9134 -52.9134,-52.91339 m 0,3.4e-4 H 0"
       sodipodi:nodetypes="cccccccccccccccccccccccccccccccccccccccccccc" />
    <path
       style="fill:none;stroke:#ff0000"
       d="M -815.257 777.109 L -815.257 838.04"
       id="path52239" />
    <path
       style="fill:none;stroke:#ff0000"
       d="M -890.848 688.92 L -890.848 749.851"
       id="path52241" />
    <path
       style="fill:none;stroke:#ff0000"
       d="M -966.438 600.731 L -966.438 661.662"
       id="path52243" />
    <path
       style="fill:none;stroke:#ff0000"
       d="M -928.643 810.636 L -928.643 943.065"
       id="path52245" />
    <path
       style="fill:none;stroke:#ff0000"
       d="M -966.438 688.92 L -966.438 749.851"
       id="path52247" />
    <path
       style="fill:none;stroke:#ff0000"
       d="M -928.643 640.558 L -928.643 772.986"
       id="path52249" />
    <path
       style="fill:none;stroke:#ff0000"
       d="M -890.848 247.975 L -890.848 308.906"
       id="path52251" />
    <g
       id="g12794-9-3-3-4"
       transform="matrix(-1.6311942,0,0,-1.6311942,126.09001,1300.768)">
      <g
         id="g12796-4-2-6-3"
         clip-path="url(#clipPath12800-0-5-4-6)"
         transform="translate(10.392239,126.82499)">
        <g
           id="g12802-2-3-0-3"
           transform="translate(89.2276,103.9526)"
           style="fill:#000000">
          <path
             d="M 0,0 0.002,0.002 -1.054,1.853 -2.238,1.332 -2.169,1.053 C -2.387,1.016 -2.608,0.954 -2.834,0.838 -9.012,-2.36 -13.046,-9.587 -11.439,-16.32 c 1.1,-4.611 -0.5,-7.962 -1.224,-9.29 -1.567,-2.875 -3.505,-5.633 -4.345,-8.843 -1.018,-3.887 0.553,-8.719 1.822,-12.394 2.56,-7.409 0.308,-13.265 -3.062,-13.54 -3.345,-0.273 -2.24,9.87 -2.594,12.835 -0.267,2.234 -2.355,8.227 -2.029,11.027 0.423,3.63 0.924,5.05 1.453,7.255 0.694,2.891 2.013,5.482 0.7,9.797 -0.08,0.263 -0.301,0.902 -0.642,1.553 0,0 0.006,0.004 0.006,0.004 l -0.192,0.336 c -0.012,0.02 -0.022,0.04 -0.034,0.06 l -1.005,1.763 -0.437,-0.446 c -0.165,0.053 -0.335,0.091 -0.517,0.081 -1.669,-0.086 -2.165,-2.217 -2.021,-3.352 0.902,-7.143 -5.908,-11.244 -7.731,-17.739 -1.051,-3.745 -0.022,-7.485 -0.38,-11.279 -0.309,-3.265 -0.677,-7.765 -3.522,-9.46 -3.858,-2.299 -1.672,7.692 0.306,14.497 1.707,5.871 -0.181,9.776 -0.249,11.614 -0.132,3.555 0.817,6.225 2.434,9.346 0.91,1.756 2.053,2.67 2.563,4.594 0.558,2.11 0.558,4.318 0.476,6.482 -0.125,3.273 -0.545,7.266 2.108,9.718 0.794,0.735 0.791,1.646 0.382,2.363 l 0.002,0.002 -1.12,1.962 v -0.96 c -0.693,0.302 -1.529,0.267 -2.24,-0.391 -2.677,-2.475 -3.439,-6.185 -3.436,-9.696 10e-4,-2.16 0.257,-4.324 0.086,-6.482 -0.159,-2.007 -0.952,-3.758 -1.868,-5.518 -1.906,-3.659 -3.413,-7.406 -3.598,-11.582 -0.179,-4.029 1.992,-8.878 0.803,-12.836 -0.64,-2.128 -1.682,-4.109 -2.232,-6.296 -0.525,-2.088 -0.873,-4.273 -0.98,-6.425 -0.023,-0.465 -0.009,-0.935 0.035,-1.399 h -0.616 l 1.093,-1.912 c 0.815,-1.782 2.83,-2.714 4.732,-2.522 4.022,0.405 6.174,4.832 7.49,8.153 1.547,3.903 1.757,7.906 1.466,12.044 -0.164,2.332 -0.196,5.763 0.726,7.933 0.503,1.186 2.302,2.998 3.494,5.308 -1.005,-2.49 -2.027,-6.608 -1.068,-11.999 0.419,-2.359 1.797,-6.11 1.77,-9.301 -0.024,-2.797 -0.801,-5.608 -0.255,-8.357 h -0.472 l 1.205,-2.13 c 0.028,-0.053 0.058,-0.102 0.087,-0.153 l 0.182,-0.323 0.005,0.023 c 1.057,-1.689 2.777,-2.782 4.927,-2.541 3.96,0.445 9.958,5.436 7.129,19.77 -0.504,2.552 -2.258,5.703 -2.07,8.349 0.343,4.814 5.697,9.768 6.698,13.048 0.635,2.082 0.624,4.156 0.221,6.281 -0.374,1.978 -0.678,3.838 -0.251,5.841 0.795,3.731 3.124,6.894 6.518,8.651 C 0.515,-2.163 0.562,-0.913 0,0"
             style="fill:#000000;fill-opacity:1;fill-rule:nonzero;stroke:none"
             id="path12804-4-3-8-2" />
        </g>
        <g
           id="g12806-0-2-9-9"
           transform="translate(85.3013,106.7017)">
          <path
             d="m 0,0 c -6.178,-3.197 -10.212,-10.425 -8.605,-17.158 1.1,-4.61 -0.5,-7.961 -1.224,-9.289 -1.567,-2.876 -3.505,-5.634 -4.345,-8.843 -1.018,-3.887 0.552,-8.719 1.822,-12.395 2.559,-7.408 -0.592,-14.406 -3.965,-14.636 -1.097,-0.075 -1.712,2.648 -1.752,3.495 -0.144,2.958 0.014,6.102 -0.34,9.068 -0.267,2.233 -2.217,7.631 -1.891,10.431 0.423,3.631 1.186,7.015 1.716,9.22 0.694,2.89 2.013,5.481 0.7,9.796 -0.193,0.632 -1.151,3.438 -2.821,3.352 -1.669,-0.086 -2.165,-2.217 -2.021,-3.353 0.902,-7.142 -5.908,-11.243 -7.731,-17.738 -1.051,-3.746 -0.022,-7.486 -0.38,-11.28 -0.309,-3.264 -1.492,-6.843 -3.522,-9.459 -0.373,-0.481 -1.766,-2.083 -2.338,-0.984 -0.154,0.297 -0.119,0.653 -0.08,0.986 0.273,2.302 0.513,4.647 1.104,6.895 0.548,2.081 1.421,4.528 1.893,6.712 0.473,2.184 0.707,3.778 0.406,5.566 -0.304,1.803 -0.869,3.545 -0.937,5.383 -0.132,3.555 0.992,6.925 2.609,10.045 0.91,1.757 1.887,3.523 2.397,5.448 0.558,2.109 0.558,4.317 0.476,6.481 -0.125,3.274 -0.545,7.266 2.107,9.719 1.993,1.843 -0.988,4.813 -2.975,2.976 -2.677,-2.475 -3.439,-6.186 -3.436,-9.697 0.001,-2.159 0.257,-4.323 0.086,-6.482 -0.159,-2.006 -0.952,-3.758 -1.868,-5.517 -1.906,-3.66 -3.413,-7.407 -3.598,-11.582 -0.179,-4.03 1.992,-8.878 0.802,-12.837 -0.639,-2.128 -1.682,-4.109 -2.231,-6.296 -0.525,-2.088 -0.874,-4.272 -0.98,-6.425 -0.055,-1.126 0.042,-2.285 0.511,-3.311 0.816,-1.781 2.831,-2.714 4.733,-2.522 4.022,0.406 6.174,4.833 7.49,8.154 1.547,3.902 1.757,7.905 1.466,12.043 -0.164,2.333 0.007,4.443 0.929,6.614 0.836,1.97 4.694,9.328 4.694,9.328 0,0 -4.103,-5.527 -2.472,-14.699 0.42,-2.36 1.798,-6.11 1.771,-9.301 -0.028,-3.247 -1.08,-6.514 0.113,-9.679 0.898,-2.384 2.915,-4.1 5.566,-3.802 3.96,0.445 9.957,5.435 7.129,19.769 -0.504,2.553 -2.258,5.704 -2.07,8.35 0.343,4.814 5.697,9.768 6.697,13.047 0.636,2.083 0.625,4.157 0.222,6.282 -0.375,1.977 -0.678,3.838 -0.251,5.84 0.795,3.731 3.124,6.895 6.518,8.651 C 4.53,-2.389 2.404,1.244 0,0"
             style="fill:#ffffff;fill-opacity:1;fill-rule:nonzero;stroke:none"
             id="path12808-2-1-7-7" />
        </g>
        <g
           id="g12810-9-9-4-9"
           transform="translate(85.3013,106.7017)"
           style="stroke:#000000">
          <path
             d="m 0,0 c -6.178,-3.197 -10.212,-10.425 -8.605,-17.158 1.1,-4.61 -0.5,-7.961 -1.224,-9.289 -1.567,-2.876 -3.505,-5.634 -4.345,-8.843 -1.018,-3.887 0.552,-8.719 1.822,-12.395 2.559,-7.408 -0.592,-14.406 -3.965,-14.636 -1.097,-0.075 -1.712,2.648 -1.752,3.495 -0.144,2.958 0.014,6.102 -0.34,9.068 -0.267,2.233 -2.217,7.631 -1.891,10.431 0.423,3.631 1.186,7.015 1.716,9.22 0.694,2.89 2.013,5.481 0.7,9.796 -0.193,0.632 -1.151,3.438 -2.821,3.352 -1.669,-0.086 -2.165,-2.217 -2.021,-3.353 0.902,-7.142 -5.908,-11.243 -7.731,-17.738 -1.051,-3.746 -0.022,-7.486 -0.38,-11.28 -0.309,-3.264 -1.492,-6.843 -3.522,-9.459 -0.373,-0.481 -1.766,-2.083 -2.338,-0.984 -0.154,0.297 -0.119,0.653 -0.08,0.986 0.273,2.302 0.513,4.647 1.104,6.895 0.548,2.081 1.421,4.528 1.893,6.712 0.473,2.184 0.707,3.778 0.406,5.566 -0.304,1.803 -0.869,3.545 -0.937,5.383 -0.132,3.555 0.992,6.925 2.609,10.045 0.91,1.757 1.887,3.523 2.397,5.448 0.558,2.109 0.558,4.317 0.476,6.481 -0.125,3.274 -0.545,7.266 2.107,9.719 1.993,1.843 -0.988,4.813 -2.975,2.976 -2.677,-2.475 -3.439,-6.186 -3.436,-9.697 0.001,-2.159 0.257,-4.323 0.086,-6.482 -0.159,-2.006 -0.952,-3.758 -1.868,-5.517 -1.906,-3.66 -3.413,-7.407 -3.598,-11.582 -0.179,-4.03 1.992,-8.878 0.802,-12.837 -0.639,-2.128 -1.682,-4.109 -2.231,-6.296 -0.525,-2.088 -0.874,-4.272 -0.98,-6.425 -0.055,-1.126 0.042,-2.285 0.511,-3.311 0.816,-1.781 2.831,-2.714 4.733,-2.522 4.022,0.406 6.174,4.833 7.49,8.154 1.547,3.902 1.757,7.905 1.466,12.043 -0.164,2.333 0.007,4.443 0.929,6.614 0.836,1.97 4.694,9.328 4.694,9.328 0,0 -4.103,-5.527 -2.472,-14.699 0.42,-2.36 1.798,-6.11 1.771,-9.301 -0.028,-3.247 -1.08,-6.514 0.113,-9.679 0.898,-2.384 2.915,-4.1 5.566,-3.802 3.96,0.445 9.957,5.435 7.129,19.769 -0.504,2.553 -2.258,5.704 -2.07,8.35 0.343,4.814 5.697,9.768 6.697,13.047 0.636,2.083 0.625,4.157 0.222,6.282 -0.375,1.977 -0.678,3.838 -0.251,5.84 0.795,3.731 3.124,6.895 6.518,8.651 C 4.53,-2.389 2.404,1.244 0,0 Z"
             style="fill:none;stroke:#000000;stroke-width:0.25;stroke-linecap:round;stroke-linejoin:round;stroke-miterlimit:10;stroke-dasharray:none;stroke-opacity:1"
             id="path12812-7-1-5-7" />
        </g>
      </g>
    </g>
    <g
       id="g12794-9-3-3-4-5"
       transform="matrix(1.6311942,0,0,1.6311942,-126.09001,-564.00501)">
      <g
         id="g12796-4-2-6-3-1"
         clip-path="url(#clipPath12800-0-5-4-6-2)"
         transform="translate(10.392239,126.82499)">
        <g
           id="g12802-2-3-0-3-5"
           transform="translate(89.2276,103.9526)"
           style="fill:#000000">
          <path
             d="M 0,0 0.002,0.002 -1.054,1.853 -2.238,1.332 -2.169,1.053 C -2.387,1.016 -2.608,0.954 -2.834,0.838 -9.012,-2.36 -13.046,-9.587 -11.439,-16.32 c 1.1,-4.611 -0.5,-7.962 -1.224,-9.29 -1.567,-2.875 -3.505,-5.633 -4.345,-8.843 -1.018,-3.887 0.553,-8.719 1.822,-12.394 2.56,-7.409 0.308,-13.265 -3.062,-13.54 -3.345,-0.273 -2.24,9.87 -2.594,12.835 -0.267,2.234 -2.355,8.227 -2.029,11.027 0.423,3.63 0.924,5.05 1.453,7.255 0.694,2.891 2.013,5.482 0.7,9.797 -0.08,0.263 -0.301,0.902 -0.642,1.553 0,0 0.006,0.004 0.006,0.004 l -0.192,0.336 c -0.012,0.02 -0.022,0.04 -0.034,0.06 l -1.005,1.763 -0.437,-0.446 c -0.165,0.053 -0.335,0.091 -0.517,0.081 -1.669,-0.086 -2.165,-2.217 -2.021,-3.352 0.902,-7.143 -5.908,-11.244 -7.731,-17.739 -1.051,-3.745 -0.022,-7.485 -0.38,-11.279 -0.309,-3.265 -0.677,-7.765 -3.522,-9.46 -3.858,-2.299 -1.672,7.692 0.306,14.497 1.707,5.871 -0.181,9.776 -0.249,11.614 -0.132,3.555 0.817,6.225 2.434,9.346 0.91,1.756 2.053,2.67 2.563,4.594 0.558,2.11 0.558,4.318 0.476,6.482 -0.125,3.273 -0.545,7.266 2.108,9.718 0.794,0.735 0.791,1.646 0.382,2.363 l 0.002,0.002 -1.12,1.962 v -0.96 c -0.693,0.302 -1.529,0.267 -2.24,-0.391 -2.677,-2.475 -3.439,-6.185 -3.436,-9.696 10e-4,-2.16 0.257,-4.324 0.086,-6.482 -0.159,-2.007 -0.952,-3.758 -1.868,-5.518 -1.906,-3.659 -3.413,-7.406 -3.598,-11.582 -0.179,-4.029 1.992,-8.878 0.803,-12.836 -0.64,-2.128 -1.682,-4.109 -2.232,-6.296 -0.525,-2.088 -0.873,-4.273 -0.98,-6.425 -0.023,-0.465 -0.009,-0.935 0.035,-1.399 h -0.616 l 1.093,-1.912 c 0.815,-1.782 2.83,-2.714 4.732,-2.522 4.022,0.405 6.174,4.832 7.49,8.153 1.547,3.903 1.757,7.906 1.466,12.044 -0.164,2.332 -0.196,5.763 0.726,7.933 0.503,1.186 2.302,2.998 3.494,5.308 -1.005,-2.49 -2.027,-6.608 -1.068,-11.999 0.419,-2.359 1.797,-6.11 1.77,-9.301 -0.024,-2.797 -0.801,-5.608 -0.255,-8.357 h -0.472 l 1.205,-2.13 c 0.028,-0.053 0.058,-0.102 0.087,-0.153 l 0.182,-0.323 0.005,0.023 c 1.057,-1.689 2.777,-2.782 4.927,-2.541 3.96,0.445 9.958,5.436 7.129,19.77 -0.504,2.552 -2.258,5.703 -2.07,8.349 0.343,4.814 5.697,9.768 6.698,13.048 0.635,2.082 0.624,4.156 0.221,6.281 -0.374,1.978 -0.678,3.838 -0.251,5.841 0.795,3.731 3.124,6.894 6.518,8.651 C 0.515,-2.163 0.562,-0.913 0,0"
             style="fill:#000000;fill-opacity:1;fill-rule:nonzero;stroke:none"
             id="path12804-4-3-8-2-2" />
        </g>
        <g
           id="g12806-0-2-9-9-8"
           transform="translate(85.3013,106.7017)">
          <path
             d="m 0,0 c -6.178,-3.197 -10.212,-10.425 -8.605,-17.158 1.1,-4.61 -0.5,-7.961 -1.224,-9.289 -1.567,-2.876 -3.505,-5.634 -4.345,-8.843 -1.018,-3.887 0.552,-8.719 1.822,-12.395 2.559,-7.408 -0.592,-14.406 -3.965,-14.636 -1.097,-0.075 -1.712,2.648 -1.752,3.495 -0.144,2.958 0.014,6.102 -0.34,9.068 -0.267,2.233 -2.217,7.631 -1.891,10.431 0.423,3.631 1.186,7.015 1.716,9.22 0.694,2.89 2.013,5.481 0.7,9.796 -0.193,0.632 -1.151,3.438 -2.821,3.352 -1.669,-0.086 -2.165,-2.217 -2.021,-3.353 0.902,-7.142 -5.908,-11.243 -7.731,-17.738 -1.051,-3.746 -0.022,-7.486 -0.38,-11.28 -0.309,-3.264 -1.492,-6.843 -3.522,-9.459 -0.373,-0.481 -1.766,-2.083 -2.338,-0.984 -0.154,0.297 -0.119,0.653 -0.08,0.986 0.273,2.302 0.513,4.647 1.104,6.895 0.548,2.081 1.421,4.528 1.893,6.712 0.473,2.184 0.707,3.778 0.406,5.566 -0.304,1.803 -0.869,3.545 -0.937,5.383 -0.132,3.555 0.992,6.925 2.609,10.045 0.91,1.757 1.887,3.523 2.397,5.448 0.558,2.109 0.558,4.317 0.476,6.481 -0.125,3.274 -0.545,7.266 2.107,9.719 1.993,1.843 -0.988,4.813 -2.975,2.976 -2.677,-2.475 -3.439,-6.186 -3.436,-9.697 0.001,-2.159 0.257,-4.323 0.086,-6.482 -0.159,-2.006 -0.952,-3.758 -1.868,-5.517 -1.906,-3.66 -3.413,-7.407 -3.598,-11.582 -0.179,-4.03 1.992,-8.878 0.802,-12.837 -0.639,-2.128 -1.682,-4.109 -2.231,-6.296 -0.525,-2.088 -0.874,-4.272 -0.98,-6.425 -0.055,-1.126 0.042,-2.285 0.511,-3.311 0.816,-1.781 2.831,-2.714 4.733,-2.522 4.022,0.406 6.174,4.833 7.49,8.154 1.547,3.902 1.757,7.905 1.466,12.043 -0.164,2.333 0.007,4.443 0.929,6.614 0.836,1.97 4.694,9.328 4.694,9.328 0,0 -4.103,-5.527 -2.472,-14.699 0.42,-2.36 1.798,-6.11 1.771,-9.301 -0.028,-3.247 -1.08,-6.514 0.113,-9.679 0.898,-2.384 2.915,-4.1 5.566,-3.802 3.96,0.445 9.957,5.435 7.129,19.769 -0.504,2.553 -2.258,5.704 -2.07,8.35 0.343,4.814 5.697,9.768 6.697,13.047 0.636,2.083 0.625,4.157 0.222,6.282 -0.375,1.977 -0.678,3.838 -0.251,5.84 0.795,3.731 3.124,6.895 6.518,8.651 C 4.53,-2.389 2.404,1.244 0,0"
             style="fill:#ffffff;fill-opacity:1;fill-rule:nonzero;stroke:none"
             id="path12808-2-1-7-7-5" />
        </g>
        <g
           id="g12810-9-9-4-9-2"
           transform="translate(85.3013,106.7017)"
           style="stroke:#000000">
          <path
             d="m 0,0 c -6.178,-3.197 -10.212,-10.425 -8.605,-17.158 1.1,-4.61 -0.5,-7.961 -1.224,-9.289 -1.567,-2.876 -3.505,-5.634 -4.345,-8.843 -1.018,-3.887 0.552,-8.719 1.822,-12.395 2.559,-7.408 -0.592,-14.406 -3.965,-14.636 -1.097,-0.075 -1.712,2.648 -1.752,3.495 -0.144,2.958 0.014,6.102 -0.34,9.068 -0.267,2.233 -2.217,7.631 -1.891,10.431 0.423,3.631 1.186,7.015 1.716,9.22 0.694,2.89 2.013,5.481 0.7,9.796 -0.193,0.632 -1.151,3.438 -2.821,3.352 -1.669,-0.086 -2.165,-2.217 -2.021,-3.353 0.902,-7.142 -5.908,-11.243 -7.731,-17.738 -1.051,-3.746 -0.022,-7.486 -0.38,-11.28 -0.309,-3.264 -1.492,-6.843 -3.522,-9.459 -0.373,-0.481 -1.766,-2.083 -2.338,-0.984 -0.154,0.297 -0.119,0.653 -0.08,0.986 0.273,2.302 0.513,4.647 1.104,6.895 0.548,2.081 1.421,4.528 1.893,6.712 0.473,2.184 0.707,3.778 0.406,5.566 -0.304,1.803 -0.869,3.545 -0.937,5.383 -0.132,3.555 0.992,6.925 2.609,10.045 0.91,1.757 1.887,3.523 2.397,5.448 0.558,2.109 0.558,4.317 0.476,6.481 -0.125,3.274 -0.545,7.266 2.107,9.719 1.993,1.843 -0.988,4.813 -2.975,2.976 -2.677,-2.475 -3.439,-6.186 -3.436,-9.697 0.001,-2.159 0.257,-4.323 0.086,-6.482 -0.159,-2.006 -0.952,-3.758 -1.868,-5.517 -1.906,-3.66 -3.413,-7.407 -3.598,-11.582 -0.179,-4.03 1.992,-8.878 0.802,-12.837 -0.639,-2.128 -1.682,-4.109 -2.231,-6.296 -0.525,-2.088 -0.874,-4.272 -0.98,-6.425 -0.055,-1.126 0.042,-2.285 0.511,-3.311 0.816,-1.781 2.831,-2.714 4.733,-2.522 4.022,0.406 6.174,4.833 7.49,8.154 1.547,3.902 1.757,7.905 1.466,12.043 -0.164,2.333 0.007,4.443 0.929,6.614 0.836,1.97 4.694,9.328 4.694,9.328 0,0 -4.103,-5.527 -2.472,-14.699 0.42,-2.36 1.798,-6.11 1.771,-9.301 -0.028,-3.247 -1.08,-6.514 0.113,-9.679 0.898,-2.384 2.915,-4.1 5.566,-3.802 3.96,0.445 9.957,5.435 7.129,19.769 -0.504,2.553 -2.258,5.704 -2.07,8.35 0.343,4.814 5.697,9.768 6.697,13.047 0.636,2.083 0.625,4.157 0.222,6.282 -0.375,1.977 -0.678,3.838 -0.251,5.84 0.795,3.731 3.124,6.895 6.518,8.651 C 4.53,-2.389 2.404,1.244 0,0 Z"
             style="fill:none;stroke:#000000;stroke-width:0.25;stroke-linecap:round;stroke-linejoin:round;stroke-miterlimit:10;stroke-dasharray:none;stroke-opacity:1"
             id="path12812-7-1-5-7-0" />
        </g>
      </g>
    </g>
  </g>
</svg>
