0
SECTION
2
HEADER
9
$INSUNITS
70
4
9
$ACADVER
1
AC1014
9
$HANDSEED
5
FFFF
0
ENDSEC
0
SECTION
2
TABLES
0
TABLE
2
VPORT
5
8
100
AcDbSymbolTable
0
ENDTAB
0
TABLE
2
LTYPE
5
5
100
AcDbSymbolTable
0
LTYPE
5
14
100
AcDbSymbolTableRecord
100
AcDbLinetypeTableRecord
2
BYBLOCK
70
0
0
LTYPE
5
15
100
AcDbSymbolTableRecord
100
AcDbLinetypeTableRecord
2
BYLAYER
70
0
0
ENDTAB
0
TABLE
2
LAYER
5
2
100
AcDbSymbolTable
70
2
0
LAYER
5
50
100
AcDbSymbolTableRecord
100
AcDbLayerTableRecord
2
0
70
0
6
CONTINUOUS
0
ENDTAB
0
TABLE
2
STYLE
5
3
100
AcDbSymbolTable
70
1
0
STYLE
5
11
100
AcDbSymbolTableRecord
100
AcDbTextStyleTableRecord
2
STANDARD
70
0
0
ENDTAB
0
TABLE
2
VIEW
5
6
100
AcDbSymbolTable
70
0
0
ENDTAB
0
TABLE
2
UCS
5
7
100
AcDbSymbolTable
70
0
0
ENDTAB
0
TABLE
2
APPID
5
9
100
AcDbSymbolTable
70
2
0
APPID
5
12
100
AcDbSymbolTableRecord
100
AcDbRegAppTableRecord
2
ACAD
70
0
0
ENDTAB
0
TABLE
2
DIMSTYLE
5
A
100
AcDbSymbolTable
70
1
0
ENDTAB
0
TABLE
2
BLOCK_RECORD
5
1
100
AcDbSymbolTable
70
1
0
BLOCK_RECORD
5
1F
100
AcDbSymbolTableRecord
100
AcDbBlockTableRecord
2
*MODEL_SPACE
0
BLOCK_RECORD
5
1B
100
AcDbSymbolTableRecord
100
AcDbBlockTableRecord
2
*PAPER_SPACE
0
ENDTAB
0
ENDSEC
0
SECTION
2
BLOCKS
0
BLOCK
5
20
100
AcDbEntity
100
AcDbBlockBegin
2
*MODEL_SPACE
0
ENDBLK
5
21
100
AcDbEntity
100
AcDbBlockEnd
0
BLOCK
5
1C
100
AcDbEntity
100
AcDbBlockBegin
2
*PAPER_SPACE
0
ENDBLK
5
1D
100
AcDbEntity
100
AcDbBlockEnd
0
ENDSEC
0
SECTION
2
ENTITIES
0
LWPOLYLINE
5
100
100
AcDbEntity
8
0
100
AcDbPolyline
90
8
70
1
43
0.0
10
95
20
-99.999999999999986
42
0.41421356237309298
10
100
20
-94.999999999999986
10
100
20
-5
42
0.4142135623730932
10
95
20
4.4408920985006262e-15
10
5
20
0
42
0.41421356237309492
10
1.1102230246251565e-15
20
-4.9999999999999991
10
0
20
-94.999999999999986
42
0.41421356237309337
10
4.9999999999999991
20
-99.999999999999986
0
LWPOLYLINE
5
101
100
AcDbEntity
8
0
100
AcDbPolyline
90
4
70
1
43
0.0
10
80.806744766939929
20
-89.85368152011516
10
27.02247042934011
20
-89.85368152011516
10
27.02247042934011
20
-86.874860172186544
10
80.806744766939929
20
-86.874860172186544
0
CIRCLE
5
102
100
AcDbEntity
8
0
100
AcDbCircle
10
6.0000000000000009
20
-6.0000000000000009
30
0
40
1.6500000000000004
210
0
220
0
230
1
0
CIRCLE
5
103
100
AcDbEntity
8
0
100
AcDbCircle
10
94
20
-6.0000000000000009
30
0
40
1.6500000000000092
210
0
220
0
230
1
0
LWPOLYLINE
5
104
100
AcDbEntity
8
0
100
AcDbPolyline
90
11
70
1
43
0.0
10
14.577854803660815
20
-10.852647652016278
10
21.378868961825212
20
-8.4880736397023604
10
18.504814888270296
20
-14.907409326369621
10
13.558957150137836
20
-19.74086120681725
10
11.198602892873666
20
-25.012824061048285
10
18.516590569755014
20
-40.669913974375888
10
17.163130782186968
20
-41.992613312226474
10
14.577854803660806
20
-39.347214636525287
10
11.767610812069336
20
-33.334599584748148
10
8.9573668204778478
20
-30.459001081724296
10
8.9573668204778478
20
-21.570787526923326
0
CIRCLE
5
105
100
AcDbEntity
8
0
100
AcDbCircle
10
5.9999999999999964
20
-93.999999999999986
30
0
40
1.6500000000000004
210
0
220
0
230
1
0
LWPOLYLINE
5
106
100
AcDbEntity
8
0
100
AcDbPolyline
90
6
70
1
43
0.0
10
74.573296298567413
20
-5.7549957602922142
10
89.537517344414695
20
-7.0620859889393905
10
94.310358751140143
20
-10.852647652016296
10
92.607217309572448
20
-19.74086120681725
10
86.467817379256942
20
-21.175300442872267
10
77.841021870185401
20
-19.74086120681725
0
LWPOLYLINE
5
107
100
AcDbEntity
8
0
100
AcDbPolyline
90
4
70
1
43
0.0
10
64.588717428217535
20
-11.411386024661869
10
26.029529980030588
20
-11.411386024661869
10
26.029529980030588
20
-9.7564852758126186
10
64.588717428217535
20
-9.7564852758126186
0
LWPOLYLINE
5
108
100
AcDbEntity
8
0
100
AcDbPolyline
90
4
70
1
43
0.0
10
47.351711534736879
20
-51.94180506631276
10
44.794093337523151
20
-52.627116796803321
10
37.384160251593919
20
-24.972870039429775
10
39.941778448807653
20
-24.287558308939214
0
LWPOLYLINE
5
109
100
AcDbEntity
8
0
100
AcDbPolyline
90
4
70
1
43
0.0
10
23.050708632101966
20
-64.864680212491834
10
8.9840522668835465
20
-64.864680212491834
10
8.9840522668835465
20
-49.556848285636491
10
23.050708632101966
20
-49.556848285636491
0
LWPOLYLINE
5
110
100
AcDbEntity
8
0
100
AcDbPolyline
90
4
70
1
43
0.0
10
91.563599634459919
20
-28.125883588039038
10
91.563599634459919
20
-74.13212440604751
10
80.806744766939929
20
-74.13212440604751
10
80.806744766939929
20
-28.125883588039038
0
LWPOLYLINE
5
111
100
AcDbEntity
8
0
100
AcDbPolyline
90
4
70
1
43
0.0
10
72.366750947808882
20
-61.554878714793389
10
68.064009000800908
20
-61.554878714793389
10
68.064009000800908
20
-19.685889768907998
10
72.366750947808882
20
-19.685889768907998
0
LWPOLYLINE
5
112
100
AcDbEntity
8
0
100
AcDbPolyline
90
4
70
1
43
0.0
10
30.497762001923476
20
-21.175300442872267
10
30.497762001923476
20
-77.938396128400726
10
26.195020054915481
20
-77.938396128400726
10
26.195020054915481
20
-21.175300442872267
0
LWPOLYLINE
5
113
100
AcDbEntity
8
0
100
AcDbPolyline
90
4
70
1
43
0.0
10
76.504002819931955
20
-79.262316727480112
10
60.947935780749233
20
-79.262316727480112
10
60.947935780749233
20
-73.966634331162595
10
76.504002819931955
20
-73.966634331162595
0
LWPOLYLINE
5
114
100
AcDbEntity
8
0
100
AcDbPolyline
90
4
70
1
43
0.0
10
43.950088626260211
20
-76.738242780395765
10
42.600224134350867
20
-76.108790630346931
10
59.105858291187076
20
-40.712343953612788
10
60.455722783096405
20
-41.341796103661622
0
ENDSEC
0
SECTION
2
OBJECTS
0
DICTIONARY
5
C
100
AcDbDictionary
3
ACAD_GROUP
350
D
3
ACAD_MLINESTYLE
350
17
0
DICTIONARY
5
D
100
AcDbDictionary
0
DICTIONARY
5
1A
330
C
100
AcDbDictionary
0
DICTIONARY
5
17
100
AcDbDictionary
0
ENDSEC
0
EOF
