<svg width="516mm" height="170mm" viewBox="0 0 516 170" xmlns="http://www.w3.org/2000/svg" version="1.1" preserveAspectRatio="xMidYMid meet"><g id="svgGroup" stroke-linecap="round" fill-rule="evenodd" font-size="9pt" stroke="#000" stroke-width="0.25mm" fill="none" style="stroke:#000;stroke-width:0.25mm;fill:none"><path d="M 0 110 L 0 126.138 L 3 126.138 L 3 153.862 L 0 153.862 L 0 170 L 43.414 170 L 43.414 167 L 71.138 167 L 71.138 170 L 98.862 170 L 98.862 167 L 126.586 167 L 126.586 170 L 154.31 170 L 170 170 L 170 153.862 L 167 153.862 L 167 126.138 L 170 126.138 L 170 110 L 0 110 Z" id="front_outsideCutPath" stroke="#FF0000" stroke-width="0.1" style="stroke:#FF0000;stroke-width:0.1" vector-effect="non-scaling-stroke"/><path d="M 176 110 L 176 126.138 L 173 126.138 L 173 153.862 L 176 153.862 L 176 170 L 216.414 170 L 216.414 167 L 244.138 167 L 244.138 170 L 271.862 170 L 271.862 167 L 299.586 167 L 299.586 170 L 327.31 170 L 340 170 L 340 153.862 L 343 153.862 L 343 126.138 L 340 126.138 L 340 110 L 176 110 Z" id="left_outsideCutPath" stroke="#FF0000" stroke-width="0.1" style="stroke:#FF0000;stroke-width:0.1" vector-effect="non-scaling-stroke"/><path d="M 0 47 L 0 63.138 L 3 63.138 L 3 90.862 L 0 90.862 L 0 107 L 43.414 107 L 43.414 104 L 71.138 104 L 71.138 107 L 98.862 107 L 98.862 104 L 126.586 104 L 126.586 107 L 154.31 107 L 170 107 L 170 90.862 L 167 90.862 L 167 63.138 L 170 63.138 L 170 47 L 0 47 Z" id="back_outsideCutPath" stroke="#FF0000" stroke-width="0.1" style="stroke:#FF0000;stroke-width:0.1" vector-effect="non-scaling-stroke"/><path d="M 176 47 L 176 63.138 L 173 63.138 L 173 90.862 L 176 90.862 L 176 107 L 216.414 107 L 216.414 104 L 244.138 104 L 244.138 107 L 271.862 107 L 271.862 104 L 299.586 104 L 299.586 107 L 327.31 107 L 340 107 L 340 90.862 L 343 90.862 L 343 63.138 L 340 63.138 L 340 47 L 176 47 Z" id="right_outsideCutPath" stroke="#FF0000" stroke-width="0.1" style="stroke:#FF0000;stroke-width:0.1" vector-effect="non-scaling-stroke"/><path d="M 349 3 L 349 43.414 L 346 43.414 L 346 71.138 L 349 71.138 L 349 98.862 L 346 98.862 L 346 126.586 L 349 126.586 L 349 154.31 L 349 167 L 389.414 167 L 389.414 170 L 417.138 170 L 417.138 167 L 444.862 167 L 444.862 170 L 472.586 170 L 472.586 167 L 500.31 167 L 513 167 L 513 126.586 L 516 126.586 L 516 98.862 L 513 98.862 L 513 71.138 L 516 71.138 L 516 43.414 L 513 43.414 L 513 15.69 L 513 3 L 472.586 3 L 472.586 0 L 444.862 0 L 444.862 3 L 417.138 3 L 417.138 0 L 389.414 0 L 389.414 3 L 361.69 3 L 349 3 Z" id="bottom_outsideCutPath" stroke="#FF0000" stroke-width="0.1" style="stroke:#FF0000;stroke-width:0.1" vector-effect="non-scaling-stroke"/></g></svg>