0
SECTION
2
HEADER
9
$INSUNITS
70
4
9
$ACADVER
1
AC1014
9
$HANDSEED
5
FFFF
0
ENDSEC
0
SECTION
2
TABLES
0
TABLE
2
VPORT
5
8
100
AcDbSymbolTable
0
ENDTAB
0
TABLE
2
LTYPE
5
5
100
AcDbSymbolTable
0
LTYPE
5
14
100
AcDbSymbolTableRecord
100
AcDbLinetypeTableRecord
2
BYBLOCK
70
0
0
LTYPE
5
15
100
AcDbSymbolTableRecord
100
AcDbLinetypeTableRecord
2
BYLAYER
70
0
0
ENDTAB
0
TABLE
2
LAYER
5
2
100
AcDbSymbolTable
70
2
0
LAYER
5
50
100
AcDbSymbolTableRecord
100
AcDbLayerTableRecord
2
0
70
0
6
CONTINUOUS
0
ENDTAB
0
TABLE
2
STYLE
5
3
100
AcDbSymbolTable
70
1
0
STYLE
5
11
100
AcDbSymbolTableRecord
100
AcDbTextStyleTableRecord
2
STANDARD
70
0
0
ENDTAB
0
TABLE
2
VIEW
5
6
100
AcDbSymbolTable
70
0
0
ENDTAB
0
TABLE
2
UCS
5
7
100
AcDbSymbolTable
70
0
0
ENDTAB
0
TABLE
2
APPID
5
9
100
AcDbSymbolTable
70
2
0
APPID
5
12
100
AcDbSymbolTableRecord
100
AcDbRegAppTableRecord
2
ACAD
70
0
0
ENDTAB
0
TABLE
2
DIMSTYLE
5
A
100
AcDbSymbolTable
70
1
0
ENDTAB
0
TABLE
2
BLOCK_RECORD
5
1
100
AcDbSymbolTable
70
1
0
BLOCK_RECORD
5
1F
100
AcDbSymbolTableRecord
100
AcDbBlockTableRecord
2
*MODEL_SPACE
0
BLOCK_RECORD
5
1B
100
AcDbSymbolTableRecord
100
AcDbBlockTableRecord
2
*PAPER_SPACE
0
ENDTAB
0
ENDSEC
0
SECTION
2
BLOCKS
0
BLOCK
5
20
100
AcDbEntity
100
AcDbBlockBegin
2
*MODEL_SPACE
0
ENDBLK
5
21
100
AcDbEntity
100
AcDbBlockEnd
0
BLOCK
5
1C
100
AcDbEntity
100
AcDbBlockBegin
2
*PAPER_SPACE
0
ENDBLK
5
1D
100
AcDbEntity
100
AcDbBlockEnd
0
ENDSEC
0
SECTION
2
ENTITIES
0
LINE
5
100
100
AcDbEntity
8
0
100
AcDbLine
10
286
20
400
30
0
11
0
21
400
31
0
0
ARC
5
101
100
AcDbEntity
8
0
100
AcDbCircle
10
286
20
386
30
0
40
13.999999999999986
210
0
220
-0
230
1
100
AcDbArc
50
0
51
90
0
ARC
5
102
100
AcDbEntity
8
0
100
AcDbCircle
10
286
20
13.999999999999995
30
0
40
13.999999999999995
210
0
220
0
230
1
100
AcDbArc
50
-90
51
0
0
LWPOLYLINE
5
103
100
AcDbEntity
8
0
100
AcDbPolyline
90
8
70
1
43
0.0
10
358.3548125251545
20
363.46801227698768
10
442.35481252515456
20
363.46801227698785
42
-0.41421356237309509
10
450.35481252515456
20
355.46801227698785
10
450.35481252515444
20
329.46801227698779
42
-0.41421356237309243
10
442.35481252515456
20
321.46801227698779
10
358.3548125251549
20
321.46801227698722
42
-0.414213562373069
10
350.35481252515439
20
329.46801227698705
10
350.35481252515456
20
355.46801227698779
42
-0.41421356237309243
0
LWPOLYLINE
5
104
100
AcDbEntity
8
0
100
AcDbPolyline
90
4
70
1
43
0.0
10
350.35481252515467
20
333.46801227698796
10
450.35481252515467
20
333.46801227698813
10
450.35481252515461
20
330.46801227698808
10
350.35481252515467
20
330.46801227698808
0
LWPOLYLINE
5
105
100
AcDbEntity
8
0
100
AcDbPolyline
90
4
70
1
43
0.0
10
360.35481252515461
20
333.46801227698802
10
380.35481252515467
20
333.46801227698796
10
380.35481252515467
20
336.46801227698796
10
360.35481252515456
20
336.46801227698796
0
LINE
5
106
100
AcDbEntity
8
0
100
AcDbLine
10
350.35481252515467
20
331.96801227698808
30
0
11
450.35481252515461
21
331.96801227698802
31
0
0
LINE
5
107
100
AcDbEntity
8
0
100
AcDbLine
10
400.35481252515461
20
333.46801227698813
30
0
11
400.35481252515461
21
330.46801227698808
31
0
0
LWPOLYLINE
5
108
100
AcDbEntity
8
0
100
AcDbPolyline
90
4
70
1
43
0.0
10
360.35481252515473
20
330.46801227698779
10
380.35481252515495
20
330.46801227698887
10
380.35481252515473
20
327.46801227698779
10
360.35481252515473
20
327.46801227698779
0
LWPOLYLINE
5
109
100
AcDbEntity
8
0
100
AcDbPolyline
90
4
70
1
43
0.0
10
440.35481252515467
20
333.46801227698836
10
420.35481252515478
20
333.46801227698779
10
420.35481252515473
20
336.46801227698779
10
440.35481252515473
20
336.46801227698774
0
LWPOLYLINE
5
110
100
AcDbEntity
8
0
100
AcDbPolyline
90
4
70
1
43
0.0
10
440.35481252515467
20
330.46801227698603
10
420.35481252515439
20
330.46801227698711
10
420.35481252515467
20
327.46801227698796
10
440.35481252515467
20
327.46801227698774
0
LWPOLYLINE
5
111
100
AcDbEntity
8
0
100
AcDbPolyline
90
8
70
1
43
0.0
10
364.3548125251545
20
357.46801227698779
10
436.35481252515456
20
357.46801227698779
42
-0.41421356237309509
10
440.35481252515456
20
353.46801227698785
10
440.35481252515456
20
346.46801227698779
42
-0.41421356237309509
10
436.35481252515456
20
342.46801227698779
10
364.35481252515456
20
342.46801227698779
42
-0.4142135623731002
10
360.35481252515456
20
346.46801227698779
10
360.35481252515456
20
353.46801227698785
42
-0.41421356237309509
0
LINE
5
112
100
AcDbEntity
8
0
100
AcDbLine
10
350.35481252515456
20
349.96801227698768
30
0
11
450.35481252515444
21
349.96801227698774
31
0
0
LINE
5
113
100
AcDbEntity
8
0
100
AcDbLine
10
400.35481252515456
20
357.46801227698779
30
0
11
400.35481252515456
21
342.46801227698779
31
0
0
LWPOLYLINE
5
114
100
AcDbEntity
8
0
100
AcDbPolyline
90
8
70
1
43
0.0
10
352.95475616447902
20
281.75159368463773
10
362.95475616447902
20
281.75159368463773
42
-0.41421356237310336
10
367.95475616447902
20
276.75159368463773
10
367.95475616447902
20
246.75159368463773
42
-0.41421356237310336
10
362.95475616447902
20
241.75159368463773
10
352.95475616447902
20
241.75159368463773
42
-0.41421356237310336
10
347.95475616447902
20
246.75159368463773
10
347.95475616447902
20
276.75159368463773
42
-0.41421356237310336
0
LWPOLYLINE
5
115
100
AcDbEntity
8
0
100
AcDbPolyline
90
8
70
1
43
0.0
10
387.95475616447902
20
241.75159368463773
42
0.41421356237310336
10
392.95475616447902
20
246.75159368463773
10
392.95475616447902
20
276.75159368463773
42
0.41421356237310336
10
387.95475616447902
20
281.75159368463773
10
377.95475616447902
20
281.75159368463773
42
0.41421356237310336
10
372.95475616447902
20
276.75159368463773
10
372.95475616447902
20
246.75159368463773
42
0.41421356237310336
10
377.95475616447902
20
241.75159368463773
0
LWPOLYLINE
5
116
100
AcDbEntity
8
0
100
AcDbPolyline
90
8
70
1
43
0.0
10
412.95475616447902
20
241.75159368463773
42
0.41421356237310336
10
417.95475616447902
20
246.75159368463773
10
417.95475616447902
20
276.75159368463773
42
0.41421356237310336
10
412.95475616447902
20
281.75159368463773
10
402.95475616447902
20
281.75159368463773
42
0.41421356237310336
10
397.95475616447902
20
276.75159368463773
10
397.95475616447902
20
246.75159368463773
42
0.41421356237310336
10
402.95475616447902
20
241.75159368463773
0
LWPOLYLINE
5
117
100
AcDbEntity
8
0
100
AcDbPolyline
90
8
70
1
43
0.0
10
437.95475616447902
20
241.75159368463773
42
0.41421356237310336
10
442.95475616447902
20
246.75159368463773
10
442.95475616447902
20
276.75159368463773
42
0.41421356237310336
10
437.95475616447902
20
281.75159368463773
10
427.95475616447902
20
281.75159368463773
42
0.41421356237310336
10
422.95475616447902
20
276.75159368463773
10
422.95475616447902
20
246.75159368463773
42
0.41421356237310336
10
427.95475616447902
20
241.75159368463773
0
LINE
5
118
100
AcDbEntity
8
0
100
AcDbLine
10
300
20
230
30
0
11
307.5
21
230
31
0
0
LINE
5
119
100
AcDbEntity
8
0
100
AcDbLine
10
310
20
227.5
30
0
11
310
21
172.5
31
0
0
LINE
5
120
100
AcDbEntity
8
0
100
AcDbLine
10
307.5
20
170
30
0
11
300
21
170
31
0
0
LINE
5
121
100
AcDbEntity
8
0
100
AcDbLine
10
0
20
400
30
0
11
0
21
0
31
0
0
ARC
5
122
100
AcDbEntity
8
0
100
AcDbCircle
10
307.50000000000006
20
227.50000000000003
30
0
40
2.4999999999999645
210
-0
220
0
230
1
100
AcDbArc
50
0
51
90.000000000001307
0
ARC
5
123
100
AcDbEntity
8
0
100
AcDbCircle
10
307.50000000000006
20
172.49999999999997
30
0
40
2.4999999999999645
210
0
220
0
230
1
100
AcDbArc
50
-90.000000000001322
51
0
0
LINE
5
124
100
AcDbEntity
8
0
100
AcDbLine
10
300
20
13.999999999999996
30
0
11
300
21
170
31
0
0
LINE
5
125
100
AcDbEntity
8
0
100
AcDbLine
10
300
20
230
30
0
11
300
21
386
31
0
0
LINE
5
126
100
AcDbEntity
8
0
100
AcDbLine
10
115.5
20
-10
30
0
11
170.5
21
-10
31
0
0
LINE
5
127
100
AcDbEntity
8
0
100
AcDbLine
10
173
20
-7.5
30
0
11
173
21
0
31
0
0
LINE
5
128
100
AcDbEntity
8
0
100
AcDbLine
10
113
20
0
30
0
11
113
21
-7.5
31
0
0
ARC
5
129
100
AcDbEntity
8
0
100
AcDbCircle
10
170.50000000000006
20
-7.5000000000000249
30
0
40
2.4999999999999756
210
0
220
0
230
1
100
AcDbArc
50
-90.000000000001322
51
0
0
ARC
5
130
100
AcDbEntity
8
0
100
AcDbCircle
10
115.5
20
-7.4999999999999947
30
0
40
2.5
210
0
220
0
230
1
100
AcDbArc
50
180
51
270
0
LINE
5
131
100
AcDbEntity
8
0
100
AcDbLine
10
0
20
0
30
0
11
113
21
0
31
0
0
LINE
5
132
100
AcDbEntity
8
0
100
AcDbLine
10
173
20
0
30
0
11
286
21
0
31
0
0
LINE
5
133
100
AcDbEntity
8
0
100
AcDbLine
10
255.70340487688043
20
301.39000273340235
30
0
11
255.70340487688043
21
285.26861736301259
31
0
0
LINE
5
134
100
AcDbEntity
8
0
100
AcDbLine
10
255.70340487688043
20
278.05666940006904
30
0
11
255.70340487688043
21
261.93528402967922
31
0
0
LINE
5
135
100
AcDbEntity
8
0
100
AcDbLine
10
255.70340487688043
20
254.7233360667357
30
0
11
255.70340487688043
21
238.60195069634588
31
0
0
LINE
5
136
100
AcDbEntity
8
0
100
AcDbLine
10
255.70340487688043
20
231.39000273340235
30
0
11
255.70340487688043
21
215.26861736301257
31
0
0
LINE
5
137
100
AcDbEntity
8
0
100
AcDbLine
10
255.70340487688043
20
208.05666940006901
30
0
11
255.70340487688043
21
191.93528402967922
31
0
0
LINE
5
138
100
AcDbEntity
8
0
100
AcDbLine
10
255.70340487688043
20
184.7233360667357
30
0
11
255.70340487688043
21
168.60195069634588
31
0
0
LINE
5
139
100
AcDbEntity
8
0
100
AcDbLine
10
255.70340487688043
20
161.39000273340235
30
0
11
255.70340487688043
21
145.26861736301257
31
0
0
LINE
5
140
100
AcDbEntity
8
0
100
AcDbLine
10
255.70340487688043
20
138.05666940006901
30
0
11
255.70340487688043
21
121.93528402967921
31
0
0
LINE
5
141
100
AcDbEntity
8
0
100
AcDbLine
10
255.70340487688043
20
114.7233360667357
30
0
11
255.70340487688043
21
98.601950696345881
31
0
0
LINE
5
142
100
AcDbEntity
8
0
100
AcDbLine
10
255.70340487688043
20
91.390002733402369
30
0
11
255.70340487688043
21
75.268617363012567
31
0
0
LINE
5
143
100
AcDbEntity
8
0
100
AcDbLine
10
245.70340487688043
20
352.51915767137302
30
0
11
245.70340487688043
21
317.48084232862698
31
0
0
LINE
5
144
100
AcDbEntity
8
0
100
AcDbLine
10
245.70340487688043
20
307.51915767137302
30
0
11
245.70340487688043
21
272.48084232862698
31
0
0
LINE
5
145
100
AcDbEntity
8
0
100
AcDbLine
10
245.70340487688043
20
262.51915767137302
30
0
11
245.70340487688043
21
227.48084232862695
31
0
0
LINE
5
146
100
AcDbEntity
8
0
100
AcDbLine
10
245.70340487688043
20
217.51915767137305
30
0
11
245.70340487688043
21
182.48084232862695
31
0
0
LINE
5
147
100
AcDbEntity
8
0
100
AcDbLine
10
245.70340487688043
20
172.51915767137305
30
0
11
245.70340487688043
21
137.48084232862695
31
0
0
LINE
5
148
100
AcDbEntity
8
0
100
AcDbLine
10
245.70340487688043
20
127.51915767137305
30
0
11
245.70340487688043
21
92.480842328626949
31
0
0
LINE
5
149
100
AcDbEntity
8
0
100
AcDbLine
10
245.70340487688043
20
82.519157671373051
30
0
11
245.70340487688043
21
47.480842328626949
31
0
0
LINE
5
150
100
AcDbEntity
8
0
100
AcDbLine
10
225.70340487688043
20
217.51915767137305
30
0
11
225.70340487688043
21
182.48084232862695
31
0
0
LINE
5
151
100
AcDbEntity
8
0
100
AcDbLine
10
225.70340487688043
20
262.51915767137302
30
0
11
225.70340487688043
21
227.48084232862695
31
0
0
LINE
5
152
100
AcDbEntity
8
0
100
AcDbLine
10
235.70340487688043
20
301.39000273340235
30
0
11
235.70340487688043
21
285.26861736301259
31
0
0
LINE
5
153
100
AcDbEntity
8
0
100
AcDbLine
10
225.70340487688043
20
172.51915767137305
30
0
11
225.70340487688043
21
137.48084232862695
31
0
0
LINE
5
154
100
AcDbEntity
8
0
100
AcDbLine
10
235.70340487688043
20
208.05666940006901
30
0
11
235.70340487688043
21
191.93528402967922
31
0
0
LINE
5
155
100
AcDbEntity
8
0
100
AcDbLine
10
235.70340487688043
20
278.05666940006904
30
0
11
235.70340487688043
21
261.93528402967922
31
0
0
LINE
5
156
100
AcDbEntity
8
0
100
AcDbLine
10
225.70340487688043
20
127.51915767137305
30
0
11
225.70340487688043
21
92.480842328626949
31
0
0
LINE
5
157
100
AcDbEntity
8
0
100
AcDbLine
10
225.70340487688043
20
352.51915767137302
30
0
11
225.70340487688043
21
317.48084232862698
31
0
0
LINE
5
158
100
AcDbEntity
8
0
100
AcDbLine
10
235.70340487688043
20
114.7233360667357
30
0
11
235.70340487688043
21
98.601950696345881
31
0
0
LINE
5
159
100
AcDbEntity
8
0
100
AcDbLine
10
225.70340487688043
20
82.519157671373051
30
0
11
225.70340487688043
21
47.480842328626949
31
0
0
LINE
5
160
100
AcDbEntity
8
0
100
AcDbLine
10
235.70340487688043
20
161.39000273340235
30
0
11
235.70340487688043
21
145.26861736301257
31
0
0
LINE
5
161
100
AcDbEntity
8
0
100
AcDbLine
10
235.70340487688043
20
184.7233360667357
30
0
11
235.70340487688043
21
168.60195069634588
31
0
0
LINE
5
162
100
AcDbEntity
8
0
100
AcDbLine
10
235.70340487688043
20
91.390002733402369
30
0
11
235.70340487688043
21
75.268617363012567
31
0
0
LINE
5
163
100
AcDbEntity
8
0
100
AcDbLine
10
235.70340487688043
20
231.39000273340235
30
0
11
235.70340487688043
21
215.26861736301257
31
0
0
LINE
5
164
100
AcDbEntity
8
0
100
AcDbLine
10
235.70340487688043
20
138.05666940006901
30
0
11
235.70340487688043
21
121.93528402967921
31
0
0
LINE
5
165
100
AcDbEntity
8
0
100
AcDbLine
10
225.70340487688043
20
307.51915767137302
30
0
11
225.70340487688043
21
272.48084232862698
31
0
0
LINE
5
166
100
AcDbEntity
8
0
100
AcDbLine
10
235.70340487688043
20
254.7233360667357
30
0
11
235.70340487688043
21
238.60195069634588
31
0
0
LINE
5
167
100
AcDbEntity
8
0
100
AcDbLine
10
215.70340487688043
20
301.39000273340235
30
0
11
215.70340487688043
21
285.26861736301259
31
0
0
LINE
5
168
100
AcDbEntity
8
0
100
AcDbLine
10
215.70340487688043
20
278.05666940006904
30
0
11
215.70340487688043
21
261.93528402967922
31
0
0
LINE
5
169
100
AcDbEntity
8
0
100
AcDbLine
10
215.70340487688043
20
254.7233360667357
30
0
11
215.70340487688043
21
238.60195069634588
31
0
0
LINE
5
170
100
AcDbEntity
8
0
100
AcDbLine
10
215.70340487688043
20
231.39000273340235
30
0
11
215.70340487688043
21
215.26861736301257
31
0
0
LINE
5
171
100
AcDbEntity
8
0
100
AcDbLine
10
215.70340487688043
20
208.05666940006901
30
0
11
215.70340487688043
21
191.93528402967922
31
0
0
LINE
5
172
100
AcDbEntity
8
0
100
AcDbLine
10
215.70340487688043
20
184.7233360667357
30
0
11
215.70340487688043
21
168.60195069634588
31
0
0
LINE
5
173
100
AcDbEntity
8
0
100
AcDbLine
10
215.70340487688043
20
161.39000273340235
30
0
11
215.70340487688043
21
145.26861736301257
31
0
0
LINE
5
174
100
AcDbEntity
8
0
100
AcDbLine
10
215.70340487688043
20
138.05666940006901
30
0
11
215.70340487688043
21
121.93528402967921
31
0
0
LINE
5
175
100
AcDbEntity
8
0
100
AcDbLine
10
215.70340487688043
20
114.7233360667357
30
0
11
215.70340487688043
21
98.601950696345881
31
0
0
LINE
5
176
100
AcDbEntity
8
0
100
AcDbLine
10
215.70340487688043
20
91.390002733402369
30
0
11
215.70340487688043
21
75.268617363012567
31
0
0
LINE
5
177
100
AcDbEntity
8
0
100
AcDbLine
10
-286
20
400
30
0
11
0
21
400
31
0
0
LINE
5
178
100
AcDbEntity
8
0
100
AcDbLine
10
-235.70340487688043
20
301.39000273340235
30
0
11
-235.70340487688043
21
285.26861736301259
31
0
0
LINE
5
179
100
AcDbEntity
8
0
100
AcDbLine
10
-215.70340487688043
20
301.39000273340235
30
0
11
-215.70340487688043
21
285.26861736301259
31
0
0
LINE
5
180
100
AcDbEntity
8
0
100
AcDbLine
10
-215.70340487688043
20
138.05666940006901
30
0
11
-215.70340487688043
21
121.93528402967921
31
0
0
LINE
5
181
100
AcDbEntity
8
0
100
AcDbLine
10
-215.70340487688043
20
161.39000273340235
30
0
11
-215.70340487688043
21
145.26861736301257
31
0
0
ARC
5
182
100
AcDbEntity
8
0
100
AcDbCircle
10
-170.50000000000006
20
-7.5
30
0
40
2.4999999999999645
210
0
220
0
230
1
100
AcDbArc
50
180
51
270.00000000000131
0
LINE
5
183
100
AcDbEntity
8
0
100
AcDbLine
10
-225.70340487688043
20
172.51915767137305
30
0
11
-225.70340487688043
21
137.48084232862695
31
0
0
LINE
5
184
100
AcDbEntity
8
0
100
AcDbLine
10
-225.70340487688043
20
127.51915767137305
30
0
11
-225.70340487688043
21
92.480842328626949
31
0
0
LINE
5
185
100
AcDbEntity
8
0
100
AcDbLine
10
-235.70340487688043
20
138.05666940006901
30
0
11
-235.70340487688043
21
121.93528402967921
31
0
0
LINE
5
186
100
AcDbEntity
8
0
100
AcDbLine
10
-255.70340487688043
20
231.39000273340235
30
0
11
-255.70340487688043
21
215.26861736301257
31
0
0
LINE
5
187
100
AcDbEntity
8
0
100
AcDbLine
10
-173
20
0
30
0
11
-286
21
0
31
0
0
ARC
5
188
100
AcDbEntity
8
0
100
AcDbCircle
10
-307.50000000000006
20
172.49999999999997
30
0
40
2.4999999999999645
210
0
220
0
230
1
100
AcDbArc
50
180
51
270.00000000000131
0
LINE
5
189
100
AcDbEntity
8
0
100
AcDbLine
10
-300
20
230
30
0
11
-307.5
21
230
31
0
0
LINE
5
190
100
AcDbEntity
8
0
100
AcDbLine
10
-225.70340487688043
20
262.51915767137302
30
0
11
-225.70340487688043
21
227.48084232862695
31
0
0
LINE
5
191
100
AcDbEntity
8
0
100
AcDbLine
10
-245.70340487688043
20
352.51915767137302
30
0
11
-245.70340487688043
21
317.48084232862698
31
0
0
LINE
5
192
100
AcDbEntity
8
0
100
AcDbLine
10
-255.70340487688043
20
208.05666940006901
30
0
11
-255.70340487688043
21
191.93528402967922
31
0
0
LINE
5
193
100
AcDbEntity
8
0
100
AcDbLine
10
-255.70340487688043
20
184.7233360667357
30
0
11
-255.70340487688043
21
168.60195069634588
31
0
0
ARC
5
194
100
AcDbEntity
8
0
100
AcDbCircle
10
-286
20
13.999999999999986
30
0
40
13.999999999999986
210
0
220
0
230
1
100
AcDbArc
50
180
51
270
0
ARC
5
195
100
AcDbEntity
8
0
100
AcDbCircle
10
-115.5
20
-7.5
30
0
40
2.5
210
0
220
0
230
1
100
AcDbArc
50
-90
51
0
0
LINE
5
196
100
AcDbEntity
8
0
100
AcDbLine
10
-115.5
20
-10
30
0
11
-170.5
21
-10
31
0
0
LINE
5
197
100
AcDbEntity
8
0
100
AcDbLine
10
-173
20
-7.5
30
0
11
-173
21
0
31
0
0
LINE
5
198
100
AcDbEntity
8
0
100
AcDbLine
10
-215.70340487688043
20
114.7233360667357
30
0
11
-215.70340487688043
21
98.601950696345881
31
0
0
LINE
5
199
100
AcDbEntity
8
0
100
AcDbLine
10
-235.70340487688043
20
91.390002733402369
30
0
11
-235.70340487688043
21
75.268617363012567
31
0
0
LINE
5
200
100
AcDbEntity
8
0
100
AcDbLine
10
-113
20
0
30
0
11
-113
21
-7.5
31
0
0
LINE
5
201
100
AcDbEntity
8
0
100
AcDbLine
10
-235.70340487688043
20
161.39000273340235
30
0
11
-235.70340487688043
21
145.26861736301257
31
0
0
LINE
5
202
100
AcDbEntity
8
0
100
AcDbLine
10
-215.70340487688043
20
184.7233360667357
30
0
11
-215.70340487688043
21
168.60195069634588
31
0
0
LINE
5
203
100
AcDbEntity
8
0
100
AcDbLine
10
-225.70340487688043
20
82.519157671373051
30
0
11
-225.70340487688043
21
47.480842328626949
31
0
0
LINE
5
204
100
AcDbEntity
8
0
100
AcDbLine
10
-300
20
13.999999999999986
30
0
11
-300
21
170
31
0
0
LINE
5
205
100
AcDbEntity
8
0
100
AcDbLine
10
-255.70340487688043
20
278.05666940006904
30
0
11
-255.70340487688043
21
261.93528402967922
31
0
0
LINE
5
206
100
AcDbEntity
8
0
100
AcDbLine
10
-245.70340487688043
20
217.51915767137305
30
0
11
-245.70340487688043
21
182.48084232862695
31
0
0
LINE
5
207
100
AcDbEntity
8
0
100
AcDbLine
10
-215.70340487688043
20
208.05666940006901
30
0
11
-215.70340487688043
21
191.93528402967922
31
0
0
LINE
5
208
100
AcDbEntity
8
0
100
AcDbLine
10
0
20
200
30
0
11
-310
21
200
31
0
0
LINE
5
209
100
AcDbEntity
8
0
100
AcDbLine
10
-245.70340487688043
20
262.51915767137302
30
0
11
-245.70340487688043
21
227.48084232862695
31
0
0
LINE
5
210
100
AcDbEntity
8
0
100
AcDbLine
10
-225.70340487688043
20
307.51915767137302
30
0
11
-225.70340487688043
21
272.48084232862698
31
0
0
LINE
5
211
100
AcDbEntity
8
0
100
AcDbLine
10
-235.70340487688043
20
208.05666940006901
30
0
11
-235.70340487688043
21
191.93528402967922
31
0
0
LINE
5
212
100
AcDbEntity
8
0
100
AcDbLine
10
-255.70340487688043
20
301.39000273340235
30
0
11
-255.70340487688043
21
285.26861736301259
31
0
0
LINE
5
213
100
AcDbEntity
8
0
100
AcDbLine
10
-300
20
230
30
0
11
-300
21
386
31
0
0
ARC
5
214
100
AcDbEntity
8
0
100
AcDbCircle
10
-307.50000000000006
20
227.50000000000003
30
0
40
2.4999999999999645
210
-0
220
0
230
1
100
AcDbArc
50
89.999999999998693
51
180
0
LINE
5
215
100
AcDbEntity
8
0
100
AcDbLine
10
-225.70340487688043
20
352.51915767137302
30
0
11
-225.70340487688043
21
317.48084232862698
31
0
0
LINE
5
216
100
AcDbEntity
8
0
100
AcDbLine
10
-235.70340487688043
20
278.05666940006904
30
0
11
-235.70340487688043
21
261.93528402967922
31
0
0
ARC
5
217
100
AcDbEntity
8
0
100
AcDbCircle
10
-286
20
386
30
0
40
13.999999999999986
210
0
220
-0
230
1
100
AcDbArc
50
90
51
180
0
LINE
5
218
100
AcDbEntity
8
0
100
AcDbLine
10
-215.70340487688043
20
231.39000273340235
30
0
11
-215.70340487688043
21
215.26861736301257
31
0
0
LINE
5
219
100
AcDbEntity
8
0
100
AcDbLine
10
-215.70340487688043
20
254.7233360667357
30
0
11
-215.70340487688043
21
238.60195069634588
31
0
0
LINE
5
220
100
AcDbEntity
8
0
100
AcDbLine
10
-255.70340487688043
20
254.7233360667357
30
0
11
-255.70340487688043
21
238.60195069634588
31
0
0
LINE
5
221
100
AcDbEntity
8
0
100
AcDbLine
10
-215.70340487688043
20
278.05666940006904
30
0
11
-215.70340487688043
21
261.93528402967922
31
0
0
LINE
5
222
100
AcDbEntity
8
0
100
AcDbLine
10
-235.70340487688043
20
254.7233360667357
30
0
11
-235.70340487688043
21
238.60195069634588
31
0
0
LINE
5
223
100
AcDbEntity
8
0
100
AcDbLine
10
-245.70340487688043
20
307.51915767137302
30
0
11
-245.70340487688043
21
272.48084232862698
31
0
0
LINE
5
224
100
AcDbEntity
8
0
100
AcDbLine
10
-235.70340487688043
20
184.7233360667357
30
0
11
-235.70340487688043
21
168.60195069634588
31
0
0
LINE
5
225
100
AcDbEntity
8
0
100
AcDbLine
10
-245.70340487688043
20
172.51915767137305
30
0
11
-245.70340487688043
21
137.48084232862695
31
0
0
LINE
5
226
100
AcDbEntity
8
0
100
AcDbLine
10
-310
20
227.5
30
0
11
-310
21
172.5
31
0
0
LINE
5
227
100
AcDbEntity
8
0
100
AcDbLine
10
-225.70340487688043
20
217.51915767137305
30
0
11
-225.70340487688043
21
182.48084232862695
31
0
0
LINE
5
228
100
AcDbEntity
8
0
100
AcDbLine
10
-255.70340487688043
20
91.390002733402369
30
0
11
-255.70340487688043
21
75.268617363012567
31
0
0
LINE
5
229
100
AcDbEntity
8
0
100
AcDbLine
10
0
20
0
30
0
11
-113
21
0
31
0
0
LINE
5
230
100
AcDbEntity
8
0
100
AcDbLine
10
-255.70340487688043
20
161.39000273340235
30
0
11
-255.70340487688043
21
145.26861736301257
31
0
0
LINE
5
231
100
AcDbEntity
8
0
100
AcDbLine
10
-307.5
20
170
30
0
11
-300
21
170
31
0
0
LINE
5
232
100
AcDbEntity
8
0
100
AcDbLine
10
-215.70340487688043
20
91.390002733402369
30
0
11
-215.70340487688043
21
75.268617363012567
31
0
0
LINE
5
233
100
AcDbEntity
8
0
100
AcDbLine
10
-235.70340487688043
20
114.7233360667357
30
0
11
-235.70340487688043
21
98.601950696345881
31
0
0
LINE
5
234
100
AcDbEntity
8
0
100
AcDbLine
10
-255.70340487688043
20
138.05666940006901
30
0
11
-255.70340487688043
21
121.93528402967921
31
0
0
LINE
5
235
100
AcDbEntity
8
0
100
AcDbLine
10
-245.70340487688043
20
82.519157671373051
30
0
11
-245.70340487688043
21
47.480842328626949
31
0
0
LINE
5
236
100
AcDbEntity
8
0
100
AcDbLine
10
-255.70340487688043
20
114.7233360667357
30
0
11
-255.70340487688043
21
98.601950696345881
31
0
0
LINE
5
237
100
AcDbEntity
8
0
100
AcDbLine
10
-245.70340487688043
20
127.51915767137305
30
0
11
-245.70340487688043
21
92.480842328626949
31
0
0
LINE
5
238
100
AcDbEntity
8
0
100
AcDbLine
10
-235.70340487688043
20
231.39000273340235
30
0
11
-235.70340487688043
21
215.26861736301257
31
0
0
ENDSEC
0
SECTION
2
OBJECTS
0
DICTIONARY
5
C
100
AcDbDictionary
3
ACAD_GROUP
350
D
3
ACAD_MLINESTYLE
350
17
0
DICTIONARY
5
D
100
AcDbDictionary
0
DICTIONARY
5
1A
330
C
100
AcDbDictionary
0
DICTIONARY
5
17
100
AcDbDictionary
0
ENDSEC
0
EOF
