  0
SECTION
  2
HEADER
  9
$ACADVER
  1
AC1014
  9
$HANDSEED
  5
FFFF
  9
$INSUNITS
 70
     4
  9
$MEASUREMENT
 70
     1
  0
ENDSEC
  0
SECTION
  2
TABLES
  0
TABLE
  2
VPORT
  5
8
330
0
100
AcDbSymbolTable
 70
     4
  0
VPORT
  5
2E
330
8
100
AcDbSymbolTableRecord
100
AcDbViewportTableRecord
  2
*ACTIVE
 70
     0
 10
0.0
 20
0.0
 11
1.0
 21
1.0
 12
210.0
 22
148.5
 13
0.0
 23
0.0
 14
10.0
 24
10.0
 15
10.0
 25
10.0
 16
0.0
 26
0.0
 36
1.0
 17
0.0
 27
0.0
 37
0.0
 40
341.0
 41
1.24
 42
50.0
 43
0.0
 44
0.0
 50
0.0
 51
0.0
 71
     0
 72
   100
 73
     1
 74
     3
 75
     0
 76
     0
 77
     0
 78
     0
  0
ENDTAB
  0
TABLE
  2
LTYPE
  5
5
330
0
100
AcDbSymbolTable
 70
     1
  0
LTYPE
  5
14
330
5
100
AcDbSymbolTableRecord
100
AcDbLinetypeTableRecord
  2
BYBLOCK
 70
     0
  3

 72
    65
 73
     0
 40
0.0
  0
LTYPE
  5
15
330
5
100
AcDbSymbolTableRecord
100
AcDbLinetypeTableRecord
  2
BYLAYER
 70
     0
  3

 72
    65
 73
     0
 40
0.0
  0
LTYPE
  5
16
330
5
100
AcDbSymbolTableRecord
100
AcDbLinetypeTableRecord
  2
CONTINUOUS
 70
     0
  3
Solid line
 72
    65
 73
     0
 40
0.0
  0
ENDTAB
  0
TABLE
  2
LAYER
  5
2
100
AcDbSymbolTable
 70
1
  0
LAYER
  5
50
100
AcDbSymbolTableRecord
100
AcDbLayerTableRecord
  2
0
 70
0
  6
CONTINUOUS
  0
ENDTAB
  0
TABLE
  2
STYLE
  5
3
330
0
100
AcDbSymbolTable
 70
     1
  0
STYLE
  5
11
330
3
100
AcDbSymbolTableRecord
100
AcDbTextStyleTableRecord
  2
STANDARD
 70
     0
 40
0.0
 41
1.0
 50
0.0
 71
     0
 42
2.5
  3
txt
  4

  0
ENDTAB
  0
TABLE
  2
VIEW
  5
6
330
0
100
AcDbSymbolTable
 70
     0
  0
ENDTAB
  0
TABLE
  2
UCS
  5
7
330
0
100
AcDbSymbolTable
 70
     0
  0
ENDTAB
  0
TABLE
  2
APPID
  5
9
330
0
100
AcDbSymbolTable
 70
     2
  0
APPID
  5
12
330
9
100
AcDbSymbolTableRecord
100
AcDbRegAppTableRecord
  2
ACAD
 70
     0
  0
ENDTAB
  0
TABLE
  2
DIMSTYLE
  5
A
330
0
100
AcDbSymbolTable
 70
     1
  0
DIMSTYLE
105
27
330
A
100
AcDbSymbolTableRecord
100
AcDbDimStyleTableRecord
  2
ISO-25
 70
     0
  3

  4

  5

  6

  7

 40
1.0
 41
2.5
 42
0.625
 43
3.75
 44
1.25
 45
0.0
 46
0.0
 47
0.0
 48
0.0
140
2.5
141
2.5
142
0.0
143
0.03937007874016
144
1.0
145
0.0
146
1.0
147
0.625
 71
     0
 72
     0
 73
     0
 74
     0
 75
     0
 76
     0
 77
     1
 78
     8
170
     0
171
     3
172
     1
173
     0
174
     0
175
     0
176
     0
177
     0
178
     0
270
     2
271
     2
272
     2
273
     2
274
     3
340
11
275
     0
280
     0
281
     0
282
     0
283
     0
284
     8
285
     0
286
     0
287
     3
288
     0
  0
ENDTAB
  0
TABLE
  2
BLOCK_RECORD
  5
1
330
0
100
AcDbSymbolTable
 70
     1
  0
BLOCK_RECORD
  5
1F
330
1
100
AcDbSymbolTableRecord
100
AcDbBlockTableRecord
  2
*MODEL_SPACE
  0
BLOCK_RECORD
  5
1B
330
1
100
AcDbSymbolTableRecord
100
AcDbBlockTableRecord
  2
*PAPER_SPACE
  0
ENDTAB
  0
ENDSEC
  0
SECTION
  2
BLOCKS
  0
BLOCK
  5
20
330
1F
100
AcDbEntity
  8
0
100
AcDbBlockBegin
  2
*MODEL_SPACE
 70
     0
 10
0.0
 20
0.0
 30
0.0
  3
*MODEL_SPACE
  1

  0
ENDBLK
  5
21
330
1F
100
AcDbEntity
  8
0
100
AcDbBlockEnd
  0
BLOCK
  5
1C
330
1B
100
AcDbEntity
 67
     1
  8
0
100
AcDbBlockBegin
  2
*PAPER_SPACE
  1

  0
ENDBLK
  5
1D
330
1B
100
AcDbEntity
 67
     1
  8
0
100
AcDbBlockEnd
  0
ENDSEC
  0
SECTION
  2
ENTITIES
  0
LWPOLYLINE
  5
100
100
AcDbEntity
  8
0
 62
1
100
AcDbPolyline
 90
38
 70
1
 10
107.394440
 20
122.772119
 30
0.0
 10
107.394440
 20
103.087119
 30
0.0
 10
104.394440
 20
103.087119
 30
0.0
 10
104.394440
 20
88.457119
 30
0.0
 10
107.394440
 20
88.457119
 30
0.0
 10
107.394440
 20
73.827119
 30
0.0
 10
107.394440
 20
68.772119
 30
0.0
 10
117.819440
 20
68.772119
 30
0.0
 10
117.819440
 20
65.772119
 30
0.0
 10
132.449440
 20
65.772119
 30
0.0
 10
132.449440
 20
68.772119
 30
0.0
 10
147.079440
 20
68.772119
 30
0.0
 10
147.079440
 20
65.772119
 30
0.0
 10
161.709440
 20
65.772119
 30
0.0
 10
161.709440
 20
68.772119
 30
0.0
 10
176.339440
 20
68.772119
 30
0.0
 10
176.339440
 20
65.772119
 30
0.0
 10
190.969440
 20
65.772119
 30
0.0
 10
190.969440
 20
68.772119
 30
0.0
 10
201.394440
 20
68.772119
 30
0.0
 10
201.394440
 20
88.457119
 30
0.0
 10
204.394440
 20
88.457119
 30
0.0
 10
204.394440
 20
103.087119
 30
0.0
 10
201.394440
 20
103.087119
 30
0.0
 10
201.394440
 20
117.717119
 30
0.0
 10
201.394440
 20
122.772119
 30
0.0
 10
190.969440
 20
122.772119
 30
0.0
 10
190.969440
 20
125.772119
 30
0.0
 10
176.339440
 20
125.772119
 30
0.0
 10
176.339440
 20
122.772119
 30
0.0
 10
161.709440
 20
122.772119
 30
0.0
 10
161.709440
 20
125.772119
 30
0.0
 10
147.079440
 20
125.772119
 30
0.0
 10
147.079440
 20
122.772119
 30
0.0
 10
132.449440
 20
122.772119
 30
0.0
 10
132.449440
 20
125.772119
 30
0.0
 10
117.819440
 20
125.772119
 30
0.0
 10
117.819440
 20
122.772119
 30
0.0
  0
LWPOLYLINE
  5
101
100
AcDbEntity
  8
0
 62
1
100
AcDbPolyline
 90
36
 70
1
 10
0.933333
 20
62.871836
 30
0.0
 10
0.933333
 20
55.186836
 30
0.0
 10
3.933333
 20
55.186836
 30
0.0
 10
3.933333
 20
40.556836
 30
0.0
 10
0.933333
 20
40.556836
 30
0.0
 10
0.933333
 20
32.871836
 30
0.0
 10
14.358333
 20
32.871836
 30
0.0
 10
14.358333
 20
35.871836
 30
0.0
 10
28.988333
 20
35.871836
 30
0.0
 10
28.988333
 20
32.871836
 30
0.0
 10
43.618333
 20
32.871836
 30
0.0
 10
43.618333
 20
35.871836
 30
0.0
 10
58.248333
 20
35.871836
 30
0.0
 10
58.248333
 20
32.871836
 30
0.0
 10
72.878333
 20
32.871836
 30
0.0
 10
72.878333
 20
35.871836
 30
0.0
 10
87.508333
 20
35.871836
 30
0.0
 10
87.508333
 20
32.871836
 30
0.0
 10
100.933340
 20
32.871836
 30
0.0
 10
100.933340
 20
40.556836
 30
0.0
 10
97.933333
 20
40.556836
 30
0.0
 10
97.933333
 20
55.186836
 30
0.0
 10
100.933340
 20
55.186836
 30
0.0
 10
100.933340
 20
62.871836
 30
0.0
 10
87.508333
 20
62.871836
 30
0.0
 10
87.508333
 20
59.871836
 30
0.0
 10
72.878333
 20
59.871836
 30
0.0
 10
72.878333
 20
62.871836
 30
0.0
 10
58.248333
 20
62.871836
 30
0.0
 10
58.248333
 20
59.871836
 30
0.0
 10
43.618333
 20
59.871836
 30
0.0
 10
43.618333
 20
62.871836
 30
0.0
 10
28.988333
 20
62.871836
 30
0.0
 10
28.988333
 20
59.871836
 30
0.0
 10
14.358333
 20
59.871836
 30
0.0
 10
14.358333
 20
62.871836
 30
0.0
  0
LWPOLYLINE
  5
102
100
AcDbEntity
  8
0
 62
1
100
AcDbPolyline
 90
22
 70
1
 10
168.080700
 20
30.802215
 30
0.0
 10
168.080700
 20
23.117215
 30
0.0
 10
165.080700
 20
23.117215
 30
0.0
 10
165.080700
 20
8.487220
 30
0.0
 10
168.080700
 20
8.487220
 30
0.0
 10
168.080700
 20
0.802220
 30
0.0
 10
187.765700
 20
0.802220
 30
0.0
 10
187.765700
 20
3.802220
 30
0.0
 10
202.395700
 20
3.802220
 30
0.0
 10
202.395700
 20
0.802220
 30
0.0
 10
217.025700
 20
0.802220
 30
0.0
 10
222.080700
 20
0.802220
 30
0.0
 10
222.080700
 20
8.487220
 30
0.0
 10
225.080700
 20
8.487220
 30
0.0
 10
225.080700
 20
23.117215
 30
0.0
 10
222.080700
 20
23.117215
 30
0.0
 10
222.080700
 20
30.802215
 30
0.0
 10
202.395700
 20
30.802215
 30
0.0
 10
202.395700
 20
27.802215
 30
0.0
 10
187.765700
 20
27.802215
 30
0.0
 10
187.765700
 20
30.802215
 30
0.0
 10
173.135700
 20
30.802215
 30
0.0
  0
SPLINE
  5
103
100
AcDbEntity
  8
0
 62
1
100
AcDbSpline
 70
8
 71
3
 72
8
 73
4
 74
0
 40
0
 40
0
 40
0
 40
0
 40
1
 40
1
 40
1
 40
1
 10
91.500999
 20
118.755404
 30
0.0
 10
89.903210
 20
118.755404
 30
0.0
 10
88.462749
 20
117.792919
 30
0.0
 10
87.851302
 20
116.316754
 30
0.0
  0
SPLINE
  5
104
100
AcDbEntity
  8
0
 62
1
100
AcDbSpline
 70
8
 71
3
 72
8
 73
4
 74
0
 40
0
 40
0
 40
0
 40
0
 40
1
 40
1
 40
1
 40
1
 10
87.851302
 20
116.316754
 30
0.0
 10
87.239854
 20
114.840590
 30
0.0
 10
87.577834
 20
113.141451
 30
0.0
 10
88.707642
 20
112.011643
 30
0.0
  0
SPLINE
  5
105
100
AcDbEntity
  8
0
 62
1
100
AcDbSpline
 70
8
 71
3
 72
8
 73
4
 74
0
 40
0
 40
0
 40
0
 40
0
 40
1
 40
1
 40
1
 40
1
 10
88.707642
 20
112.011643
 30
0.0
 10
89.837449
 20
110.881836
 30
0.0
 10
91.536588
 20
110.543856
 30
0.0
 10
93.012753
 20
111.155303
 30
0.0
  0
SPLINE
  5
106
100
AcDbEntity
  8
0
 62
1
100
AcDbSpline
 70
8
 71
3
 72
8
 73
4
 74
0
 40
0
 40
0
 40
0
 40
0
 40
1
 40
1
 40
1
 40
1
 10
93.012753
 20
111.155303
 30
0.0
 10
94.488918
 20
111.766751
 30
0.0
 10
95.451403
 20
113.207211
 30
0.0
 10
95.451403
 20
114.805000
 30
0.0
  0
SPLINE
  5
107
100
AcDbEntity
  8
0
 62
1
100
AcDbSpline
 70
8
 71
3
 72
8
 73
4
 74
0
 40
0
 40
0
 40
0
 40
0
 40
1
 40
1
 40
1
 40
1
 10
95.451403
 20
114.805000
 30
0.0
 10
95.451403
 20
115.852713
 30
0.0
 10
95.035201
 20
116.857513
 30
0.0
 10
94.294356
 20
117.598358
 30
0.0
  0
SPLINE
  5
108
100
AcDbEntity
  8
0
 62
1
100
AcDbSpline
 70
8
 71
3
 72
8
 73
4
 74
0
 40
0
 40
0
 40
0
 40
0
 40
1
 40
1
 40
1
 40
1
 10
94.294356
 20
117.598358
 30
0.0
 10
93.553512
 20
118.339202
 30
0.0
 10
92.548711
 20
118.755404
 30
0.0
 10
91.500999
 20
118.755404
 30
0.0
  0
LWPOLYLINE
  5
109
100
AcDbEntity
  8
0
 62
1
100
AcDbPolyline
 90
38
 70
1
 10
4.420897
 20
121.785668
 30
0.0
 10
4.420897
 20
102.100668
 30
0.0
 10
1.420897
 20
102.100668
 30
0.0
 10
1.420897
 20
87.470668
 30
0.0
 10
4.420897
 20
87.470668
 30
0.0
 10
4.420897
 20
72.840668
 30
0.0
 10
4.420897
 20
67.785668
 30
0.0
 10
14.845897
 20
67.785668
 30
0.0
 10
14.845897
 20
64.785668
 30
0.0
 10
29.475897
 20
64.785668
 30
0.0
 10
29.475897
 20
67.785668
 30
0.0
 10
44.105897
 20
67.785668
 30
0.0
 10
44.105897
 20
64.785668
 30
0.0
 10
58.735897
 20
64.785668
 30
0.0
 10
58.735897
 20
67.785668
 30
0.0
 10
73.365897
 20
67.785668
 30
0.0
 10
73.365897
 20
64.785668
 30
0.0
 10
87.995897
 20
64.785668
 30
0.0
 10
87.995897
 20
67.785668
 30
0.0
 10
98.420897
 20
67.785668
 30
0.0
 10
98.420897
 20
87.470668
 30
0.0
 10
101.420900
 20
87.470668
 30
0.0
 10
101.420900
 20
102.100668
 30
0.0
 10
98.420897
 20
102.100668
 30
0.0
 10
98.420897
 20
116.730668
 30
0.0
 10
98.420897
 20
121.785668
 30
0.0
 10
87.995897
 20
121.785668
 30
0.0
 10
87.995897
 20
124.785668
 30
0.0
 10
73.365897
 20
124.785668
 30
0.0
 10
73.365897
 20
121.785668
 30
0.0
 10
58.735897
 20
121.785668
 30
0.0
 10
58.735897
 20
124.785668
 30
0.0
 10
44.105897
 20
124.785668
 30
0.0
 10
44.105897
 20
121.785668
 30
0.0
 10
29.475897
 20
121.785668
 30
0.0
 10
29.475897
 20
124.785668
 30
0.0
 10
14.845897
 20
124.785668
 30
0.0
 10
14.845897
 20
121.785668
 30
0.0
  0
SPLINE
  5
10a
100
AcDbEntity
  8
0
 62
1
100
AcDbSpline
 70
8
 71
3
 72
8
 73
4
 74
0
 40
0
 40
0
 40
0
 40
0
 40
1
 40
1
 40
1
 40
1
 10
91.375999
 20
78.839404
 30
0.0
 10
89.778210
 20
78.839404
 30
0.0
 10
88.337749
 20
77.876919
 30
0.0
 10
87.726302
 20
76.400754
 30
0.0
  0
SPLINE
  5
10b
100
AcDbEntity
  8
0
 62
1
100
AcDbSpline
 70
8
 71
3
 72
8
 73
4
 74
0
 40
0
 40
0
 40
0
 40
0
 40
1
 40
1
 40
1
 40
1
 10
87.726302
 20
76.400754
 30
0.0
 10
87.114854
 20
74.924589
 30
0.0
 10
87.452834
 20
73.225450
 30
0.0
 10
88.582642
 20
72.095643
 30
0.0
  0
SPLINE
  5
10c
100
AcDbEntity
  8
0
 62
1
100
AcDbSpline
 70
8
 71
3
 72
8
 73
4
 74
0
 40
0
 40
0
 40
0
 40
0
 40
1
 40
1
 40
1
 40
1
 10
88.582642
 20
72.095643
 30
0.0
 10
89.712449
 20
70.965835
 30
0.0
 10
91.411588
 20
70.627855
 30
0.0
 10
92.887753
 20
71.239303
 30
0.0
  0
SPLINE
  5
10d
100
AcDbEntity
  8
0
 62
1
100
AcDbSpline
 70
8
 71
3
 72
8
 73
4
 74
0
 40
0
 40
0
 40
0
 40
0
 40
1
 40
1
 40
1
 40
1
 10
92.887753
 20
71.239303
 30
0.0
 10
94.363918
 20
71.850750
 30
0.0
 10
95.326403
 20
73.291211
 30
0.0
 10
95.326403
 20
74.889000
 30
0.0
  0
SPLINE
  5
10e
100
AcDbEntity
  8
0
 62
1
100
AcDbSpline
 70
8
 71
3
 72
8
 73
4
 74
0
 40
0
 40
0
 40
0
 40
0
 40
1
 40
1
 40
1
 40
1
 10
95.326403
 20
74.889000
 30
0.0
 10
95.326403
 20
75.936712
 30
0.0
 10
94.910201
 20
76.941513
 30
0.0
 10
94.169356
 20
77.682357
 30
0.0
  0
SPLINE
  5
10f
100
AcDbEntity
  8
0
 62
1
100
AcDbSpline
 70
8
 71
3
 72
8
 73
4
 74
0
 40
0
 40
0
 40
0
 40
0
 40
1
 40
1
 40
1
 40
1
 10
94.169356
 20
77.682357
 30
0.0
 10
93.428512
 20
78.423202
 30
0.0
 10
92.423711
 20
78.839404
 30
0.0
 10
91.375999
 20
78.839404
 30
0.0
  0
LWPOLYLINE
  5
110
100
AcDbEntity
  8
0
 62
1
100
AcDbPolyline
 90
1
 70
1
 10
91.500999
 20
118.755404
 30
0.0
  0
SPLINE
  5
111
100
AcDbEntity
  8
0
 62
1
100
AcDbSpline
 70
8
 71
3
 72
8
 73
4
 74
0
 40
0
 40
0
 40
0
 40
0
 40
1
 40
1
 40
1
 40
1
 10
11.419000
 20
78.918403
 30
0.0
 10
9.821211
 20
78.918403
 30
0.0
 10
8.380750
 20
77.955918
 30
0.0
 10
7.769303
 20
76.479753
 30
0.0
  0
SPLINE
  5
112
100
AcDbEntity
  8
0
 62
1
100
AcDbSpline
 70
8
 71
3
 72
8
 73
4
 74
0
 40
0
 40
0
 40
0
 40
0
 40
1
 40
1
 40
1
 40
1
 10
7.769303
 20
76.479753
 30
0.0
 10
7.157855
 20
75.003588
 30
0.0
 10
7.495835
 20
73.304449
 30
0.0
 10
8.625643
 20
72.174642
 30
0.0
  0
SPLINE
  5
113
100
AcDbEntity
  8
0
 62
1
100
AcDbSpline
 70
8
 71
3
 72
8
 73
4
 74
0
 40
0
 40
0
 40
0
 40
0
 40
1
 40
1
 40
1
 40
1
 10
8.625643
 20
72.174642
 30
0.0
 10
9.755450
 20
71.044834
 30
0.0
 10
11.454589
 20
70.706854
 30
0.0
 10
12.930754
 20
71.318302
 30
0.0
  0
SPLINE
  5
114
100
AcDbEntity
  8
0
 62
1
100
AcDbSpline
 70
8
 71
3
 72
8
 73
4
 74
0
 40
0
 40
0
 40
0
 40
0
 40
1
 40
1
 40
1
 40
1
 10
12.930754
 20
71.318302
 30
0.0
 10
14.406919
 20
71.929749
 30
0.0
 10
15.369404
 20
73.370210
 30
0.0
 10
15.369404
 20
74.967999
 30
0.0
  0
SPLINE
  5
115
100
AcDbEntity
  8
0
 62
1
100
AcDbSpline
 70
8
 71
3
 72
8
 73
4
 74
0
 40
0
 40
0
 40
0
 40
0
 40
1
 40
1
 40
1
 40
1
 10
15.369404
 20
74.967999
 30
0.0
 10
15.369404
 20
77.149747
 30
0.0
 10
13.600748
 20
78.918403
 30
0.0
 10
11.419000
 20
78.918403
 30
0.0
  0
LWPOLYLINE
  5
116
100
AcDbEntity
  8
0
 62
1
100
AcDbPolyline
 90
1
 70
1
 10
91.375999
 20
78.839404
 30
0.0
  0
SPLINE
  5
117
100
AcDbEntity
  8
0
 62
1
100
AcDbSpline
 70
8
 71
3
 72
8
 73
4
 74
0
 40
0
 40
0
 40
0
 40
0
 40
1
 40
1
 40
1
 40
1
 10
11.418000
 20
118.794404
 30
0.0
 10
9.820211
 20
118.794404
 30
0.0
 10
8.379750
 20
117.831919
 30
0.0
 10
7.768303
 20
116.355754
 30
0.0
  0
SPLINE
  5
118
100
AcDbEntity
  8
0
 62
1
100
AcDbSpline
 70
8
 71
3
 72
8
 73
4
 74
0
 40
0
 40
0
 40
0
 40
0
 40
1
 40
1
 40
1
 40
1
 10
7.768303
 20
116.355754
 30
0.0
 10
7.156855
 20
114.879589
 30
0.0
 10
7.494835
 20
113.180450
 30
0.0
 10
8.624643
 20
112.050643
 30
0.0
  0
SPLINE
  5
119
100
AcDbEntity
  8
0
 62
1
100
AcDbSpline
 70
8
 71
3
 72
8
 73
4
 74
0
 40
0
 40
0
 40
0
 40
0
 40
1
 40
1
 40
1
 40
1
 10
8.624643
 20
112.050643
 30
0.0
 10
9.754450
 20
110.920835
 30
0.0
 10
11.453589
 20
110.582855
 30
0.0
 10
12.929754
 20
111.194303
 30
0.0
  0
SPLINE
  5
11a
100
AcDbEntity
  8
0
 62
1
100
AcDbSpline
 70
8
 71
3
 72
8
 73
4
 74
0
 40
0
 40
0
 40
0
 40
0
 40
1
 40
1
 40
1
 40
1
 10
12.929754
 20
111.194303
 30
0.0
 10
14.405919
 20
111.805750
 30
0.0
 10
15.368404
 20
113.246211
 30
0.0
 10
15.368404
 20
114.844000
 30
0.0
  0
SPLINE
  5
11b
100
AcDbEntity
  8
0
 62
1
100
AcDbSpline
 70
8
 71
3
 72
8
 73
4
 74
0
 40
0
 40
0
 40
0
 40
0
 40
1
 40
1
 40
1
 40
1
 10
15.368404
 20
114.844000
 30
0.0
 10
15.368404
 20
115.891712
 30
0.0
 10
14.952202
 20
116.896513
 30
0.0
 10
14.211357
 20
117.637357
 30
0.0
  0
SPLINE
  5
11c
100
AcDbEntity
  8
0
 62
1
100
AcDbSpline
 70
8
 71
3
 72
8
 73
4
 74
0
 40
0
 40
0
 40
0
 40
0
 40
1
 40
1
 40
1
 40
1
 10
14.211357
 20
117.637357
 30
0.0
 10
13.470513
 20
118.378202
 30
0.0
 10
12.465712
 20
118.794404
 30
0.0
 10
11.418000
 20
118.794404
 30
0.0
  0
LWPOLYLINE
  5
11d
100
AcDbEntity
  8
0
 62
1
100
AcDbPolyline
 90
1
 70
1
 10
11.419000
 20
78.918403
 30
0.0
  0
SPLINE
  5
11e
100
AcDbEntity
  8
0
 62
1
100
AcDbSpline
 70
8
 71
3
 72
8
 73
4
 74
0
 40
0
 40
0
 40
0
 40
0
 40
1
 40
1
 40
1
 40
1
 10
177.967760
 20
13.846404
 30
0.0
 10
176.369971
 20
13.846404
 30
0.0
 10
174.929510
 20
12.883919
 30
0.0
 10
174.318063
 20
11.407754
 30
0.0
  0
SPLINE
  5
11f
100
AcDbEntity
  8
0
 62
1
100
AcDbSpline
 70
8
 71
3
 72
8
 73
4
 74
0
 40
0
 40
0
 40
0
 40
0
 40
1
 40
1
 40
1
 40
1
 10
174.318063
 20
11.407754
 30
0.0
 10
173.706615
 20
9.931589
 30
0.0
 10
174.044595
 20
8.232450
 30
0.0
 10
175.174403
 20
7.102643
 30
0.0
  0
SPLINE
  5
120
100
AcDbEntity
  8
0
 62
1
100
AcDbSpline
 70
8
 71
3
 72
8
 73
4
 74
0
 40
0
 40
0
 40
0
 40
0
 40
1
 40
1
 40
1
 40
1
 10
175.174403
 20
7.102643
 30
0.0
 10
176.304210
 20
5.972835
 30
0.0
 10
178.003349
 20
5.634855
 30
0.0
 10
179.479514
 20
6.246303
 30
0.0
  0
SPLINE
  5
121
100
AcDbEntity
  8
0
 62
1
100
AcDbSpline
 70
8
 71
3
 72
8
 73
4
 74
0
 40
0
 40
0
 40
0
 40
0
 40
1
 40
1
 40
1
 40
1
 10
179.479514
 20
6.246303
 30
0.0
 10
180.955679
 20
6.857750
 30
0.0
 10
181.918164
 20
8.298211
 30
0.0
 10
181.918164
 20
9.896000
 30
0.0
  0
SPLINE
  5
122
100
AcDbEntity
  8
0
 62
1
100
AcDbSpline
 70
8
 71
3
 72
8
 73
4
 74
0
 40
0
 40
0
 40
0
 40
0
 40
1
 40
1
 40
1
 40
1
 10
181.918164
 20
9.896000
 30
0.0
 10
181.918164
 20
10.943712
 30
0.0
 10
181.501962
 20
11.948513
 30
0.0
 10
180.761117
 20
12.689357
 30
0.0
  0
SPLINE
  5
123
100
AcDbEntity
  8
0
 62
1
100
AcDbSpline
 70
8
 71
3
 72
8
 73
4
 74
0
 40
0
 40
0
 40
0
 40
0
 40
1
 40
1
 40
1
 40
1
 10
180.761117
 20
12.689357
 30
0.0
 10
180.020273
 20
13.430202
 30
0.0
 10
179.015472
 20
13.846404
 30
0.0
 10
177.967760
 20
13.846404
 30
0.0
  0
LWPOLYLINE
  5
124
100
AcDbEntity
  8
0
 62
1
100
AcDbPolyline
 90
1
 70
1
 10
11.418000
 20
118.794404
 30
0.0
  0
SPLINE
  5
125
100
AcDbEntity
  8
0
 62
1
100
AcDbSpline
 70
8
 71
3
 72
8
 73
4
 74
0
 40
0
 40
0
 40
0
 40
0
 40
1
 40
1
 40
1
 40
1
 10
212.341870
 20
13.846404
 30
0.0
 10
210.744081
 20
13.846404
 30
0.0
 10
209.303620
 20
12.883919
 30
0.0
 10
208.692173
 20
11.407754
 30
0.0
  0
SPLINE
  5
126
100
AcDbEntity
  8
0
 62
1
100
AcDbSpline
 70
8
 71
3
 72
8
 73
4
 74
0
 40
0
 40
0
 40
0
 40
0
 40
1
 40
1
 40
1
 40
1
 10
208.692173
 20
11.407754
 30
0.0
 10
208.080725
 20
9.931589
 30
0.0
 10
208.418705
 20
8.232450
 30
0.0
 10
209.548513
 20
7.102643
 30
0.0
  0
SPLINE
  5
127
100
AcDbEntity
  8
0
 62
1
100
AcDbSpline
 70
8
 71
3
 72
8
 73
4
 74
0
 40
0
 40
0
 40
0
 40
0
 40
1
 40
1
 40
1
 40
1
 10
209.548513
 20
7.102643
 30
0.0
 10
210.678320
 20
5.972835
 30
0.0
 10
212.377459
 20
5.634855
 30
0.0
 10
213.853624
 20
6.246303
 30
0.0
  0
SPLINE
  5
128
100
AcDbEntity
  8
0
 62
1
100
AcDbSpline
 70
8
 71
3
 72
8
 73
4
 74
0
 40
0
 40
0
 40
0
 40
0
 40
1
 40
1
 40
1
 40
1
 10
213.853624
 20
6.246303
 30
0.0
 10
215.329789
 20
6.857750
 30
0.0
 10
216.292274
 20
8.298211
 30
0.0
 10
216.292274
 20
9.896000
 30
0.0
  0
SPLINE
  5
129
100
AcDbEntity
  8
0
 62
1
100
AcDbSpline
 70
8
 71
3
 72
8
 73
4
 74
0
 40
0
 40
0
 40
0
 40
0
 40
1
 40
1
 40
1
 40
1
 10
216.292274
 20
9.896000
 30
0.0
 10
216.292274
 20
10.943712
 30
0.0
 10
215.876072
 20
11.948513
 30
0.0
 10
215.135227
 20
12.689357
 30
0.0
  0
SPLINE
  5
12a
100
AcDbEntity
  8
0
 62
1
100
AcDbSpline
 70
8
 71
3
 72
8
 73
4
 74
0
 40
0
 40
0
 40
0
 40
0
 40
1
 40
1
 40
1
 40
1
 10
215.135227
 20
12.689357
 30
0.0
 10
214.394383
 20
13.430202
 30
0.0
 10
213.389582
 20
13.846404
 30
0.0
 10
212.341870
 20
13.846404
 30
0.0
  0
LWPOLYLINE
  5
12b
100
AcDbEntity
  8
0
 62
1
100
AcDbPolyline
 90
1
 70
1
 10
177.967760
 20
13.846404
 30
0.0
  0
LWPOLYLINE
  5
12c
100
AcDbEntity
  8
0
 62
1
100
AcDbPolyline
 90
1
 70
1
 10
212.341870
 20
13.846404
 30
0.0
  0
SPLINE
  5
12d
100
AcDbEntity
  8
0
 62
1
100
AcDbSpline
 70
8
 71
3
 72
8
 73
4
 74
0
 40
0
 40
0
 40
0
 40
0
 40
1
 40
1
 40
1
 40
1
 10
115.854770
 20
13.846404
 30
0.0
 10
114.256981
 20
13.846404
 30
0.0
 10
112.816520
 20
12.883919
 30
0.0
 10
112.205073
 20
11.407754
 30
0.0
  0
SPLINE
  5
12e
100
AcDbEntity
  8
0
 62
1
100
AcDbSpline
 70
8
 71
3
 72
8
 73
4
 74
0
 40
0
 40
0
 40
0
 40
0
 40
1
 40
1
 40
1
 40
1
 10
112.205073
 20
11.407754
 30
0.0
 10
111.593625
 20
9.931589
 30
0.0
 10
111.931605
 20
8.232450
 30
0.0
 10
113.061413
 20
7.102643
 30
0.0
  0
SPLINE
  5
12f
100
AcDbEntity
  8
0
 62
1
100
AcDbSpline
 70
8
 71
3
 72
8
 73
4
 74
0
 40
0
 40
0
 40
0
 40
0
 40
1
 40
1
 40
1
 40
1
 10
113.061413
 20
7.102643
 30
0.0
 10
114.191220
 20
5.972835
 30
0.0
 10
115.890359
 20
5.634855
 30
0.0
 10
117.366524
 20
6.246303
 30
0.0
  0
SPLINE
  5
130
100
AcDbEntity
  8
0
 62
1
100
AcDbSpline
 70
8
 71
3
 72
8
 73
4
 74
0
 40
0
 40
0
 40
0
 40
0
 40
1
 40
1
 40
1
 40
1
 10
117.366524
 20
6.246303
 30
0.0
 10
118.842689
 20
6.857750
 30
0.0
 10
119.805174
 20
8.298211
 30
0.0
 10
119.805174
 20
9.896000
 30
0.0
  0
SPLINE
  5
131
100
AcDbEntity
  8
0
 62
1
100
AcDbSpline
 70
8
 71
3
 72
8
 73
4
 74
0
 40
0
 40
0
 40
0
 40
0
 40
1
 40
1
 40
1
 40
1
 10
119.805174
 20
9.896000
 30
0.0
 10
119.805174
 20
10.943712
 30
0.0
 10
119.388972
 20
11.948513
 30
0.0
 10
118.648127
 20
12.689357
 30
0.0
  0
SPLINE
  5
132
100
AcDbEntity
  8
0
 62
1
100
AcDbSpline
 70
8
 71
3
 72
8
 73
4
 74
0
 40
0
 40
0
 40
0
 40
0
 40
1
 40
1
 40
1
 40
1
 10
118.648127
 20
12.689357
 30
0.0
 10
117.907283
 20
13.430202
 30
0.0
 10
116.902482
 20
13.846404
 30
0.0
 10
115.854770
 20
13.846404
 30
0.0
  0
LWPOLYLINE
  5
133
100
AcDbEntity
  8
0
 62
1
100
AcDbPolyline
 90
22
 70
1
 10
106.000000
 20
30.802220
 30
0.0
 10
106.000000
 20
23.117220
 30
0.0
 10
103.000000
 20
23.117220
 30
0.0
 10
103.000000
 20
8.487220
 30
0.0
 10
106.000000
 20
8.487220
 30
0.0
 10
106.000000
 20
0.802220
 30
0.0
 10
125.685000
 20
0.802220
 30
0.0
 10
125.685000
 20
3.802220
 30
0.0
 10
140.315000
 20
3.802220
 30
0.0
 10
140.315000
 20
0.802220
 30
0.0
 10
154.945000
 20
0.802220
 30
0.0
 10
160.000000
 20
0.802220
 30
0.0
 10
160.000000
 20
8.487220
 30
0.0
 10
163.000000
 20
8.487220
 30
0.0
 10
163.000000
 20
23.117220
 30
0.0
 10
160.000000
 20
23.117220
 30
0.0
 10
160.000000
 20
30.802220
 30
0.0
 10
140.315000
 20
30.802220
 30
0.0
 10
140.315000
 20
27.802220
 30
0.0
 10
125.685000
 20
27.802220
 30
0.0
 10
125.685000
 20
30.802220
 30
0.0
 10
111.055000
 20
30.802220
 30
0.0
  0
SPLINE
  5
134
100
AcDbEntity
  8
0
 62
1
100
AcDbSpline
 70
8
 71
3
 72
8
 73
4
 74
0
 40
0
 40
0
 40
0
 40
0
 40
1
 40
1
 40
1
 40
1
 10
150.228880
 20
13.846404
 30
0.0
 10
148.631091
 20
13.846404
 30
0.0
 10
147.190630
 20
12.883919
 30
0.0
 10
146.579183
 20
11.407754
 30
0.0
  0
SPLINE
  5
135
100
AcDbEntity
  8
0
 62
1
100
AcDbSpline
 70
8
 71
3
 72
8
 73
4
 74
0
 40
0
 40
0
 40
0
 40
0
 40
1
 40
1
 40
1
 40
1
 10
146.579183
 20
11.407754
 30
0.0
 10
145.967735
 20
9.931589
 30
0.0
 10
146.305715
 20
8.232450
 30
0.0
 10
147.435523
 20
7.102643
 30
0.0
  0
SPLINE
  5
136
100
AcDbEntity
  8
0
 62
1
100
AcDbSpline
 70
8
 71
3
 72
8
 73
4
 74
0
 40
0
 40
0
 40
0
 40
0
 40
1
 40
1
 40
1
 40
1
 10
147.435523
 20
7.102643
 30
0.0
 10
148.565330
 20
5.972835
 30
0.0
 10
150.264469
 20
5.634855
 30
0.0
 10
151.740634
 20
6.246303
 30
0.0
  0
SPLINE
  5
137
100
AcDbEntity
  8
0
 62
1
100
AcDbSpline
 70
8
 71
3
 72
8
 73
4
 74
0
 40
0
 40
0
 40
0
 40
0
 40
1
 40
1
 40
1
 40
1
 10
151.740634
 20
6.246303
 30
0.0
 10
153.216799
 20
6.857750
 30
0.0
 10
154.179284
 20
8.298211
 30
0.0
 10
154.179284
 20
9.896000
 30
0.0
  0
SPLINE
  5
138
100
AcDbEntity
  8
0
 62
1
100
AcDbSpline
 70
8
 71
3
 72
8
 73
4
 74
0
 40
0
 40
0
 40
0
 40
0
 40
1
 40
1
 40
1
 40
1
 10
154.179284
 20
9.896000
 30
0.0
 10
154.179284
 20
10.943712
 30
0.0
 10
153.763082
 20
11.948513
 30
0.0
 10
153.022237
 20
12.689357
 30
0.0
  0
SPLINE
  5
139
100
AcDbEntity
  8
0
 62
1
100
AcDbSpline
 70
8
 71
3
 72
8
 73
4
 74
0
 40
0
 40
0
 40
0
 40
0
 40
1
 40
1
 40
1
 40
1
 10
153.022237
 20
12.689357
 30
0.0
 10
152.281393
 20
13.430202
 30
0.0
 10
151.276592
 20
13.846404
 30
0.0
 10
150.228880
 20
13.846404
 30
0.0
  0
LWPOLYLINE
  5
13a
100
AcDbEntity
  8
0
 62
1
100
AcDbPolyline
 90
1
 70
1
 10
115.854770
 20
13.846404
 30
0.0
  0
LWPOLYLINE
  5
13b
100
AcDbEntity
  8
0
 62
1
100
AcDbPolyline
 90
1
 70
1
 10
150.228880
 20
13.846404
 30
0.0
  0
SPLINE
  5
13c
100
AcDbEntity
  8
0
 62
1
100
AcDbSpline
 70
8
 71
3
 72
8
 73
4
 74
0
 40
0
 40
0
 40
0
 40
0
 40
1
 40
1
 40
1
 40
1
 10
20.852833
 20
13.846404
 30
0.0
 10
19.255044
 20
13.846404
 30
0.0
 10
17.814583
 20
12.883919
 30
0.0
 10
17.203136
 20
11.407754
 30
0.0
  0
SPLINE
  5
13d
100
AcDbEntity
  8
0
 62
1
100
AcDbSpline
 70
8
 71
3
 72
8
 73
4
 74
0
 40
0
 40
0
 40
0
 40
0
 40
1
 40
1
 40
1
 40
1
 10
17.203136
 20
11.407754
 30
0.0
 10
16.591688
 20
9.931589
 30
0.0
 10
16.929668
 20
8.232450
 30
0.0
 10
18.059476
 20
7.102643
 30
0.0
  0
SPLINE
  5
13e
100
AcDbEntity
  8
0
 62
1
100
AcDbSpline
 70
8
 71
3
 72
8
 73
4
 74
0
 40
0
 40
0
 40
0
 40
0
 40
1
 40
1
 40
1
 40
1
 10
18.059476
 20
7.102643
 30
0.0
 10
19.189283
 20
5.972835
 30
0.0
 10
20.888422
 20
5.634855
 30
0.0
 10
22.364587
 20
6.246303
 30
0.0
  0
SPLINE
  5
13f
100
AcDbEntity
  8
0
 62
1
100
AcDbSpline
 70
8
 71
3
 72
8
 73
4
 74
0
 40
0
 40
0
 40
0
 40
0
 40
1
 40
1
 40
1
 40
1
 10
22.364587
 20
6.246303
 30
0.0
 10
23.840752
 20
6.857750
 30
0.0
 10
24.803237
 20
8.298211
 30
0.0
 10
24.803237
 20
9.896000
 30
0.0
  0
SPLINE
  5
140
100
AcDbEntity
  8
0
 62
1
100
AcDbSpline
 70
8
 71
3
 72
8
 73
4
 74
0
 40
0
 40
0
 40
0
 40
0
 40
1
 40
1
 40
1
 40
1
 10
24.803237
 20
9.896000
 30
0.0
 10
24.803237
 20
10.943712
 30
0.0
 10
24.387035
 20
11.948513
 30
0.0
 10
23.646190
 20
12.689357
 30
0.0
  0
SPLINE
  5
141
100
AcDbEntity
  8
0
 62
1
100
AcDbSpline
 70
8
 71
3
 72
8
 73
4
 74
0
 40
0
 40
0
 40
0
 40
0
 40
1
 40
1
 40
1
 40
1
 10
23.646190
 20
12.689357
 30
0.0
 10
22.905346
 20
13.430202
 30
0.0
 10
21.900545
 20
13.846404
 30
0.0
 10
20.852833
 20
13.846404
 30
0.0
  0
LWPOLYLINE
  5
142
100
AcDbEntity
  8
0
 62
1
100
AcDbPolyline
 90
36
 70
1
 10
0.000000
 20
30.802220
 30
0.0
 10
0.000000
 20
23.117220
 30
0.0
 10
3.000000
 20
23.117220
 30
0.0
 10
3.000000
 20
8.487220
 30
0.0
 10
0.000000
 20
8.487220
 30
0.0
 10
0.000000
 20
0.802220
 30
0.0
 10
13.425000
 20
0.802220
 30
0.0
 10
13.425000
 20
3.802220
 30
0.0
 10
28.055000
 20
3.802220
 30
0.0
 10
28.055000
 20
0.802220
 30
0.0
 10
42.685000
 20
0.802220
 30
0.0
 10
42.685000
 20
3.802220
 30
0.0
 10
57.315000
 20
3.802220
 30
0.0
 10
57.315000
 20
0.802220
 30
0.0
 10
71.945000
 20
0.802220
 30
0.0
 10
71.945000
 20
3.802220
 30
0.0
 10
86.575000
 20
3.802220
 30
0.0
 10
86.575000
 20
0.802220
 30
0.0
 10
100.000000
 20
0.802220
 30
0.0
 10
100.000000
 20
8.487220
 30
0.0
 10
97.000000
 20
8.487220
 30
0.0
 10
97.000000
 20
23.117220
 30
0.0
 10
100.000000
 20
23.117220
 30
0.0
 10
100.000000
 20
30.802220
 30
0.0
 10
86.575000
 20
30.802220
 30
0.0
 10
86.575000
 20
27.802220
 30
0.0
 10
71.945000
 20
27.802220
 30
0.0
 10
71.945000
 20
30.802220
 30
0.0
 10
57.315000
 20
30.802220
 30
0.0
 10
57.315000
 20
27.802220
 30
0.0
 10
42.685000
 20
27.802220
 30
0.0
 10
42.685000
 20
30.802220
 30
0.0
 10
28.055000
 20
30.802220
 30
0.0
 10
28.055000
 20
27.802220
 30
0.0
 10
13.425000
 20
27.802220
 30
0.0
 10
13.425000
 20
30.802220
 30
0.0
  0
SPLINE
  5
143
100
AcDbEntity
  8
0
 62
1
100
AcDbSpline
 70
8
 71
3
 72
8
 73
4
 74
0
 40
0
 40
0
 40
0
 40
0
 40
1
 40
1
 40
1
 40
1
 10
49.966148
 20
13.846404
 30
0.0
 10
48.368359
 20
13.846404
 30
0.0
 10
46.927898
 20
12.883919
 30
0.0
 10
46.316451
 20
11.407754
 30
0.0
  0
SPLINE
  5
144
100
AcDbEntity
  8
0
 62
1
100
AcDbSpline
 70
8
 71
3
 72
8
 73
4
 74
0
 40
0
 40
0
 40
0
 40
0
 40
1
 40
1
 40
1
 40
1
 10
46.316451
 20
11.407754
 30
0.0
 10
45.705003
 20
9.931589
 30
0.0
 10
46.042983
 20
8.232450
 30
0.0
 10
47.172791
 20
7.102643
 30
0.0
  0
SPLINE
  5
145
100
AcDbEntity
  8
0
 62
1
100
AcDbSpline
 70
8
 71
3
 72
8
 73
4
 74
0
 40
0
 40
0
 40
0
 40
0
 40
1
 40
1
 40
1
 40
1
 10
47.172791
 20
7.102643
 30
0.0
 10
48.302598
 20
5.972835
 30
0.0
 10
50.001737
 20
5.634855
 30
0.0
 10
51.477902
 20
6.246303
 30
0.0
  0
SPLINE
  5
146
100
AcDbEntity
  8
0
 62
1
100
AcDbSpline
 70
8
 71
3
 72
8
 73
4
 74
0
 40
0
 40
0
 40
0
 40
0
 40
1
 40
1
 40
1
 40
1
 10
51.477902
 20
6.246303
 30
0.0
 10
52.954067
 20
6.857750
 30
0.0
 10
53.916552
 20
8.298211
 30
0.0
 10
53.916552
 20
9.896000
 30
0.0
  0
SPLINE
  5
147
100
AcDbEntity
  8
0
 62
1
100
AcDbSpline
 70
8
 71
3
 72
8
 73
4
 74
0
 40
0
 40
0
 40
0
 40
0
 40
1
 40
1
 40
1
 40
1
 10
53.916552
 20
9.896000
 30
0.0
 10
53.916552
 20
10.943712
 30
0.0
 10
53.500350
 20
11.948513
 30
0.0
 10
52.759505
 20
12.689357
 30
0.0
  0
SPLINE
  5
148
100
AcDbEntity
  8
0
 62
1
100
AcDbSpline
 70
8
 71
3
 72
8
 73
4
 74
0
 40
0
 40
0
 40
0
 40
0
 40
1
 40
1
 40
1
 40
1
 10
52.759505
 20
12.689357
 30
0.0
 10
52.018661
 20
13.430202
 30
0.0
 10
51.013860
 20
13.846404
 30
0.0
 10
49.966148
 20
13.846404
 30
0.0
  0
LWPOLYLINE
  5
149
100
AcDbEntity
  8
0
 62
1
100
AcDbPolyline
 90
1
 70
1
 10
20.852833
 20
13.846404
 30
0.0
  0
SPLINE
  5
14a
100
AcDbEntity
  8
0
 62
1
100
AcDbSpline
 70
8
 71
3
 72
8
 73
4
 74
0
 40
0
 40
0
 40
0
 40
0
 40
1
 40
1
 40
1
 40
1
 10
79.324448
 20
13.846404
 30
0.0
 10
77.726659
 20
13.846404
 30
0.0
 10
76.286198
 20
12.883919
 30
0.0
 10
75.674751
 20
11.407754
 30
0.0
  0
SPLINE
  5
14b
100
AcDbEntity
  8
0
 62
1
100
AcDbSpline
 70
8
 71
3
 72
8
 73
4
 74
0
 40
0
 40
0
 40
0
 40
0
 40
1
 40
1
 40
1
 40
1
 10
75.674751
 20
11.407754
 30
0.0
 10
75.063303
 20
9.931589
 30
0.0
 10
75.401283
 20
8.232450
 30
0.0
 10
76.531091
 20
7.102643
 30
0.0
  0
SPLINE
  5
14c
100
AcDbEntity
  8
0
 62
1
100
AcDbSpline
 70
8
 71
3
 72
8
 73
4
 74
0
 40
0
 40
0
 40
0
 40
0
 40
1
 40
1
 40
1
 40
1
 10
76.531091
 20
7.102643
 30
0.0
 10
77.660898
 20
5.972835
 30
0.0
 10
79.360037
 20
5.634855
 30
0.0
 10
80.836202
 20
6.246303
 30
0.0
  0
SPLINE
  5
14d
100
AcDbEntity
  8
0
 62
1
100
AcDbSpline
 70
8
 71
3
 72
8
 73
4
 74
0
 40
0
 40
0
 40
0
 40
0
 40
1
 40
1
 40
1
 40
1
 10
80.836202
 20
6.246303
 30
0.0
 10
82.312367
 20
6.857750
 30
0.0
 10
83.274852
 20
8.298211
 30
0.0
 10
83.274852
 20
9.896000
 30
0.0
  0
SPLINE
  5
14e
100
AcDbEntity
  8
0
 62
1
100
AcDbSpline
 70
8
 71
3
 72
8
 73
4
 74
0
 40
0
 40
0
 40
0
 40
0
 40
1
 40
1
 40
1
 40
1
 10
83.274852
 20
9.896000
 30
0.0
 10
83.274852
 20
10.943712
 30
0.0
 10
82.858650
 20
11.948513
 30
0.0
 10
82.117805
 20
12.689357
 30
0.0
  0
SPLINE
  5
14f
100
AcDbEntity
  8
0
 62
1
100
AcDbSpline
 70
8
 71
3
 72
8
 73
4
 74
0
 40
0
 40
0
 40
0
 40
0
 40
1
 40
1
 40
1
 40
1
 10
82.117805
 20
12.689357
 30
0.0
 10
81.376961
 20
13.430202
 30
0.0
 10
80.372160
 20
13.846404
 30
0.0
 10
79.324448
 20
13.846404
 30
0.0
  0
LWPOLYLINE
  5
150
100
AcDbEntity
  8
0
 62
1
100
AcDbPolyline
 90
1
 70
1
 10
49.966148
 20
13.846404
 30
0.0
  0
SPLINE
  5
151
100
AcDbEntity
  8
0
 62
1
100
AcDbSpline
 70
8
 71
3
 72
8
 73
4
 74
0
 40
0
 40
0
 40
0
 40
0
 40
1
 40
1
 40
1
 40
1
 10
21.697526
 20
51.822204
 30
0.0
 10
20.099737
 20
51.822204
 30
0.0
 10
18.659276
 20
50.859719
 30
0.0
 10
18.047829
 20
49.383554
 30
0.0
  0
SPLINE
  5
152
100
AcDbEntity
  8
0
 62
1
100
AcDbSpline
 70
8
 71
3
 72
8
 73
4
 74
0
 40
0
 40
0
 40
0
 40
0
 40
1
 40
1
 40
1
 40
1
 10
18.047829
 20
49.383554
 30
0.0
 10
17.436381
 20
47.907389
 30
0.0
 10
17.774361
 20
46.208250
 30
0.0
 10
18.904169
 20
45.078443
 30
0.0
  0
SPLINE
  5
153
100
AcDbEntity
  8
0
 62
1
100
AcDbSpline
 70
8
 71
3
 72
8
 73
4
 74
0
 40
0
 40
0
 40
0
 40
0
 40
1
 40
1
 40
1
 40
1
 10
18.904169
 20
45.078443
 30
0.0
 10
20.033976
 20
43.948635
 30
0.0
 10
21.733115
 20
43.610655
 30
0.0
 10
23.209280
 20
44.222103
 30
0.0
  0
SPLINE
  5
154
100
AcDbEntity
  8
0
 62
1
100
AcDbSpline
 70
8
 71
3
 72
8
 73
4
 74
0
 40
0
 40
0
 40
0
 40
0
 40
1
 40
1
 40
1
 40
1
 10
23.209280
 20
44.222103
 30
0.0
 10
24.685445
 20
44.833550
 30
0.0
 10
25.647930
 20
46.274011
 30
0.0
 10
25.647930
 20
47.871800
 30
0.0
  0
SPLINE
  5
155
100
AcDbEntity
  8
0
 62
1
100
AcDbSpline
 70
8
 71
3
 72
8
 73
4
 74
0
 40
0
 40
0
 40
0
 40
0
 40
1
 40
1
 40
1
 40
1
 10
25.647930
 20
47.871800
 30
0.0
 10
25.647930
 20
48.919512
 30
0.0
 10
25.231728
 20
49.924313
 30
0.0
 10
24.490883
 20
50.665157
 30
0.0
  0
SPLINE
  5
156
100
AcDbEntity
  8
0
 62
1
100
AcDbSpline
 70
8
 71
3
 72
8
 73
4
 74
0
 40
0
 40
0
 40
0
 40
0
 40
1
 40
1
 40
1
 40
1
 10
24.490883
 20
50.665157
 30
0.0
 10
23.750039
 20
51.406002
 30
0.0
 10
22.745238
 20
51.822204
 30
0.0
 10
21.697526
 20
51.822204
 30
0.0
  0
LWPOLYLINE
  5
157
100
AcDbEntity
  8
0
 62
1
100
AcDbPolyline
 90
1
 70
1
 10
79.324448
 20
13.846404
 30
0.0
  0
SPLINE
  5
158
100
AcDbEntity
  8
0
 62
1
100
AcDbSpline
 70
8
 71
3
 72
8
 73
4
 74
0
 40
0
 40
0
 40
0
 40
0
 40
1
 40
1
 40
1
 40
1
 10
50.810841
 20
51.822204
 30
0.0
 10
49.213052
 20
51.822204
 30
0.0
 10
47.772591
 20
50.859719
 30
0.0
 10
47.161144
 20
49.383554
 30
0.0
  0
SPLINE
  5
159
100
AcDbEntity
  8
0
 62
1
100
AcDbSpline
 70
8
 71
3
 72
8
 73
4
 74
0
 40
0
 40
0
 40
0
 40
0
 40
1
 40
1
 40
1
 40
1
 10
47.161144
 20
49.383554
 30
0.0
 10
46.549696
 20
47.907389
 30
0.0
 10
46.887676
 20
46.208250
 30
0.0
 10
48.017484
 20
45.078443
 30
0.0
  0
SPLINE
  5
15a
100
AcDbEntity
  8
0
 62
1
100
AcDbSpline
 70
8
 71
3
 72
8
 73
4
 74
0
 40
0
 40
0
 40
0
 40
0
 40
1
 40
1
 40
1
 40
1
 10
48.017484
 20
45.078443
 30
0.0
 10
49.147291
 20
43.948635
 30
0.0
 10
50.846430
 20
43.610655
 30
0.0
 10
52.322595
 20
44.222103
 30
0.0
  0
SPLINE
  5
15b
100
AcDbEntity
  8
0
 62
1
100
AcDbSpline
 70
8
 71
3
 72
8
 73
4
 74
0
 40
0
 40
0
 40
0
 40
0
 40
1
 40
1
 40
1
 40
1
 10
52.322595
 20
44.222103
 30
0.0
 10
53.798760
 20
44.833550
 30
0.0
 10
54.761245
 20
46.274011
 30
0.0
 10
54.761245
 20
47.871800
 30
0.0
  0
SPLINE
  5
15c
100
AcDbEntity
  8
0
 62
1
100
AcDbSpline
 70
8
 71
3
 72
8
 73
4
 74
0
 40
0
 40
0
 40
0
 40
0
 40
1
 40
1
 40
1
 40
1
 10
54.761245
 20
47.871800
 30
0.0
 10
54.761245
 20
48.919512
 30
0.0
 10
54.345043
 20
49.924313
 30
0.0
 10
53.604198
 20
50.665157
 30
0.0
  0
SPLINE
  5
15d
100
AcDbEntity
  8
0
 62
1
100
AcDbSpline
 70
8
 71
3
 72
8
 73
4
 74
0
 40
0
 40
0
 40
0
 40
0
 40
1
 40
1
 40
1
 40
1
 10
53.604198
 20
50.665157
 30
0.0
 10
52.863354
 20
51.406002
 30
0.0
 10
51.858553
 20
51.822204
 30
0.0
 10
50.810841
 20
51.822204
 30
0.0
  0
LWPOLYLINE
  5
15e
100
AcDbEntity
  8
0
 62
1
100
AcDbPolyline
 90
1
 70
1
 10
21.697526
 20
51.822204
 30
0.0
  0
SPLINE
  5
15f
100
AcDbEntity
  8
0
 62
1
100
AcDbSpline
 70
8
 71
3
 72
8
 73
4
 74
0
 40
0
 40
0
 40
0
 40
0
 40
1
 40
1
 40
1
 40
1
 10
80.169141
 20
51.822204
 30
0.0
 10
78.571352
 20
51.822204
 30
0.0
 10
77.130891
 20
50.859719
 30
0.0
 10
76.519444
 20
49.383554
 30
0.0
  0
SPLINE
  5
160
100
AcDbEntity
  8
0
 62
1
100
AcDbSpline
 70
8
 71
3
 72
8
 73
4
 74
0
 40
0
 40
0
 40
0
 40
0
 40
1
 40
1
 40
1
 40
1
 10
76.519444
 20
49.383554
 30
0.0
 10
75.907996
 20
47.907389
 30
0.0
 10
76.245976
 20
46.208250
 30
0.0
 10
77.375784
 20
45.078443
 30
0.0
  0
SPLINE
  5
161
100
AcDbEntity
  8
0
 62
1
100
AcDbSpline
 70
8
 71
3
 72
8
 73
4
 74
0
 40
0
 40
0
 40
0
 40
0
 40
1
 40
1
 40
1
 40
1
 10
77.375784
 20
45.078443
 30
0.0
 10
78.505591
 20
43.948635
 30
0.0
 10
80.204730
 20
43.610655
 30
0.0
 10
81.680895
 20
44.222103
 30
0.0
  0
SPLINE
  5
162
100
AcDbEntity
  8
0
 62
1
100
AcDbSpline
 70
8
 71
3
 72
8
 73
4
 74
0
 40
0
 40
0
 40
0
 40
0
 40
1
 40
1
 40
1
 40
1
 10
81.680895
 20
44.222103
 30
0.0
 10
83.157060
 20
44.833550
 30
0.0
 10
84.119545
 20
46.274011
 30
0.0
 10
84.119545
 20
47.871800
 30
0.0
  0
SPLINE
  5
163
100
AcDbEntity
  8
0
 62
1
100
AcDbSpline
 70
8
 71
3
 72
8
 73
4
 74
0
 40
0
 40
0
 40
0
 40
0
 40
1
 40
1
 40
1
 40
1
 10
84.119545
 20
47.871800
 30
0.0
 10
84.119545
 20
48.919512
 30
0.0
 10
83.703343
 20
49.924313
 30
0.0
 10
82.962498
 20
50.665157
 30
0.0
  0
SPLINE
  5
164
100
AcDbEntity
  8
0
 62
1
100
AcDbSpline
 70
8
 71
3
 72
8
 73
4
 74
0
 40
0
 40
0
 40
0
 40
0
 40
1
 40
1
 40
1
 40
1
 10
82.962498
 20
50.665157
 30
0.0
 10
82.221654
 20
51.406002
 30
0.0
 10
81.216853
 20
51.822204
 30
0.0
 10
80.169141
 20
51.822204
 30
0.0
  0
LWPOLYLINE
  5
165
100
AcDbEntity
  8
0
 62
1
100
AcDbPolyline
 90
1
 70
1
 10
50.810841
 20
51.822204
 30
0.0
  0
LWPOLYLINE
  5
166
100
AcDbEntity
  8
0
 62
1
100
AcDbPolyline
 90
1
 70
1
 10
80.169141
 20
51.822204
 30
0.0
  0
ENDSEC
  0
SECTION
  2
OBJECTS
  0
DICTIONARY
  5
C
330
0
100
AcDbDictionary
  3
ACAD_GROUP
350
D
  3
ACAD_MLINESTYLE
350
17
  0
DICTIONARY
  5
D
330
C
100
AcDbDictionary
  0
DICTIONARY
  5
1A
330
C
100
AcDbDictionary
  0
DICTIONARY
  5
17
330
C
100
AcDbDictionary
  3
STANDARD
350
18
  0
DICTIONARY
  5
19
330
C
100
AcDbDictionary
  0
ENDSEC
  0
EOF
