  0
SECTION
  2
HEADER
  9
$ACADVER
  1
AC1014
  9
$HANDSEED
  5
FFFF
  9
$INSUNITS
 70
     4
  9
$MEASUREMENT
 70
     1
  0
ENDSEC
  0
SECTION
  2
TABLES
  0
TABLE
  2
VPORT
  5
8
330
0
100
AcDbSymbolTable
 70
     4
  0
VPORT
  5
2E
330
8
100
AcDbSymbolTableRecord
100
AcDbViewportTableRecord
  2
*ACTIVE
 70
     0
 10
0.0
 20
0.0
 11
1.0
 21
1.0
 12
210.0
 22
148.5
 13
0.0
 23
0.0
 14
10.0
 24
10.0
 15
10.0
 25
10.0
 16
0.0
 26
0.0
 36
1.0
 17
0.0
 27
0.0
 37
0.0
 40
341.0
 41
1.24
 42
50.0
 43
0.0
 44
0.0
 50
0.0
 51
0.0
 71
     0
 72
   100
 73
     1
 74
     3
 75
     0
 76
     0
 77
     0
 78
     0
  0
ENDTAB
  0
TABLE
  2
LTYPE
  5
5
330
0
100
AcDbSymbolTable
 70
     1
  0
LTYPE
  5
14
330
5
100
AcDbSymbolTableRecord
100
AcDbLinetypeTableRecord
  2
BYBLOCK
 70
     0
  3

 72
    65
 73
     0
 40
0.0
  0
LTYPE
  5
15
330
5
100
AcDbSymbolTableRecord
100
AcDbLinetypeTableRecord
  2
BYLAYER
 70
     0
  3

 72
    65
 73
     0
 40
0.0
  0
LTYPE
  5
16
330
5
100
AcDbSymbolTableRecord
100
AcDbLinetypeTableRecord
  2
CONTINUOUS
 70
     0
  3
Solid line
 72
    65
 73
     0
 40
0.0
  0
ENDTAB
  0
TABLE
  2
LAYER
  5
2
100
AcDbSymbolTable
 70
1
  0
LAYER
  5
50
100
AcDbSymbolTableRecord
100
AcDbLayerTableRecord
  2
0
 70
0
  6
CONTINUOUS
  0
ENDTAB
  0
TABLE
  2
STYLE
  5
3
330
0
100
AcDbSymbolTable
 70
     1
  0
STYLE
  5
11
330
3
100
AcDbSymbolTableRecord
100
AcDbTextStyleTableRecord
  2
STANDARD
 70
     0
 40
0.0
 41
1.0
 50
0.0
 71
     0
 42
2.5
  3
txt
  4

  0
ENDTAB
  0
TABLE
  2
VIEW
  5
6
330
0
100
AcDbSymbolTable
 70
     0
  0
ENDTAB
  0
TABLE
  2
UCS
  5
7
330
0
100
AcDbSymbolTable
 70
     0
  0
ENDTAB
  0
TABLE
  2
APPID
  5
9
330
0
100
AcDbSymbolTable
 70
     2
  0
APPID
  5
12
330
9
100
AcDbSymbolTableRecord
100
AcDbRegAppTableRecord
  2
ACAD
 70
     0
  0
ENDTAB
  0
TABLE
  2
DIMSTYLE
  5
A
330
0
100
AcDbSymbolTable
 70
     1
  0
DIMSTYLE
105
27
330
A
100
AcDbSymbolTableRecord
100
AcDbDimStyleTableRecord
  2
ISO-25
 70
     0
  3

  4

  5

  6

  7

 40
1.0
 41
2.5
 42
0.625
 43
3.75
 44
1.25
 45
0.0
 46
0.0
 47
0.0
 48
0.0
140
2.5
141
2.5
142
0.0
143
0.03937007874016
144
1.0
145
0.0
146
1.0
147
0.625
 71
     0
 72
     0
 73
     0
 74
     0
 75
     0
 76
     0
 77
     1
 78
     8
170
     0
171
     3
172
     1
173
     0
174
     0
175
     0
176
     0
177
     0
178
     0
270
     2
271
     2
272
     2
273
     2
274
     3
340
11
275
     0
280
     0
281
     0
282
     0
283
     0
284
     8
285
     0
286
     0
287
     3
288
     0
  0
ENDTAB
  0
TABLE
  2
BLOCK_RECORD
  5
1
330
0
100
AcDbSymbolTable
 70
     1
  0
BLOCK_RECORD
  5
1F
330
1
100
AcDbSymbolTableRecord
100
AcDbBlockTableRecord
  2
*MODEL_SPACE
  0
BLOCK_RECORD
  5
1B
330
1
100
AcDbSymbolTableRecord
100
AcDbBlockTableRecord
  2
*PAPER_SPACE
  0
ENDTAB
  0
ENDSEC
  0
SECTION
  2
BLOCKS
  0
BLOCK
  5
20
330
1F
100
AcDbEntity
  8
0
100
AcDbBlockBegin
  2
*MODEL_SPACE
 70
     0
 10
0.0
 20
0.0
 30
0.0
  3
*MODEL_SPACE
  1

  0
ENDBLK
  5
21
330
1F
100
AcDbEntity
  8
0
100
AcDbBlockEnd
  0
BLOCK
  5
1C
330
1B
100
AcDbEntity
 67
     1
  8
0
100
AcDbBlockBegin
  2
*PAPER_SPACE
  1

  0
ENDBLK
  5
1D
330
1B
100
AcDbEntity
 67
     1
  8
0
100
AcDbBlockEnd
  0
ENDSEC
  0
SECTION
  2
ENTITIES
  0
LWPOLYLINE
  5
100
100
AcDbEntity
  8
0
 62
1
100
AcDbPolyline
 90
20
 70
1
 10
0.562257
 20
30.572231
 30
0.0
 10
0.562257
 20
22.887231
 30
0.0
 10
3.562257
 20
22.887231
 30
0.0
 10
3.562257
 20
8.257231
 30
0.0
 10
0.562257
 20
8.257231
 30
0.0
 10
0.562257
 20
0.572231
 30
0.0
 10
8.247257
 20
0.572231
 30
0.0
 10
8.247257
 20
3.572231
 30
0.0
 10
22.877258
 20
3.572231
 30
0.0
 10
22.877258
 20
0.572231
 30
0.0
 10
30.562258
 20
0.572231
 30
0.0
 10
30.562258
 20
8.257231
 30
0.0
 10
27.562258
 20
8.257231
 30
0.0
 10
27.562258
 20
22.887231
 30
0.0
 10
30.562258
 20
22.887231
 30
0.0
 10
30.562258
 20
30.572231
 30
0.0
 10
22.877258
 20
30.572231
 30
0.0
 10
22.877258
 20
27.572231
 30
0.0
 10
8.247257
 20
27.572231
 30
0.0
 10
8.247257
 20
30.572231
 30
0.0
  0
LWPOLYLINE
  5
101
100
AcDbEntity
  8
0
 62
1
100
AcDbPolyline
 90
20
 70
1
 10
36.190448
 20
30.250004
 30
0.0
 10
36.190448
 20
22.565004
 30
0.0
 10
33.190448
 20
22.565004
 30
0.0
 10
33.190448
 20
7.935004
 30
0.0
 10
36.190448
 20
7.935004
 30
0.0
 10
36.190448
 20
0.250004
 30
0.0
 10
40.875448
 20
0.250004
 30
0.0
 10
40.875448
 20
3.250004
 30
0.0
 10
55.505448
 20
3.250004
 30
0.0
 10
55.505448
 20
0.250004
 30
0.0
 10
60.190448
 20
0.250004
 30
0.0
 10
60.190448
 20
7.935004
 30
0.0
 10
63.190448
 20
7.935004
 30
0.0
 10
63.190448
 20
22.565004
 30
0.0
 10
60.190448
 20
22.565004
 30
0.0
 10
60.190448
 20
30.250004
 30
0.0
 10
55.505448
 20
30.250004
 30
0.0
 10
55.505448
 20
27.250004
 30
0.0
 10
40.875448
 20
27.250004
 30
0.0
 10
40.875448
 20
30.250004
 30
0.0
  0
LWPOLYLINE
  5
102
100
AcDbEntity
  8
0
 62
1
100
AcDbPolyline
 90
20
 70
1
 10
69.857246
 20
27.798702
 30
0.0
 10
69.857246
 20
23.113702
 30
0.0
 10
66.857246
 20
23.113702
 30
0.0
 10
66.857246
 20
8.483702
 30
0.0
 10
69.857246
 20
8.483702
 30
0.0
 10
69.857246
 20
3.798702
 30
0.0
 10
74.542246
 20
3.798702
 30
0.0
 10
74.542246
 20
0.798702
 30
0.0
 10
89.172246
 20
0.798702
 30
0.0
 10
89.172246
 20
3.798702
 30
0.0
 10
93.857246
 20
3.798702
 30
0.0
 10
93.857246
 20
8.483702
 30
0.0
 10
96.857246
 20
8.483702
 30
0.0
 10
96.857246
 20
23.113702
 30
0.0
 10
93.857246
 20
23.113702
 30
0.0
 10
93.857246
 20
27.798702
 30
0.0
 10
89.172246
 20
27.798702
 30
0.0
 10
89.172246
 20
30.798702
 30
0.0
 10
74.542246
 20
30.798702
 30
0.0
 10
74.542246
 20
27.798702
 30
0.0
  0
LWPOLYLINE
  5
103
100
AcDbEntity
  8
0
 62
1
100
AcDbPolyline
 90
20
 70
1
 10
0.986687
 20
63.226209
 30
0.0
 10
0.986687
 20
55.541209
 30
0.0
 10
3.986686
 20
55.541209
 30
0.0
 10
3.986686
 20
40.911209
 30
0.0
 10
0.986687
 20
40.911209
 30
0.0
 10
0.986687
 20
33.226209
 30
0.0
 10
8.671686
 20
33.226209
 30
0.0
 10
8.671686
 20
36.226209
 30
0.0
 10
23.301686
 20
36.226209
 30
0.0
 10
23.301686
 20
33.226209
 30
0.0
 10
30.986686
 20
33.226209
 30
0.0
 10
30.986686
 20
40.911209
 30
0.0
 10
27.986686
 20
40.911209
 30
0.0
 10
27.986686
 20
55.541209
 30
0.0
 10
30.986686
 20
55.541209
 30
0.0
 10
30.986686
 20
63.226209
 30
0.0
 10
23.301686
 20
63.226209
 30
0.0
 10
23.301686
 20
60.226209
 30
0.0
 10
8.671686
 20
60.226209
 30
0.0
 10
8.671686
 20
63.226209
 30
0.0
  0
LWPOLYLINE
  5
104
100
AcDbEntity
  8
0
 62
1
100
AcDbPolyline
 90
20
 70
1
 10
35.610481
 20
64.542870
 30
0.0
 10
35.610481
 20
56.857870
 30
0.0
 10
32.610481
 20
56.857870
 30
0.0
 10
32.610481
 20
42.227870
 30
0.0
 10
35.610481
 20
42.227870
 30
0.0
 10
35.610481
 20
34.542870
 30
0.0
 10
40.295481
 20
34.542870
 30
0.0
 10
40.295481
 20
37.542870
 30
0.0
 10
54.925481
 20
37.542870
 30
0.0
 10
54.925481
 20
34.542870
 30
0.0
 10
59.610481
 20
34.542870
 30
0.0
 10
59.610481
 20
42.227870
 30
0.0
 10
62.610481
 20
42.227870
 30
0.0
 10
62.610481
 20
56.857870
 30
0.0
 10
59.610481
 20
56.857870
 30
0.0
 10
59.610481
 20
64.542870
 30
0.0
 10
54.925481
 20
64.542870
 30
0.0
 10
54.925481
 20
61.542870
 30
0.0
 10
40.295481
 20
61.542870
 30
0.0
 10
40.295481
 20
64.542870
 30
0.0
  0
SPLINE
  5
105
100
AcDbEntity
  8
0
 62
1
100
AcDbSpline
 70
8
 71
3
 72
8
 73
4
 74
0
 40
0
 40
0
 40
0
 40
0
 40
1
 40
1
 40
1
 40
1
 10
106.654976
 20
58.053366
 30
0.0
 10
104.427971
 20
58.053366
 30
0.0
 10
102.622627
 20
56.248022
 30
0.0
 10
102.622627
 20
54.021017
 30
0.0
  0
SPLINE
  5
106
100
AcDbEntity
  8
0
 62
1
100
AcDbSpline
 70
8
 71
3
 72
8
 73
4
 74
0
 40
0
 40
0
 40
0
 40
0
 40
1
 40
1
 40
1
 40
1
 10
102.622627
 20
54.021017
 30
0.0
 10
102.622627
 20
51.794012
 30
0.0
 10
104.427971
 20
49.988667
 30
0.0
 10
106.654976
 20
49.988667
 30
0.0
  0
SPLINE
  5
107
100
AcDbEntity
  8
0
 62
1
100
AcDbSpline
 70
8
 71
3
 72
8
 73
4
 74
0
 40
0
 40
0
 40
0
 40
0
 40
1
 40
1
 40
1
 40
1
 10
106.654976
 20
49.988667
 30
0.0
 10
108.881981
 20
49.988667
 30
0.0
 10
110.687325
 20
51.794012
 30
0.0
 10
110.687325
 20
54.021017
 30
0.0
  0
SPLINE
  5
108
100
AcDbEntity
  8
0
 62
1
100
AcDbSpline
 70
8
 71
3
 72
8
 73
4
 74
0
 40
0
 40
0
 40
0
 40
0
 40
1
 40
1
 40
1
 40
1
 10
110.687325
 20
54.021017
 30
0.0
 10
110.687325
 20
55.090462
 30
0.0
 10
110.262490
 20
56.116106
 30
0.0
 10
109.506277
 20
56.872319
 30
0.0
  0
SPLINE
  5
109
100
AcDbEntity
  8
0
 62
1
100
AcDbSpline
 70
8
 71
3
 72
8
 73
4
 74
0
 40
0
 40
0
 40
0
 40
0
 40
1
 40
1
 40
1
 40
1
 10
109.506277
 20
56.872319
 30
0.0
 10
108.750065
 20
57.628531
 30
0.0
 10
107.724421
 20
58.053366
 30
0.0
 10
106.654976
 20
58.053366
 30
0.0
  0
LWPOLYLINE
  5
10a
100
AcDbEntity
  8
0
 62
1
100
AcDbPolyline
 90
20
 70
1
 10
69.857246
 20
60.798702
 30
0.0
 10
69.857246
 20
56.113702
 30
0.0
 10
66.857246
 20
56.113702
 30
0.0
 10
66.857246
 20
41.483702
 30
0.0
 10
69.857246
 20
41.483702
 30
0.0
 10
69.857246
 20
36.798702
 30
0.0
 10
74.542246
 20
36.798702
 30
0.0
 10
74.542246
 20
33.798702
 30
0.0
 10
89.172246
 20
33.798702
 30
0.0
 10
89.172246
 20
36.798702
 30
0.0
 10
93.857246
 20
36.798702
 30
0.0
 10
93.857246
 20
41.483702
 30
0.0
 10
96.857246
 20
41.483702
 30
0.0
 10
96.857246
 20
56.113702
 30
0.0
 10
93.857246
 20
56.113702
 30
0.0
 10
93.857246
 20
60.798702
 30
0.0
 10
89.172246
 20
60.798702
 30
0.0
 10
89.172246
 20
63.798702
 30
0.0
 10
74.542246
 20
63.798702
 30
0.0
 10
74.542246
 20
60.798702
 30
0.0
  0
SPLINE
  5
10b
100
AcDbEntity
  8
0
 62
1
100
AcDbSpline
 70
8
 71
3
 72
8
 73
4
 74
0
 40
0
 40
0
 40
0
 40
0
 40
1
 40
1
 40
1
 40
1
 10
107.146466
 20
48.250585
 30
0.0
 10
104.931618
 20
48.250585
 30
0.0
 10
102.934859
 20
46.916393
 30
0.0
 10
102.087274
 20
44.870141
 30
0.0
  0
SPLINE
  5
10c
100
AcDbEntity
  8
0
 62
1
100
AcDbSpline
 70
8
 71
3
 72
8
 73
4
 74
0
 40
0
 40
0
 40
0
 40
0
 40
1
 40
1
 40
1
 40
1
 10
102.087274
 20
44.870141
 30
0.0
 10
101.239688
 20
42.823889
 30
0.0
 10
101.708194
 20
40.468551
 30
0.0
 10
103.274328
 20
38.902417
 30
0.0
  0
SPLINE
  5
10d
100
AcDbEntity
  8
0
 62
1
100
AcDbSpline
 70
8
 71
3
 72
8
 73
4
 74
0
 40
0
 40
0
 40
0
 40
0
 40
1
 40
1
 40
1
 40
1
 10
103.274328
 20
38.902417
 30
0.0
 10
104.840462
 20
37.336283
 30
0.0
 10
107.195800
 20
36.867777
 30
0.0
 10
109.242052
 20
37.715363
 30
0.0
  0
SPLINE
  5
10e
100
AcDbEntity
  8
0
 62
1
100
AcDbSpline
 70
8
 71
3
 72
8
 73
4
 74
0
 40
0
 40
0
 40
0
 40
0
 40
1
 40
1
 40
1
 40
1
 10
109.242052
 20
37.715363
 30
0.0
 10
111.288304
 20
38.562948
 30
0.0
 10
112.622496
 20
40.559707
 30
0.0
 10
112.622496
 20
42.774555
 30
0.0
  0
SPLINE
  5
10f
100
AcDbEntity
  8
0
 62
1
100
AcDbSpline
 70
8
 71
3
 72
8
 73
4
 74
0
 40
0
 40
0
 40
0
 40
0
 40
1
 40
1
 40
1
 40
1
 10
112.622496
 20
42.774555
 30
0.0
 10
112.622496
 20
44.226889
 30
0.0
 10
112.045559
 20
45.619738
 30
0.0
 10
111.018604
 20
46.646693
 30
0.0
  0
SPLINE
  5
110
100
AcDbEntity
  8
0
 62
1
100
AcDbSpline
 70
8
 71
3
 72
8
 73
4
 74
0
 40
0
 40
0
 40
0
 40
0
 40
1
 40
1
 40
1
 40
1
 10
111.018604
 20
46.646693
 30
0.0
 10
109.991649
 20
47.673648
 30
0.0
 10
108.598800
 20
48.250585
 30
0.0
 10
107.146466
 20
48.250585
 30
0.0
  0
LWPOLYLINE
  5
111
100
AcDbEntity
  8
0
 62
1
100
AcDbPolyline
 90
1
 70
1
 10
106.654976
 20
58.053366
 30
0.0
  0
SPLINE
  5
112
100
AcDbEntity
  8
0
 62
1
100
AcDbSpline
 70
8
 71
3
 72
8
 73
4
 74
0
 40
0
 40
0
 40
0
 40
0
 40
1
 40
1
 40
1
 40
1
 10
15.986686
 20
52.176613
 30
0.0
 10
14.388897
 20
52.176613
 30
0.0
 10
12.948436
 20
51.214128
 30
0.0
 10
12.336989
 20
49.737963
 30
0.0
  0
SPLINE
  5
113
100
AcDbEntity
  8
0
 62
1
100
AcDbSpline
 70
8
 71
3
 72
8
 73
4
 74
0
 40
0
 40
0
 40
0
 40
0
 40
1
 40
1
 40
1
 40
1
 10
12.336989
 20
49.737963
 30
0.0
 10
11.725541
 20
48.261798
 30
0.0
 10
12.063521
 20
46.562659
 30
0.0
 10
13.193329
 20
45.432852
 30
0.0
  0
SPLINE
  5
114
100
AcDbEntity
  8
0
 62
1
100
AcDbSpline
 70
8
 71
3
 72
8
 73
4
 74
0
 40
0
 40
0
 40
0
 40
0
 40
1
 40
1
 40
1
 40
1
 10
13.193329
 20
45.432852
 30
0.0
 10
14.323136
 20
44.303044
 30
0.0
 10
16.022275
 20
43.965064
 30
0.0
 10
17.498440
 20
44.576512
 30
0.0
  0
SPLINE
  5
115
100
AcDbEntity
  8
0
 62
1
100
AcDbSpline
 70
8
 71
3
 72
8
 73
4
 74
0
 40
0
 40
0
 40
0
 40
0
 40
1
 40
1
 40
1
 40
1
 10
17.498440
 20
44.576512
 30
0.0
 10
18.974605
 20
45.187959
 30
0.0
 10
19.937090
 20
46.628420
 30
0.0
 10
19.937090
 20
48.226209
 30
0.0
  0
SPLINE
  5
116
100
AcDbEntity
  8
0
 62
1
100
AcDbSpline
 70
8
 71
3
 72
8
 73
4
 74
0
 40
0
 40
0
 40
0
 40
0
 40
1
 40
1
 40
1
 40
1
 10
19.937090
 20
48.226209
 30
0.0
 10
19.937090
 20
49.273921
 30
0.0
 10
19.520888
 20
50.278722
 30
0.0
 10
18.780043
 20
51.019566
 30
0.0
  0
SPLINE
  5
117
100
AcDbEntity
  8
0
 62
1
100
AcDbSpline
 70
8
 71
3
 72
8
 73
4
 74
0
 40
0
 40
0
 40
0
 40
0
 40
1
 40
1
 40
1
 40
1
 10
18.780043
 20
51.019566
 30
0.0
 10
18.039199
 20
51.760411
 30
0.0
 10
17.034398
 20
52.176613
 30
0.0
 10
15.986686
 20
52.176613
 30
0.0
  0
LWPOLYLINE
  5
118
100
AcDbEntity
  8
0
 62
1
100
AcDbPolyline
 90
1
 70
1
 10
107.146466
 20
48.250585
 30
0.0
  0
SPLINE
  5
119
100
AcDbEntity
  8
0
 62
1
100
AcDbSpline
 70
8
 71
3
 72
8
 73
4
 74
0
 40
0
 40
0
 40
0
 40
0
 40
1
 40
1
 40
1
 40
1
 10
15.562256
 20
13.879275
 30
0.0
 10
13.380508
 20
13.879275
 30
0.0
 10
11.611852
 20
12.110619
 30
0.0
 10
11.611852
 20
9.928871
 30
0.0
  0
SPLINE
  5
11a
100
AcDbEntity
  8
0
 62
1
100
AcDbSpline
 70
8
 71
3
 72
8
 73
4
 74
0
 40
0
 40
0
 40
0
 40
0
 40
1
 40
1
 40
1
 40
1
 10
11.611852
 20
9.928871
 30
0.0
 10
11.611852
 20
7.747123
 30
0.0
 10
13.380508
 20
5.978467
 30
0.0
 10
15.562256
 20
5.978467
 30
0.0
  0
SPLINE
  5
11b
100
AcDbEntity
  8
0
 62
1
100
AcDbSpline
 70
8
 71
3
 72
8
 73
4
 74
0
 40
0
 40
0
 40
0
 40
0
 40
1
 40
1
 40
1
 40
1
 10
15.562256
 20
5.978467
 30
0.0
 10
17.744004
 20
5.978467
 30
0.0
 10
19.512660
 20
7.747123
 30
0.0
 10
19.512660
 20
9.928871
 30
0.0
  0
SPLINE
  5
11c
100
AcDbEntity
  8
0
 62
1
100
AcDbSpline
 70
8
 71
3
 72
8
 73
4
 74
0
 40
0
 40
0
 40
0
 40
0
 40
1
 40
1
 40
1
 40
1
 10
19.512660
 20
9.928871
 30
0.0
 10
19.512660
 20
10.976583
 30
0.0
 10
19.096458
 20
11.981384
 30
0.0
 10
18.355613
 20
12.722228
 30
0.0
  0
SPLINE
  5
11d
100
AcDbEntity
  8
0
 62
1
100
AcDbSpline
 70
8
 71
3
 72
8
 73
4
 74
0
 40
0
 40
0
 40
0
 40
0
 40
1
 40
1
 40
1
 40
1
 10
18.355613
 20
12.722228
 30
0.0
 10
17.614769
 20
13.463073
 30
0.0
 10
16.609968
 20
13.879275
 30
0.0
 10
15.562256
 20
13.879275
 30
0.0
  0
LWPOLYLINE
  5
11e
100
AcDbEntity
  8
0
 62
1
100
AcDbPolyline
 90
1
 70
1
 10
15.986686
 20
52.176613
 30
0.0
  0
SPLINE
  5
11f
100
AcDbEntity
  8
0
 62
1
100
AcDbSpline
 70
8
 71
3
 72
8
 73
4
 74
0
 40
0
 40
0
 40
0
 40
0
 40
1
 40
1
 40
1
 40
1
 10
48.190448
 20
13.431273
 30
0.0
 10
46.592659
 20
13.431273
 30
0.0
 10
45.152198
 20
12.468788
 30
0.0
 10
44.540751
 20
10.992623
 30
0.0
  0
SPLINE
  5
120
100
AcDbEntity
  8
0
 62
1
100
AcDbSpline
 70
8
 71
3
 72
8
 73
4
 74
0
 40
0
 40
0
 40
0
 40
0
 40
1
 40
1
 40
1
 40
1
 10
44.540751
 20
10.992623
 30
0.0
 10
43.929303
 20
9.516458
 30
0.0
 10
44.267283
 20
7.817319
 30
0.0
 10
45.397091
 20
6.687512
 30
0.0
  0
SPLINE
  5
121
100
AcDbEntity
  8
0
 62
1
100
AcDbSpline
 70
8
 71
3
 72
8
 73
4
 74
0
 40
0
 40
0
 40
0
 40
0
 40
1
 40
1
 40
1
 40
1
 10
45.397091
 20
6.687512
 30
0.0
 10
46.526898
 20
5.557704
 30
0.0
 10
48.226037
 20
5.219724
 30
0.0
 10
49.702202
 20
5.831172
 30
0.0
  0
SPLINE
  5
122
100
AcDbEntity
  8
0
 62
1
100
AcDbSpline
 70
8
 71
3
 72
8
 73
4
 74
0
 40
0
 40
0
 40
0
 40
0
 40
1
 40
1
 40
1
 40
1
 10
49.702202
 20
5.831172
 30
0.0
 10
51.178367
 20
6.442619
 30
0.0
 10
52.140852
 20
7.883080
 30
0.0
 10
52.140852
 20
9.480869
 30
0.0
  0
SPLINE
  5
123
100
AcDbEntity
  8
0
 62
1
100
AcDbSpline
 70
8
 71
3
 72
8
 73
4
 74
0
 40
0
 40
0
 40
0
 40
0
 40
1
 40
1
 40
1
 40
1
 10
52.140852
 20
9.480869
 30
0.0
 10
52.140852
 20
10.528581
 30
0.0
 10
51.724650
 20
11.533382
 30
0.0
 10
50.983805
 20
12.274226
 30
0.0
  0
SPLINE
  5
124
100
AcDbEntity
  8
0
 62
1
100
AcDbSpline
 70
8
 71
3
 72
8
 73
4
 74
0
 40
0
 40
0
 40
0
 40
0
 40
1
 40
1
 40
1
 40
1
 10
50.983805
 20
12.274226
 30
0.0
 10
50.242961
 20
13.015071
 30
0.0
 10
49.238160
 20
13.431273
 30
0.0
 10
48.190448
 20
13.431273
 30
0.0
  0
LWPOLYLINE
  5
125
100
AcDbEntity
  8
0
 62
1
100
AcDbPolyline
 90
1
 70
1
 10
15.562256
 20
13.879275
 30
0.0
  0
SPLINE
  5
126
100
AcDbEntity
  8
0
 62
1
100
AcDbSpline
 70
8
 71
3
 72
8
 73
4
 74
0
 40
0
 40
0
 40
0
 40
0
 40
1
 40
1
 40
1
 40
1
 10
47.610481
 20
47.460274
 30
0.0
 10
46.012692
 20
47.460274
 30
0.0
 10
44.572231
 20
46.497789
 30
0.0
 10
43.960784
 20
45.021624
 30
0.0
  0
SPLINE
  5
127
100
AcDbEntity
  8
0
 62
1
100
AcDbSpline
 70
8
 71
3
 72
8
 73
4
 74
0
 40
0
 40
0
 40
0
 40
0
 40
1
 40
1
 40
1
 40
1
 10
43.960784
 20
45.021624
 30
0.0
 10
43.349336
 20
43.545459
 30
0.0
 10
43.687316
 20
41.846320
 30
0.0
 10
44.817124
 20
40.716513
 30
0.0
  0
SPLINE
  5
128
100
AcDbEntity
  8
0
 62
1
100
AcDbSpline
 70
8
 71
3
 72
8
 73
4
 74
0
 40
0
 40
0
 40
0
 40
0
 40
1
 40
1
 40
1
 40
1
 10
44.817124
 20
40.716513
 30
0.0
 10
45.946931
 20
39.586705
 30
0.0
 10
47.646070
 20
39.248725
 30
0.0
 10
49.122235
 20
39.860173
 30
0.0
  0
SPLINE
  5
129
100
AcDbEntity
  8
0
 62
1
100
AcDbSpline
 70
8
 71
3
 72
8
 73
4
 74
0
 40
0
 40
0
 40
0
 40
0
 40
1
 40
1
 40
1
 40
1
 10
49.122235
 20
39.860173
 30
0.0
 10
50.598400
 20
40.471620
 30
0.0
 10
51.560885
 20
41.912081
 30
0.0
 10
51.560885
 20
43.509870
 30
0.0
  0
SPLINE
  5
12a
100
AcDbEntity
  8
0
 62
1
100
AcDbSpline
 70
8
 71
3
 72
8
 73
4
 74
0
 40
0
 40
0
 40
0
 40
0
 40
1
 40
1
 40
1
 40
1
 10
51.560885
 20
43.509870
 30
0.0
 10
51.560885
 20
44.557582
 30
0.0
 10
51.144683
 20
45.562383
 30
0.0
 10
50.403838
 20
46.303227
 30
0.0
  0
SPLINE
  5
12b
100
AcDbEntity
  8
0
 62
1
100
AcDbSpline
 70
8
 71
3
 72
8
 73
4
 74
0
 40
0
 40
0
 40
0
 40
0
 40
1
 40
1
 40
1
 40
1
 10
50.403838
 20
46.303227
 30
0.0
 10
49.662994
 20
47.044072
 30
0.0
 10
48.658193
 20
47.460274
 30
0.0
 10
47.610481
 20
47.460274
 30
0.0
  0
LWPOLYLINE
  5
12c
100
AcDbEntity
  8
0
 62
1
100
AcDbPolyline
 90
1
 70
1
 10
48.190448
 20
13.431273
 30
0.0
  0
LWPOLYLINE
  5
12d
100
AcDbEntity
  8
0
 62
1
100
AcDbPolyline
 90
1
 70
1
 10
47.610481
 20
47.460274
 30
0.0
  0
ENDSEC
  0
SECTION
  2
OBJECTS
  0
DICTIONARY
  5
C
330
0
100
AcDbDictionary
  3
ACAD_GROUP
350
D
  3
ACAD_MLINESTYLE
350
17
  0
DICTIONARY
  5
D
330
C
100
AcDbDictionary
  0
DICTIONARY
  5
1A
330
C
100
AcDbDictionary
  0
DICTIONARY
  5
17
330
C
100
AcDbDictionary
  3
STANDARD
350
18
  0
DICTIONARY
  5
19
330
C
100
AcDbDictionary
  0
ENDSEC
  0
EOF
