<?xml version="1.0" encoding="UTF-8" standalone="no"?>
<svg
   width="112.64647mm"
   height="64.79287mm"
   viewBox="0 0 112.64647 64.79287"
   version="1.1"
   preserveAspectRatio="xMidYMid"
   id="svg15"
   sodipodi:docname="SmallBox.svg"
   inkscape:version="1.2.2 (b0a84865, 2022-12-01)"
   xmlns:inkscape="http://www.inkscape.org/namespaces/inkscape"
   xmlns:sodipodi="http://sodipodi.sourceforge.net/DTD/sodipodi-0.dtd"
   xmlns="http://www.w3.org/2000/svg"
   xmlns:svg="http://www.w3.org/2000/svg">
  <defs
     id="defs19" />
  <sodipodi:namedview
     id="namedview17"
     pagecolor="#ffffff"
     bordercolor="#000000"
     borderopacity="0.25"
     inkscape:showpageshadow="2"
     inkscape:pageopacity="0.0"
     inkscape:pagecheckerboard="0"
     inkscape:deskcolor="#d1d1d1"
     inkscape:document-units="mm"
     showgrid="false"
     inkscape:zoom="2"
     inkscape:cx="234.25"
     inkscape:cy="149.75"
     inkscape:window-width="1390"
     inkscape:window-height="1205"
     inkscape:window-x="2405"
     inkscape:window-y="39"
     inkscape:window-maximized="0"
     inkscape:current-layer="svgGroup" />
  <g
     id="svgGroup"
     stroke-linecap="round"
     fill-rule="evenodd"
     font-size="12px"
     stroke="#000"
     stroke-width="0.25mm"
     fill="none"
     style="fill:none;stroke:#000000;stroke-width:0.25mm"
     transform="translate(0.8572464,0.99416828)">
    <path
       d="m -0.6072464,33.226471 v 7.685 h 3 v 14.63 h -3 v 7.685 h 7.685 v -3 H 21.707754 v 3 h 7.685 v -7.685 h -3 v -14.63 h 3 v -7.685 h -7.685 v 3 H 7.0777536 v -3 z"
       id="front_outsideCutPath"
       stroke="#FF0000"
       stroke-width="0.1"
       style="stroke:#ff0000;stroke-width:0.5;stroke-dasharray:none"
       vector-effect="non-scaling-stroke" />
    <path
       d="m 35.796837,33.548698 v 7.685 h -3 v 14.63 h 3 v 7.685 h 4.685 v -3 h 14.63 v 3 h 4.685 v -7.685 h 3 v -14.63 h -3 v -7.685 h -4.685 v 3 h -14.63 v -3 z"
       id="left_outsideCutPath"
       stroke="#FF0000"
       stroke-width="0.1"
       style="stroke:#ff0000;stroke-width:0.5;stroke-dasharray:none"
       vector-effect="non-scaling-stroke" />
    <path
       d="m 69,36 v 4.685 h -3 v 14.63 h 3 V 60 h 4.685 v 3 h 14.63 V 60 H 93 v -4.685 h 3 V 40.685 H 93 V 36 h -4.685 v -3 h -14.63 v 3 z"
       id="top_outsideCutPath"
       stroke="#FF0000"
       stroke-width="0.1"
       style="stroke:#ff0000;stroke-width:0.5;stroke-dasharray:none"
       vector-effect="non-scaling-stroke" />
    <path
       d="M 0.37066616,0.45946404 V 8.1444641 H 3.3706661 V 22.774464 H 0.37066616 v 7.685 H 8.0556661 v -3 H 22.685666 v 3 h 7.685 v -7.685 h -3 V 8.1444641 h 3 V 0.45946404 h -7.685 V 3.4594641 H 8.0556661 V 0.45946404 Z"
       id="back_outsideCutPath"
       stroke="#FF0000"
       stroke-width="0.1"
       style="stroke:#ff0000;stroke-width:0.5;stroke-dasharray:none"
       vector-effect="non-scaling-stroke" />
    <path
       d="M 35.35318,-0.74416828 V 6.9408317 h -3 V 21.570832 h 3 v 7.685 h 4.685 v -3 h 14.63 v 3 h 4.685 v -7.685 h 3 V 6.9408317 h -3 v -7.68499998 h -4.685 V 2.2558317 h -14.63 v -2.99999998 z"
       id="right_outsideCutPath"
       stroke="#FF0000"
       stroke-width="0.1"
       style="stroke:#ff0000;stroke-width:0.5;stroke-dasharray:none"
       vector-effect="non-scaling-stroke" />
    <path
       d="m 69,3 v 4.685 h -3 v 14.63 h 3 V 27 h 4.685 v 3 h 14.63 V 27 H 93 v -4.685 h 3 V 7.685 H 93 V 3 H 88.315 V 0 h -14.63 v 3 z"
       id="bottom_outsideCutPath"
       stroke="#FF0000"
       stroke-width="0.1"
       style="stroke:#ff0000;stroke-width:0.5;stroke-dasharray:none"
       vector-effect="non-scaling-stroke" />
    <g
       id="g22594"
       transform="translate(0.53164557,0.30379751)">
      <circle
         style="fill:none;stroke:#ff0000;stroke-width:0.0851797;stroke-linejoin:round;stroke-dasharray:1.02216, 1.02216"
         id="path22545"
         cx="14.839021"
         cy="15.155666"
         r="3.9574101" />
      <circle
         style="fill:none;stroke:#ff0000;stroke-width:0.0638848;stroke-linejoin:round;stroke-dasharray:0.766621, 0.766621"
         id="path22545-3"
         cx="14.839021"
         cy="15.155666"
         r="2.9680576" />
      <ellipse
         style="fill:none;stroke:#ff0000;stroke-width:0.0425898;stroke-linejoin:round;stroke-dasharray:0.51108, 0.51108"
         id="path22545-3-1"
         cx="14.839021"
         cy="15.155666"
         rx="1.9787052"
         ry="1.978705" />
    </g>
    <circle
       style="fill:none;stroke:#ff0000;stroke-width:0.0348652;stroke-linejoin:round;stroke-dasharray:none"
       id="path22774"
       cx="47.35318"
       cy="14.255832"
       r="3.9825673" />
    <ellipse
       style="fill:none;stroke:#ff0000;stroke-width:0.035301;stroke-linejoin:round;stroke-dasharray:none"
       id="path22774-0"
       cx="105.79773"
       cy="9.7776852"
       rx="4.0323491"
       ry="4.0323496" />
    <circle
       style="fill:none;stroke:#ff0000;stroke-width:0.0479397;stroke-linejoin:round;stroke-dasharray:none"
       id="path22774-0-6"
       cx="106.28922"
       cy="21.024147"
       r="5.4760303" />
    <circle
       style="fill:none;stroke:#ff0000;stroke-width:0.0348652;stroke-linejoin:round;stroke-dasharray:none"
       id="path22774-8"
       cx="47.796837"
       cy="48.548698"
       r="3.9825673" />
    <circle
       style="fill:none;stroke:#ff0000;stroke-width:0.0348652;stroke-linejoin:round;stroke-dasharray:none"
       id="path22774-8-3"
       cx="14.392754"
       cy="48.226471"
       r="3.9825673" />
  </g>
</svg>
