999
"DXF R12 Output" (www.mydxf.blogspot.com)
 0 
SECTION
 2 
HEADER
 9 
$ACADVER
 1 
AC1009
 9 
$EXTMIN
 10 
 0 
 20 
 0 
 9 
$EXTMAX
 10 
 8.5 
 20 
 11 
 0 
ENDSEC
 0 
SECTION
 2 
ENTITIES
0
LINE
8
Layer 1
10
0.562257
20
30.572200
11
0.562257
21
22.887200
0
LINE
8
Layer 1
10
0.562257
20
22.887200
11
3.562260
21
22.887200
0
LINE
8
Layer 1
10
3.562260
20
22.887200
11
3.562260
21
8.257230
0
LINE
8
Layer 1
10
3.562260
20
8.257230
11
0.562257
21
8.257230
0
LINE
8
Layer 1
10
0.562257
20
8.257230
11
0.562257
21
0.572229
0
LINE
8
Layer 1
10
0.562257
20
0.572229
11
8.247260
21
0.572229
0
LINE
8
Layer 1
10
8.247260
20
0.572229
11
8.247260
21
3.572230
0
LINE
8
Layer 1
10
8.247260
20
3.572230
11
22.877300
21
3.572230
0
LINE
8
Layer 1
10
22.877300
20
3.572230
11
22.877300
21
0.572229
0
LINE
8
Layer 1
10
22.877300
20
0.572229
11
30.562300
21
0.572229
0
LINE
8
Layer 1
10
30.562300
20
0.572229
11
30.562300
21
8.257230
0
LINE
8
Layer 1
10
30.562300
20
8.257230
11
27.562300
21
8.257230
0
LINE
8
Layer 1
10
27.562300
20
8.257230
11
27.562300
21
22.887200
0
LINE
8
Layer 1
10
27.562300
20
22.887200
11
30.562300
21
22.887200
0
LINE
8
Layer 1
10
30.562300
20
22.887200
11
30.562300
21
30.572200
0
LINE
8
Layer 1
10
30.562300
20
30.572200
11
22.877300
21
30.572200
0
LINE
8
Layer 1
10
22.877300
20
30.572200
11
22.877300
21
27.572200
0
LINE
8
Layer 1
10
22.877300
20
27.572200
11
8.247260
21
27.572200
0
LINE
8
Layer 1
10
8.247260
20
27.572200
11
8.247260
21
30.572200
0
LINE
8
Layer 1
10
8.247260
20
30.572200
11
0.562257
21
30.572200
0
LINE
8
Layer 1
10
36.190400
20
30.250000
11
36.190400
21
22.565000
0
LINE
8
Layer 1
10
36.190400
20
22.565000
11
33.190400
21
22.565000
0
LINE
8
Layer 1
10
33.190400
20
22.565000
11
33.190400
21
7.935000
0
LINE
8
Layer 1
10
33.190400
20
7.935000
11
36.190400
21
7.935000
0
LINE
8
Layer 1
10
36.190400
20
7.935000
11
36.190400
21
0.250002
0
LINE
8
Layer 1
10
36.190400
20
0.250002
11
40.875400
21
0.250002
0
LINE
8
Layer 1
10
40.875400
20
0.250002
11
40.875400
21
3.250000
0
LINE
8
Layer 1
10
40.875400
20
3.250000
11
55.505400
21
3.250000
0
LINE
8
Layer 1
10
55.505400
20
3.250000
11
55.505400
21
0.250002
0
LINE
8
Layer 1
10
55.505400
20
0.250002
11
60.190400
21
0.250002
0
LINE
8
Layer 1
10
60.190400
20
0.250002
11
60.190400
21
7.935000
0
LINE
8
Layer 1
10
60.190400
20
7.935000
11
63.190400
21
7.935000
0
LINE
8
Layer 1
10
63.190400
20
7.935000
11
63.190400
21
22.565000
0
LINE
8
Layer 1
10
63.190400
20
22.565000
11
60.190400
21
22.565000
0
LINE
8
Layer 1
10
60.190400
20
22.565000
11
60.190400
21
30.250000
0
LINE
8
Layer 1
10
60.190400
20
30.250000
11
55.505400
21
30.250000
0
LINE
8
Layer 1
10
55.505400
20
30.250000
11
55.505400
21
27.250000
0
LINE
8
Layer 1
10
55.505400
20
27.250000
11
40.875400
21
27.250000
0
LINE
8
Layer 1
10
40.875400
20
27.250000
11
40.875400
21
30.250000
0
LINE
8
Layer 1
10
40.875400
20
30.250000
11
36.190400
21
30.250000
0
LINE
8
Layer 1
10
69.857200
20
27.798700
11
69.857200
21
23.113700
0
LINE
8
Layer 1
10
69.857200
20
23.113700
11
66.857200
21
23.113700
0
LINE
8
Layer 1
10
66.857200
20
23.113700
11
66.857200
21
8.483700
0
LINE
8
Layer 1
10
66.857200
20
8.483700
11
69.857200
21
8.483700
0
LINE
8
Layer 1
10
69.857200
20
8.483700
11
69.857200
21
3.798700
0
LINE
8
Layer 1
10
69.857200
20
3.798700
11
74.542200
21
3.798700
0
LINE
8
Layer 1
10
74.542200
20
3.798700
11
74.542200
21
0.798700
0
LINE
8
Layer 1
10
74.542200
20
0.798700
11
89.172200
21
0.798700
0
LINE
8
Layer 1
10
89.172200
20
0.798700
11
89.172200
21
3.798700
0
LINE
8
Layer 1
10
89.172200
20
3.798700
11
93.857200
21
3.798700
0
LINE
8
Layer 1
10
93.857200
20
3.798700
11
93.857200
21
8.483700
0
LINE
8
Layer 1
10
93.857200
20
8.483700
11
96.857200
21
8.483700
0
LINE
8
Layer 1
10
96.857200
20
8.483700
11
96.857200
21
23.113700
0
LINE
8
Layer 1
10
96.857200
20
23.113700
11
93.857200
21
23.113700
0
LINE
8
Layer 1
10
93.857200
20
23.113700
11
93.857200
21
27.798700
0
LINE
8
Layer 1
10
93.857200
20
27.798700
11
89.172200
21
27.798700
0
LINE
8
Layer 1
10
89.172200
20
27.798700
11
89.172200
21
30.798700
0
LINE
8
Layer 1
10
89.172200
20
30.798700
11
74.542200
21
30.798700
0
LINE
8
Layer 1
10
74.542200
20
30.798700
11
74.542200
21
27.798700
0
LINE
8
Layer 1
10
74.542200
20
27.798700
11
69.857200
21
27.798700
0
LINE
8
Layer 1
10
0.986687
20
63.226200
11
0.986687
21
55.541200
0
LINE
8
Layer 1
10
0.986687
20
55.541200
11
3.986690
21
55.541200
0
LINE
8
Layer 1
10
3.986690
20
55.541200
11
3.986690
21
40.911200
0
LINE
8
Layer 1
10
3.986690
20
40.911200
11
0.986687
21
40.911200
0
LINE
8
Layer 1
10
0.986687
20
40.911200
11
0.986687
21
33.226200
0
LINE
8
Layer 1
10
0.986687
20
33.226200
11
8.671690
21
33.226200
0
LINE
8
Layer 1
10
8.671690
20
33.226200
11
8.671690
21
36.226200
0
LINE
8
Layer 1
10
8.671690
20
36.226200
11
23.301700
21
36.226200
0
LINE
8
Layer 1
10
23.301700
20
36.226200
11
23.301700
21
33.226200
0
LINE
8
Layer 1
10
23.301700
20
33.226200
11
30.986700
21
33.226200
0
LINE
8
Layer 1
10
30.986700
20
33.226200
11
30.986700
21
40.911200
0
LINE
8
Layer 1
10
30.986700
20
40.911200
11
27.986700
21
40.911200
0
LINE
8
Layer 1
10
27.986700
20
40.911200
11
27.986700
21
55.541200
0
LINE
8
Layer 1
10
27.986700
20
55.541200
11
30.986700
21
55.541200
0
LINE
8
Layer 1
10
30.986700
20
55.541200
11
30.986700
21
63.226200
0
LINE
8
Layer 1
10
30.986700
20
63.226200
11
23.301700
21
63.226200
0
LINE
8
Layer 1
10
23.301700
20
63.226200
11
23.301700
21
60.226200
0
LINE
8
Layer 1
10
23.301700
20
60.226200
11
8.671690
21
60.226200
0
LINE
8
Layer 1
10
8.671690
20
60.226200
11
8.671690
21
63.226200
0
LINE
8
Layer 1
10
8.671690
20
63.226200
11
0.986687
21
63.226200
0
LINE
8
Layer 1
10
35.610500
20
64.542900
11
35.610500
21
56.857900
0
LINE
8
Layer 1
10
35.610500
20
56.857900
11
32.610500
21
56.857900
0
LINE
8
Layer 1
10
32.610500
20
56.857900
11
32.610500
21
42.227900
0
LINE
8
Layer 1
10
32.610500
20
42.227900
11
35.610500
21
42.227900
0
LINE
8
Layer 1
10
35.610500
20
42.227900
11
35.610500
21
34.542900
0
LINE
8
Layer 1
10
35.610500
20
34.542900
11
40.295500
21
34.542900
0
LINE
8
Layer 1
10
40.295500
20
34.542900
11
40.295500
21
37.542900
0
LINE
8
Layer 1
10
40.295500
20
37.542900
11
54.925500
21
37.542900
0
LINE
8
Layer 1
10
54.925500
20
37.542900
11
54.925500
21
34.542900
0
LINE
8
Layer 1
10
54.925500
20
34.542900
11
59.610500
21
34.542900
0
LINE
8
Layer 1
10
59.610500
20
34.542900
11
59.610500
21
42.227900
0
LINE
8
Layer 1
10
59.610500
20
42.227900
11
62.610500
21
42.227900
0
LINE
8
Layer 1
10
62.610500
20
42.227900
11
62.610500
21
56.857900
0
LINE
8
Layer 1
10
62.610500
20
56.857900
11
59.610500
21
56.857900
0
LINE
8
Layer 1
10
59.610500
20
56.857900
11
59.610500
21
64.542900
0
LINE
8
Layer 1
10
59.610500
20
64.542900
11
54.925500
21
64.542900
0
LINE
8
Layer 1
10
54.925500
20
64.542900
11
54.925500
21
61.542900
0
LINE
8
Layer 1
10
54.925500
20
61.542900
11
40.295500
21
61.542900
0
LINE
8
Layer 1
10
40.295500
20
61.542900
11
40.295500
21
64.542900
0
LINE
8
Layer 1
10
40.295500
20
64.542900
11
35.610500
21
64.542900
0
LINE
8
Layer 1
10
69.857200
20
60.798700
11
69.857200
21
56.113700
0
LINE
8
Layer 1
10
69.857200
20
56.113700
11
66.857200
21
56.113700
0
LINE
8
Layer 1
10
66.857200
20
56.113700
11
66.857200
21
41.483700
0
LINE
8
Layer 1
10
66.857200
20
41.483700
11
69.857200
21
41.483700
0
LINE
8
Layer 1
10
69.857200
20
41.483700
11
69.857200
21
36.798700
0
LINE
8
Layer 1
10
69.857200
20
36.798700
11
74.542200
21
36.798700
0
LINE
8
Layer 1
10
74.542200
20
36.798700
11
74.542200
21
33.798700
0
LINE
8
Layer 1
10
74.542200
20
33.798700
11
89.172200
21
33.798700
0
LINE
8
Layer 1
10
89.172200
20
33.798700
11
89.172200
21
36.798700
0
LINE
8
Layer 1
10
89.172200
20
36.798700
11
93.857200
21
36.798700
0
LINE
8
Layer 1
10
93.857200
20
36.798700
11
93.857200
21
41.483700
0
LINE
8
Layer 1
10
93.857200
20
41.483700
11
96.857200
21
41.483700
0
LINE
8
Layer 1
10
96.857200
20
41.483700
11
96.857200
21
56.113700
0
LINE
8
Layer 1
10
96.857200
20
56.113700
11
93.857200
21
56.113700
0
LINE
8
Layer 1
10
93.857200
20
56.113700
11
93.857200
21
60.798700
0
LINE
8
Layer 1
10
93.857200
20
60.798700
11
89.172200
21
60.798700
0
LINE
8
Layer 1
10
89.172200
20
60.798700
11
89.172200
21
63.798700
0
LINE
8
Layer 1
10
89.172200
20
63.798700
11
74.542200
21
63.798700
0
LINE
8
Layer 1
10
74.542200
20
63.798700
11
74.542200
21
60.798700
0
LINE
8
Layer 1
10
74.542200
20
60.798700
11
69.857200
21
60.798700
 0 
ENDSEC
 0 
EOF