999
"DXF R12 Output" (www.mydxf.blogspot.com)
 0 
SECTION
 2 
HEADER
 9 
$ACADVER
 1 
AC1009
 9 
$EXTMIN
 10 
 0 
 20 
 0 
 9 
$EXTMAX
 10 
 8.5 
 20 
 11 
 0 
ENDSEC
 0 
SECTION
 2 
ENTITIES
0
LINE
8
Layer 1
10
0.062910
20
30.572200
11
0.062910
21
22.887200
0
LINE
8
Layer 1
10
0.062910
20
22.887200
11
3.062910
21
22.887200
0
LINE
8
Layer 1
10
3.062910
20
22.887200
11
3.062910
21
8.257230
0
LINE
8
Layer 1
10
3.062910
20
8.257230
11
0.062910
21
8.257230
0
LINE
8
Layer 1
10
0.062910
20
8.257230
11
0.062910
21
0.572229
0
LINE
8
Layer 1
10
0.062910
20
0.572229
11
7.747910
21
0.572229
0
LINE
8
Layer 1
10
7.747910
20
0.572229
11
7.747910
21
3.572230
0
LINE
8
Layer 1
10
7.747910
20
3.572230
11
22.377900
21
3.572230
0
LINE
8
Layer 1
10
22.377900
20
3.572230
11
22.377900
21
0.572229
0
LINE
8
Layer 1
10
22.377900
20
0.572229
11
30.062900
21
0.572229
0
LINE
8
Layer 1
10
30.062900
20
0.572229
11
30.062900
21
8.257230
0
LINE
8
Layer 1
10
30.062900
20
8.257230
11
27.062900
21
8.257230
0
LINE
8
Layer 1
10
27.062900
20
8.257230
11
27.062900
21
22.887200
0
LINE
8
Layer 1
10
27.062900
20
22.887200
11
30.062900
21
22.887200
0
LINE
8
Layer 1
10
30.062900
20
22.887200
11
30.062900
21
30.572200
0
LINE
8
Layer 1
10
30.062900
20
30.572200
11
22.377900
21
30.572200
0
LINE
8
Layer 1
10
22.377900
20
30.572200
11
22.377900
21
27.572200
0
LINE
8
Layer 1
10
22.377900
20
27.572200
11
7.747910
21
27.572200
0
LINE
8
Layer 1
10
7.747910
20
27.572200
11
7.747910
21
30.572200
0
LINE
8
Layer 1
10
7.747910
20
30.572200
11
0.062910
21
30.572200
0
LINE
8
Layer 1
10
36.350100
20
30.250000
11
36.350100
21
22.565000
0
LINE
8
Layer 1
10
36.350100
20
22.565000
11
33.350100
21
22.565000
0
LINE
8
Layer 1
10
33.350100
20
22.565000
11
33.350100
21
7.935000
0
LINE
8
Layer 1
10
33.350100
20
7.935000
11
36.350100
21
7.935000
0
LINE
8
Layer 1
10
36.350100
20
7.935000
11
36.350100
21
0.250002
0
LINE
8
Layer 1
10
36.350100
20
0.250002
11
41.035100
21
0.250002
0
LINE
8
Layer 1
10
41.035100
20
0.250002
11
41.035100
21
3.250000
0
LINE
8
Layer 1
10
41.035100
20
3.250000
11
55.665100
21
3.250000
0
LINE
8
Layer 1
10
55.665100
20
3.250000
11
55.665100
21
0.250002
0
LINE
8
Layer 1
10
55.665100
20
0.250002
11
60.350100
21
0.250002
0
LINE
8
Layer 1
10
60.350100
20
0.250002
11
60.350100
21
7.935000
0
LINE
8
Layer 1
10
60.350100
20
7.935000
11
63.350100
21
7.935000
0
LINE
8
Layer 1
10
63.350100
20
7.935000
11
63.350100
21
22.565000
0
LINE
8
Layer 1
10
63.350100
20
22.565000
11
60.350100
21
22.565000
0
LINE
8
Layer 1
10
60.350100
20
22.565000
11
60.350100
21
30.250000
0
LINE
8
Layer 1
10
60.350100
20
30.250000
11
55.665100
21
30.250000
0
LINE
8
Layer 1
10
55.665100
20
30.250000
11
55.665100
21
27.250000
0
LINE
8
Layer 1
10
55.665100
20
27.250000
11
41.035100
21
27.250000
0
LINE
8
Layer 1
10
41.035100
20
27.250000
11
41.035100
21
30.250000
0
LINE
8
Layer 1
10
41.035100
20
30.250000
11
36.350100
21
30.250000
0
LINE
8
Layer 1
10
69.857200
20
27.798700
11
69.857200
21
23.113700
0
LINE
8
Layer 1
10
69.857200
20
23.113700
11
66.857200
21
23.113700
0
LINE
8
Layer 1
10
66.857200
20
23.113700
11
66.857200
21
8.483700
0
LINE
8
Layer 1
10
66.857200
20
8.483700
11
69.857200
21
8.483700
0
LINE
8
Layer 1
10
69.857200
20
8.483700
11
69.857200
21
3.798700
0
LINE
8
Layer 1
10
69.857200
20
3.798700
11
74.542200
21
3.798700
0
LINE
8
Layer 1
10
74.542200
20
3.798700
11
74.542200
21
0.798700
0
LINE
8
Layer 1
10
74.542200
20
0.798700
11
89.172200
21
0.798700
0
LINE
8
Layer 1
10
89.172200
20
0.798700
11
89.172200
21
3.798700
0
LINE
8
Layer 1
10
89.172200
20
3.798700
11
93.857200
21
3.798700
0
LINE
8
Layer 1
10
93.857200
20
3.798700
11
93.857200
21
8.483700
0
LINE
8
Layer 1
10
93.857200
20
8.483700
11
96.857200
21
8.483700
0
LINE
8
Layer 1
10
96.857200
20
8.483700
11
96.857200
21
23.113700
0
LINE
8
Layer 1
10
96.857200
20
23.113700
11
93.857200
21
23.113700
0
LINE
8
Layer 1
10
93.857200
20
23.113700
11
93.857200
21
27.798700
0
LINE
8
Layer 1
10
93.857200
20
27.798700
11
89.172200
21
27.798700
0
LINE
8
Layer 1
10
89.172200
20
27.798700
11
89.172200
21
30.798700
0
LINE
8
Layer 1
10
89.172200
20
30.798700
11
74.542200
21
30.798700
0
LINE
8
Layer 1
10
74.542200
20
30.798700
11
74.542200
21
27.798700
0
LINE
8
Layer 1
10
74.542200
20
27.798700
11
69.857200
21
27.798700
0
LINE
8
Layer 1
10
0.831425
20
64.043900
11
0.831425
21
56.358900
0
LINE
8
Layer 1
10
0.831425
20
56.358900
11
3.831420
21
56.358900
0
LINE
8
Layer 1
10
3.831420
20
56.358900
11
3.831420
21
41.728900
0
LINE
8
Layer 1
10
3.831420
20
41.728900
11
0.831425
21
41.728900
0
LINE
8
Layer 1
10
0.831425
20
41.728900
11
0.831425
21
34.043900
0
LINE
8
Layer 1
10
0.831425
20
34.043900
11
8.516420
21
34.043900
0
LINE
8
Layer 1
10
8.516420
20
34.043900
11
8.516420
21
37.043900
0
LINE
8
Layer 1
10
8.516420
20
37.043900
11
23.146400
21
37.043900
0
LINE
8
Layer 1
10
23.146400
20
37.043900
11
23.146400
21
34.043900
0
LINE
8
Layer 1
10
23.146400
20
34.043900
11
30.831400
21
34.043900
0
LINE
8
Layer 1
10
30.831400
20
34.043900
11
30.831400
21
41.728900
0
LINE
8
Layer 1
10
30.831400
20
41.728900
11
27.831400
21
41.728900
0
LINE
8
Layer 1
10
27.831400
20
41.728900
11
27.831400
21
56.358900
0
LINE
8
Layer 1
10
27.831400
20
56.358900
11
30.831400
21
56.358900
0
LINE
8
Layer 1
10
30.831400
20
56.358900
11
30.831400
21
64.043900
0
LINE
8
Layer 1
10
30.831400
20
64.043900
11
23.146400
21
64.043900
0
LINE
8
Layer 1
10
23.146400
20
64.043900
11
23.146400
21
61.043900
0
LINE
8
Layer 1
10
23.146400
20
61.043900
11
8.516420
21
61.043900
0
LINE
8
Layer 1
10
8.516420
20
61.043900
11
8.516420
21
64.043900
0
LINE
8
Layer 1
10
8.516420
20
64.043900
11
0.831425
21
64.043900
0
LINE
8
Layer 1
10
35.966500
20
64.542900
11
35.966500
21
56.857900
0
LINE
8
Layer 1
10
35.966500
20
56.857900
11
32.966500
21
56.857900
0
LINE
8
Layer 1
10
32.966500
20
56.857900
11
32.966500
21
42.227900
0
LINE
8
Layer 1
10
32.966500
20
42.227900
11
35.966500
21
42.227900
0
LINE
8
Layer 1
10
35.966500
20
42.227900
11
35.966500
21
34.542900
0
LINE
8
Layer 1
10
35.966500
20
34.542900
11
40.651500
21
34.542900
0
LINE
8
Layer 1
10
40.651500
20
34.542900
11
40.651500
21
37.542900
0
LINE
8
Layer 1
10
40.651500
20
37.542900
11
55.281500
21
37.542900
0
LINE
8
Layer 1
10
55.281500
20
37.542900
11
55.281500
21
34.542900
0
LINE
8
Layer 1
10
55.281500
20
34.542900
11
59.966500
21
34.542900
0
LINE
8
Layer 1
10
59.966500
20
34.542900
11
59.966500
21
42.227900
0
LINE
8
Layer 1
10
59.966500
20
42.227900
11
62.966500
21
42.227900
0
LINE
8
Layer 1
10
62.966500
20
42.227900
11
62.966500
21
56.857900
0
LINE
8
Layer 1
10
62.966500
20
56.857900
11
59.966500
21
56.857900
0
LINE
8
Layer 1
10
59.966500
20
56.857900
11
59.966500
21
64.542900
0
LINE
8
Layer 1
10
59.966500
20
64.542900
11
55.281500
21
64.542900
0
LINE
8
Layer 1
10
55.281500
20
64.542900
11
55.281500
21
61.542900
0
LINE
8
Layer 1
10
55.281500
20
61.542900
11
40.651500
21
61.542900
0
LINE
8
Layer 1
10
40.651500
20
61.542900
11
40.651500
21
64.542900
0
LINE
8
Layer 1
10
40.651500
20
64.542900
11
35.966500
21
64.542900
0
LINE
8
Layer 1
10
69.857200
20
60.798700
11
69.857200
21
56.113700
0
LINE
8
Layer 1
10
69.857200
20
56.113700
11
66.857200
21
56.113700
0
LINE
8
Layer 1
10
66.857200
20
56.113700
11
66.857200
21
41.483700
0
LINE
8
Layer 1
10
66.857200
20
41.483700
11
69.857200
21
41.483700
0
LINE
8
Layer 1
10
69.857200
20
41.483700
11
69.857200
21
36.798700
0
LINE
8
Layer 1
10
69.857200
20
36.798700
11
74.542200
21
36.798700
0
LINE
8
Layer 1
10
74.542200
20
36.798700
11
74.542200
21
33.798700
0
LINE
8
Layer 1
10
74.542200
20
33.798700
11
89.172200
21
33.798700
0
LINE
8
Layer 1
10
89.172200
20
33.798700
11
89.172200
21
36.798700
0
LINE
8
Layer 1
10
89.172200
20
36.798700
11
93.857200
21
36.798700
0
LINE
8
Layer 1
10
93.857200
20
36.798700
11
93.857200
21
41.483700
0
LINE
8
Layer 1
10
93.857200
20
41.483700
11
96.857200
21
41.483700
0
LINE
8
Layer 1
10
96.857200
20
41.483700
11
96.857200
21
56.113700
0
LINE
8
Layer 1
10
96.857200
20
56.113700
11
93.857200
21
56.113700
0
LINE
8
Layer 1
10
93.857200
20
56.113700
11
93.857200
21
60.798700
0
LINE
8
Layer 1
10
93.857200
20
60.798700
11
89.172200
21
60.798700
0
LINE
8
Layer 1
10
89.172200
20
60.798700
11
89.172200
21
63.798700
0
LINE
8
Layer 1
10
89.172200
20
63.798700
11
74.542200
21
63.798700
0
LINE
8
Layer 1
10
74.542200
20
63.798700
11
74.542200
21
60.798700
0
LINE
8
Layer 1
10
74.542200
20
60.798700
11
69.857200
21
60.798700
 0 
ENDSEC
 0 
EOF